<svg width="130" height="129" viewBox="0 0 130 129" fill="none" xmlns="http://www.w3.org/2000/svg">
<g style="mix-blend-mode:luminosity">
<path fill-rule="evenodd" clip-rule="evenodd" d="M129.333 90.9932C129.316 91.9125 128.688 92.8334 127.449 93.539L69.2071 126.514C66.4162 127.915 63.1281 127.915 60.3373 126.514L3.14675 93.539C1.92923 92.8319 1.32874 91.9125 1.33352 90.9932V83.1565H6.55801V86.52L61.3891 55.476C64.1842 54.0703 67.4794 54.0703 70.2746 55.476L124.109 86.4737V83.1565H129.333V90.9404C129.334 90.9494 129.334 90.9583 129.333 90.9673V90.9932H129.333Z" fill="#0D1824"/>
<path fill-rule="evenodd" clip-rule="evenodd" d="M129.333 90.9932C129.316 91.9125 128.688 92.8334 127.449 93.539L69.2071 126.514C66.4162 127.915 63.1281 127.915 60.3373 126.514L3.14675 93.539C1.92923 92.8319 1.32874 91.9125 1.33352 90.9932V83.1565H6.55801V86.52L61.3891 55.476C64.1842 54.0703 67.4794 54.0703 70.2746 55.476L124.109 86.4737V83.1565H129.333V90.9404C129.334 90.9494 129.334 90.9583 129.333 90.9673V90.9932H129.333Z" fill="url(#paint0_linear_737_872)"/>
<path d="M127.449 93.539L127.696 93.9741L127.697 93.9734L127.449 93.539ZM129.333 90.9932V90.4932H128.843L128.833 90.9837L129.333 90.9932ZM69.2071 126.514L69.4313 126.961L69.4425 126.956L69.4534 126.949L69.2071 126.514ZM60.3373 126.514L60.0875 126.947L60.1001 126.955L60.113 126.961L60.3373 126.514ZM3.14675 93.539L2.89563 93.9713L2.897 93.9721L3.14675 93.539ZM1.33352 90.9932L1.83352 90.9958V90.9932H1.33352ZM1.33352 83.1565V82.6565H0.833524V83.1565H1.33352ZM6.55801 83.1565H7.05801V82.6565H6.55801V83.1565ZM6.55801 86.52H6.05801V87.3776L6.80436 86.9551L6.55801 86.52ZM61.3891 55.476L61.1644 55.0293L61.1534 55.0349L61.1427 55.0409L61.3891 55.476ZM70.2746 55.476L70.5241 55.0427L70.5118 55.0357L70.4992 55.0293L70.2746 55.476ZM124.109 86.4737L123.859 86.907L124.609 87.3386V86.4737H124.109ZM124.109 83.1565V82.6565H123.609V83.1565H124.109ZM129.333 83.1565H129.833V82.6565H129.333V83.1565ZM129.333 90.9404H128.833L128.833 90.9438L129.333 90.9404ZM129.333 90.9673L128.833 90.9639V90.9673H129.333ZM129.333 90.9932V91.4932H129.833V90.9932H129.333ZM127.697 93.9734C129.023 93.2178 129.811 92.1623 129.833 91.0027L128.833 90.9837C128.82 91.6626 128.353 92.4489 127.202 93.1045L127.697 93.9734ZM69.4534 126.949L127.696 93.9741L127.203 93.1039L68.9607 126.079L69.4534 126.949ZM60.113 126.961C63.045 128.432 66.4993 128.432 69.4313 126.961L68.9828 126.067C66.3331 127.397 63.2112 127.397 60.5615 126.067L60.113 126.961ZM2.897 93.9721L60.0875 126.947L60.587 126.081L3.3965 93.1058L2.897 93.9721ZM0.833531 90.9906C0.827485 92.152 1.58678 93.2112 2.89564 93.9713L3.39786 93.1066C2.27168 92.4525 1.82999 91.6729 1.83352 90.9958L0.833531 90.9906ZM0.833524 83.1565V90.9932H1.83352V83.1565H0.833524ZM6.55801 82.6565H1.33352V83.6565H6.55801V82.6565ZM7.05801 86.52V83.1565H6.05801V86.52H7.05801ZM61.1427 55.0409L6.31167 86.0849L6.80436 86.9551L61.6354 55.9111L61.1427 55.0409ZM70.4992 55.0293C67.5628 53.5526 64.1009 53.5526 61.1644 55.0293L61.6137 55.9227C64.2675 54.5881 67.3961 54.5881 70.0499 55.9227L70.4992 55.0293ZM124.358 86.0404L70.5241 55.0427L70.0251 55.9093L123.859 86.907L124.358 86.0404ZM124.609 86.4737V83.1565H123.609V86.4737H124.609ZM124.109 83.6565H129.333V82.6565H124.109V83.6565ZM128.833 83.1565V90.9404H129.833V83.1565H128.833ZM129.833 90.9707C129.834 90.9595 129.834 90.9483 129.833 90.937L128.833 90.9438C128.834 90.9505 128.834 90.9572 128.833 90.9639L129.833 90.9707ZM128.833 90.9673V90.9932H129.833V90.9673H128.833ZM129.333 90.4932H129.333V91.4932H129.333V90.4932Z" fill="#8354C0"/>
<path d="M127.544 80.6146C129.961 82.0121 129.93 84.289 127.449 85.7022L69.207 118.678C66.4162 120.078 63.1281 120.078 60.3372 118.678L3.14672 85.7022C0.713415 84.289 0.744813 82.0279 3.14672 80.6146L61.389 47.6393C64.1842 46.2336 67.4794 46.2336 70.2745 47.6393L127.544 80.6146Z" fill="#0D1824"/>
<path d="M127.544 80.6146C129.961 82.0121 129.93 84.289 127.449 85.7022L69.207 118.678C66.4162 120.078 63.1281 120.078 60.3372 118.678L3.14672 85.7022C0.713415 84.289 0.744813 82.0279 3.14672 80.6146L61.389 47.6393C64.1842 46.2336 67.4794 46.2336 70.2745 47.6393L127.544 80.6146Z" fill="url(#paint1_linear_737_872)"/>
<path d="M127.544 80.6146C129.961 82.0121 129.93 84.289 127.449 85.7022L69.207 118.678C66.4162 120.078 63.1281 120.078 60.3372 118.678L3.14672 85.7022C0.713415 84.289 0.744813 82.0279 3.14672 80.6146L61.389 47.6393C64.1842 46.2336 67.4794 46.2336 70.2745 47.6393L127.544 80.6146Z" stroke="#8354C0"/>
<g opacity="0.7">
<path d="M109.832 82.6828L65.5254 108.366L20.9253 82.6828L65.232 57.0096L109.832 82.6828Z" fill="#0D1824"/>
<path d="M109.832 82.6828L65.5254 108.366L20.9253 82.6828L65.232 57.0096L109.832 82.6828Z" fill="url(#paint2_linear_737_872)"/>
</g>
<path d="M87.9408 65.1694L65.5268 78.1409L42.9644 65.1694L65.3783 52.2031L87.9408 65.1694Z" fill="#0D1824"/>
<path d="M87.9408 65.1694L65.5268 78.1409L42.9644 65.1694L65.3783 52.2031L87.9408 65.1694Z" fill="url(#paint3_linear_737_872)"/>
<path fill-rule="evenodd" clip-rule="evenodd" d="M65.5254 103.142L20.957 77.4766L20.9451 77.4749V77.4697L20.9253 77.4583L20.9451 77.4468V72.2338L26.995 71.795V73.9413L65.232 51.7851L105.362 74.8853V71.795L109.831 72.243V77.446L109.807 77.4437L109.832 77.4583L65.5254 103.142Z" fill="#0D1824"/>
<path fill-rule="evenodd" clip-rule="evenodd" d="M65.5254 103.142L20.957 77.4766L20.9451 77.4749V77.4697L20.9253 77.4583L20.9451 77.4468V72.2338L26.995 71.795V73.9413L65.232 51.7851L105.362 74.8853V71.795L109.831 72.243V77.446L109.807 77.4437L109.832 77.4583L65.5254 103.142Z" fill="url(#paint4_linear_737_872)"/>
<path d="M109.832 72.2338L65.5254 97.9174L20.9253 72.2338L65.232 46.5606L109.832 72.2338Z" fill="#0D1824"/>
<path d="M109.832 72.2338L65.5254 97.9174L20.9253 72.2338L65.232 46.5606L109.832 72.2338Z" fill="url(#paint5_linear_737_872)"/>
<path d="M109.832 72.2338L65.5254 97.9174L20.9253 72.2338L65.232 46.5606L109.832 72.2338Z" stroke="#FD932A"/>
<g filter="url(#filter0_i_737_872)">
<path d="M87.732 72.353L65.318 85.3245L42.7556 72.353L65.1696 59.3868L87.732 72.353Z" fill="#0D1824"/>
<path d="M87.732 72.353L65.318 85.3245L42.7556 72.353L65.1696 59.3868L87.732 72.353Z" fill="url(#paint6_linear_737_872)"/>
</g>
<path d="M87.732 12.9662L65.318 25.9377L42.7556 12.9662L65.1696 0L87.732 12.9662Z" fill="#0D1824"/>
<path d="M87.732 12.9662L65.318 25.9377L42.7556 12.9662L65.1696 0L87.732 12.9662Z" fill="url(#paint7_linear_737_872)"/>
<path d="M87.6579 38.7773L65.2439 51.7435V25.9522L87.7321 12.9662L87.6579 38.7773Z" fill="#0D1824"/>
<path d="M87.6579 38.7773L65.2439 51.7435V25.9522L87.7321 12.9662L87.6579 38.7773Z" fill="url(#paint8_linear_737_872)"/>
<path d="M65.318 25.9377L65.2438 51.7435L42.6814 38.7773L42.7556 12.9662L65.318 25.9377Z" fill="#0D1824"/>
<path d="M65.318 25.9377L65.2438 51.7435L42.6814 38.7773L42.7556 12.9662L65.318 25.9377Z" fill="url(#paint9_linear_737_872)"/>
<path d="M76.819 19.2966L65.2918 25.9405L53.6882 19.2966L65.2154 12.6553L76.819 19.2966Z" fill="url(#paint10_linear_737_872)"/>
<path d="M76.7811 32.5169L65.2539 39.1581V25.9479L76.8193 19.2966L76.7811 32.5169Z" fill="url(#paint11_linear_737_872)"/>
<path d="M65.2918 25.9405L65.2537 39.1581L53.6501 32.5169L53.6883 19.2966L65.2918 25.9405Z" fill="url(#paint12_linear_737_872)"/>
<path fill-rule="evenodd" clip-rule="evenodd" d="M42.9258 72.3906L65.2964 85.4169L87.3871 72.3906V38.992L65.2964 51.7662L42.9258 38.992V72.3906Z" stroke="#00FFF2" stroke-opacity="0.698794" stroke-width="1.02041" stroke-linecap="round" stroke-linejoin="round" stroke-dasharray="3.27 3.27"/>
<path fill-rule="evenodd" clip-rule="evenodd" d="M87.6082 55.8602C89.3444 55.8602 90.752 54.4568 90.752 52.7256C90.752 50.9943 89.3444 49.5909 87.6082 49.5909C85.8719 49.5909 84.4644 50.9943 84.4644 52.7256C84.4644 54.4568 85.8719 55.8602 87.6082 55.8602Z" fill="url(#paint13_radial_737_872)"/>
<path fill-rule="evenodd" clip-rule="evenodd" d="M43.2 65.0031C44.9362 65.0031 46.3438 63.5996 46.3438 61.8684C46.3438 60.1372 44.9362 58.7337 43.2 58.7337C41.4637 58.7337 40.0562 60.1372 40.0562 61.8684C40.0562 63.5996 41.4637 65.0031 43.2 65.0031Z" fill="url(#paint14_radial_737_872)"/>
<path d="M65.1986 51.7053L65.1897 84.2731" stroke="#00FFF2" stroke-opacity="0.698794" stroke-width="1.02041" stroke-linecap="round" stroke-linejoin="round" stroke-dasharray="3.27 3.27"/>
<path fill-rule="evenodd" clip-rule="evenodd" d="M65.1428 88.5133C66.8791 88.5133 68.2866 87.1099 68.2866 85.3786C68.2866 83.6474 66.8791 82.2439 65.1428 82.2439C63.4066 82.2439 61.999 83.6474 61.999 85.3786C61.999 87.1099 63.4066 88.5133 65.1428 88.5133Z" fill="url(#paint15_radial_737_872)"/>
</g>
<defs>
<filter id="filter0_i_737_872" x="42.7556" y="59.3868" width="44.9763" height="25.9377" filterUnits="userSpaceOnUse" color-interpolation-filters="sRGB">
<feFlood flood-opacity="0" result="BackgroundImageFix"/>
<feBlend mode="normal" in="SourceGraphic" in2="BackgroundImageFix" result="shape"/>
<feColorMatrix in="SourceAlpha" type="matrix" values="0 0 0 0 0 0 0 0 0 0 0 0 0 0 0 0 0 0 127 0" result="hardAlpha"/>
<feOffset dy="8.16327"/>
<feComposite in2="hardAlpha" operator="arithmetic" k2="-1" k3="1"/>
<feColorMatrix type="matrix" values="0 0 0 0 0.992157 0 0 0 0 0.576471 0 0 0 0 0.164706 0 0 0 1 0"/>
<feBlend mode="normal" in2="shape" result="effect1_innerShadow_737_872"/>
</filter>
<linearGradient id="paint0_linear_737_872" x1="65.3335" y1="54.4218" x2="65.3335" y2="127.565" gradientUnits="userSpaceOnUse">
<stop stop-opacity="0"/>
<stop offset="1" stop-color="#183C4B"/>
</linearGradient>
<linearGradient id="paint1_linear_737_872" x1="65.3335" y1="46.585" x2="65.3335" y2="119.728" gradientUnits="userSpaceOnUse">
<stop stop-opacity="0"/>
<stop offset="1" stop-color="#183C4B"/>
</linearGradient>
<linearGradient id="paint2_linear_737_872" x1="65.3787" y1="57.0096" x2="65.3787" y2="108.366" gradientUnits="userSpaceOnUse">
<stop stop-opacity="0"/>
<stop offset="1" stop-color="#183C4B"/>
</linearGradient>
<linearGradient id="paint3_linear_737_872" x1="65.4526" y1="52.2031" x2="65.4526" y2="78.1409" gradientUnits="userSpaceOnUse">
<stop stop-opacity="0"/>
<stop offset="1" stop-color="#183C4B"/>
</linearGradient>
<linearGradient id="paint4_linear_737_872" x1="65.3787" y1="51.7851" x2="65.3787" y2="103.142" gradientUnits="userSpaceOnUse">
<stop stop-opacity="0"/>
<stop offset="1" stop-color="#183C4B"/>
</linearGradient>
<linearGradient id="paint5_linear_737_872" x1="65.3787" y1="46.5606" x2="65.3787" y2="97.9174" gradientUnits="userSpaceOnUse">
<stop stop-opacity="0"/>
<stop offset="1" stop-color="#183C4B"/>
</linearGradient>
<linearGradient id="paint6_linear_737_872" x1="65.2438" y1="59.3868" x2="65.2438" y2="85.3245" gradientUnits="userSpaceOnUse">
<stop stop-opacity="0"/>
<stop offset="1" stop-color="#183C4B"/>
</linearGradient>
<linearGradient id="paint7_linear_737_872" x1="65.2438" y1="0" x2="65.2438" y2="25.9377" gradientUnits="userSpaceOnUse">
<stop stop-opacity="0"/>
<stop offset="1" stop-color="#183C4B"/>
</linearGradient>
<linearGradient id="paint8_linear_737_872" x1="76.488" y1="12.9662" x2="76.488" y2="51.7435" gradientUnits="userSpaceOnUse">
<stop stop-opacity="0"/>
<stop offset="1" stop-color="#183C4B"/>
</linearGradient>
<linearGradient id="paint9_linear_737_872" x1="53.9997" y1="12.9662" x2="53.9997" y2="51.7435" gradientUnits="userSpaceOnUse">
<stop stop-opacity="0"/>
<stop offset="1" stop-color="#183C4B"/>
</linearGradient>
<linearGradient id="paint10_linear_737_872" x1="54.1063" y1="12.6553" x2="54.1063" y2="25.4603" gradientUnits="userSpaceOnUse">
<stop stop-color="#00E6DE"/>
<stop offset="1" stop-color="#64FAE9"/>
</linearGradient>
<linearGradient id="paint11_linear_737_872" x1="78.3749" y1="22.663" x2="66.4427" y2="20.4063" gradientUnits="userSpaceOnUse">
<stop stop-color="#00FFF2" stop-opacity="0.698794"/>
<stop offset="1" stop-color="#64FAE9"/>
</linearGradient>
<linearGradient id="paint12_linear_737_872" x1="55.5207" y1="42.2537" x2="67.9245" y2="39.9173" gradientUnits="userSpaceOnUse">
<stop stop-color="#00FFF2" stop-opacity="0.698794"/>
<stop offset="1" stop-color="#22A7F2" stop-opacity="0.4"/>
</linearGradient>
<radialGradient id="paint13_radial_737_872" cx="0" cy="0" r="1" gradientUnits="userSpaceOnUse" gradientTransform="translate(86.7752 52.0648) rotate(44.9344) scale(4.27882 4.2788)">
<stop stop-color="#EBF0FF"/>
<stop offset="1" stop-color="#4877FC"/>
</radialGradient>
<radialGradient id="paint14_radial_737_872" cx="0" cy="0" r="1" gradientUnits="userSpaceOnUse" gradientTransform="translate(42.367 61.2076) rotate(44.9344) scale(4.27882 4.2788)">
<stop stop-color="#EBF0FF"/>
<stop offset="1" stop-color="#4877FC"/>
</radialGradient>
<radialGradient id="paint15_radial_737_872" cx="0" cy="0" r="1" gradientUnits="userSpaceOnUse" gradientTransform="translate(64.3099 84.7179) rotate(44.9344) scale(4.27882 4.2788)">
<stop stop-color="#EBF0FF"/>
<stop offset="1" stop-color="#4877FC"/>
</radialGradient>
</defs>
</svg>
