<svg width="48" height="48" viewBox="0 0 48 48" fill="none" xmlns="http://www.w3.org/2000/svg">
<circle cx="31.0519" cy="7.75501" r="5.41133" transform="rotate(-156.6 31.0519 7.75501)" stroke="white"/>
<path d="M11.5671 37.9328C12.8622 34.94 20.1391 25.5578 22.8486 26.7303C25.5581 27.9028 23.7002 39.63 22.4051 42.6228C21.11 45.6156 17.6339 46.9919 14.6411 45.6967C11.6483 44.4016 10.272 40.9256 11.5671 37.9328Z" fill="white"/>
<path d="M38.1311 36.016C36.7084 35.4003 33.6622 33.2994 31.1041 30.9932C29.8295 29.8441 28.7044 28.6688 27.974 27.6296C27.6083 27.1092 27.3563 26.6434 27.2274 26.248C27.0978 25.8501 27.1091 25.5764 27.189 25.392C27.2688 25.2075 27.4605 25.0119 27.8393 24.834C28.2158 24.6573 28.7278 24.5222 29.3575 24.4325C30.6151 24.2535 32.242 24.2692 33.9522 24.4117C37.3845 24.6977 41.0012 25.4801 42.424 26.0958C45.1633 27.2812 46.4231 30.4629 45.2376 33.2023C44.0522 35.9417 40.8705 37.2014 38.1311 36.016Z" stroke="white"/>
<path d="M9.9104 12.0257C11.3331 12.6414 14.3793 14.7423 16.9374 17.0486C18.212 18.1977 19.3371 19.3729 20.0675 20.4122C20.4332 20.9326 20.6852 21.3983 20.8141 21.7937C20.9437 22.1917 20.9324 22.4653 20.8525 22.6498C20.7727 22.8342 20.581 23.0298 20.2022 23.2077C19.8257 23.3845 19.3137 23.5196 18.684 23.6092C17.4264 23.7882 15.7995 23.7725 14.0893 23.63C10.657 23.344 7.04026 22.5616 5.61755 21.9459C2.87816 20.7605 1.61844 17.5788 2.80388 14.8394C3.98932 12.1 7.17101 10.8403 9.9104 12.0257Z" stroke="white"/>
</svg>
