<svg width="1281" height="1379" viewBox="0 0 1281 1379" fill="none" xmlns="http://www.w3.org/2000/svg">
<g style="mix-blend-mode:luminosity">
<path opacity="0.4" d="M765.454 446.051L272.013 731.817L223.771 703.37L717.522 419L765.454 446.051Z" fill="url(#paint0_linear_978_475)"/>
<path opacity="0.6" d="M763.113 501.177L271.973 788.059V731.637L763.113 445.763L763.113 501.177Z" fill="url(#paint1_linear_978_475)"/>
<path d="M271.988 788.069L223.364 759.911L223.364 703.596L223.432 703.556L271.988 731.674V788.069Z" fill="url(#paint2_linear_978_475)"/>
<path d="M271.989 788.048V731.319L320.614 703.561V759.912L271.989 788.048Z" fill="url(#paint3_linear_978_475)"/>
<path d="M320.595 703.586L271.991 731.731L223.385 703.584L271.989 675.439L320.595 703.586Z" fill="url(#paint4_linear_978_475)"/>
</g>
<path opacity="0.547768" d="M26.7068 590.139L222.385 704.326L271.19 675.524L69.3754 558.943L26.7068 590.139Z" fill="url(#paint5_linear_978_475)"/>
<path opacity="0.547768" d="M0 630.88L222.422 761.272V704.145L48.6883 603.247L0 630.88Z" fill="url(#paint6_linear_978_475)"/>
<path opacity="0.547768" d="M506.453 863.372L310.775 749.185L261.969 777.988L463.784 894.568L506.453 863.372Z" fill="url(#paint7_linear_978_475)"/>
<path opacity="0.547768" d="M533.16 822.631L310.738 692.24V749.366L484.471 850.264L533.16 822.631Z" fill="url(#paint8_linear_978_475)"/>
<path fill-rule="evenodd" clip-rule="evenodd" d="M452.467 768.105L398.321 799.367V861.889L452.467 893.151L506.614 861.889V799.367L452.467 768.105Z" stroke="url(#paint9_linear_978_475)" stroke-width="1.04592"/>
<path fill-rule="evenodd" clip-rule="evenodd" d="M77.1138 557.231L22.9675 588.492V651.015L77.1138 682.276L131.26 651.015V588.492L77.1138 557.231Z" stroke="url(#paint10_linear_978_475)" stroke-width="1.04592"/>
<path fill-rule="evenodd" clip-rule="evenodd" d="M480.994 544.682L425.513 576.714V640.778L480.994 672.81L536.475 640.778V576.714L480.994 544.682Z" stroke="url(#paint11_linear_978_475)" stroke-width="1.04592"/>
<path d="M341.331 767.265L452.468 831.424L562.538 767.265" stroke="url(#paint12_linear_978_475)" stroke-width="1.04592" stroke-dasharray="1.05"/>
<path d="M366.757 543.821L480.953 609.313L594.054 543.821" stroke="url(#paint13_linear_978_475)" stroke-width="1.04592" stroke-dasharray="1.05"/>
<path d="M23.738 588.821L77.1099 619.641L199.412 548.755" stroke="url(#paint14_linear_978_475)" stroke-width="1.04592" stroke-dasharray="1.05"/>
<path d="M452.467 830.561V998.442" stroke="url(#paint15_linear_978_475)" stroke-width="1.04592" stroke-dasharray="1.05"/>
<path opacity="0.5" d="M864.674 1L42 475.971" stroke="url(#paint16_linear_978_475)" stroke-width="1.04592" stroke-dasharray="1.05"/>
<g style="mix-blend-mode:luminosity" opacity="0.5">
<path d="M833.674 313L11 787.971" stroke="url(#paint17_linear_978_475)" stroke-width="1.04592" stroke-dasharray="1.05"/>
</g>
<g style="mix-blend-mode:luminosity" opacity="0.5">
<path d="M11 670L833.674 1144.97" stroke="url(#paint18_linear_978_475)" stroke-width="1.04592" stroke-dasharray="1.05"/>
</g>
<g style="mix-blend-mode:luminosity" opacity="0.5">
<path d="M944.674 410L122 884.971" stroke="url(#paint19_linear_978_475)" stroke-width="1.04592" stroke-dasharray="1.05"/>
</g>
<g style="mix-blend-mode:luminosity" opacity="0.5">
<path d="M135 903L957.674 1377.97" stroke="url(#paint20_linear_978_475)" stroke-width="1.04592" stroke-dasharray="1.05"/>
</g>
<path opacity="0.5" d="M845.674 113L23 587.971" stroke="url(#paint21_linear_978_475)" stroke-width="1.04592" stroke-dasharray="1.05"/>
<path d="M899.674 207L77 681.971" stroke="url(#paint22_linear_978_475)" stroke-width="1.04592" stroke-dasharray="1.05"/>
<path d="M1108.67 389L286 863.971" stroke="url(#paint23_linear_978_475)" stroke-width="1.04592" stroke-dasharray="1.05"/>
<path d="M1143.67 495L321 969.971" stroke="url(#paint24_linear_978_475)" stroke-width="1.04592" stroke-dasharray="1.05"/>
<path d="M480.791 607.772L480.791 756.5" stroke="url(#paint25_linear_978_475)" stroke-width="1.04592" stroke-dasharray="1.05"/>
<path d="M76.9023 618.871V792" stroke="url(#paint26_linear_978_475)" stroke-width="1.04592" stroke-dasharray="1.05"/>
<path fill-rule="evenodd" clip-rule="evenodd" d="M412.986 709.951C412.947 711.987 411.556 714.027 408.813 715.59L279.796 788.636C273.614 791.738 266.33 791.738 260.148 788.636L133.46 715.59C130.763 714.024 129.433 711.987 129.444 709.951H129.444V692.591H141.017V700.042L262.478 631.274C268.669 628.16 275.969 628.16 282.16 631.274L401.414 699.939V692.591H412.987V709.951H412.986Z" fill="#0D1824"/>
<path fill-rule="evenodd" clip-rule="evenodd" d="M412.986 709.951C412.947 711.987 411.556 714.027 408.813 715.59L279.796 788.636C273.614 791.738 266.33 791.738 260.148 788.636L133.46 715.59C130.763 714.024 129.433 711.987 129.444 709.951H129.444V692.591H141.017V700.042L262.478 631.274C268.669 628.16 275.969 628.16 282.16 631.274L401.414 699.939V692.591H412.987V709.951H412.986Z" fill="url(#paint27_linear_978_475)"/>
<path d="M408.813 715.59L409.003 715.925L409.004 715.925L408.813 715.59ZM412.986 709.951V709.565H412.608L412.601 709.943L412.986 709.951ZM279.796 788.636L279.969 788.981L279.977 788.976L279.986 788.971L279.796 788.636ZM260.148 788.636L259.955 788.97L259.965 788.976L259.975 788.981L260.148 788.636ZM133.46 715.59L133.267 715.923L133.268 715.924L133.46 715.59ZM129.444 709.951L129.829 709.953L129.831 709.565H129.444V709.951ZM129.444 709.951H129.058V710.336H129.444V709.951ZM129.444 692.591V692.206H129.058V692.591H129.444ZM141.017 692.591H141.402V692.206H141.017V692.591ZM141.017 700.042H140.632V700.702L141.207 700.377L141.017 700.042ZM262.478 631.274L262.304 630.929L262.296 630.934L262.288 630.938L262.478 631.274ZM282.16 631.274L282.353 630.94L282.343 630.934L282.334 630.929L282.16 631.274ZM401.414 699.939L401.222 700.273L401.799 700.606V699.939H401.414ZM401.414 692.591V692.206H401.029V692.591H401.414ZM412.987 692.591H413.372V692.206H412.987V692.591ZM412.987 709.951V710.336H413.372V709.951H412.987ZM409.004 715.925C411.815 714.323 413.329 712.179 413.371 709.958L412.601 709.943C412.566 711.794 411.298 713.731 408.622 715.255L409.004 715.925ZM279.986 788.971L409.003 715.925L408.623 715.255L279.606 788.301L279.986 788.971ZM259.975 788.981C266.266 792.137 273.678 792.137 279.969 788.981L279.623 788.292C273.549 791.34 266.394 791.34 260.32 788.292L259.975 788.981ZM133.268 715.924L259.955 788.97L260.34 788.302L133.653 715.256L133.268 715.924ZM129.058 709.949C129.047 712.171 130.499 714.316 133.267 715.923L133.654 715.257C131.027 713.731 129.819 711.802 129.829 709.953L129.058 709.949ZM129.444 710.336H129.444V709.565H129.444V710.336ZM129.058 692.591V709.951H129.829V692.591H129.058ZM141.017 692.206H129.444V692.976H141.017V692.206ZM141.402 700.042V692.591H140.632V700.042H141.402ZM262.288 630.938L140.827 699.706L141.207 700.377L262.667 631.609L262.288 630.938ZM282.334 630.929C276.033 627.761 268.605 627.761 262.304 630.929L262.651 631.618C268.733 628.559 275.905 628.559 281.987 631.618L282.334 630.929ZM401.606 699.606L282.353 630.94L281.968 631.607L401.222 700.273L401.606 699.606ZM401.799 699.939V692.591H401.029V699.939H401.799ZM401.414 692.976H412.987V692.206H401.414V692.976ZM412.602 692.591V709.951H413.372V692.591H412.602ZM412.987 709.565H412.986V710.336H412.987V709.565Z" fill="#00FFF2" fill-opacity="0.698794"/>
<path d="M409.022 686.96C414.377 690.056 414.308 695.1 408.813 698.23L279.796 771.276C273.614 774.379 266.33 774.379 260.148 771.276L133.46 698.23C128.07 695.1 128.14 690.091 133.46 686.96L262.478 613.914C268.669 610.8 275.969 610.8 282.16 613.914L409.022 686.96Z" fill="#0D1824"/>
<path d="M409.022 686.96C414.377 690.056 414.308 695.1 408.813 698.23L279.796 771.276C273.614 774.379 266.33 774.379 260.148 771.276L133.46 698.23C128.07 695.1 128.14 690.091 133.46 686.96L262.478 613.914C268.669 610.8 275.969 610.8 282.16 613.914L409.022 686.96Z" fill="url(#paint28_linear_978_475)"/>
<path d="M409.022 686.96C414.377 690.056 414.308 695.1 408.813 698.23L279.796 771.276C273.614 774.379 266.33 774.379 260.148 771.276L133.46 698.23C128.07 695.1 128.14 690.091 133.46 686.96L262.478 613.914C268.669 610.8 275.969 610.8 282.16 613.914L409.022 686.96Z" stroke="#64FAE9" stroke-width="0.770498"/>
<g style="mix-blend-mode:luminosity">
<g opacity="0.7">
<path d="M271.675 694.502L222.024 723.236L172.044 694.502L221.695 665.78L271.675 694.502V694.502Z" fill="#0D1824"/>
<path d="M271.675 694.502L222.024 723.236L172.044 694.502L221.695 665.78L271.675 694.502V694.502Z" fill="url(#paint29_linear_978_475)"/>
</g>
<g opacity="0.7">
<path d="M347.464 707.109L321.929 721.827L296.225 707.109L321.76 692.398L347.464 707.109V707.109Z" fill="#0D1824"/>
<path d="M347.464 707.109L321.929 721.827L296.225 707.109L321.76 692.398L347.464 707.109V707.109Z" fill="url(#paint30_linear_978_475)"/>
</g>
<path d="M270.949 627.063L270.785 684.228L220.805 655.505L220.969 598.329L270.949 627.063V627.063Z" fill="#0D1824"/>
<path d="M270.949 627.063L270.785 684.228L220.805 655.505L220.969 598.329L270.949 627.063V627.063Z" fill="url(#paint31_linear_978_475)"/>
<path d="M271.675 626.313L222.024 655.047L172.044 626.313L221.695 597.59L271.675 626.313V626.313Z" fill="#0D1824"/>
<path d="M271.675 626.313L222.024 655.047L172.044 626.313L221.695 597.59L271.675 626.313V626.313Z" fill="url(#paint32_linear_978_475)"/>
<path d="M271.675 626.313L222.024 655.047L172.044 626.313L221.695 597.59L271.675 626.313V626.313Z" stroke="#8354C0" stroke-width="0.770498"/>
<path d="M271.51 683.489L221.859 712.212V655.079L271.674 626.313L271.51 683.489Z" fill="#0D1824"/>
<path d="M271.51 683.489L221.859 712.212V655.079L271.674 626.313L271.51 683.489Z" fill="url(#paint33_linear_978_475)"/>
<path d="M271.51 683.489L221.859 712.212V655.079L271.674 626.313L271.51 683.489Z" stroke="#8354C0" stroke-width="0.770498"/>
<path d="M222.023 655.047L221.859 712.212L171.879 683.489L172.043 626.313L222.023 655.047V655.047Z" fill="#0D1824"/>
<path d="M222.023 655.047L221.859 712.212L171.879 683.489L172.043 626.313L222.023 655.047V655.047Z" fill="url(#paint34_linear_978_475)"/>
<path d="M222.023 655.047L221.859 712.212L171.879 683.489L172.043 626.313L222.023 655.047V655.047Z" stroke="#8354C0" stroke-width="0.770498"/>
<path d="M247.356 553.739L221.821 568.457L196.117 553.739L221.652 539.028L247.356 553.739V553.739Z" fill="url(#paint35_linear_978_475)"/>
<path d="M247.271 583.025L221.736 597.736V568.473L247.356 553.739L247.271 583.025Z" fill="url(#paint36_linear_978_475)"/>
<path d="M221.821 568.457L221.737 597.736L196.033 583.025L196.117 553.739L221.821 568.457V568.457Z" fill="url(#paint37_linear_978_475)"/>
<path d="M371.493 569.315L321.842 598.049L271.862 569.315L321.513 540.592L371.493 569.315V569.315Z" fill="#0D1824"/>
<path d="M371.493 569.315L321.842 598.049L271.862 569.315L321.513 540.592L371.493 569.315V569.315Z" fill="url(#paint38_linear_978_475)"/>
<path d="M371.493 569.315L321.842 598.049L271.862 569.315L321.513 540.592L371.493 569.315V569.315Z" stroke="#FD932A" stroke-width="0.770498"/>
<path d="M371.329 626.491L321.678 655.214V598.081L371.493 569.315L371.329 626.491Z" fill="#0D1824"/>
<path d="M371.329 626.491L321.678 655.214V598.081L371.493 569.315L371.329 626.491Z" fill="url(#paint39_linear_978_475)"/>
<path d="M371.329 626.491L321.678 655.214V598.081L371.493 569.315L371.329 626.491Z" stroke="#FD932A" stroke-width="0.770498"/>
<path d="M321.842 598.049L321.678 655.214L271.698 626.491L271.862 569.315L321.842 598.049V598.049Z" fill="#0D1824"/>
<path d="M321.842 598.049L321.678 655.214L271.698 626.491L271.862 569.315L321.842 598.049V598.049Z" fill="url(#paint40_linear_978_475)"/>
<path d="M321.842 598.049L321.678 655.214L271.698 626.491L271.862 569.315L321.842 598.049V598.049Z" stroke="#FD932A" stroke-width="0.770498"/>
<path d="M347.464 669.847L321.929 684.565L296.225 669.847L321.76 655.136L347.464 669.847V669.847Z" fill="url(#paint41_linear_978_475)"/>
<path d="M347.379 699.133L321.844 713.844V684.581L347.463 669.847L347.379 699.133Z" fill="url(#paint42_linear_978_475)"/>
<path d="M321.929 684.565L321.844 713.844L296.14 699.133L296.225 669.847L321.929 684.565V684.565Z" fill="url(#paint43_linear_978_475)"/>
<path d="M271.862 626.369V683.247L322.015 655.219V655.219V598.205L271.862 569.49L221.581 597.54" stroke="#00FFF2" stroke-opacity="0.698794" stroke-width="0.786222" stroke-linecap="round" stroke-linejoin="round" stroke-dasharray="2.52 2.52"/>
<path d="M196.227 519.004V583.063L271.945 626.539L321.685 598.269" stroke="#00FFF2" stroke-opacity="0.698794" stroke-width="0.786222" stroke-linecap="round" stroke-linejoin="round" stroke-dasharray="2.52 2.52"/>
<path fill-rule="evenodd" clip-rule="evenodd" d="M196.261 517.643C200.107 517.643 203.225 514.534 203.225 510.699C203.225 506.864 200.107 503.755 196.261 503.755C192.415 503.755 189.297 506.864 189.297 510.699C189.297 514.534 192.415 517.643 196.261 517.643Z" fill="url(#paint44_radial_978_475)"/>
</g>
<defs>
<linearGradient id="paint0_linear_978_475" x1="492.513" y1="801.347" x2="666.859" y2="465.922" gradientUnits="userSpaceOnUse">
<stop stop-color="#FF8722"/>
<stop offset="1" stop-color="#F5903B" stop-opacity="0.01"/>
</linearGradient>
<linearGradient id="paint1_linear_978_475" x1="491.721" y1="904.734" x2="795.638" y2="525.419" gradientUnits="userSpaceOnUse">
<stop stop-color="#FF8722"/>
<stop offset="1" stop-color="#F5903B" stop-opacity="0.01"/>
</linearGradient>
<linearGradient id="paint2_linear_978_475" x1="264.431" y1="691.376" x2="212.762" y2="700.616" gradientUnits="userSpaceOnUse">
<stop stop-color="#64FAE8"/>
<stop offset="1" stop-color="#0D3E38"/>
</linearGradient>
<linearGradient id="paint3_linear_978_475" x1="310.93" y1="694.932" x2="261.937" y2="703.696" gradientUnits="userSpaceOnUse">
<stop stop-color="#F7811D"/>
<stop offset="1" stop-color="#F1AD76"/>
</linearGradient>
<linearGradient id="paint4_linear_978_475" x1="301.235" y1="669.69" x2="222.762" y2="711.81" gradientUnits="userSpaceOnUse">
<stop stop-color="#64FAE8"/>
<stop offset="1" stop-color="#184A44"/>
</linearGradient>
<linearGradient id="paint5_linear_978_475" x1="153.805" y1="747.606" x2="51.9601" y2="582.705" gradientUnits="userSpaceOnUse">
<stop stop-color="#00E6FF" stop-opacity="0.700408"/>
<stop offset="1" stop-color="white" stop-opacity="0.01"/>
</linearGradient>
<linearGradient id="paint6_linear_978_475" x1="163.47" y1="757.981" x2="-1.23896" y2="669.757" gradientUnits="userSpaceOnUse">
<stop stop-color="#094840" stop-opacity="0.700408"/>
<stop offset="1" stop-color="white" stop-opacity="0.01"/>
</linearGradient>
<linearGradient id="paint7_linear_978_475" x1="379.354" y1="705.905" x2="481.199" y2="870.807" gradientUnits="userSpaceOnUse">
<stop stop-color="#00E6FF" stop-opacity="0.700408"/>
<stop offset="1" stop-color="white" stop-opacity="0.01"/>
</linearGradient>
<linearGradient id="paint8_linear_978_475" x1="369.69" y1="695.531" x2="534.399" y2="783.754" gradientUnits="userSpaceOnUse">
<stop stop-color="#094840" stop-opacity="0.700408"/>
<stop offset="1" stop-color="white" stop-opacity="0.01"/>
</linearGradient>
<linearGradient id="paint9_linear_978_475" x1="398.321" y1="893.151" x2="506.614" y2="893.151" gradientUnits="userSpaceOnUse">
<stop stop-color="#00FFD5"/>
<stop offset="1" stop-color="#00E6DE"/>
</linearGradient>
<linearGradient id="paint10_linear_978_475" x1="22.9675" y1="682.276" x2="131.26" y2="682.276" gradientUnits="userSpaceOnUse">
<stop stop-color="#6755D9" stop-opacity="0.5"/>
<stop offset="1" stop-color="#8354C0"/>
</linearGradient>
<linearGradient id="paint11_linear_978_475" x1="425.513" y1="672.81" x2="536.475" y2="672.81" gradientUnits="userSpaceOnUse">
<stop stop-color="#97510D" stop-opacity="0.5"/>
<stop offset="1" stop-color="#FD932A"/>
</linearGradient>
<linearGradient id="paint12_linear_978_475" x1="341.331" y1="767.265" x2="341.331" y2="831.424" gradientUnits="userSpaceOnUse">
<stop stop-color="#0069FF"/>
<stop offset="1" stop-color="#8354C0"/>
</linearGradient>
<linearGradient id="paint13_linear_978_475" x1="366.757" y1="543.821" x2="366.757" y2="609.313" gradientUnits="userSpaceOnUse">
<stop stop-color="#0069FF"/>
<stop offset="1" stop-color="#8354C0"/>
</linearGradient>
<linearGradient id="paint14_linear_978_475" x1="-46.3773" y1="548.755" x2="-46.3773" y2="619.641" gradientUnits="userSpaceOnUse">
<stop stop-color="#0069FF"/>
<stop offset="1" stop-color="#8354C0"/>
</linearGradient>
<linearGradient id="paint15_linear_978_475" x1="453.33" y1="998.442" x2="453.33" y2="830.561" gradientUnits="userSpaceOnUse">
<stop offset="0.255" stop-color="#64FAE8"/>
<stop offset="0.655" stop-color="#0069FF"/>
<stop offset="1" stop-color="#8354C0"/>
</linearGradient>
<linearGradient id="paint16_linear_978_475" x1="42.4314" y1="476.719" x2="187.821" y2="392.778" gradientUnits="userSpaceOnUse">
<stop offset="0.255" stop-color="#64FAE8"/>
<stop offset="0.655" stop-color="#0069FF"/>
<stop offset="1" stop-color="#8354C0"/>
</linearGradient>
<linearGradient id="paint17_linear_978_475" x1="11.4314" y1="788.719" x2="156.821" y2="704.778" gradientUnits="userSpaceOnUse">
<stop offset="0.255" stop-color="#64FAE8"/>
<stop offset="0.655" stop-color="#0069FF"/>
<stop offset="1" stop-color="#8354C0"/>
</linearGradient>
<linearGradient id="paint18_linear_978_475" x1="834.106" y1="1144.22" x2="688.716" y2="1060.28" gradientUnits="userSpaceOnUse">
<stop offset="0.255" stop-color="#64FAE8"/>
<stop offset="0.655" stop-color="#0069FF"/>
<stop offset="1" stop-color="#8354C0"/>
</linearGradient>
<linearGradient id="paint19_linear_978_475" x1="122.431" y1="885.719" x2="267.821" y2="801.778" gradientUnits="userSpaceOnUse">
<stop offset="0.255" stop-color="#64FAE8"/>
<stop offset="0.655" stop-color="#0069FF"/>
<stop offset="1" stop-color="#8354C0"/>
</linearGradient>
<linearGradient id="paint20_linear_978_475" x1="958.106" y1="1377.22" x2="812.716" y2="1293.28" gradientUnits="userSpaceOnUse">
<stop offset="0.255" stop-color="#64FAE8"/>
<stop offset="0.655" stop-color="#0069FF"/>
<stop offset="1" stop-color="#8354C0"/>
</linearGradient>
<linearGradient id="paint21_linear_978_475" x1="23.4314" y1="588.719" x2="168.821" y2="504.778" gradientUnits="userSpaceOnUse">
<stop offset="0.255" stop-color="#64FAE8"/>
<stop offset="0.655" stop-color="#0069FF"/>
<stop offset="1" stop-color="#8354C0"/>
</linearGradient>
<linearGradient id="paint22_linear_978_475" x1="77.4314" y1="682.719" x2="222.821" y2="598.778" gradientUnits="userSpaceOnUse">
<stop offset="0.255" stop-color="#64FAE8"/>
<stop offset="0.655" stop-color="#0069FF"/>
<stop offset="1" stop-color="#8354C0"/>
</linearGradient>
<linearGradient id="paint23_linear_978_475" x1="286.431" y1="864.719" x2="431.821" y2="780.778" gradientUnits="userSpaceOnUse">
<stop offset="0.255" stop-color="#64FAE8"/>
<stop offset="0.655" stop-color="#0069FF"/>
<stop offset="1" stop-color="#8354C0"/>
</linearGradient>
<linearGradient id="paint24_linear_978_475" x1="321.431" y1="970.719" x2="466.821" y2="886.778" gradientUnits="userSpaceOnUse">
<stop offset="0.255" stop-color="#64FAE8"/>
<stop offset="0.655" stop-color="#0069FF"/>
<stop offset="1" stop-color="#8354C0"/>
</linearGradient>
<linearGradient id="paint25_linear_978_475" x1="6.77737e+10" y1="781.134" x2="6.77737e+10" y2="607.772" gradientUnits="userSpaceOnUse">
<stop offset="0.255" stop-color="#64FAE8"/>
<stop offset="0.655" stop-color="#FD932A"/>
<stop offset="1" stop-color="#8D4B0A"/>
</linearGradient>
<linearGradient id="paint26_linear_978_475" x1="77.9023" y1="792.233" x2="77.9023" y2="618.871" gradientUnits="userSpaceOnUse">
<stop offset="0.255" stop-color="#64FAE8"/>
<stop offset="0.655" stop-color="#6755D9" stop-opacity="0.5"/>
<stop offset="1" stop-color="#8354C0"/>
</linearGradient>
<linearGradient id="paint27_linear_978_475" x1="271.215" y1="628.938" x2="271.215" y2="790.963" gradientUnits="userSpaceOnUse">
<stop stop-opacity="0"/>
<stop offset="1" stop-color="#183C4B"/>
</linearGradient>
<linearGradient id="paint28_linear_978_475" x1="271.215" y1="611.578" x2="271.215" y2="773.603" gradientUnits="userSpaceOnUse">
<stop stop-opacity="0"/>
<stop offset="1" stop-color="#183C4B"/>
</linearGradient>
<linearGradient id="paint29_linear_978_475" x1="221.859" y1="665.78" x2="221.859" y2="723.236" gradientUnits="userSpaceOnUse">
<stop stop-opacity="0"/>
<stop offset="1" stop-color="#183C4B"/>
</linearGradient>
<linearGradient id="paint30_linear_978_475" x1="321.845" y1="692.398" x2="321.845" y2="721.827" gradientUnits="userSpaceOnUse">
<stop stop-opacity="0"/>
<stop offset="1" stop-color="#183C4B"/>
</linearGradient>
<linearGradient id="paint31_linear_978_475" x1="245.877" y1="598.329" x2="245.877" y2="684.228" gradientUnits="userSpaceOnUse">
<stop stop-opacity="0"/>
<stop offset="1" stop-color="#183C4B"/>
</linearGradient>
<linearGradient id="paint32_linear_978_475" x1="221.859" y1="597.59" x2="221.859" y2="655.047" gradientUnits="userSpaceOnUse">
<stop stop-opacity="0"/>
<stop offset="1" stop-color="#183C4B"/>
</linearGradient>
<linearGradient id="paint33_linear_978_475" x1="246.767" y1="626.313" x2="246.767" y2="712.212" gradientUnits="userSpaceOnUse">
<stop stop-opacity="0"/>
<stop offset="1" stop-color="#183C4B"/>
</linearGradient>
<linearGradient id="paint34_linear_978_475" x1="196.951" y1="626.313" x2="196.951" y2="712.212" gradientUnits="userSpaceOnUse">
<stop stop-opacity="0"/>
<stop offset="1" stop-color="#8354C0"/>
</linearGradient>
<linearGradient id="paint35_linear_978_475" x1="197.043" y1="539.028" x2="197.043" y2="567.393" gradientUnits="userSpaceOnUse">
<stop stop-color="#00E6DE"/>
<stop offset="1" stop-color="#0A7165"/>
</linearGradient>
<linearGradient id="paint36_linear_978_475" x1="250.802" y1="561.197" x2="224.37" y2="556.197" gradientUnits="userSpaceOnUse">
<stop stop-color="#00FFF2" stop-opacity="0.698794"/>
<stop offset="1" stop-color="#64FAE9"/>
</linearGradient>
<linearGradient id="paint37_linear_978_475" x1="200.176" y1="604.593" x2="227.653" y2="599.418" gradientUnits="userSpaceOnUse">
<stop stop-color="#00FFF2" stop-opacity="0.698794"/>
<stop offset="1" stop-color="#22A7F2" stop-opacity="0.4"/>
</linearGradient>
<linearGradient id="paint38_linear_978_475" x1="321.677" y1="540.592" x2="321.677" y2="598.049" gradientUnits="userSpaceOnUse">
<stop stop-opacity="0"/>
<stop offset="1" stop-color="#183C4B"/>
</linearGradient>
<linearGradient id="paint39_linear_978_475" x1="346.586" y1="569.315" x2="346.586" y2="655.214" gradientUnits="userSpaceOnUse">
<stop stop-opacity="0"/>
<stop offset="1" stop-color="#FD932A"/>
</linearGradient>
<linearGradient id="paint40_linear_978_475" x1="296.77" y1="569.315" x2="296.77" y2="655.214" gradientUnits="userSpaceOnUse">
<stop stop-opacity="0"/>
<stop offset="1" stop-color="#183C4B"/>
</linearGradient>
<linearGradient id="paint41_linear_978_475" x1="297.151" y1="655.136" x2="297.151" y2="683.501" gradientUnits="userSpaceOnUse">
<stop stop-color="#A5BBC7"/>
<stop offset="1" stop-color="#8096A2"/>
</linearGradient>
<linearGradient id="paint42_linear_978_475" x1="350.909" y1="677.304" x2="324.477" y2="672.305" gradientUnits="userSpaceOnUse">
<stop stop-color="#485962"/>
<stop offset="1" stop-color="#93A19F"/>
</linearGradient>
<linearGradient id="paint43_linear_978_475" x1="300.284" y1="720.701" x2="327.761" y2="715.526" gradientUnits="userSpaceOnUse">
<stop stop-color="#405561"/>
<stop offset="1" stop-color="#778993"/>
</linearGradient>
<radialGradient id="paint44_radial_978_475" cx="0" cy="0" r="1" gradientUnits="userSpaceOnUse" gradientTransform="translate(194.416 509.235) rotate(44.9344) scale(9.47835 9.47833)">
<stop stop-color="#E2C7AB"/>
<stop offset="1" stop-color="#FD932A"/>
</radialGradient>
</defs>
</svg>
