<svg width="625" height="640" viewBox="0 0 625 640" fill="none" xmlns="http://www.w3.org/2000/svg">
<g style="mix-blend-mode:luminosity">
<path opacity="0.4" d="M765.454 62.0506L272.013 347.817L223.771 319.37L717.522 35L765.454 62.0506Z" fill="url(#paint0_linear_749_581)"/>
<path opacity="0.6" d="M763.113 117.177L271.973 404.059V347.637L763.113 61.7632L763.113 117.177Z" fill="url(#paint1_linear_749_581)"/>
<path d="M271.988 404.069L223.364 375.911L223.364 319.596L223.432 319.556L271.988 347.674V404.069Z" fill="url(#paint2_linear_749_581)"/>
<path d="M271.989 404.048V347.319L320.614 319.561V375.912L271.989 404.048Z" fill="url(#paint3_linear_749_581)"/>
<path d="M320.595 319.586L271.991 347.731L223.385 319.584L271.989 291.439L320.595 319.586Z" fill="url(#paint4_linear_749_581)"/>
</g>
<path opacity="0.547768" d="M26.7068 206.139L222.385 320.326L271.19 291.524L69.3754 174.943L26.7068 206.139Z" fill="url(#paint5_linear_749_581)"/>
<path opacity="0.547768" d="M0 246.88L222.422 377.272V320.145L48.6883 219.247L0 246.88Z" fill="url(#paint6_linear_749_581)"/>
<path opacity="0.547768" d="M506.453 479.373L310.775 365.185L261.969 393.988L463.784 510.568L506.453 479.373Z" fill="url(#paint7_linear_749_581)"/>
<path opacity="0.547768" d="M533.16 438.631L310.738 308.24V365.366L484.471 466.264L533.16 438.631Z" fill="url(#paint8_linear_749_581)"/>
<path fill-rule="evenodd" clip-rule="evenodd" d="M452.467 384.105L398.321 415.367V477.889L452.467 509.151L506.614 477.889V415.367L452.467 384.105Z" stroke="url(#paint9_linear_749_581)" stroke-width="1.04592"/>
<path fill-rule="evenodd" clip-rule="evenodd" d="M77.1138 173.231L22.9675 204.492V267.015L77.1138 298.276L131.26 267.015V204.492L77.1138 173.231Z" stroke="url(#paint10_linear_749_581)" stroke-width="1.04592"/>
<path fill-rule="evenodd" clip-rule="evenodd" d="M480.994 160.682L425.513 192.714V256.778L480.994 288.81L536.475 256.778V192.714L480.994 160.682Z" stroke="url(#paint11_linear_749_581)" stroke-width="1.04592"/>
<path d="M341.331 383.265L452.468 447.424L562.538 383.265" stroke="url(#paint12_linear_749_581)" stroke-width="1.04592" stroke-dasharray="1.05"/>
<path d="M366.757 159.821L480.953 225.313L594.054 159.821" stroke="url(#paint13_linear_749_581)" stroke-width="1.04592" stroke-dasharray="1.05"/>
<path d="M23.738 204.821L77.1099 235.641L199.412 164.755" stroke="url(#paint14_linear_749_581)" stroke-width="1.04592" stroke-dasharray="1.05"/>
<path d="M452.467 446.561V614.442" stroke="url(#paint15_linear_749_581)" stroke-width="1.04592" stroke-dasharray="1.05"/>
<path opacity="0.5" d="M864.674 -383L42 91.9713" stroke="url(#paint16_linear_749_581)" stroke-width="1.04592" stroke-dasharray="1.05"/>
<g style="mix-blend-mode:luminosity" opacity="0.5">
<path d="M833.674 -71L11 403.971" stroke="url(#paint17_linear_749_581)" stroke-width="1.04592" stroke-dasharray="1.05"/>
</g>
<g style="mix-blend-mode:luminosity" opacity="0.5">
<path d="M11 286L833.674 760.971" stroke="url(#paint18_linear_749_581)" stroke-width="1.04592" stroke-dasharray="1.05"/>
</g>
<g style="mix-blend-mode:luminosity" opacity="0.5">
<path d="M944.674 26L122 500.971" stroke="url(#paint19_linear_749_581)" stroke-width="1.04592" stroke-dasharray="1.05"/>
</g>
<g style="mix-blend-mode:luminosity" opacity="0.5">
<path d="M135 519L957.674 993.971" stroke="url(#paint20_linear_749_581)" stroke-width="1.04592" stroke-dasharray="1.05"/>
</g>
<path opacity="0.5" d="M845.674 -271L23 203.971" stroke="url(#paint21_linear_749_581)" stroke-width="1.04592" stroke-dasharray="1.05"/>
<path d="M899.674 -177L77 297.971" stroke="url(#paint22_linear_749_581)" stroke-width="1.04592" stroke-dasharray="1.05"/>
<path d="M1108.67 5L286 479.971" stroke="url(#paint23_linear_749_581)" stroke-width="1.04592" stroke-dasharray="1.05"/>
<path d="M1143.67 111L321 585.971" stroke="url(#paint24_linear_749_581)" stroke-width="1.04592" stroke-dasharray="1.05"/>
<path d="M480.791 223.772L480.791 372.5" stroke="url(#paint25_linear_749_581)" stroke-width="1.04592" stroke-dasharray="1.05"/>
<path d="M76.9023 234.871V408" stroke="url(#paint26_linear_749_581)" stroke-width="1.04592" stroke-dasharray="1.05"/>
<path fill-rule="evenodd" clip-rule="evenodd" d="M412.986 325.951C412.947 327.987 411.556 330.027 408.813 331.59L279.796 404.636C273.614 407.738 266.33 407.738 260.148 404.636L133.46 331.59C130.763 330.024 129.433 327.987 129.444 325.951H129.444V308.591H141.017V316.042L262.478 247.274C268.669 244.16 275.969 244.16 282.16 247.274L401.414 315.939V308.591H412.987V325.951H412.986Z" fill="#0D1824"/>
<path fill-rule="evenodd" clip-rule="evenodd" d="M412.986 325.951C412.947 327.987 411.556 330.027 408.813 331.59L279.796 404.636C273.614 407.738 266.33 407.738 260.148 404.636L133.46 331.59C130.763 330.024 129.433 327.987 129.444 325.951H129.444V308.591H141.017V316.042L262.478 247.274C268.669 244.16 275.969 244.16 282.16 247.274L401.414 315.939V308.591H412.987V325.951H412.986Z" fill="url(#paint27_linear_749_581)"/>
<path d="M408.813 331.59L409.003 331.925L409.004 331.925L408.813 331.59ZM412.986 325.951V325.565H412.608L412.601 325.943L412.986 325.951ZM279.796 404.636L279.969 404.981L279.977 404.976L279.986 404.971L279.796 404.636ZM260.148 404.636L259.955 404.97L259.965 404.976L259.975 404.981L260.148 404.636ZM133.46 331.59L133.267 331.923L133.268 331.924L133.46 331.59ZM129.444 325.951L129.829 325.953L129.831 325.565H129.444V325.951ZM129.444 325.951H129.058V326.336H129.444V325.951ZM129.444 308.591V308.206H129.058V308.591H129.444ZM141.017 308.591H141.402V308.206H141.017V308.591ZM141.017 316.042H140.632V316.702L141.207 316.377L141.017 316.042ZM262.478 247.274L262.304 246.929L262.296 246.934L262.288 246.938L262.478 247.274ZM282.16 247.274L282.353 246.94L282.343 246.934L282.334 246.929L282.16 247.274ZM401.414 315.939L401.222 316.273L401.799 316.606V315.939H401.414ZM401.414 308.591V308.206H401.029V308.591H401.414ZM412.987 308.591H413.372V308.206H412.987V308.591ZM412.987 325.951V326.336H413.372V325.951H412.987ZM409.004 331.925C411.815 330.323 413.329 328.179 413.371 325.958L412.601 325.943C412.566 327.794 411.298 329.731 408.622 331.255L409.004 331.925ZM279.986 404.971L409.003 331.925L408.623 331.255L279.606 404.301L279.986 404.971ZM259.975 404.981C266.266 408.137 273.678 408.137 279.969 404.981L279.623 404.292C273.549 407.34 266.394 407.34 260.32 404.292L259.975 404.981ZM133.268 331.924L259.955 404.97L260.34 404.302L133.653 331.256L133.268 331.924ZM129.058 325.949C129.047 328.171 130.499 330.316 133.267 331.923L133.654 331.257C131.027 329.731 129.819 327.802 129.829 325.953L129.058 325.949ZM129.444 326.336H129.444V325.565H129.444V326.336ZM129.058 308.591V325.951H129.829V308.591H129.058ZM141.017 308.206H129.444V308.976H141.017V308.206ZM141.402 316.042V308.591H140.632V316.042H141.402ZM262.288 246.938L140.827 315.706L141.207 316.377L262.667 247.609L262.288 246.938ZM282.334 246.929C276.033 243.761 268.605 243.761 262.304 246.929L262.651 247.618C268.733 244.559 275.905 244.559 281.987 247.618L282.334 246.929ZM401.606 315.606L282.353 246.94L281.968 247.607L401.222 316.273L401.606 315.606ZM401.799 315.939V308.591H401.029V315.939H401.799ZM401.414 308.976H412.987V308.206H401.414V308.976ZM412.602 308.591V325.951H413.372V308.591H412.602ZM412.987 325.565H412.986V326.336H412.987V325.565Z" fill="#00FFF2" fill-opacity="0.698794"/>
<path d="M409.022 302.96C414.377 306.056 414.308 311.1 408.813 314.23L279.796 387.276C273.614 390.379 266.33 390.379 260.148 387.276L133.46 314.23C128.07 311.1 128.14 306.091 133.46 302.96L262.478 229.914C268.669 226.8 275.969 226.8 282.16 229.914L409.022 302.96Z" fill="#0D1824"/>
<path d="M409.022 302.96C414.377 306.056 414.308 311.1 408.813 314.23L279.796 387.276C273.614 390.379 266.33 390.379 260.148 387.276L133.46 314.23C128.07 311.1 128.14 306.091 133.46 302.96L262.478 229.914C268.669 226.8 275.969 226.8 282.16 229.914L409.022 302.96Z" fill="url(#paint28_linear_749_581)"/>
<path d="M409.022 302.96C414.377 306.056 414.308 311.1 408.813 314.23L279.796 387.276C273.614 390.379 266.33 390.379 260.148 387.276L133.46 314.23C128.07 311.1 128.14 306.091 133.46 302.96L262.478 229.914C268.669 226.8 275.969 226.8 282.16 229.914L409.022 302.96Z" stroke="#64FAE9" stroke-width="0.770498"/>
<g style="mix-blend-mode:luminosity">
<g opacity="0.7">
<path d="M271.675 310.502L222.024 339.236L172.044 310.502L221.695 281.78L271.675 310.502Z" fill="#0D1824"/>
<path d="M271.675 310.502L222.024 339.236L172.044 310.502L221.695 281.78L271.675 310.502Z" fill="url(#paint29_linear_749_581)"/>
</g>
<g opacity="0.7">
<path d="M347.464 323.109L321.929 337.827L296.225 323.109L321.76 308.398L347.464 323.109Z" fill="#0D1824"/>
<path d="M347.464 323.109L321.929 337.827L296.225 323.109L321.76 308.398L347.464 323.109Z" fill="url(#paint30_linear_749_581)"/>
</g>
<path d="M270.949 243.063L270.785 300.228L220.805 271.505L220.969 214.329L270.949 243.063Z" fill="#0D1824"/>
<path d="M270.949 243.063L270.785 300.228L220.805 271.505L220.969 214.329L270.949 243.063Z" fill="url(#paint31_linear_749_581)"/>
<path d="M271.675 242.313L222.024 271.047L172.044 242.313L221.695 213.59L271.675 242.313Z" fill="#0D1824"/>
<path d="M271.675 242.313L222.024 271.047L172.044 242.313L221.695 213.59L271.675 242.313Z" fill="url(#paint32_linear_749_581)"/>
<path d="M271.675 242.313L222.024 271.047L172.044 242.313L221.695 213.59L271.675 242.313Z" stroke="#8354C0" stroke-width="0.770498"/>
<path d="M271.51 299.489L221.859 328.212V271.079L271.674 242.313L271.51 299.489Z" fill="#0D1824"/>
<path d="M271.51 299.489L221.859 328.212V271.079L271.674 242.313L271.51 299.489Z" fill="url(#paint33_linear_749_581)"/>
<path d="M271.51 299.489L221.859 328.212V271.079L271.674 242.313L271.51 299.489Z" stroke="#8354C0" stroke-width="0.770498"/>
<path d="M222.023 271.047L221.859 328.212L171.879 299.489L172.043 242.313L222.023 271.047Z" fill="#0D1824"/>
<path d="M222.023 271.047L221.859 328.212L171.879 299.489L172.043 242.313L222.023 271.047Z" fill="url(#paint34_linear_749_581)"/>
<path d="M222.023 271.047L221.859 328.212L171.879 299.489L172.043 242.313L222.023 271.047Z" stroke="#8354C0" stroke-width="0.770498"/>
<path d="M247.356 169.739L221.821 184.457L196.117 169.739L221.652 155.028L247.356 169.739Z" fill="url(#paint35_linear_749_581)"/>
<path d="M247.271 199.025L221.736 213.736V184.473L247.356 169.739L247.271 199.025Z" fill="url(#paint36_linear_749_581)"/>
<path d="M221.821 184.457L221.737 213.736L196.033 199.025L196.117 169.739L221.821 184.457Z" fill="url(#paint37_linear_749_581)"/>
<path d="M371.493 185.315L321.842 214.049L271.862 185.315L321.513 156.592L371.493 185.315Z" fill="#0D1824"/>
<path d="M371.493 185.315L321.842 214.049L271.862 185.315L321.513 156.592L371.493 185.315Z" fill="url(#paint38_linear_749_581)"/>
<path d="M371.493 185.315L321.842 214.049L271.862 185.315L321.513 156.592L371.493 185.315Z" stroke="#FD932A" stroke-width="0.770498"/>
<path d="M371.329 242.491L321.678 271.214V214.081L371.493 185.315L371.329 242.491Z" fill="#0D1824"/>
<path d="M371.329 242.491L321.678 271.214V214.081L371.493 185.315L371.329 242.491Z" fill="url(#paint39_linear_749_581)"/>
<path d="M371.329 242.491L321.678 271.214V214.081L371.493 185.315L371.329 242.491Z" stroke="#FD932A" stroke-width="0.770498"/>
<path d="M321.842 214.049L321.678 271.214L271.698 242.491L271.862 185.315L321.842 214.049Z" fill="#0D1824"/>
<path d="M321.842 214.049L321.678 271.214L271.698 242.491L271.862 185.315L321.842 214.049Z" fill="url(#paint40_linear_749_581)"/>
<path d="M321.842 214.049L321.678 271.214L271.698 242.491L271.862 185.315L321.842 214.049Z" stroke="#FD932A" stroke-width="0.770498"/>
<path d="M347.464 285.847L321.929 300.565L296.225 285.847L321.76 271.136L347.464 285.847Z" fill="url(#paint41_linear_749_581)"/>
<path d="M347.379 315.133L321.844 329.844V300.581L347.463 285.847L347.379 315.133Z" fill="url(#paint42_linear_749_581)"/>
<path d="M321.929 300.565L321.844 329.844L296.14 315.133L296.225 285.847L321.929 300.565Z" fill="url(#paint43_linear_749_581)"/>
<path d="M271.862 242.369V299.247L322.015 271.219V271.219V214.205L271.862 185.49L221.581 213.54" stroke="#00FFF2" stroke-opacity="0.698794" stroke-width="0.786222" stroke-linecap="round" stroke-linejoin="round" stroke-dasharray="2.52 2.52"/>
<path d="M196.227 135.004V199.063L271.945 242.539L321.685 214.269" stroke="#00FFF2" stroke-opacity="0.698794" stroke-width="0.786222" stroke-linecap="round" stroke-linejoin="round" stroke-dasharray="2.52 2.52"/>
<path fill-rule="evenodd" clip-rule="evenodd" d="M196.261 133.643C200.107 133.643 203.225 130.534 203.225 126.699C203.225 122.864 200.107 119.755 196.261 119.755C192.415 119.755 189.297 122.864 189.297 126.699C189.297 130.534 192.415 133.643 196.261 133.643Z" fill="url(#paint44_radial_749_581)"/>
</g>
<defs>
<linearGradient id="paint0_linear_749_581" x1="492.513" y1="417.347" x2="666.859" y2="81.9225" gradientUnits="userSpaceOnUse">
<stop stop-color="#FF8722"/>
<stop offset="1" stop-color="#F5903B" stop-opacity="0.01"/>
</linearGradient>
<linearGradient id="paint1_linear_749_581" x1="491.721" y1="520.734" x2="795.638" y2="141.419" gradientUnits="userSpaceOnUse">
<stop stop-color="#FF8722"/>
<stop offset="1" stop-color="#F5903B" stop-opacity="0.01"/>
</linearGradient>
<linearGradient id="paint2_linear_749_581" x1="264.431" y1="307.376" x2="212.762" y2="316.616" gradientUnits="userSpaceOnUse">
<stop stop-color="#64FAE8"/>
<stop offset="1" stop-color="#0D3E38"/>
</linearGradient>
<linearGradient id="paint3_linear_749_581" x1="310.93" y1="310.932" x2="261.937" y2="319.696" gradientUnits="userSpaceOnUse">
<stop stop-color="#F7811D"/>
<stop offset="1" stop-color="#F1AD76"/>
</linearGradient>
<linearGradient id="paint4_linear_749_581" x1="301.235" y1="285.69" x2="222.762" y2="327.81" gradientUnits="userSpaceOnUse">
<stop stop-color="#64FAE8"/>
<stop offset="1" stop-color="#184A44"/>
</linearGradient>
<linearGradient id="paint5_linear_749_581" x1="153.805" y1="363.606" x2="51.9601" y2="198.705" gradientUnits="userSpaceOnUse">
<stop stop-color="#00E6FF" stop-opacity="0.700408"/>
<stop offset="1" stop-color="white" stop-opacity="0.01"/>
</linearGradient>
<linearGradient id="paint6_linear_749_581" x1="163.47" y1="373.981" x2="-1.23896" y2="285.757" gradientUnits="userSpaceOnUse">
<stop stop-color="#094840" stop-opacity="0.700408"/>
<stop offset="1" stop-color="white" stop-opacity="0.01"/>
</linearGradient>
<linearGradient id="paint7_linear_749_581" x1="379.354" y1="321.906" x2="481.199" y2="486.807" gradientUnits="userSpaceOnUse">
<stop stop-color="#00E6FF" stop-opacity="0.700408"/>
<stop offset="1" stop-color="white" stop-opacity="0.01"/>
</linearGradient>
<linearGradient id="paint8_linear_749_581" x1="369.69" y1="311.531" x2="534.399" y2="399.754" gradientUnits="userSpaceOnUse">
<stop stop-color="#094840" stop-opacity="0.700408"/>
<stop offset="1" stop-color="white" stop-opacity="0.01"/>
</linearGradient>
<linearGradient id="paint9_linear_749_581" x1="398.321" y1="509.151" x2="506.614" y2="509.151" gradientUnits="userSpaceOnUse">
<stop stop-color="#00FFD5"/>
<stop offset="1" stop-color="#00E6DE"/>
</linearGradient>
<linearGradient id="paint10_linear_749_581" x1="22.9675" y1="298.276" x2="131.26" y2="298.276" gradientUnits="userSpaceOnUse">
<stop stop-color="#6755D9" stop-opacity="0.5"/>
<stop offset="1" stop-color="#8354C0"/>
</linearGradient>
<linearGradient id="paint11_linear_749_581" x1="425.513" y1="288.81" x2="536.475" y2="288.81" gradientUnits="userSpaceOnUse">
<stop stop-color="#97510D" stop-opacity="0.5"/>
<stop offset="1" stop-color="#FD932A"/>
</linearGradient>
<linearGradient id="paint12_linear_749_581" x1="341.331" y1="383.265" x2="341.331" y2="447.424" gradientUnits="userSpaceOnUse">
<stop stop-color="#0069FF"/>
<stop offset="1" stop-color="#8354C0"/>
</linearGradient>
<linearGradient id="paint13_linear_749_581" x1="366.757" y1="159.821" x2="366.757" y2="225.313" gradientUnits="userSpaceOnUse">
<stop stop-color="#0069FF"/>
<stop offset="1" stop-color="#8354C0"/>
</linearGradient>
<linearGradient id="paint14_linear_749_581" x1="-46.3773" y1="164.755" x2="-46.3773" y2="235.641" gradientUnits="userSpaceOnUse">
<stop stop-color="#0069FF"/>
<stop offset="1" stop-color="#8354C0"/>
</linearGradient>
<linearGradient id="paint15_linear_749_581" x1="453.33" y1="614.442" x2="453.33" y2="446.561" gradientUnits="userSpaceOnUse">
<stop offset="0.255" stop-color="#64FAE8"/>
<stop offset="0.655" stop-color="#0069FF"/>
<stop offset="1" stop-color="#8354C0"/>
</linearGradient>
<linearGradient id="paint16_linear_749_581" x1="42.4314" y1="92.7185" x2="187.821" y2="8.77786" gradientUnits="userSpaceOnUse">
<stop offset="0.255" stop-color="#64FAE8"/>
<stop offset="0.655" stop-color="#0069FF"/>
<stop offset="1" stop-color="#8354C0"/>
</linearGradient>
<linearGradient id="paint17_linear_749_581" x1="11.4314" y1="404.719" x2="156.821" y2="320.778" gradientUnits="userSpaceOnUse">
<stop offset="0.255" stop-color="#64FAE8"/>
<stop offset="0.655" stop-color="#0069FF"/>
<stop offset="1" stop-color="#8354C0"/>
</linearGradient>
<linearGradient id="paint18_linear_749_581" x1="834.106" y1="760.224" x2="688.716" y2="676.283" gradientUnits="userSpaceOnUse">
<stop offset="0.255" stop-color="#64FAE8"/>
<stop offset="0.655" stop-color="#0069FF"/>
<stop offset="1" stop-color="#8354C0"/>
</linearGradient>
<linearGradient id="paint19_linear_749_581" x1="122.431" y1="501.719" x2="267.821" y2="417.778" gradientUnits="userSpaceOnUse">
<stop offset="0.255" stop-color="#64FAE8"/>
<stop offset="0.655" stop-color="#0069FF"/>
<stop offset="1" stop-color="#8354C0"/>
</linearGradient>
<linearGradient id="paint20_linear_749_581" x1="958.106" y1="993.224" x2="812.716" y2="909.283" gradientUnits="userSpaceOnUse">
<stop offset="0.255" stop-color="#64FAE8"/>
<stop offset="0.655" stop-color="#0069FF"/>
<stop offset="1" stop-color="#8354C0"/>
</linearGradient>
<linearGradient id="paint21_linear_749_581" x1="23.4314" y1="204.719" x2="168.821" y2="120.778" gradientUnits="userSpaceOnUse">
<stop offset="0.255" stop-color="#64FAE8"/>
<stop offset="0.655" stop-color="#0069FF"/>
<stop offset="1" stop-color="#8354C0"/>
</linearGradient>
<linearGradient id="paint22_linear_749_581" x1="77.4314" y1="298.719" x2="222.821" y2="214.778" gradientUnits="userSpaceOnUse">
<stop offset="0.255" stop-color="#64FAE8"/>
<stop offset="0.655" stop-color="#0069FF"/>
<stop offset="1" stop-color="#8354C0"/>
</linearGradient>
<linearGradient id="paint23_linear_749_581" x1="286.431" y1="480.719" x2="431.821" y2="396.778" gradientUnits="userSpaceOnUse">
<stop offset="0.255" stop-color="#64FAE8"/>
<stop offset="0.655" stop-color="#0069FF"/>
<stop offset="1" stop-color="#8354C0"/>
</linearGradient>
<linearGradient id="paint24_linear_749_581" x1="321.431" y1="586.719" x2="466.821" y2="502.778" gradientUnits="userSpaceOnUse">
<stop offset="0.255" stop-color="#64FAE8"/>
<stop offset="0.655" stop-color="#0069FF"/>
<stop offset="1" stop-color="#8354C0"/>
</linearGradient>
<linearGradient id="paint25_linear_749_581" x1="6.77737e+10" y1="397.134" x2="6.77737e+10" y2="223.772" gradientUnits="userSpaceOnUse">
<stop offset="0.255" stop-color="#64FAE8"/>
<stop offset="0.655" stop-color="#FD932A"/>
<stop offset="1" stop-color="#8D4B0A"/>
</linearGradient>
<linearGradient id="paint26_linear_749_581" x1="77.9023" y1="408.233" x2="77.9023" y2="234.871" gradientUnits="userSpaceOnUse">
<stop offset="0.255" stop-color="#64FAE8"/>
<stop offset="0.655" stop-color="#6755D9" stop-opacity="0.5"/>
<stop offset="1" stop-color="#8354C0"/>
</linearGradient>
<linearGradient id="paint27_linear_749_581" x1="271.215" y1="244.938" x2="271.215" y2="406.963" gradientUnits="userSpaceOnUse">
<stop stop-opacity="0"/>
<stop offset="1" stop-color="#183C4B"/>
</linearGradient>
<linearGradient id="paint28_linear_749_581" x1="271.215" y1="227.578" x2="271.215" y2="389.603" gradientUnits="userSpaceOnUse">
<stop stop-opacity="0"/>
<stop offset="1" stop-color="#183C4B"/>
</linearGradient>
<linearGradient id="paint29_linear_749_581" x1="221.859" y1="281.78" x2="221.859" y2="339.236" gradientUnits="userSpaceOnUse">
<stop stop-opacity="0"/>
<stop offset="1" stop-color="#183C4B"/>
</linearGradient>
<linearGradient id="paint30_linear_749_581" x1="321.845" y1="308.398" x2="321.845" y2="337.827" gradientUnits="userSpaceOnUse">
<stop stop-opacity="0"/>
<stop offset="1" stop-color="#183C4B"/>
</linearGradient>
<linearGradient id="paint31_linear_749_581" x1="245.877" y1="214.329" x2="245.877" y2="300.228" gradientUnits="userSpaceOnUse">
<stop stop-opacity="0"/>
<stop offset="1" stop-color="#183C4B"/>
</linearGradient>
<linearGradient id="paint32_linear_749_581" x1="221.859" y1="213.59" x2="221.859" y2="271.047" gradientUnits="userSpaceOnUse">
<stop stop-opacity="0"/>
<stop offset="1" stop-color="#183C4B"/>
</linearGradient>
<linearGradient id="paint33_linear_749_581" x1="246.767" y1="242.313" x2="246.767" y2="328.212" gradientUnits="userSpaceOnUse">
<stop stop-opacity="0"/>
<stop offset="1" stop-color="#183C4B"/>
</linearGradient>
<linearGradient id="paint34_linear_749_581" x1="196.951" y1="242.313" x2="196.951" y2="328.212" gradientUnits="userSpaceOnUse">
<stop stop-opacity="0"/>
<stop offset="1" stop-color="#8354C0"/>
</linearGradient>
<linearGradient id="paint35_linear_749_581" x1="197.043" y1="155.028" x2="197.043" y2="183.393" gradientUnits="userSpaceOnUse">
<stop stop-color="#00E6DE"/>
<stop offset="1" stop-color="#0A7165"/>
</linearGradient>
<linearGradient id="paint36_linear_749_581" x1="250.802" y1="177.197" x2="224.37" y2="172.197" gradientUnits="userSpaceOnUse">
<stop stop-color="#00FFF2" stop-opacity="0.698794"/>
<stop offset="1" stop-color="#64FAE9"/>
</linearGradient>
<linearGradient id="paint37_linear_749_581" x1="200.176" y1="220.593" x2="227.653" y2="215.418" gradientUnits="userSpaceOnUse">
<stop stop-color="#00FFF2" stop-opacity="0.698794"/>
<stop offset="1" stop-color="#22A7F2" stop-opacity="0.4"/>
</linearGradient>
<linearGradient id="paint38_linear_749_581" x1="321.677" y1="156.592" x2="321.677" y2="214.049" gradientUnits="userSpaceOnUse">
<stop stop-opacity="0"/>
<stop offset="1" stop-color="#183C4B"/>
</linearGradient>
<linearGradient id="paint39_linear_749_581" x1="346.586" y1="185.315" x2="346.586" y2="271.214" gradientUnits="userSpaceOnUse">
<stop stop-opacity="0"/>
<stop offset="1" stop-color="#FD932A"/>
</linearGradient>
<linearGradient id="paint40_linear_749_581" x1="296.77" y1="185.315" x2="296.77" y2="271.214" gradientUnits="userSpaceOnUse">
<stop stop-opacity="0"/>
<stop offset="1" stop-color="#183C4B"/>
</linearGradient>
<linearGradient id="paint41_linear_749_581" x1="297.151" y1="271.136" x2="297.151" y2="299.501" gradientUnits="userSpaceOnUse">
<stop stop-color="#A5BBC7"/>
<stop offset="1" stop-color="#8096A2"/>
</linearGradient>
<linearGradient id="paint42_linear_749_581" x1="350.909" y1="293.304" x2="324.477" y2="288.305" gradientUnits="userSpaceOnUse">
<stop stop-color="#485962"/>
<stop offset="1" stop-color="#93A19F"/>
</linearGradient>
<linearGradient id="paint43_linear_749_581" x1="300.284" y1="336.701" x2="327.761" y2="331.526" gradientUnits="userSpaceOnUse">
<stop stop-color="#405561"/>
<stop offset="1" stop-color="#778993"/>
</linearGradient>
<radialGradient id="paint44_radial_749_581" cx="0" cy="0" r="1" gradientUnits="userSpaceOnUse" gradientTransform="translate(194.416 125.235) rotate(44.9344) scale(9.47835 9.47833)">
<stop stop-color="#E2C7AB"/>
<stop offset="1" stop-color="#FD932A"/>
</radialGradient>
</defs>
</svg>
