<svg width="32" height="32" viewBox="0 0 32 32" fill="none" xmlns="http://www.w3.org/2000/svg">
<path d="M25.8099 16.0205C25.7468 15.8196 23.325 10.9688 18.5432 1.46823C17.9033 0.489272 17.0939 0 16.1149 0H15.889C15.0353 0 14.2763 0.407728 13.6109 1.22339C13.498 1.38669 12.7136 2.93647 11.2579 5.87336C4.60577 19.1263 1.28004 25.7717 1.28004 25.8095C0.9246 26.4631 0.647802 27.0242 0.440307 27.5031C0.174505 27.9311 0.0161779 28.4312 0.00352073 28.9686C0.00331324 28.9817 0 28.9975 0 29.0099C0 29.0147 0.000623499 29.0197 0.00103849 29.0244C0.000623499 29.0292 0 29.0334 0 29.0381C0 29.7664 0.268919 30.4306 0.710884 30.9417C0.771888 31.0143 0.835172 31.0859 0.903853 31.156C0.93809 31.1845 0.97149 31.2096 1.00573 31.2372C1.15616 31.3677 1.31987 31.4843 1.49541 31.5824C1.82637 31.7823 2.12765 31.8893 2.39885 31.9043C2.56671 31.9344 2.73853 31.9524 2.91448 31.9524C3.08027 31.9524 3.24128 31.9354 3.3996 31.9086H3.46414C3.53925 31.9086 3.62722 31.8964 3.72765 31.8709C4.45554 31.6331 5.00789 31.2314 5.38429 30.6664L15.0229 11.5961C15.2739 10.8933 15.5999 10.5418 16.002 10.5418C16.2151 10.5418 16.4098 10.6298 16.5857 10.8055C19.1836 16.0141 20.52 18.6748 20.5954 18.7874C21.2604 19.6786 22.0827 20.1239 23.0617 20.1239C23.5134 20.1239 23.9715 20.0113 24.4357 19.7851C25.5279 19.1452 26.0739 18.2604 26.0739 17.131C26.0734 17.0061 25.9855 16.6353 25.8099 16.0205Z" fill="#E6E6E6"/>
<path d="M29.0854 31.9525C30.695 31.9525 31.9999 30.6476 31.9999 29.038C31.9999 27.4284 30.695 26.1235 29.0854 26.1235C27.4758 26.1235 26.1709 27.4284 26.1709 29.038C26.1709 30.6476 27.4758 31.9525 29.0854 31.9525Z" fill="#02FF7C"/>
</svg>
