<svg width="45" height="56" viewBox="0 0 45 56" fill="none" xmlns="http://www.w3.org/2000/svg">
<path d="M19.0501 55.5C16.4456 55.4999 13.9033 54.9616 11.4941 53.8998C6.82439 51.8421 3.22105 48.0556 1.34796 43.238C-0.525044 38.4204 -0.443765 33.1483 1.57702 28.393C2.77235 25.5799 4.6187 23.0779 6.92765 21.1377C6.7358 18.0958 7.26306 15.0124 8.45848 12.1991C11.4784 5.09223 18.3442 0.5 25.9499 0.5C28.5542 0.5 31.0966 1.03843 33.506 2.10019C38.1757 4.15803 41.7789 7.94452 43.652 12.7621C45.5251 17.5797 45.4437 22.8518 43.423 27.6071C42.2274 30.4203 40.381 32.9224 38.0721 34.8624C38.2641 37.9042 37.7369 40.9876 36.5416 43.8009C33.5214 50.9077 26.6556 55.5 19.0507 55.5H19.0501ZM7.63531 25.2652C6.42449 26.5875 5.45208 28.1037 4.73729 29.7856C1.31991 37.8275 4.96457 47.2015 12.8617 50.6818C14.836 51.5518 16.9185 51.993 19.0513 51.993C25.2823 51.993 30.9071 48.2308 33.3813 42.4084C34.096 40.7267 34.5157 38.9667 34.6334 37.1631C31.9406 38.5678 28.9536 39.3058 25.9294 39.3058C23.3258 39.3058 20.7843 38.7676 18.3755 37.7062C15.58 36.4742 13.0921 34.5603 11.1809 32.1713C9.56233 30.148 8.34852 27.7793 7.63531 25.2652ZM10.5868 22.7502C11.5266 27.9961 14.9256 32.3649 19.7433 34.4879C21.7173 35.3577 23.7995 35.7988 25.9319 35.7988C28.952 35.7988 31.8759 34.9188 34.4135 33.25C33.4736 28.0041 30.0747 23.6353 25.2572 21.5122C23.2832 20.6424 21.201 20.2013 19.0686 20.2013C16.0484 20.2013 13.1244 21.0814 10.5868 22.7502ZM19.0705 16.6943C21.6742 16.6943 24.2158 17.2325 26.6247 18.294C29.4201 19.5259 31.9079 21.4398 33.8191 23.8289C35.4377 25.852 36.6515 28.2208 37.3649 30.735C38.5755 29.4128 39.5481 27.8964 40.2628 26.2146C41.9182 22.3188 41.9848 17.9998 40.4504 14.053C38.9161 10.1063 35.9641 7.00433 32.1386 5.3185C30.1642 4.44844 28.0816 4.00727 25.9488 4.00727C19.7179 4.00727 14.093 7.76949 11.6189 13.5919C10.9042 15.2735 10.4845 17.0334 10.3667 18.837C13.0594 17.4324 16.0464 16.6943 19.0705 16.6943Z" fill="#E6E6E6"/>
</svg>
