<svg width="624" height="497" viewBox="0 0 624 497" fill="none" xmlns="http://www.w3.org/2000/svg">
<g opacity="0.5">
<g clip-path="url(#clip0_838_332)">
<mask id="mask0_838_332" style="mask-type:luminance" maskUnits="userSpaceOnUse" x="243" y="0" width="382" height="404">
<path d="M243.382 107.634L365.679 403.343L624.424 296.333L502.127 0.624769L243.382 107.634Z" fill="white"/>
</mask>
<g mask="url(#mask0_838_332)">
<path d="M567.366 234.898C566.971 233.943 565.876 233.489 564.921 233.884C563.966 234.279 563.512 235.374 563.907 236.328C564.302 237.283 565.396 237.737 566.351 237.342C567.306 236.947 567.761 235.853 567.366 234.898Z" fill="#63CF97" fill-opacity="0.15"/>
<path d="M543.936 327.596C543.541 326.641 542.447 326.188 541.492 326.582C540.537 326.977 540.082 328.072 540.477 329.027C540.872 329.981 541.967 330.435 542.922 330.04C543.877 329.645 544.331 328.551 543.936 327.596Z" fill="#63CF97" fill-opacity="0.15"/>
<path d="M540.603 204.462C540.208 203.508 539.113 203.054 538.158 203.449C537.203 203.843 536.749 204.938 537.144 205.893C537.538 206.848 538.633 207.302 539.588 206.907C540.543 206.512 540.997 205.417 540.603 204.462Z" fill="#63CF97" fill-opacity="0.15"/>
<path d="M517.173 297.16C516.778 296.205 515.683 295.751 514.728 296.146C513.773 296.541 513.319 297.635 513.714 298.59C514.109 299.545 515.203 299.999 516.158 299.604C517.113 299.209 517.568 298.114 517.173 297.16Z" fill="#63CF97" fill-opacity="0.15"/>
<path d="M513.839 174.026C513.444 173.072 512.349 172.618 511.395 173.013C510.44 173.407 509.985 174.502 510.38 175.457C510.775 176.412 511.87 176.866 512.825 176.471C513.78 176.076 514.234 174.981 513.839 174.026Z" fill="#63CF97" fill-opacity="0.15"/>
<path d="M490.41 266.725C490.015 265.77 488.92 265.316 487.965 265.711C487.01 266.106 486.556 267.201 486.951 268.155C487.346 269.11 488.44 269.564 489.395 269.169C490.35 268.774 490.805 267.679 490.41 266.725Z" fill="#63CF97" fill-opacity="0.15"/>
<path d="M487.075 143.59C486.68 142.635 485.586 142.181 484.631 142.576C483.676 142.971 483.221 144.066 483.616 145.02C484.011 145.975 485.106 146.429 486.061 146.034C487.016 145.639 487.47 144.544 487.075 143.59Z" fill="#63CF97" fill-opacity="0.15"/>
<path d="M463.646 236.289C463.251 235.335 462.157 234.881 461.202 235.275C460.247 235.67 459.792 236.765 460.187 237.72C460.582 238.674 461.677 239.128 462.632 238.734C463.587 238.339 464.041 237.244 463.646 236.289Z" fill="#63CF97" fill-opacity="0.15"/>
<path d="M460.312 113.155C459.917 112.2 458.823 111.746 457.868 112.141C456.913 112.536 456.458 113.631 456.853 114.585C457.248 115.54 458.343 115.994 459.298 115.599C460.253 115.204 460.707 114.109 460.312 113.155Z" fill="#63CF97" fill-opacity="0.15"/>
<path d="M436.883 205.853C436.489 204.898 435.394 204.444 434.439 204.839C433.484 205.234 433.03 206.329 433.424 207.284C433.819 208.238 434.914 208.692 435.869 208.297C436.824 207.902 437.278 206.808 436.883 205.853Z" fill="#63CF97" fill-opacity="0.15"/>
<path d="M433.549 82.7181C433.154 81.7634 432.059 81.3094 431.104 81.7043C430.149 82.0992 429.695 83.194 430.09 84.1486C430.484 85.1033 431.579 85.5573 432.534 85.1624C433.489 84.7675 433.943 83.6727 433.549 82.7181Z" fill="#63CF97" fill-opacity="0.15"/>
<path d="M410.119 175.417C409.724 174.462 408.629 174.008 407.675 174.403C406.72 174.798 406.265 175.892 406.66 176.847C407.055 177.802 408.15 178.256 409.105 177.861C410.06 177.466 410.514 176.371 410.119 175.417Z" fill="#63CF97" fill-opacity="0.15"/>
<path d="M579.513 188.37C579.118 187.416 578.023 186.961 577.068 187.356C576.113 187.751 575.659 188.846 576.054 189.801C576.449 190.755 577.544 191.209 578.499 190.815C579.453 190.42 579.908 189.325 579.513 188.37Z" fill="#63CF97" fill-opacity="0.15"/>
<path d="M556.083 281.067C555.688 280.113 554.593 279.659 553.638 280.054C552.683 280.449 552.229 281.543 552.624 282.498C553.019 283.453 554.113 283.907 555.068 283.512C556.023 283.117 556.478 282.022 556.083 281.067Z" fill="#63CF97" fill-opacity="0.15"/>
<path d="M552.749 157.934C552.354 156.979 551.26 156.525 550.305 156.92C549.35 157.315 548.895 158.41 549.29 159.365C549.685 160.319 550.78 160.773 551.735 160.378C552.69 159.983 553.144 158.889 552.749 157.934Z" fill="#63CF97" fill-opacity="0.15"/>
<path d="M529.32 250.633C528.925 249.678 527.83 249.224 526.875 249.619C525.92 250.014 525.466 251.108 525.861 252.063C526.256 253.018 527.351 253.472 528.305 253.077C529.26 252.682 529.715 251.587 529.32 250.633Z" fill="#63CF97" fill-opacity="0.15"/>
<path d="M525.986 127.497C525.591 126.543 524.496 126.089 523.541 126.484C522.586 126.879 522.132 127.973 522.527 128.928C522.921 129.883 524.016 130.337 524.971 129.942C525.926 129.547 526.38 128.452 525.986 127.497Z" fill="#63CF97" fill-opacity="0.15"/>
<path d="M502.557 220.197C502.162 219.242 501.067 218.788 500.112 219.183C499.157 219.578 498.703 220.673 499.098 221.628C499.492 222.582 500.587 223.036 501.542 222.641C502.497 222.246 502.951 221.152 502.557 220.197Z" fill="#63CF97" fill-opacity="0.15"/>
<path d="M499.223 97.0625C498.828 96.1078 497.733 95.6537 496.778 96.0487C495.823 96.4436 495.369 97.5383 495.764 98.493C496.158 99.4477 497.253 99.9017 498.208 99.5068C499.163 99.1119 499.618 98.0171 499.223 97.0625Z" fill="#63CF97" fill-opacity="0.15"/>
<path d="M475.793 189.761C475.398 188.806 474.304 188.352 473.349 188.747C472.394 189.142 471.939 190.237 472.334 191.191C472.729 192.146 473.824 192.6 474.779 192.205C475.734 191.81 476.188 190.716 475.793 189.761Z" fill="#63CF97" fill-opacity="0.15"/>
<path d="M472.459 66.6258C472.064 65.6712 470.969 65.2171 470.014 65.612C469.06 66.007 468.605 67.1017 469 68.0564C469.395 69.011 470.49 69.4651 471.445 69.0701C472.399 68.6752 472.854 67.5805 472.459 66.6258Z" fill="#63CF97" fill-opacity="0.15"/>
<path d="M449.03 159.324C448.635 158.37 447.54 157.916 446.585 158.311C445.63 158.706 445.176 159.8 445.571 160.755C445.965 161.71 447.06 162.164 448.015 161.769C448.97 161.374 449.424 160.279 449.03 159.324Z" fill="#63CF97" fill-opacity="0.15"/>
<path d="M445.696 36.1915C445.301 35.2368 444.206 34.7828 443.251 35.1777C442.297 35.5726 441.842 36.6674 442.237 37.622C442.632 38.5767 443.727 39.0307 444.682 38.6358C445.637 38.2409 446.091 37.1461 445.696 36.1915Z" fill="#63CF97" fill-opacity="0.15"/>
<path d="M422.267 128.889C421.872 127.934 420.777 127.48 419.822 127.875C418.867 128.27 418.413 129.365 418.808 130.32C419.203 131.274 420.298 131.728 421.252 131.333C422.207 130.939 422.662 129.844 422.267 128.889Z" fill="#63CF97" fill-opacity="0.15"/>
<path d="M542.207 328.311L515.443 297.875L527.59 251.347L554.353 281.783L542.207 328.311Z" fill="#63CF97" fill-opacity="0.05"/>
<path d="M554.288 281.798L542.177 328.188L515.508 297.859L527.619 251.469L554.288 281.798Z" stroke="#63CF97" stroke-opacity="0.25" stroke-width="0.2"/>
<path d="M554.354 281.784L527.59 251.348L539.737 204.82L566.501 235.256L554.354 281.784Z" fill="#63CF97" fill-opacity="0.05"/>
<path d="M566.436 235.271L554.325 281.661L527.656 251.332L539.766 204.942L566.436 235.271Z" stroke="#63CF97" stroke-opacity="0.25" stroke-width="0.2"/>
<path d="M566.5 235.255L539.737 204.819L551.884 158.291L578.647 188.727L566.5 235.255Z" fill="#63CF97" fill-opacity="0.05"/>
<path d="M578.582 188.742L566.471 235.133L539.802 204.804L551.913 158.413L578.582 188.742Z" stroke="#63CF97" stroke-opacity="0.25" stroke-width="0.2"/>
<path d="M515.444 297.876L488.68 267.44L500.827 220.912L527.591 251.348L515.444 297.876Z" fill="#63CF97" fill-opacity="0.05"/>
<path d="M527.525 251.363L515.415 297.754L488.745 267.425L500.856 221.034L527.525 251.363Z" stroke="#63CF97" stroke-opacity="0.25" stroke-width="0.2"/>
<path d="M527.59 251.347L500.827 220.911L512.974 174.383L539.737 204.819L527.59 251.347Z" fill="#63CF97" fill-opacity="0.05"/>
<path d="M539.672 204.834L527.561 251.225L500.892 220.896L513.003 174.506L539.672 204.834Z" stroke="#63CF97" stroke-opacity="0.25" stroke-width="0.2"/>
<path d="M539.737 204.819L512.974 174.383L525.121 127.855L551.884 158.291L539.737 204.819Z" fill="#63CF97" fill-opacity="0.05"/>
<path d="M551.819 158.307L539.708 204.697L513.039 174.368L525.15 127.978L551.819 158.307Z" stroke="#63CF97" stroke-opacity="0.25" stroke-width="0.2"/>
<path d="M488.68 267.44L461.916 237.004L474.063 190.476L500.827 220.911L488.68 267.44Z" fill="#63CF97" fill-opacity="0.05"/>
<path d="M500.762 220.927L488.651 267.317L461.981 236.988L474.093 190.598L500.762 220.927Z" stroke="#63CF97" stroke-opacity="0.25" stroke-width="0.2"/>
<path d="M500.827 220.911L474.063 190.476L486.21 143.947L512.974 174.384L500.827 220.911Z" fill="#63CF97" fill-opacity="0.05"/>
<path d="M512.909 174.399L500.798 220.789L474.128 190.46L486.239 144.07L512.909 174.399Z" stroke="#63CF97" stroke-opacity="0.25" stroke-width="0.2"/>
<path d="M512.974 174.385L486.211 143.949L498.358 97.4208L525.121 127.856L512.974 174.385Z" fill="#63CF97" fill-opacity="0.05"/>
<path d="M525.056 127.872L512.945 174.262L486.276 143.933L498.387 97.5427L525.056 127.872Z" stroke="#63CF97" stroke-opacity="0.25" stroke-width="0.2"/>
<path d="M461.916 237.003L435.153 206.568L447.3 160.04L474.064 190.476L461.916 237.003Z" fill="#63CF97" fill-opacity="0.05"/>
<path d="M473.998 190.491L461.888 236.881L435.218 206.553L447.33 160.162L473.998 190.491Z" stroke="#63CF97" stroke-opacity="0.25" stroke-width="0.2"/>
<path d="M474.064 190.477L447.3 160.041L459.448 113.513L486.211 143.949L474.064 190.477Z" fill="#63CF97" fill-opacity="0.05"/>
<path d="M486.146 143.964L474.035 190.354L447.365 160.025L459.476 113.635L486.146 143.964Z" stroke="#63CF97" stroke-opacity="0.25" stroke-width="0.2"/>
<path d="M486.21 143.947L459.447 113.511L471.594 66.9831L498.357 97.4192L486.21 143.947Z" fill="#63CF97" fill-opacity="0.05"/>
<path d="M498.292 97.4345L486.181 143.825L459.512 113.496L471.623 67.1056L498.292 97.4345Z" stroke="#63CF97" stroke-opacity="0.25" stroke-width="0.2"/>
<path d="M435.153 206.569L408.391 176.133L420.537 129.605L447.3 160.041L435.153 206.569Z" fill="#63CF97" fill-opacity="0.05"/>
<path d="M447.236 160.056L435.124 206.446L408.455 176.117L420.566 129.727L447.236 160.056Z" stroke="#63CF97" stroke-opacity="0.25" stroke-width="0.2"/>
<path d="M447.3 160.039L420.537 129.604L432.683 83.0752L459.447 113.511L447.3 160.039Z" fill="#63CF97" fill-opacity="0.05"/>
<path d="M459.382 113.527L447.271 159.917L420.602 129.588L432.713 83.1977L459.382 113.527Z" stroke="#63CF97" stroke-opacity="0.25" stroke-width="0.2"/>
<path d="M459.447 113.512L432.684 83.0759L444.831 36.5481L471.594 66.9837L459.447 113.512Z" fill="#63CF97" fill-opacity="0.05"/>
<path d="M471.529 66.9991L459.418 113.389L432.749 83.0605L444.859 36.6702L471.529 66.9991Z" stroke="#63CF97" stroke-opacity="0.25" stroke-width="0.2"/>
<path d="M523.738 252.941C523.343 251.986 522.248 251.532 521.293 251.927C520.339 252.322 519.884 253.417 520.279 254.372C520.674 255.326 521.769 255.78 522.724 255.385C523.679 254.991 524.133 253.896 523.738 252.941Z" fill="#22A7F2" fill-opacity="0.6"/>
<path d="M500.308 345.639C499.914 344.684 498.819 344.231 497.864 344.626C496.909 345.02 496.455 346.115 496.849 347.07C497.244 348.025 498.339 348.478 499.294 348.083C500.249 347.688 500.703 346.594 500.308 345.639Z" fill="#22A7F2" fill-opacity="0.6"/>
<path d="M496.975 222.506C496.58 221.551 495.485 221.097 494.53 221.492C493.575 221.887 493.121 222.981 493.516 223.936C493.911 224.891 495.006 225.345 495.96 224.95C496.915 224.555 497.37 223.46 496.975 222.506Z" fill="#22A7F2" fill-opacity="0.6"/>
<path d="M473.545 315.203C473.15 314.248 472.056 313.794 471.101 314.189C470.146 314.584 469.692 315.678 470.086 316.633C470.481 317.588 471.576 318.042 472.531 317.647C473.486 317.252 473.94 316.158 473.545 315.203Z" fill="#22A7F2" fill-opacity="0.6"/>
<path d="M470.211 192.069C469.817 191.115 468.722 190.661 467.767 191.056C466.812 191.451 466.358 192.545 466.752 193.5C467.147 194.455 468.242 194.909 469.197 194.514C470.152 194.119 470.606 193.024 470.211 192.069Z" fill="#22A7F2" fill-opacity="0.6"/>
<path d="M446.782 284.768C446.387 283.813 445.293 283.359 444.337 283.754C443.382 284.149 442.929 285.244 443.323 286.198C443.718 287.153 444.813 287.607 445.768 287.212C446.723 286.817 447.177 285.723 446.782 284.768Z" fill="#22A7F2" fill-opacity="0.6"/>
<path d="M443.448 161.633C443.053 160.678 441.958 160.224 441.003 160.619C440.048 161.014 439.594 162.109 439.989 163.063C440.383 164.018 441.478 164.472 442.433 164.077C443.388 163.682 443.842 162.588 443.448 161.633Z" fill="#22A7F2" fill-opacity="0.6"/>
<path d="M420.019 254.332C419.624 253.378 418.53 252.924 417.575 253.318C416.619 253.714 416.165 254.808 416.56 255.763C416.955 256.717 418.049 257.172 419.005 256.777C419.96 256.382 420.414 255.287 420.019 254.332Z" fill="#22A7F2" fill-opacity="0.6"/>
<path d="M416.685 131.198C416.29 130.243 415.195 129.789 414.24 130.184C413.285 130.579 412.831 131.674 413.226 132.628C413.62 133.583 414.715 134.037 415.67 133.642C416.625 133.247 417.079 132.152 416.685 131.198Z" fill="#22A7F2" fill-opacity="0.6"/>
<path d="M393.255 223.896C392.86 222.942 391.766 222.488 390.811 222.882C389.856 223.278 389.402 224.372 389.797 225.327C390.191 226.281 391.286 226.736 392.241 226.341C393.196 225.946 393.65 224.851 393.255 223.896Z" fill="#22A7F2" fill-opacity="0.6"/>
<path d="M389.921 100.761C389.526 99.8067 388.431 99.3526 387.476 99.7475C386.521 100.142 386.067 101.237 386.462 102.192C386.857 103.147 387.952 103.601 388.907 103.206C389.861 102.811 390.316 101.716 389.921 100.761Z" fill="#22A7F2" fill-opacity="0.6"/>
<path d="M366.491 193.46C366.097 192.505 365.002 192.051 364.047 192.446C363.092 192.841 362.638 193.935 363.033 194.89C363.428 195.845 364.522 196.299 365.478 195.904C366.432 195.509 366.886 194.414 366.491 193.46Z" fill="#22A7F2" fill-opacity="0.6"/>
<path d="M535.885 206.413C535.49 205.459 534.396 205.005 533.441 205.399C532.486 205.794 532.031 206.889 532.426 207.844C532.821 208.798 533.916 209.253 534.871 208.858C535.826 208.463 536.28 207.368 535.885 206.413Z" fill="#22A7F2" fill-opacity="0.6"/>
<path d="M512.455 299.111C512.06 298.156 510.966 297.702 510.011 298.097C509.056 298.492 508.601 299.586 508.996 300.541C509.391 301.496 510.486 301.95 511.441 301.555C512.396 301.16 512.85 300.065 512.455 299.111Z" fill="#22A7F2" fill-opacity="0.6"/>
<path d="M509.122 175.977C508.727 175.023 507.632 174.569 506.677 174.963C505.722 175.358 505.268 176.453 505.663 177.408C506.057 178.362 507.152 178.816 508.107 178.422C509.062 178.027 509.516 176.932 509.122 175.977Z" fill="#22A7F2" fill-opacity="0.6"/>
<path d="M485.692 268.676C485.297 267.721 484.202 267.267 483.248 267.662C482.293 268.057 481.838 269.152 482.233 270.106C482.628 271.061 483.723 271.515 484.678 271.12C485.633 270.725 486.087 269.63 485.692 268.676Z" fill="#22A7F2" fill-opacity="0.6"/>
<path d="M482.358 145.541C481.963 144.586 480.868 144.132 479.913 144.527C478.958 144.922 478.504 146.016 478.899 146.971C479.294 147.926 480.389 148.38 481.344 147.985C482.298 147.59 482.753 146.495 482.358 145.541Z" fill="#22A7F2" fill-opacity="0.6"/>
<path d="M458.929 238.24C458.534 237.286 457.439 236.831 456.484 237.226C455.529 237.621 455.075 238.716 455.47 239.671C455.865 240.625 456.96 241.079 457.915 240.685C458.869 240.29 459.324 239.195 458.929 238.24Z" fill="#22A7F2" fill-opacity="0.6"/>
<path d="M455.595 115.106C455.2 114.151 454.105 113.697 453.15 114.092C452.196 114.487 451.741 115.582 452.136 116.536C452.531 117.491 453.626 117.945 454.581 117.55C455.535 117.155 455.99 116.06 455.595 115.106Z" fill="#22A7F2" fill-opacity="0.6"/>
<path d="M432.166 207.804C431.771 206.849 430.676 206.395 429.721 206.79C428.766 207.185 428.312 208.28 428.707 209.234C429.102 210.189 430.196 210.643 431.152 210.248C432.107 209.853 432.56 208.759 432.166 207.804Z" fill="#22A7F2" fill-opacity="0.6"/>
<path d="M428.831 84.669C428.437 83.7144 427.342 83.2603 426.387 83.6553C425.432 84.0502 424.978 85.1449 425.372 86.0996C425.767 87.0542 426.862 87.5083 427.817 87.1133C428.772 86.7184 429.226 85.6237 428.831 84.669Z" fill="#22A7F2" fill-opacity="0.6"/>
<path d="M405.402 177.368C405.007 176.413 403.913 175.959 402.958 176.354C402.002 176.749 401.549 177.843 401.943 178.798C402.338 179.753 403.433 180.207 404.388 179.812C405.343 179.417 405.797 178.322 405.402 177.368Z" fill="#22A7F2" fill-opacity="0.6"/>
<path d="M402.068 54.2346C401.674 53.2799 400.579 52.8259 399.624 53.2208C398.669 53.6157 398.215 54.7105 398.609 55.6651C399.004 56.6198 400.099 57.0738 401.054 56.6789C402.009 56.284 402.463 55.1892 402.068 54.2346Z" fill="#22A7F2" fill-opacity="0.6"/>
<path d="M378.639 146.933C378.244 145.978 377.15 145.524 376.195 145.919C375.239 146.314 374.785 147.408 375.18 148.363C375.575 149.318 376.669 149.772 377.625 149.377C378.58 148.982 379.033 147.887 378.639 146.933Z" fill="#22A7F2" fill-opacity="0.6"/>
<path d="M498.579 346.354L471.815 315.918L483.962 269.39L510.726 299.826L498.579 346.354Z" fill="#22A7F2" fill-opacity="0.1"/>
<path d="M510.661 299.841L498.55 346.232L471.88 315.903L483.992 269.512L510.661 299.841Z" stroke="#22A7F2" stroke-opacity="0.4" stroke-width="0.2"/>
<path d="M510.726 299.827L483.963 269.391L496.11 222.863L522.873 253.299L510.726 299.827Z" fill="#22A7F2" fill-opacity="0.1"/>
<path d="M522.808 253.314L510.697 299.704L484.028 269.376L496.139 222.985L522.808 253.314Z" stroke="#22A7F2" stroke-opacity="0.4" stroke-width="0.2"/>
<path d="M522.873 253.298L496.109 222.862L508.256 176.334L535.02 206.77L522.873 253.298Z" fill="#22A7F2" fill-opacity="0.1"/>
<path d="M534.955 206.785L522.844 253.176L496.175 222.847L508.285 176.456L534.955 206.785Z" stroke="#22A7F2" stroke-opacity="0.4" stroke-width="0.2"/>
<path d="M471.816 315.919L445.053 285.483L457.2 238.956L483.963 269.391L471.816 315.919Z" fill="#22A7F2" fill-opacity="0.1"/>
<path d="M483.898 269.406L471.787 315.797L445.117 285.468L457.229 239.077L483.898 269.406Z" stroke="#22A7F2" stroke-opacity="0.4" stroke-width="0.2"/>
<path d="M483.963 269.39L457.2 238.954L469.347 192.426L496.109 222.862L483.963 269.39Z" fill="#22A7F2" fill-opacity="0.1"/>
<path d="M496.045 222.877L483.934 269.268L457.264 238.939L469.375 192.548L496.045 222.877Z" stroke="#22A7F2" stroke-opacity="0.4" stroke-width="0.2"/>
<path d="M496.109 222.862L469.346 192.427L481.493 145.898L508.256 176.334L496.109 222.862Z" fill="#22A7F2" fill-opacity="0.1"/>
<path d="M508.191 176.35L496.081 222.74L469.411 192.411L481.522 146.021L508.191 176.35Z" stroke="#22A7F2" stroke-opacity="0.4" stroke-width="0.2"/>
<path d="M445.053 285.483L418.289 255.046L430.436 208.519L457.199 238.954L445.053 285.483Z" fill="#22A7F2" fill-opacity="0.1"/>
<path d="M457.134 238.97L445.023 285.36L418.354 255.031L430.465 208.641L457.134 238.97Z" stroke="#22A7F2" stroke-opacity="0.4" stroke-width="0.2"/>
<path d="M457.199 238.954L430.436 208.519L442.583 161.991L469.346 192.427L457.199 238.954Z" fill="#22A7F2" fill-opacity="0.1"/>
<path d="M469.282 192.442L457.17 238.832L430.501 208.503L442.612 162.113L469.282 192.442Z" stroke="#22A7F2" stroke-opacity="0.4" stroke-width="0.2"/>
<path d="M469.347 192.428L442.583 161.992L454.73 115.464L481.494 145.899L469.347 192.428Z" fill="#22A7F2" fill-opacity="0.1"/>
<path d="M481.428 145.915L469.318 192.305L442.648 161.976L454.759 115.586L481.428 145.915Z" stroke="#22A7F2" stroke-opacity="0.4" stroke-width="0.2"/>
<path d="M418.289 255.046L391.526 224.611L403.673 178.083L430.436 208.519L418.289 255.046Z" fill="#22A7F2" fill-opacity="0.1"/>
<path d="M430.371 208.534L418.26 254.925L391.591 224.596L403.702 178.205L430.371 208.534Z" stroke="#22A7F2" stroke-opacity="0.4" stroke-width="0.2"/>
<path d="M430.437 208.52L403.673 178.084L415.82 131.556L442.584 161.991L430.437 208.52Z" fill="#22A7F2" fill-opacity="0.1"/>
<path d="M442.519 162.007L430.407 208.397L403.738 178.069L415.849 131.678L442.519 162.007Z" stroke="#22A7F2" stroke-opacity="0.4" stroke-width="0.2"/>
<path d="M442.583 161.99L415.82 131.554L427.967 85.0261L454.73 115.462L442.583 161.99Z" fill="#22A7F2" fill-opacity="0.1"/>
<path d="M454.665 115.478L442.554 161.868L415.884 131.539L427.996 85.1486L454.665 115.478Z" stroke="#22A7F2" stroke-opacity="0.4" stroke-width="0.2"/>
<path d="M391.526 224.612L364.763 194.176L376.91 147.648L403.673 178.084L391.526 224.612Z" fill="#22A7F2" fill-opacity="0.1"/>
<path d="M403.608 178.099L391.497 224.49L364.827 194.161L376.939 147.77L403.608 178.099Z" stroke="#22A7F2" stroke-opacity="0.4" stroke-width="0.2"/>
<path d="M403.672 178.082L376.909 147.647L389.056 101.118L415.819 131.555L403.672 178.082Z" fill="#22A7F2" fill-opacity="0.1"/>
<path d="M415.755 131.57L403.643 177.96L376.974 147.631L389.085 101.241L415.755 131.57Z" stroke="#22A7F2" stroke-opacity="0.4" stroke-width="0.2"/>
<path d="M415.82 131.555L389.056 101.119L401.203 54.5912L427.966 85.0267L415.82 131.555Z" fill="#22A7F2" fill-opacity="0.1"/>
<path d="M427.902 85.042L415.79 131.432L389.121 101.104L401.232 54.713L427.902 85.042Z" stroke="#22A7F2" stroke-opacity="0.4" stroke-width="0.2"/>
<path d="M452.379 282.453C451.984 281.499 450.889 281.044 449.934 281.439C448.979 281.834 448.525 282.929 448.92 283.884C449.315 284.838 450.41 285.292 451.365 284.898C452.319 284.503 452.774 283.408 452.379 282.453Z" fill="#6755D9" fill-opacity="0.5"/>
<path d="M428.949 375.151C428.554 374.197 427.46 373.743 426.505 374.138C425.55 374.533 425.095 375.627 425.49 376.582C425.885 377.537 426.98 377.99 427.935 377.596C428.89 377.201 429.344 376.106 428.949 375.151Z" fill="#6755D9" fill-opacity="0.5"/>
<path d="M425.616 252.018C425.221 251.063 424.126 250.609 423.171 251.004C422.216 251.399 421.762 252.494 422.157 253.448C422.552 254.403 423.646 254.857 424.601 254.462C425.556 254.067 426.011 252.972 425.616 252.018Z" fill="#6755D9" fill-opacity="0.5"/>
<path d="M402.186 344.715C401.791 343.76 400.697 343.306 399.742 343.701C398.787 344.096 398.332 345.191 398.727 346.145C399.122 347.1 400.217 347.554 401.172 347.159C402.127 346.764 402.581 345.67 402.186 344.715Z" fill="#6755D9" fill-opacity="0.5"/>
<path d="M398.852 221.582C398.458 220.627 397.363 220.173 396.408 220.568C395.453 220.963 394.998 222.058 395.393 223.012C395.788 223.967 396.883 224.421 397.838 224.026C398.793 223.631 399.247 222.536 398.852 221.582Z" fill="#6755D9" fill-opacity="0.5"/>
<path d="M375.423 314.28C375.028 313.325 373.933 312.871 372.978 313.266C372.023 313.661 371.569 314.756 371.964 315.711C372.359 316.665 373.453 317.119 374.409 316.724C375.364 316.329 375.818 315.235 375.423 314.28Z" fill="#6755D9" fill-opacity="0.5"/>
<path d="M372.088 191.145C371.694 190.19 370.599 189.736 369.644 190.131C368.689 190.526 368.235 191.621 368.629 192.576C369.024 193.53 370.119 193.984 371.074 193.589C372.029 193.194 372.483 192.1 372.088 191.145Z" fill="#6755D9" fill-opacity="0.5"/>
<path d="M348.66 283.845C348.265 282.89 347.17 282.436 346.215 282.831C345.26 283.226 344.806 284.32 345.201 285.275C345.596 286.23 346.69 286.684 347.645 286.289C348.6 285.894 349.054 284.799 348.66 283.845Z" fill="#6755D9" fill-opacity="0.5"/>
<path d="M345.325 160.71C344.931 159.755 343.836 159.301 342.881 159.696C341.926 160.091 341.472 161.186 341.866 162.141C342.261 163.095 343.356 163.549 344.311 163.154C345.266 162.759 345.72 161.665 345.325 160.71Z" fill="#6755D9" fill-opacity="0.5"/>
<path d="M321.896 253.408C321.501 252.454 320.407 252 319.452 252.395C318.497 252.79 318.043 253.884 318.438 254.839C318.832 255.793 319.927 256.248 320.882 255.853C321.837 255.458 322.291 254.363 321.896 253.408Z" fill="#6755D9" fill-opacity="0.5"/>
<path d="M318.562 130.273C318.167 129.319 317.072 128.865 316.117 129.26C315.162 129.655 314.708 130.749 315.103 131.704C315.498 132.659 316.592 133.113 317.547 132.718C318.502 132.323 318.957 131.228 318.562 130.273Z" fill="#6755D9" fill-opacity="0.5"/>
<path d="M295.133 222.972C294.738 222.017 293.643 221.563 292.688 221.958C291.733 222.353 291.279 223.448 291.674 224.402C292.069 225.357 293.163 225.811 294.118 225.416C295.073 225.021 295.527 223.926 295.133 222.972Z" fill="#6755D9" fill-opacity="0.5"/>
<path d="M464.526 235.925C464.131 234.971 463.036 234.517 462.082 234.912C461.127 235.307 460.672 236.401 461.067 237.356C461.462 238.311 462.557 238.765 463.512 238.37C464.467 237.975 464.921 236.88 464.526 235.925Z" fill="#6755D9" fill-opacity="0.5"/>
<path d="M441.096 328.623C440.701 327.668 439.606 327.214 438.652 327.609C437.697 328.004 437.242 329.098 437.637 330.053C438.032 331.008 439.127 331.462 440.082 331.067C441.036 330.672 441.491 329.578 441.096 328.623Z" fill="#6755D9" fill-opacity="0.5"/>
<path d="M437.762 205.489C437.368 204.535 436.273 204.081 435.318 204.476C434.363 204.87 433.909 205.965 434.303 206.92C434.698 207.875 435.793 208.329 436.748 207.934C437.703 207.539 438.157 206.444 437.762 205.489Z" fill="#6755D9" fill-opacity="0.5"/>
<path d="M414.333 298.188C413.938 297.233 412.843 296.779 411.888 297.174C410.934 297.569 410.479 298.664 410.874 299.618C411.269 300.573 412.364 301.027 413.319 300.632C414.274 300.237 414.728 299.143 414.333 298.188Z" fill="#6755D9" fill-opacity="0.5"/>
<path d="M410.999 175.053C410.604 174.098 409.509 173.644 408.554 174.039C407.599 174.434 407.145 175.529 407.54 176.483C407.935 177.438 409.029 177.892 409.984 177.497C410.939 177.102 411.394 176.007 410.999 175.053Z" fill="#6755D9" fill-opacity="0.5"/>
<path d="M387.57 267.752C387.175 266.798 386.08 266.344 385.125 266.739C384.17 267.134 383.716 268.228 384.111 269.183C384.506 270.138 385.601 270.592 386.555 270.197C387.51 269.802 387.965 268.707 387.57 267.752Z" fill="#6755D9" fill-opacity="0.5"/>
<path d="M384.236 144.618C383.841 143.663 382.746 143.209 381.791 143.604C380.836 143.999 380.382 145.094 380.777 146.048C381.172 147.003 382.267 147.457 383.221 147.062C384.176 146.667 384.631 145.572 384.236 144.618Z" fill="#6755D9" fill-opacity="0.5"/>
<path d="M360.806 237.316C360.412 236.362 359.317 235.907 358.362 236.302C357.407 236.697 356.953 237.792 357.348 238.747C357.743 239.701 358.837 240.155 359.792 239.761C360.747 239.366 361.201 238.271 360.806 237.316Z" fill="#6755D9" fill-opacity="0.5"/>
<path d="M357.472 114.181C357.077 113.227 355.983 112.773 355.028 113.167C354.073 113.562 353.618 114.657 354.013 115.612C354.408 116.566 355.503 117.02 356.458 116.626C357.413 116.231 357.867 115.136 357.472 114.181Z" fill="#6755D9" fill-opacity="0.5"/>
<path d="M334.043 206.88C333.648 205.925 332.554 205.471 331.598 205.866C330.643 206.261 330.189 207.355 330.584 208.31C330.979 209.265 332.074 209.719 333.029 209.324C333.984 208.929 334.438 207.834 334.043 206.88Z" fill="#6755D9" fill-opacity="0.5"/>
<path d="M330.709 83.7468C330.314 82.7921 329.22 82.3381 328.265 82.733C327.31 83.1279 326.855 84.2227 327.25 85.1773C327.645 86.132 328.74 86.586 329.695 86.1911C330.65 85.7962 331.104 84.7014 330.709 83.7468Z" fill="#6755D9" fill-opacity="0.5"/>
<path d="M307.28 176.445C306.885 175.49 305.79 175.036 304.835 175.431C303.88 175.826 303.426 176.92 303.821 177.875C304.216 178.83 305.31 179.284 306.265 178.889C307.221 178.494 307.675 177.399 307.28 176.445Z" fill="#6755D9" fill-opacity="0.5"/>
<path d="M427.22 375.866L400.457 345.43L412.603 298.902L439.367 329.338L427.22 375.866Z" fill="#6755D9" fill-opacity="0.1"/>
<path d="M439.302 329.353L427.191 375.744L400.521 345.415L412.633 299.024L439.302 329.353Z" stroke="#22A7F2" stroke-opacity="0.4" stroke-width="0.2"/>
<path d="M439.367 329.339L412.604 298.903L424.751 252.375L451.514 282.811L439.367 329.339Z" fill="#6755D9" fill-opacity="0.1"/>
<path d="M451.449 282.826L439.338 329.217L412.669 298.888L424.779 252.497L451.449 282.826Z" stroke="#22A7F2" stroke-opacity="0.4" stroke-width="0.2"/>
<path d="M451.514 282.81L424.75 252.374L436.897 205.847L463.66 236.282L451.514 282.81Z" fill="#6755D9" fill-opacity="0.1"/>
<path d="M463.596 236.298L451.485 282.688L424.815 252.359L436.926 205.969L463.596 236.298Z" stroke="#22A7F2" stroke-opacity="0.4" stroke-width="0.2"/>
<path d="M400.457 345.431L373.694 314.995L385.84 268.468L412.604 298.903L400.457 345.431Z" fill="#6755D9" fill-opacity="0.1"/>
<path d="M412.539 298.918L400.428 345.309L373.759 314.98L385.87 268.589L412.539 298.918Z" stroke="#22A7F2" stroke-opacity="0.4" stroke-width="0.2"/>
<path d="M412.604 298.902L385.84 268.466L397.988 221.939L424.75 252.374L412.604 298.902Z" fill="#6755D9" fill-opacity="0.1"/>
<path d="M424.686 252.389L412.574 298.78L385.905 268.451L398.016 222.061L424.686 252.389Z" stroke="#22A7F2" stroke-opacity="0.4" stroke-width="0.2"/>
<path d="M424.75 252.374L397.987 221.939L410.134 175.411L436.897 205.847L424.75 252.374Z" fill="#6755D9" fill-opacity="0.1"/>
<path d="M436.832 205.862L424.721 252.252L398.052 221.923L410.163 175.533L436.832 205.862Z" stroke="#22A7F2" stroke-opacity="0.4" stroke-width="0.2"/>
<path d="M373.693 314.995L346.93 284.559L359.077 238.031L385.84 268.467L373.693 314.995Z" fill="#6755D9" fill-opacity="0.1"/>
<path d="M385.775 268.482L373.664 314.872L346.995 284.543L359.106 238.153L385.775 268.482Z" stroke="#22A7F2" stroke-opacity="0.4" stroke-width="0.2"/>
<path d="M385.84 268.467L359.077 238.031L371.224 191.503L397.987 221.939L385.84 268.467Z" fill="#6755D9" fill-opacity="0.1"/>
<path d="M397.922 221.954L385.811 268.345L359.142 238.016L371.253 191.625L397.922 221.954Z" stroke="#22A7F2" stroke-opacity="0.4" stroke-width="0.2"/>
<path d="M397.988 221.94L371.224 191.504L383.371 144.976L410.134 175.412L397.988 221.94Z" fill="#6755D9" fill-opacity="0.1"/>
<path d="M410.069 175.427L397.958 221.817L371.289 191.488L383.4 145.098L410.069 175.427Z" stroke="#22A7F2" stroke-opacity="0.4" stroke-width="0.2"/>
<path d="M346.93 284.559L320.167 254.123L332.313 207.595L359.077 238.031L346.93 284.559Z" fill="#6755D9" fill-opacity="0.1"/>
<path d="M359.012 238.046L346.901 284.437L320.232 254.108L332.343 207.717L359.012 238.046Z" stroke="#22A7F2" stroke-opacity="0.4" stroke-width="0.2"/>
<path d="M359.077 238.032L332.314 207.596L344.461 161.068L371.224 191.504L359.077 238.032Z" fill="#6755D9" fill-opacity="0.1"/>
<path d="M371.159 191.519L359.048 237.909L332.379 207.58L344.49 161.19L371.159 191.519Z" stroke="#22A7F2" stroke-opacity="0.4" stroke-width="0.2"/>
<path d="M371.224 191.502L344.461 161.066L356.607 114.538L383.37 144.974L371.224 191.502Z" fill="#6755D9" fill-opacity="0.1"/>
<path d="M383.306 144.99L371.195 191.38L344.525 161.051L356.636 114.661L383.306 144.99Z" stroke="#22A7F2" stroke-opacity="0.4" stroke-width="0.2"/>
<path d="M320.167 254.124L293.404 223.688L305.551 177.16L332.314 207.596L320.167 254.124Z" fill="#6755D9" fill-opacity="0.1"/>
<path d="M332.249 207.611L320.138 254.002L293.469 223.673L305.58 177.282L332.249 207.611Z" stroke="#22A7F2" stroke-opacity="0.4" stroke-width="0.2"/>
<path d="M332.313 207.594L305.55 177.159L317.696 130.631L344.46 161.067L332.313 207.594Z" fill="#6755D9" fill-opacity="0.1"/>
<path d="M344.396 161.082L332.284 207.472L305.615 177.143L317.726 130.753L344.396 161.082Z" stroke="#22A7F2" stroke-opacity="0.4" stroke-width="0.2"/>
<path d="M344.461 161.067L317.697 130.631L329.844 84.1034L356.607 114.539L344.461 161.067Z" fill="#6755D9" fill-opacity="0.1"/>
<path d="M356.542 114.554L344.431 160.945L317.762 130.616L329.873 84.2252L356.542 114.554Z" stroke="#22A7F2" stroke-opacity="0.4" stroke-width="0.2"/>
</g>
</g>
<g clip-path="url(#clip1_838_332)">
<mask id="mask1_838_332" style="mask-type:luminance" maskUnits="userSpaceOnUse" x="47" y="89" width="384" height="405">
<path d="M430.139 384.157L304.828 89.7135L47.1897 199.361L172.501 493.805L430.139 384.157Z" fill="white"/>
</mask>
<g mask="url(#mask1_838_332)">
<path d="M104.872 260.21C105.277 261.161 106.376 261.604 107.327 261.199C108.278 260.794 108.721 259.695 108.316 258.744C107.912 257.794 106.812 257.351 105.862 257.756C104.911 258.16 104.468 259.26 104.872 260.21Z" fill="#63CF97" fill-opacity="0.15"/>
<path d="M127.354 167.278C127.758 168.228 128.858 168.671 129.808 168.266C130.759 167.862 131.202 166.763 130.798 165.812C130.393 164.861 129.294 164.419 128.343 164.823C127.392 165.228 126.949 166.327 127.354 167.278Z" fill="#63CF97" fill-opacity="0.15"/>
<path d="M131.945 290.371C132.35 291.321 133.449 291.764 134.4 291.36C135.351 290.955 135.794 289.856 135.389 288.905C134.985 287.954 133.885 287.512 132.934 287.916C131.984 288.321 131.54 289.42 131.945 290.371Z" fill="#63CF97" fill-opacity="0.15"/>
<path d="M154.427 197.439C154.831 198.39 155.931 198.832 156.881 198.427C157.832 198.023 158.275 196.924 157.871 195.973C157.466 195.022 156.367 194.58 155.416 194.984C154.465 195.389 154.022 196.488 154.427 197.439Z" fill="#63CF97" fill-opacity="0.15"/>
<path d="M159.018 320.532C159.423 321.482 160.522 321.925 161.473 321.521C162.424 321.116 162.867 320.017 162.462 319.066C162.058 318.115 160.958 317.673 160.007 318.077C159.057 318.482 158.613 319.581 159.018 320.532Z" fill="#63CF97" fill-opacity="0.15"/>
<path d="M181.499 227.599C181.904 228.549 183.003 228.992 183.954 228.588C184.905 228.183 185.348 227.084 184.943 226.133C184.539 225.182 183.439 224.74 182.489 225.144C181.538 225.549 181.095 226.648 181.499 227.599Z" fill="#63CF97" fill-opacity="0.15"/>
<path d="M186.091 350.693C186.496 351.644 187.595 352.087 188.546 351.682C189.497 351.278 189.94 350.178 189.536 349.228C189.131 348.277 188.032 347.834 187.081 348.239C186.13 348.644 185.687 349.743 186.091 350.693Z" fill="#63CF97" fill-opacity="0.15"/>
<path d="M208.572 257.759C208.977 258.71 210.076 259.153 211.027 258.748C211.978 258.343 212.421 257.244 212.016 256.293C211.612 255.343 210.512 254.9 209.562 255.305C208.611 255.709 208.168 256.809 208.572 257.759Z" fill="#63CF97" fill-opacity="0.15"/>
<path d="M213.164 380.853C213.569 381.804 214.668 382.247 215.619 381.842C216.57 381.437 217.013 380.338 216.608 379.388C216.204 378.437 215.104 377.994 214.153 378.399C213.203 378.803 212.759 379.903 213.164 380.853Z" fill="#63CF97" fill-opacity="0.15"/>
<path d="M235.645 287.921C236.049 288.871 237.149 289.314 238.1 288.909C239.05 288.505 239.493 287.405 239.089 286.455C238.684 285.504 237.585 285.061 236.634 285.466C235.683 285.871 235.24 286.97 235.645 287.921Z" fill="#63CF97" fill-opacity="0.15"/>
<path d="M240.237 411.015C240.642 411.966 241.741 412.408 242.692 412.004C243.643 411.599 244.086 410.5 243.681 409.549C243.277 408.599 242.177 408.156 241.227 408.56C240.276 408.965 239.833 410.064 240.237 411.015Z" fill="#63CF97" fill-opacity="0.15"/>
<path d="M262.718 318.082C263.123 319.032 264.222 319.475 265.173 319.071C266.124 318.666 266.567 317.567 266.163 316.616C265.758 315.666 264.659 315.223 263.708 315.627C262.757 316.032 262.314 317.131 262.718 318.082Z" fill="#63CF97" fill-opacity="0.15"/>
<path d="M93.2011 306.86C93.6056 307.81 94.7051 308.253 95.6559 307.848C96.6067 307.444 97.0499 306.344 96.6453 305.394C96.2408 304.443 95.1413 304 94.1905 304.405C93.2397 304.81 92.7965 305.909 93.2011 306.86Z" fill="#63CF97" fill-opacity="0.15"/>
<path d="M115.683 213.928C116.087 214.879 117.187 215.321 118.137 214.916C119.088 214.512 119.532 213.413 119.127 212.462C118.722 211.511 117.623 211.069 116.672 211.473C115.721 211.878 115.278 212.977 115.683 213.928Z" fill="#63CF97" fill-opacity="0.15"/>
<path d="M120.274 337.021C120.679 337.971 121.778 338.414 122.729 338.009C123.68 337.605 124.123 336.505 123.718 335.555C123.314 334.604 122.214 334.161 121.263 334.566C120.313 334.971 119.87 336.07 120.274 337.021Z" fill="#63CF97" fill-opacity="0.15"/>
<path d="M142.755 244.088C143.16 245.038 144.259 245.481 145.21 245.076C146.161 244.672 146.604 243.572 146.2 242.622C145.795 241.671 144.696 241.229 143.745 241.633C142.794 242.038 142.351 243.137 142.755 244.088Z" fill="#63CF97" fill-opacity="0.15"/>
<path d="M147.348 367.182C147.752 368.133 148.852 368.576 149.802 368.171C150.753 367.766 151.196 366.667 150.792 365.717C150.387 364.766 149.288 364.323 148.337 364.728C147.386 365.132 146.943 366.232 147.348 367.182Z" fill="#63CF97" fill-opacity="0.15"/>
<path d="M169.828 274.248C170.233 275.199 171.332 275.642 172.283 275.237C173.234 274.832 173.677 273.733 173.272 272.782C172.868 271.832 171.768 271.389 170.817 271.794C169.867 272.198 169.424 273.298 169.828 274.248Z" fill="#63CF97" fill-opacity="0.15"/>
<path d="M174.42 397.342C174.825 398.293 175.924 398.736 176.875 398.331C177.826 397.926 178.269 396.827 177.864 395.876C177.46 394.926 176.36 394.483 175.409 394.888C174.459 395.292 174.016 396.392 174.42 397.342Z" fill="#63CF97" fill-opacity="0.15"/>
<path d="M196.901 304.409C197.306 305.36 198.405 305.803 199.356 305.398C200.307 304.993 200.75 303.894 200.346 302.943C199.941 301.993 198.841 301.55 197.891 301.955C196.94 302.359 196.497 303.459 196.901 304.409Z" fill="#63CF97" fill-opacity="0.15"/>
<path d="M201.493 427.504C201.898 428.454 202.997 428.897 203.948 428.493C204.899 428.088 205.342 426.989 204.938 426.038C204.533 425.087 203.434 424.645 202.483 425.049C201.532 425.454 201.089 426.553 201.493 427.504Z" fill="#63CF97" fill-opacity="0.15"/>
<path d="M223.975 334.571C224.379 335.521 225.479 335.964 226.429 335.56C227.38 335.155 227.823 334.056 227.419 333.105C227.014 332.155 225.915 331.712 224.964 332.116C224.013 332.521 223.57 333.62 223.975 334.571Z" fill="#63CF97" fill-opacity="0.15"/>
<path d="M228.566 457.663C228.97 458.614 230.07 459.057 231.02 458.652C231.971 458.247 232.414 457.148 232.01 456.197C231.605 455.247 230.506 454.804 229.555 455.209C228.604 455.613 228.161 456.713 228.566 457.663Z" fill="#63CF97" fill-opacity="0.15"/>
<path d="M251.047 364.731C251.451 365.682 252.551 366.124 253.501 365.72C254.452 365.315 254.895 364.216 254.491 363.265C254.086 362.315 252.987 361.872 252.036 362.276C251.085 362.681 250.642 363.78 251.047 364.731Z" fill="#63CF97" fill-opacity="0.15"/>
<path d="M129.076 166.545L156.149 196.706L144.478 243.356L117.405 213.195L129.076 166.545Z" fill="#63CF97" fill-opacity="0.05"/>
<path d="M117.47 213.179L129.106 166.667L156.084 196.722L144.448 243.234L117.47 213.179Z" stroke="#63CF97" stroke-opacity="0.25" stroke-width="0.2"/>
<path d="M117.405 213.194L144.478 243.355L132.806 290.004L105.734 259.844L117.405 213.194Z" fill="#63CF97" fill-opacity="0.05"/>
<path d="M105.798 259.828L117.435 213.316L144.413 243.371L132.776 289.883L105.798 259.828Z" stroke="#63CF97" stroke-opacity="0.25" stroke-width="0.2"/>
<path d="M105.734 259.844L132.807 290.005L121.136 336.655L94.0628 306.494L105.734 259.844Z" fill="#63CF97" fill-opacity="0.05"/>
<path d="M94.1278 306.478L105.764 259.966L132.742 290.021L121.106 336.533L94.1278 306.478Z" stroke="#63CF97" stroke-opacity="0.25" stroke-width="0.2"/>
<path d="M156.148 196.705L183.221 226.866L171.55 273.515L144.478 243.355L156.148 196.705Z" fill="#63CF97" fill-opacity="0.05"/>
<path d="M144.542 243.339L156.179 196.827L183.156 226.882L171.52 273.394L144.542 243.339Z" stroke="#63CF97" stroke-opacity="0.25" stroke-width="0.2"/>
<path d="M144.478 243.355L171.551 273.516L159.88 320.166L132.807 290.005L144.478 243.355Z" fill="#63CF97" fill-opacity="0.05"/>
<path d="M132.872 289.989L144.508 243.478L171.486 273.532L159.85 320.044L132.872 289.989Z" stroke="#63CF97" stroke-opacity="0.25" stroke-width="0.2"/>
<path d="M132.807 290.005L159.88 320.166L148.209 366.816L121.136 336.655L132.807 290.005Z" fill="#63CF97" fill-opacity="0.05"/>
<path d="M121.201 336.639L132.837 290.127L159.815 320.182L148.178 366.693L121.201 336.639Z" stroke="#63CF97" stroke-opacity="0.25" stroke-width="0.2"/>
<path d="M183.222 226.866L210.295 257.028L198.624 303.677L171.551 273.516L183.222 226.866Z" fill="#63CF97" fill-opacity="0.05"/>
<path d="M171.616 273.5L183.252 226.989L210.23 257.044L198.593 303.555L171.616 273.5Z" stroke="#63CF97" stroke-opacity="0.25" stroke-width="0.2"/>
<path d="M171.551 273.516L198.624 303.677L186.953 350.327L159.88 320.166L171.551 273.516Z" fill="#63CF97" fill-opacity="0.05"/>
<path d="M159.944 320.15L171.581 273.638L198.559 303.693L186.922 350.205L159.944 320.15Z" stroke="#63CF97" stroke-opacity="0.25" stroke-width="0.2"/>
<path d="M159.879 320.165L186.952 350.326L175.281 396.975L148.208 366.815L159.879 320.165Z" fill="#63CF97" fill-opacity="0.05"/>
<path d="M148.273 366.799L159.91 320.287L186.887 350.342L175.251 396.853L148.273 366.799Z" stroke="#63CF97" stroke-opacity="0.25" stroke-width="0.2"/>
<path d="M210.295 257.027L237.368 287.188L225.697 333.838L198.624 303.677L210.295 257.027Z" fill="#63CF97" fill-opacity="0.05"/>
<path d="M198.688 303.661L210.325 257.149L237.302 287.204L225.666 333.716L198.688 303.661Z" stroke="#63CF97" stroke-opacity="0.25" stroke-width="0.2"/>
<path d="M198.623 303.676L225.696 333.837L214.025 380.486L186.952 350.326L198.623 303.676Z" fill="#63CF97" fill-opacity="0.05"/>
<path d="M187.017 350.31L198.653 303.798L225.631 333.853L213.995 380.365L187.017 350.31Z" stroke="#63CF97" stroke-opacity="0.25" stroke-width="0.2"/>
<path d="M186.953 350.327L214.026 380.488L202.355 427.138L175.282 396.977L186.953 350.327Z" fill="#63CF97" fill-opacity="0.05"/>
<path d="M175.347 396.961L186.983 350.449L213.961 380.504L202.325 427.016L175.347 396.961Z" stroke="#63CF97" stroke-opacity="0.25" stroke-width="0.2"/>
<path d="M237.367 287.187L264.44 317.348L252.769 363.997L225.696 333.837L237.367 287.187Z" fill="#63CF97" fill-opacity="0.05"/>
<path d="M225.761 333.821L237.397 287.309L264.375 317.364L252.738 363.876L225.761 333.821Z" stroke="#63CF97" stroke-opacity="0.25" stroke-width="0.2"/>
<path d="M225.697 333.839L252.77 363.999L241.099 410.649L214.026 380.488L225.697 333.839Z" fill="#63CF97" fill-opacity="0.05"/>
<path d="M214.091 380.472L225.727 333.96L252.705 364.015L241.068 410.527L214.091 380.472Z" stroke="#63CF97" stroke-opacity="0.25" stroke-width="0.2"/>
<path d="M214.025 380.487L241.098 410.648L229.427 457.298L202.355 427.137L214.025 380.487Z" fill="#63CF97" fill-opacity="0.05"/>
<path d="M202.42 427.121L214.056 380.61L241.034 410.664L229.397 457.176L202.42 427.121Z" stroke="#63CF97" stroke-opacity="0.25" stroke-width="0.2"/>
<path d="M148.313 241.722C148.718 242.673 149.817 243.116 150.768 242.711C151.719 242.306 152.162 241.207 151.758 240.256C151.353 239.306 150.254 238.863 149.303 239.268C148.352 239.672 147.909 240.772 148.313 241.722Z" fill="#22A7F2" fill-opacity="0.6"/>
<path d="M170.795 148.79C171.199 149.74 172.298 150.183 173.249 149.778C174.2 149.374 174.643 148.275 174.239 147.324C173.834 146.373 172.735 145.931 171.784 146.335C170.833 146.74 170.39 147.839 170.795 148.79Z" fill="#22A7F2" fill-opacity="0.6"/>
<path d="M175.386 271.883C175.791 272.833 176.89 273.276 177.841 272.872C178.792 272.467 179.235 271.368 178.83 270.417C178.426 269.466 177.326 269.024 176.376 269.428C175.425 269.833 174.982 270.932 175.386 271.883Z" fill="#22A7F2" fill-opacity="0.6"/>
<path d="M197.868 178.951C198.272 179.902 199.371 180.344 200.322 179.94C201.273 179.535 201.716 178.436 201.312 177.485C200.907 176.535 199.808 176.092 198.857 176.497C197.906 176.901 197.463 178 197.868 178.951Z" fill="#22A7F2" fill-opacity="0.6"/>
<path d="M202.459 302.044C202.864 302.994 203.963 303.437 204.914 303.033C205.865 302.628 206.308 301.529 205.903 300.578C205.499 299.628 204.399 299.185 203.449 299.589C202.498 299.994 202.055 301.093 202.459 302.044Z" fill="#22A7F2" fill-opacity="0.6"/>
<path d="M224.94 209.111C225.345 210.061 226.444 210.504 227.395 210.1C228.346 209.695 228.789 208.596 228.384 207.645C227.98 206.695 226.881 206.252 225.93 206.656C224.978 207.061 224.536 208.16 224.94 209.111Z" fill="#22A7F2" fill-opacity="0.6"/>
<path d="M229.532 332.205C229.937 333.156 231.036 333.599 231.987 333.194C232.938 332.79 233.381 331.69 232.977 330.74C232.572 329.789 231.473 329.346 230.522 329.751C229.571 330.156 229.128 331.255 229.532 332.205Z" fill="#22A7F2" fill-opacity="0.6"/>
<path d="M252.013 239.271C252.418 240.222 253.517 240.665 254.467 240.26C255.419 239.855 255.861 238.756 255.457 237.806C255.052 236.855 253.953 236.412 253.002 236.817C252.051 237.222 251.609 238.321 252.013 239.271Z" fill="#22A7F2" fill-opacity="0.6"/>
<path d="M256.605 362.365C257.009 363.316 258.109 363.759 259.06 363.354C260.011 362.95 260.454 361.85 260.049 360.9C259.645 359.949 258.545 359.506 257.594 359.911C256.643 360.316 256.2 361.415 256.605 362.365Z" fill="#22A7F2" fill-opacity="0.6"/>
<path d="M279.086 269.432C279.491 270.383 280.59 270.826 281.54 270.421C282.492 270.016 282.934 268.917 282.53 267.967C282.125 267.016 281.026 266.573 280.075 266.978C279.124 267.383 278.682 268.482 279.086 269.432Z" fill="#22A7F2" fill-opacity="0.6"/>
<path d="M283.678 392.527C284.083 393.478 285.182 393.92 286.133 393.516C287.084 393.111 287.527 392.012 287.123 391.061C286.718 390.111 285.619 389.668 284.668 390.073C283.717 390.477 283.274 391.576 283.678 392.527Z" fill="#22A7F2" fill-opacity="0.6"/>
<path d="M306.159 299.594C306.564 300.545 307.663 300.988 308.614 300.583C309.565 300.178 310.008 299.079 309.603 298.128C309.199 297.178 308.1 296.735 307.148 297.14C306.197 297.544 305.755 298.643 306.159 299.594Z" fill="#22A7F2" fill-opacity="0.6"/>
<path d="M136.642 288.372C137.047 289.322 138.146 289.765 139.097 289.36C140.048 288.956 140.491 287.856 140.086 286.906C139.682 285.955 138.582 285.512 137.632 285.917C136.681 286.322 136.238 287.421 136.642 288.372Z" fill="#22A7F2" fill-opacity="0.6"/>
<path d="M159.124 195.44C159.529 196.391 160.628 196.833 161.579 196.428C162.529 196.024 162.973 194.925 162.568 193.974C162.163 193.023 161.064 192.581 160.113 192.985C159.163 193.39 158.719 194.489 159.124 195.44Z" fill="#22A7F2" fill-opacity="0.6"/>
<path d="M163.715 318.533C164.12 319.483 165.219 319.926 166.17 319.522C167.121 319.117 167.564 318.018 167.159 317.067C166.755 316.116 165.655 315.674 164.705 316.078C163.754 316.483 163.311 317.582 163.715 318.533Z" fill="#22A7F2" fill-opacity="0.6"/>
<path d="M186.196 225.6C186.601 226.55 187.7 226.993 188.651 226.588C189.602 226.184 190.045 225.084 189.641 224.134C189.236 223.183 188.137 222.74 187.186 223.145C186.235 223.55 185.792 224.649 186.196 225.6Z" fill="#22A7F2" fill-opacity="0.6"/>
<path d="M190.788 348.694C191.193 349.645 192.292 350.088 193.243 349.683C194.194 349.278 194.637 348.179 194.233 347.229C193.828 346.278 192.729 345.835 191.778 346.24C190.827 346.644 190.384 347.744 190.788 348.694Z" fill="#22A7F2" fill-opacity="0.6"/>
<path d="M213.269 255.76C213.674 256.711 214.773 257.154 215.724 256.749C216.675 256.344 217.118 255.245 216.713 254.294C216.309 253.344 215.209 252.901 214.259 253.306C213.308 253.71 212.865 254.81 213.269 255.76Z" fill="#22A7F2" fill-opacity="0.6"/>
<path d="M217.861 378.854C218.266 379.805 219.365 380.248 220.316 379.843C221.267 379.438 221.71 378.339 221.305 377.389C220.901 376.438 219.801 375.995 218.85 376.4C217.9 376.804 217.456 377.904 217.861 378.854Z" fill="#22A7F2" fill-opacity="0.6"/>
<path d="M240.342 285.921C240.747 286.872 241.846 287.315 242.797 286.91C243.748 286.505 244.19 285.406 243.786 284.456C243.381 283.505 242.282 283.062 241.331 283.467C240.38 283.872 239.938 284.971 240.342 285.921Z" fill="#22A7F2" fill-opacity="0.6"/>
<path d="M244.934 409.016C245.339 409.967 246.438 410.409 247.389 410.005C248.34 409.6 248.783 408.501 248.379 407.55C247.974 406.6 246.875 406.157 245.924 406.561C244.973 406.966 244.53 408.065 244.934 409.016Z" fill="#22A7F2" fill-opacity="0.6"/>
<path d="M267.416 316.083C267.82 317.033 268.919 317.477 269.87 317.072C270.821 316.667 271.264 315.568 270.859 314.617C270.455 313.667 269.356 313.224 268.404 313.629C267.454 314.033 267.011 315.132 267.416 316.083Z" fill="#22A7F2" fill-opacity="0.6"/>
<path d="M272.007 439.175C272.411 440.126 273.511 440.569 274.462 440.164C275.412 439.759 275.856 438.66 275.451 437.71C275.046 436.759 273.947 436.316 272.996 436.721C272.045 437.125 271.602 438.225 272.007 439.175Z" fill="#22A7F2" fill-opacity="0.6"/>
<path d="M294.488 346.243C294.893 347.193 295.991 347.637 296.942 347.232C297.894 346.827 298.336 345.728 297.932 344.777C297.527 343.827 296.428 343.384 295.477 343.789C294.526 344.193 294.083 345.292 294.488 346.243Z" fill="#22A7F2" fill-opacity="0.6"/>
<path d="M172.517 148.057L199.59 178.218L187.919 224.868L160.846 194.707L172.517 148.057Z" fill="#22A7F2" fill-opacity="0.1"/>
<path d="M160.911 194.691L172.547 148.179L199.525 178.234L187.888 224.746L160.911 194.691Z" stroke="#22A7F2" stroke-opacity="0.4" stroke-width="0.2"/>
<path d="M160.845 194.706L187.918 224.867L176.247 271.516L149.175 241.356L160.845 194.706Z" fill="#22A7F2" fill-opacity="0.1"/>
<path d="M149.24 241.34L160.876 194.828L187.854 224.883L176.217 271.394L149.24 241.34Z" stroke="#22A7F2" stroke-opacity="0.4" stroke-width="0.2"/>
<path d="M149.175 241.356L176.248 271.517L164.577 318.167L137.504 288.006L149.175 241.356Z" fill="#22A7F2" fill-opacity="0.1"/>
<path d="M137.569 287.99L149.205 241.479L176.183 271.533L164.547 318.045L137.569 287.99Z" stroke="#22A7F2" stroke-opacity="0.4" stroke-width="0.2"/>
<path d="M199.589 178.217L226.662 208.378L214.991 255.027L187.918 224.867L199.589 178.217Z" fill="#22A7F2" fill-opacity="0.1"/>
<path d="M187.983 224.851L199.62 178.339L226.598 208.394L214.961 254.906L187.983 224.851Z" stroke="#22A7F2" stroke-opacity="0.4" stroke-width="0.2"/>
<path d="M187.918 224.868L214.991 255.029L203.32 301.678L176.248 271.517L187.918 224.868Z" fill="#22A7F2" fill-opacity="0.1"/>
<path d="M176.312 271.502L187.949 224.99L214.927 255.045L203.29 301.556L176.312 271.502Z" stroke="#22A7F2" stroke-opacity="0.4" stroke-width="0.2"/>
<path d="M176.248 271.517L203.321 301.678L191.65 348.328L164.577 318.167L176.248 271.517Z" fill="#22A7F2" fill-opacity="0.1"/>
<path d="M164.642 318.151L176.278 271.639L203.256 301.694L191.619 348.206L164.642 318.151Z" stroke="#22A7F2" stroke-opacity="0.4" stroke-width="0.2"/>
<path d="M226.662 208.379L253.735 238.54L242.064 285.189L214.992 255.028L226.662 208.379Z" fill="#22A7F2" fill-opacity="0.1"/>
<path d="M215.056 255.013L226.693 208.501L253.671 238.556L242.034 285.067L215.056 255.013Z" stroke="#22A7F2" stroke-opacity="0.4" stroke-width="0.2"/>
<path d="M214.992 255.028L242.065 285.189L230.394 331.839L203.321 301.678L214.992 255.028Z" fill="#22A7F2" fill-opacity="0.1"/>
<path d="M203.385 301.662L215.022 255.15L242 285.205L230.363 331.717L203.385 301.662Z" stroke="#22A7F2" stroke-opacity="0.4" stroke-width="0.2"/>
<path d="M203.32 301.677L230.393 331.838L218.722 378.487L191.65 348.327L203.32 301.677Z" fill="#22A7F2" fill-opacity="0.1"/>
<path d="M191.714 348.311L203.35 301.799L230.328 331.854L218.692 378.366L191.714 348.311Z" stroke="#22A7F2" stroke-opacity="0.4" stroke-width="0.2"/>
<path d="M253.735 238.54L280.808 268.7L269.137 315.35L242.065 285.189L253.735 238.54Z" fill="#22A7F2" fill-opacity="0.1"/>
<path d="M242.129 285.173L253.766 238.661L280.744 268.716L269.107 315.228L242.129 285.173Z" stroke="#22A7F2" stroke-opacity="0.4" stroke-width="0.2"/>
<path d="M242.064 285.188L269.137 315.349L257.465 361.999L230.393 331.838L242.064 285.188Z" fill="#22A7F2" fill-opacity="0.1"/>
<path d="M230.458 331.822L242.094 285.31L269.072 315.365L257.435 361.877L230.458 331.822Z" stroke="#22A7F2" stroke-opacity="0.4" stroke-width="0.2"/>
<path d="M230.393 331.84L257.466 362L245.795 408.65L218.723 378.489L230.393 331.84Z" fill="#22A7F2" fill-opacity="0.1"/>
<path d="M218.787 378.473L230.424 331.961L257.402 362.016L245.765 408.528L218.787 378.473Z" stroke="#22A7F2" stroke-opacity="0.4" stroke-width="0.2"/>
<path d="M280.807 268.699L307.88 298.86L296.209 345.51L269.137 315.349L280.807 268.699Z" fill="#22A7F2" fill-opacity="0.1"/>
<path d="M269.201 315.333L280.838 268.821L307.816 298.876L296.179 345.388L269.201 315.333Z" stroke="#22A7F2" stroke-opacity="0.4" stroke-width="0.2"/>
<path d="M269.138 315.35L296.21 345.511L284.54 392.161L257.467 362L269.138 315.35Z" fill="#22A7F2" fill-opacity="0.1"/>
<path d="M257.531 361.984L269.168 315.472L296.146 345.527L284.509 392.039L257.531 361.984Z" stroke="#22A7F2" stroke-opacity="0.4" stroke-width="0.2"/>
<path d="M257.466 362L284.539 392.161L272.869 438.81L245.796 408.649L257.466 362Z" fill="#22A7F2" fill-opacity="0.1"/>
<path d="M245.86 408.633L257.497 362.122L284.475 392.177L272.838 438.688L245.86 408.633Z" stroke="#22A7F2" stroke-opacity="0.4" stroke-width="0.2"/>
<path d="M219.367 211.483C219.772 212.433 220.871 212.876 221.822 212.471C222.773 212.067 223.216 210.967 222.811 210.017C222.407 209.066 221.307 208.623 220.357 209.028C219.406 209.433 218.963 210.532 219.367 211.483Z" fill="#6755D9" fill-opacity="0.5"/>
<path d="M241.848 118.55C242.253 119.501 243.352 119.943 244.303 119.539C245.254 119.134 245.697 118.035 245.293 117.084C244.888 116.133 243.789 115.691 242.838 116.096C241.887 116.5 241.444 117.599 241.848 118.55Z" fill="#6755D9" fill-opacity="0.5"/>
<path d="M246.44 241.643C246.845 242.594 247.944 243.037 248.895 242.632C249.846 242.227 250.289 241.128 249.884 240.177C249.48 239.227 248.38 238.784 247.43 239.189C246.479 239.593 246.036 240.693 246.44 241.643Z" fill="#6755D9" fill-opacity="0.5"/>
<path d="M268.922 148.711C269.326 149.662 270.425 150.105 271.376 149.7C272.327 149.295 272.77 148.197 272.365 147.246C271.961 146.295 270.862 145.852 269.911 146.257C268.96 146.662 268.517 147.761 268.922 148.711Z" fill="#6755D9" fill-opacity="0.5"/>
<path d="M273.513 271.804C273.918 272.755 275.017 273.198 275.968 272.793C276.919 272.388 277.362 271.289 276.957 270.338C276.553 269.388 275.453 268.945 274.503 269.35C273.552 269.754 273.109 270.854 273.513 271.804Z" fill="#6755D9" fill-opacity="0.5"/>
<path d="M295.994 178.871C296.399 179.822 297.498 180.265 298.449 179.86C299.4 179.455 299.843 178.356 299.438 177.406C299.033 176.455 297.934 176.012 296.983 176.417C296.032 176.822 295.59 177.921 295.994 178.871Z" fill="#6755D9" fill-opacity="0.5"/>
<path d="M300.586 301.966C300.991 302.916 302.09 303.359 303.041 302.955C303.992 302.55 304.435 301.451 304.031 300.5C303.626 299.549 302.527 299.107 301.576 299.511C300.625 299.916 300.182 301.015 300.586 301.966Z" fill="#6755D9" fill-opacity="0.5"/>
<path d="M323.067 209.032C323.471 209.982 324.571 210.425 325.522 210.021C326.473 209.616 326.915 208.517 326.511 207.566C326.106 206.616 325.007 206.173 324.056 206.577C323.105 206.982 322.662 208.081 323.067 209.032Z" fill="#6755D9" fill-opacity="0.5"/>
<path d="M327.659 332.126C328.063 333.076 329.163 333.519 330.114 333.115C331.065 332.71 331.508 331.611 331.103 330.66C330.699 329.709 329.599 329.267 328.648 329.671C327.697 330.076 327.254 331.175 327.659 332.126Z" fill="#6755D9" fill-opacity="0.5"/>
<path d="M350.14 239.193C350.544 240.143 351.644 240.586 352.595 240.182C353.546 239.777 353.988 238.678 353.584 237.727C353.179 236.777 352.08 236.334 351.129 236.738C350.178 237.143 349.735 238.242 350.14 239.193Z" fill="#6755D9" fill-opacity="0.5"/>
<path d="M354.732 362.287C355.137 363.238 356.236 363.681 357.187 363.276C358.138 362.871 358.581 361.772 358.176 360.822C357.772 359.871 356.673 359.428 355.722 359.833C354.771 360.237 354.328 361.337 354.732 362.287Z" fill="#6755D9" fill-opacity="0.5"/>
<path d="M377.213 269.354C377.618 270.305 378.717 270.748 379.668 270.343C380.619 269.939 381.062 268.839 380.657 267.889C380.252 266.938 379.153 266.495 378.202 266.9C377.251 267.305 376.809 268.404 377.213 269.354Z" fill="#6755D9" fill-opacity="0.5"/>
<path d="M207.696 258.132C208.101 259.083 209.2 259.525 210.151 259.121C211.102 258.716 211.545 257.617 211.14 256.666C210.736 255.716 209.636 255.273 208.686 255.677C207.735 256.082 207.292 257.181 207.696 258.132Z" fill="#6755D9" fill-opacity="0.5"/>
<path d="M230.178 165.2C230.582 166.151 231.682 166.593 232.633 166.189C233.583 165.784 234.027 164.685 233.622 163.734C233.217 162.784 232.118 162.341 231.167 162.746C230.216 163.151 229.773 164.25 230.178 165.2Z" fill="#6755D9" fill-opacity="0.5"/>
<path d="M234.769 288.293C235.174 289.244 236.273 289.687 237.224 289.282C238.175 288.877 238.618 287.778 238.213 286.827C237.809 285.877 236.709 285.434 235.759 285.839C234.808 286.243 234.365 287.343 234.769 288.293Z" fill="#6755D9" fill-opacity="0.5"/>
<path d="M257.25 195.36C257.655 196.311 258.754 196.753 259.705 196.349C260.656 195.944 261.099 194.845 260.695 193.894C260.29 192.944 259.191 192.501 258.24 192.906C257.289 193.31 256.846 194.41 257.25 195.36Z" fill="#6755D9" fill-opacity="0.5"/>
<path d="M261.842 318.455C262.247 319.405 263.346 319.848 264.297 319.443C265.248 319.039 265.691 317.939 265.287 316.989C264.882 316.038 263.783 315.595 262.832 316C261.881 316.405 261.438 317.504 261.842 318.455Z" fill="#6755D9" fill-opacity="0.5"/>
<path d="M284.323 225.521C284.728 226.471 285.827 226.914 286.778 226.509C287.729 226.105 288.172 225.005 287.767 224.055C287.363 223.104 286.263 222.661 285.313 223.066C284.362 223.471 283.919 224.57 284.323 225.521Z" fill="#6755D9" fill-opacity="0.5"/>
<path d="M288.915 348.615C289.32 349.565 290.419 350.008 291.37 349.603C292.321 349.199 292.764 348.099 292.359 347.149C291.955 346.198 290.855 345.755 289.904 346.16C288.954 346.565 288.51 347.664 288.915 348.615Z" fill="#6755D9" fill-opacity="0.5"/>
<path d="M311.396 255.682C311.801 256.632 312.9 257.075 313.851 256.671C314.802 256.266 315.244 255.167 314.84 254.216C314.435 253.265 313.336 252.822 312.385 253.227C311.434 253.632 310.992 254.731 311.396 255.682Z" fill="#6755D9" fill-opacity="0.5"/>
<path d="M315.988 378.776C316.393 379.727 317.492 380.17 318.443 379.765C319.394 379.36 319.837 378.261 319.432 377.311C319.028 376.36 317.928 375.917 316.978 376.322C316.027 376.726 315.584 377.826 315.988 378.776Z" fill="#6755D9" fill-opacity="0.5"/>
<path d="M338.469 285.843C338.874 286.794 339.973 287.237 340.924 286.832C341.875 286.427 342.318 285.328 341.913 284.378C341.509 283.427 340.409 282.984 339.458 283.389C338.507 283.794 338.065 284.893 338.469 285.843Z" fill="#6755D9" fill-opacity="0.5"/>
<path d="M343.061 408.936C343.465 409.886 344.565 410.329 345.516 409.924C346.466 409.52 346.909 408.421 346.505 407.47C346.1 406.519 345.001 406.077 344.05 406.481C343.099 406.886 342.656 407.985 343.061 408.936Z" fill="#6755D9" fill-opacity="0.5"/>
<path d="M365.542 316.003C365.946 316.954 367.045 317.397 367.996 316.992C368.947 316.587 369.39 315.488 368.986 314.538C368.581 313.587 367.482 313.144 366.531 313.549C365.58 313.953 365.137 315.053 365.542 316.003Z" fill="#6755D9" fill-opacity="0.5"/>
<path d="M243.571 117.818L270.644 147.979L258.973 194.628L231.9 164.467L243.571 117.818Z" fill="#6755D9" fill-opacity="0.1"/>
<path d="M231.965 164.451L243.601 117.94L270.579 147.995L258.942 194.506L231.965 164.451Z" stroke="#22A7F2" stroke-opacity="0.4" stroke-width="0.2"/>
<path d="M231.899 164.466L258.972 194.627L247.301 241.277L220.228 211.116L231.899 164.466Z" fill="#6755D9" fill-opacity="0.1"/>
<path d="M220.293 211.1L231.93 164.588L258.907 194.643L247.271 241.155L220.293 211.1Z" stroke="#22A7F2" stroke-opacity="0.4" stroke-width="0.2"/>
<path d="M220.229 211.117L247.302 241.278L235.631 287.927L208.558 257.767L220.229 211.117Z" fill="#6755D9" fill-opacity="0.1"/>
<path d="M208.623 257.751L220.259 211.239L247.237 241.294L235.601 287.805L208.623 257.751Z" stroke="#22A7F2" stroke-opacity="0.4" stroke-width="0.2"/>
<path d="M270.643 147.978L297.716 178.138L286.045 224.788L258.972 194.627L270.643 147.978Z" fill="#6755D9" fill-opacity="0.1"/>
<path d="M259.037 194.611L270.674 148.1L297.651 178.154L286.015 224.666L259.037 194.611Z" stroke="#22A7F2" stroke-opacity="0.4" stroke-width="0.2"/>
<path d="M258.972 194.628L286.045 224.789L274.374 271.438L247.302 241.278L258.972 194.628Z" fill="#6755D9" fill-opacity="0.1"/>
<path d="M247.366 241.262L259.003 194.75L285.981 224.805L274.344 271.317L247.366 241.262Z" stroke="#22A7F2" stroke-opacity="0.4" stroke-width="0.2"/>
<path d="M247.302 241.278L274.375 271.438L262.704 318.088L235.631 287.927L247.302 241.278Z" fill="#6755D9" fill-opacity="0.1"/>
<path d="M235.696 287.911L247.332 241.399L274.31 271.454L262.673 317.966L235.696 287.911Z" stroke="#22A7F2" stroke-opacity="0.4" stroke-width="0.2"/>
<path d="M297.716 178.139L324.789 208.3L313.118 254.949L286.046 224.789L297.716 178.139Z" fill="#6755D9" fill-opacity="0.1"/>
<path d="M286.11 224.773L297.747 178.261L324.725 208.316L313.088 254.828L286.11 224.773Z" stroke="#22A7F2" stroke-opacity="0.4" stroke-width="0.2"/>
<path d="M286.046 224.789L313.118 254.949L301.448 301.599L274.375 271.438L286.046 224.789Z" fill="#6755D9" fill-opacity="0.1"/>
<path d="M274.439 271.422L286.076 224.911L313.053 254.965L301.417 301.477L274.439 271.422Z" stroke="#22A7F2" stroke-opacity="0.4" stroke-width="0.2"/>
<path d="M274.374 271.437L301.447 301.598L289.776 348.248L262.703 318.087L274.374 271.437Z" fill="#6755D9" fill-opacity="0.1"/>
<path d="M262.768 318.071L274.404 271.559L301.382 301.614L289.746 348.126L262.768 318.071Z" stroke="#22A7F2" stroke-opacity="0.4" stroke-width="0.2"/>
<path d="M324.789 208.3L351.862 238.461L340.191 285.111L313.118 254.949L324.789 208.3Z" fill="#6755D9" fill-opacity="0.1"/>
<path d="M313.183 254.933L324.82 208.422L351.797 238.477L340.161 284.988L313.183 254.933Z" stroke="#22A7F2" stroke-opacity="0.4" stroke-width="0.2"/>
<path d="M313.118 254.948L340.191 285.109L328.52 331.759L301.447 301.598L313.118 254.948Z" fill="#6755D9" fill-opacity="0.1"/>
<path d="M301.512 301.582L313.148 255.071L340.126 285.125L328.489 331.637L301.512 301.582Z" stroke="#22A7F2" stroke-opacity="0.4" stroke-width="0.2"/>
<path d="M301.447 301.6L328.52 331.76L316.849 378.41L289.777 348.249L301.447 301.6Z" fill="#6755D9" fill-opacity="0.1"/>
<path d="M289.841 348.233L301.478 301.722L328.456 331.776L316.819 378.288L289.841 348.233Z" stroke="#22A7F2" stroke-opacity="0.4" stroke-width="0.2"/>
<path d="M351.862 238.459L378.935 268.621L367.264 315.27L340.191 285.109L351.862 238.459Z" fill="#6755D9" fill-opacity="0.1"/>
<path d="M340.256 285.093L351.892 238.582L378.87 268.637L367.233 315.148L340.256 285.093Z" stroke="#22A7F2" stroke-opacity="0.4" stroke-width="0.2"/>
<path d="M340.192 285.111L367.264 315.272L355.594 361.921L328.521 331.76L340.192 285.111Z" fill="#6755D9" fill-opacity="0.1"/>
<path d="M328.585 331.744L340.222 285.233L367.199 315.288L355.563 361.799L328.585 331.744Z" stroke="#22A7F2" stroke-opacity="0.4" stroke-width="0.2"/>
<path d="M328.52 331.76L355.593 361.921L343.922 408.57L316.85 378.41L328.52 331.76Z" fill="#6755D9" fill-opacity="0.1"/>
<path d="M316.914 378.394L328.551 331.882L355.529 361.937L343.892 408.449L316.914 378.394Z" stroke="#22A7F2" stroke-opacity="0.4" stroke-width="0.2"/>
</g>
</g>
</g>
<defs>
<clipPath id="clip0_838_332">
<rect width="320" height="280" fill="white" transform="translate(365.679 403.343) rotate(-112.469)"/>
</clipPath>
<clipPath id="clip1_838_332">
<rect width="320" height="280" fill="white" transform="translate(304.828 89.7135) rotate(66.946)"/>
</clipPath>
</defs>
</svg>
