<svg width="130" height="129" viewBox="0 0 130 129" fill="none" xmlns="http://www.w3.org/2000/svg">
<g style="mix-blend-mode:luminosity">
<path fill-rule="evenodd" clip-rule="evenodd" d="M129 91.5749C128.982 92.4942 128.354 93.4151 127.116 94.1207L68.8735 127.096C66.0827 128.496 62.7946 128.496 60.0037 127.096L2.81322 94.1207C1.5957 93.4136 0.995233 92.4942 1.00003 91.5749H1V83.7382H6.22449V87.1017L61.0555 56.0578C63.8507 54.6521 67.1459 54.6521 69.941 56.0578L123.776 87.0556V83.7382H129V91.5749H129Z" fill="#0D1824"/>
<path fill-rule="evenodd" clip-rule="evenodd" d="M129 91.5749C128.982 92.4942 128.354 93.4151 127.116 94.1207L68.8735 127.096C66.0827 128.496 62.7946 128.496 60.0037 127.096L2.81322 94.1207C1.5957 93.4136 0.995233 92.4942 1.00003 91.5749H1V83.7382H6.22449V87.1017L61.0555 56.0578C63.8507 54.6521 67.1459 54.6521 69.941 56.0578L123.776 87.0556V83.7382H129V91.5749H129Z" fill="url(#paint0_linear_737_846)"/>
<path d="M127.116 94.1207L127.362 94.5558L127.363 94.5552L127.116 94.1207ZM129 91.5749V91.0749H128.509L128.5 91.5655L129 91.5749ZM68.8735 127.096L69.0978 127.543L69.109 127.537L69.1199 127.531L68.8735 127.096ZM60.0037 127.096L59.754 127.529L59.7665 127.536L59.7795 127.543L60.0037 127.096ZM2.81322 94.1207L2.56211 94.5531L2.56347 94.5539L2.81322 94.1207ZM1.00003 91.5749L1.50002 91.5776L1.50264 91.0749H1.00003V91.5749ZM1 91.5749H0.5V92.0749H1V91.5749ZM1 83.7382V83.2382H0.5V83.7382H1ZM6.22449 83.7382H6.72449V83.2382H6.22449V83.7382ZM6.22449 87.1017H5.72449V87.9594L6.47083 87.5368L6.22449 87.1017ZM61.0555 56.0578L60.8309 55.6111L60.8199 55.6166L60.8092 55.6227L61.0555 56.0578ZM69.941 56.0578L70.1905 55.6245L70.1783 55.6174L70.1657 55.6111L69.941 56.0578ZM123.776 87.0556L123.526 87.4889L124.276 87.9204V87.0556H123.776ZM123.776 83.7382V83.2382H123.276V83.7382H123.776ZM129 83.7382H129.5V83.2382H129V83.7382ZM129 91.5749V92.0749H129.5V91.5749H129ZM127.363 94.5552C128.69 93.7996 129.478 92.7441 129.5 91.5844L128.5 91.5655C128.487 92.2444 128.019 93.0307 126.868 93.6863L127.363 94.5552ZM69.1199 127.531L127.362 94.5558L126.869 93.6856L68.6272 126.661L69.1199 127.531ZM59.7795 127.543C62.7114 129.014 66.1658 129.014 69.0978 127.543L68.6493 126.649C65.9995 127.979 62.8777 127.979 60.228 126.649L59.7795 127.543ZM2.56347 94.5539L59.754 127.529L60.2535 126.663L3.06298 93.6876L2.56347 94.5539ZM0.500035 91.5723C0.493977 92.7337 1.25324 93.7929 2.56211 94.5531L3.06434 93.6884C1.93816 93.0343 1.49649 92.2547 1.50002 91.5776L0.500035 91.5723ZM1 92.0749H1.00003V91.0749H1V92.0749ZM0.5 83.7382V91.5749H1.5V83.7382H0.5ZM6.22449 83.2382H1V84.2382H6.22449V83.2382ZM6.72449 87.1017V83.7382H5.72449V87.1017H6.72449ZM60.8092 55.6227L5.97815 86.6666L6.47083 87.5368L61.3019 56.4929L60.8092 55.6227ZM70.1657 55.6111C67.2292 54.1343 63.7674 54.1343 60.8309 55.6111L61.2802 56.5045C63.934 55.1699 67.0626 55.1699 69.7164 56.5045L70.1657 55.6111ZM124.025 86.6223L70.1905 55.6245L69.6915 56.4911L123.526 87.4889L124.025 86.6223ZM124.276 87.0556V83.7382H123.276V87.0556H124.276ZM123.776 84.2382H129V83.2382H123.776V84.2382ZM128.5 83.7382V91.5749H129.5V83.7382H128.5ZM129 91.0749H129V92.0749H129V91.0749Z" fill="#8354C0"/>
<path d="M127.21 81.1964C129.628 82.5939 129.596 84.8708 127.116 86.284L68.8735 119.259C66.0827 120.66 62.7946 120.66 60.0037 119.259L2.81322 86.284C0.379919 84.8708 0.411317 82.6096 2.81322 81.1964L61.0555 48.2211C63.8507 46.8154 67.1459 46.8154 69.941 48.2211L127.21 81.1964Z" fill="#0D1824"/>
<path d="M127.21 81.1964C129.628 82.5939 129.596 84.8708 127.116 86.284L68.8735 119.259C66.0827 120.66 62.7946 120.66 60.0037 119.259L2.81322 86.284C0.379919 84.8708 0.411317 82.6096 2.81322 81.1964L61.0555 48.2211C63.8507 46.8154 67.1459 46.8154 69.941 48.2211L127.21 81.1964Z" fill="url(#paint1_linear_737_846)"/>
<path d="M127.21 81.1964C129.628 82.5939 129.596 84.8708 127.116 86.284L68.8735 119.259C66.0827 120.66 62.7946 120.66 60.0037 119.259L2.81322 86.284C0.379919 84.8708 0.411317 82.6096 2.81322 81.1964L61.0555 48.2211C63.8507 46.8154 67.1459 46.8154 69.941 48.2211L127.21 81.1964Z" stroke="#8354C0"/>
<g opacity="0.7">
<path d="M109.645 83.7417L65.3384 109.425L20.7383 83.7417L65.045 58.0686L109.645 83.7417Z" fill="#0D1824"/>
<path d="M109.645 83.7417L65.3384 109.425L20.7383 83.7417L65.045 58.0686L109.645 83.7417Z" fill="url(#paint2_linear_737_846)"/>
</g>
<path d="M109.645 52.3948L65.3384 78.0784L20.7383 52.3948L65.045 26.7216L109.645 52.3948Z" fill="#0D1824"/>
<path d="M109.645 52.3948L65.3384 78.0784L20.7383 52.3948L65.045 26.7216L109.645 52.3948Z" fill="url(#paint3_linear_737_846)"/>
<path d="M109.645 52.3948L65.3384 78.0784L20.7383 52.3948L65.045 26.7216L109.645 52.3948Z" stroke="#FD932A"/>
<path d="M109.499 78.6844L65.1919 104.358V78.1069L109.645 52.3948L109.499 78.6844Z" fill="#0D1824"/>
<path d="M109.499 78.6844L65.1919 104.358V78.1069L109.645 52.3948L109.499 78.6844Z" fill="url(#paint4_linear_737_846)"/>
<path d="M109.499 78.6844L65.1919 104.358V78.1069L109.645 52.3948L109.499 78.6844Z" stroke="#FD932A"/>
<path d="M65.1919 104.358L20.5918 78.6844L20.7385 52.3948L65.3386 78.0784L65.1919 104.358Z" fill="#0D1824"/>
<path d="M65.1919 104.358L20.5918 78.6844L20.7385 52.3948L65.3386 78.0784L65.1919 104.358Z" fill="url(#paint5_linear_737_846)"/>
<path d="M65.1919 104.358L20.5918 78.6844L20.7385 52.3948L65.3386 78.0784L65.1919 104.358Z" stroke="#FD932A"/>
<path d="M87.8065 39.3639L65.3925 52.3354L42.8301 39.3639L65.2441 26.3977L87.8065 39.3639Z" fill="url(#paint6_linear_737_846)"/>
<path d="M87.7323 65.175L65.3184 78.1412V52.3499L87.8066 39.3639L87.7323 65.175Z" fill="url(#paint7_linear_737_846)"/>
<path d="M65.3925 52.3354L65.3183 78.1412L42.7559 65.175L42.8301 39.3639L65.3925 52.3354Z" fill="url(#paint8_linear_737_846)"/>
<path d="M76.8934 6.64124L65.3662 13.2852L53.7627 6.64124L65.2899 0L76.8934 6.64124Z" fill="#0D1824"/>
<path d="M76.8934 6.64124L65.3662 13.2852L53.7627 6.64124L65.2899 0L76.8934 6.64124Z" fill="url(#paint9_linear_737_846)"/>
<path d="M76.8553 19.8615L65.3281 26.5028V13.2926L76.8935 6.64124L76.8553 19.8615Z" fill="#0D1824"/>
<path d="M76.8553 19.8615L65.3281 26.5028V13.2926L76.8935 6.64124L76.8553 19.8615Z" fill="url(#paint10_linear_737_846)"/>
<path d="M65.3663 13.2852L65.3281 26.5028L53.7246 19.8615L53.7628 6.64124L65.3663 13.2852Z" fill="#0D1824"/>
<path d="M65.3663 13.2852L65.3281 26.5028L53.7246 19.8615L53.7628 6.64124L65.3663 13.2852Z" fill="url(#paint11_linear_737_846)"/>
<path d="M42.7407 23.8924V65.0199L65.3345 77.9567L87.6697 65.0199V5.60667" stroke="#00FFF2" stroke-opacity="0.698794" stroke-width="1.02041" stroke-linecap="round" stroke-linejoin="round" stroke-dasharray="3.27 3.27"/>
<path fill-rule="evenodd" clip-rule="evenodd" d="M87.6599 6.50284C89.3962 6.50284 90.8037 5.09939 90.8037 3.36814C90.8037 1.6369 89.3962 0.233448 87.6599 0.233448C85.9236 0.233448 84.5161 1.6369 84.5161 3.36814C84.5161 5.09939 85.9236 6.50284 87.6599 6.50284Z" fill="#8354C0"/>
<path fill-rule="evenodd" clip-rule="evenodd" d="M42.7556 28.7069C44.4919 28.7069 45.8994 27.3035 45.8994 25.5722C45.8994 23.841 44.4919 22.4375 42.7556 22.4375C41.0193 22.4375 39.6118 23.841 39.6118 25.5722C39.6118 27.3035 41.0193 28.7069 42.7556 28.7069Z" fill="#8354C0"/>
</g>
<defs>
<linearGradient id="paint0_linear_737_846" x1="65" y1="55.0035" x2="65" y2="128.146" gradientUnits="userSpaceOnUse">
<stop stop-opacity="0"/>
<stop offset="1" stop-color="#183C4B"/>
</linearGradient>
<linearGradient id="paint1_linear_737_846" x1="65" y1="47.1668" x2="65" y2="120.31" gradientUnits="userSpaceOnUse">
<stop stop-opacity="0"/>
<stop offset="1" stop-color="#183C4B"/>
</linearGradient>
<linearGradient id="paint2_linear_737_846" x1="65.1917" y1="58.0686" x2="65.1917" y2="109.425" gradientUnits="userSpaceOnUse">
<stop stop-opacity="0"/>
<stop offset="1" stop-color="#183C4B"/>
</linearGradient>
<linearGradient id="paint3_linear_737_846" x1="65.1917" y1="26.7216" x2="65.1917" y2="78.0784" gradientUnits="userSpaceOnUse">
<stop stop-opacity="0"/>
<stop offset="1" stop-color="#183C4B"/>
</linearGradient>
<linearGradient id="paint4_linear_737_846" x1="87.4186" y1="52.3948" x2="87.4186" y2="104.358" gradientUnits="userSpaceOnUse">
<stop stop-opacity="0"/>
<stop offset="1" stop-color="#183C4B"/>
</linearGradient>
<linearGradient id="paint5_linear_737_846" x1="42.9652" y1="52.3948" x2="42.9652" y2="104.358" gradientUnits="userSpaceOnUse">
<stop stop-opacity="0"/>
<stop offset="1" stop-color="#183C4B"/>
</linearGradient>
<linearGradient id="paint6_linear_737_846" x1="43.643" y1="26.3977" x2="43.643" y2="51.3978" gradientUnits="userSpaceOnUse">
<stop stop-color="#00E6DE"/>
<stop offset="1" stop-color="#64FAE9"/>
</linearGradient>
<linearGradient id="paint7_linear_737_846" x1="90.8314" y1="45.9365" x2="67.6235" y2="41.565" gradientUnits="userSpaceOnUse">
<stop stop-color="#00FFF2" stop-opacity="0.698794"/>
<stop offset="1" stop-color="#64FAE9"/>
</linearGradient>
<linearGradient id="paint8_linear_737_846" x1="46.393" y1="84.1848" x2="70.5183" y2="79.6591" gradientUnits="userSpaceOnUse">
<stop stop-color="#00FFF2" stop-opacity="0.698794"/>
<stop offset="1" stop-color="#22A7F2" stop-opacity="0.4"/>
</linearGradient>
<linearGradient id="paint9_linear_737_846" x1="65.3281" y1="0" x2="65.3281" y2="13.2852" gradientUnits="userSpaceOnUse">
<stop stop-opacity="0"/>
<stop offset="1" stop-color="#183C4B"/>
</linearGradient>
<linearGradient id="paint10_linear_737_846" x1="71.1108" y1="6.64124" x2="71.1108" y2="26.5028" gradientUnits="userSpaceOnUse">
<stop stop-opacity="0"/>
<stop offset="1" stop-color="#183C4B"/>
</linearGradient>
<linearGradient id="paint11_linear_737_846" x1="59.5455" y1="6.64124" x2="59.5455" y2="26.5028" gradientUnits="userSpaceOnUse">
<stop stop-opacity="0"/>
<stop offset="1" stop-color="#183C4B"/>
</linearGradient>
</defs>
</svg>
