<svg width="130" height="131" viewBox="0 0 130 131" fill="none" xmlns="http://www.w3.org/2000/svg">
<g style="mix-blend-mode:luminosity">
<path fill-rule="evenodd" clip-rule="evenodd" d="M128.666 93.0829C128.649 94.0022 128.021 94.9231 126.782 95.6287L68.54 128.604C65.7492 130.004 62.461 130.004 59.6702 128.604L2.47975 95.6287C1.26224 94.9216 0.661743 94.0022 0.666532 93.0829V85.2462H5.89102V88.6097L60.722 57.5658C63.5171 56.1601 66.8124 56.1601 69.6075 57.5658L123.442 88.5636V85.2462H128.667V93.0829H128.666Z" fill="#0D1824"/>
<path fill-rule="evenodd" clip-rule="evenodd" d="M128.666 93.0829C128.649 94.0022 128.021 94.9231 126.782 95.6287L68.54 128.604C65.7492 130.004 62.461 130.004 59.6702 128.604L2.47975 95.6287C1.26224 94.9216 0.661743 94.0022 0.666532 93.0829V85.2462H5.89102V88.6097L60.722 57.5658C63.5171 56.1601 66.8124 56.1601 69.6075 57.5658L123.442 88.5636V85.2462H128.667V93.0829H128.666Z" fill="url(#paint0_linear_737_904)"/>
<path d="M126.782 95.6287L127.029 96.0638L127.03 96.0631L126.782 95.6287ZM128.666 93.0829V92.5829H128.175L128.166 93.0734L128.666 93.0829ZM68.54 128.604L68.7643 129.051L68.7754 129.045L68.7863 129.039L68.54 128.604ZM59.6702 128.604L59.4205 129.037L59.433 129.044L59.446 129.051L59.6702 128.604ZM2.47975 95.6287L2.22864 96.0611L2.23 96.0618L2.47975 95.6287ZM0.666532 93.0829L1.16653 93.0855V93.0829H0.666532ZM0.666532 85.2462V84.7462H0.166532V85.2462H0.666532ZM5.89102 85.2462H6.39102V84.7462H5.89102V85.2462ZM5.89102 88.6097H5.39102V89.4674L6.13736 89.0448L5.89102 88.6097ZM60.722 57.5658L60.4974 57.1191L60.4864 57.1246L60.4757 57.1307L60.722 57.5658ZM69.6075 57.5658L69.857 57.1325L69.8448 57.1254L69.8322 57.1191L69.6075 57.5658ZM123.442 88.5636L123.193 88.9969L123.942 89.4285V88.5636H123.442ZM123.442 85.2462V84.7462H122.942V85.2462H123.442ZM128.667 85.2462H129.167V84.7462H128.667V85.2462ZM128.667 93.0829V93.5829H129.167V93.0829H128.667ZM127.03 96.0631C128.356 95.3075 129.144 94.252 129.166 93.0924L128.166 93.0734C128.153 93.7523 127.685 94.5386 126.535 95.1943L127.03 96.0631ZM68.7863 129.039L127.029 96.0638L126.536 95.1936L68.2937 128.169L68.7863 129.039ZM59.446 129.051C62.3779 130.522 65.8323 130.522 68.7643 129.051L68.3158 128.157C65.666 129.487 62.5442 129.487 59.8945 128.157L59.446 129.051ZM2.23 96.0618L59.4205 129.037L59.92 128.171L2.72951 95.1955L2.23 96.0618ZM0.166539 93.0803C0.160488 94.2417 0.919787 95.3009 2.22864 96.0611L2.73087 95.1963C1.60469 94.5423 1.163 93.7627 1.16653 93.0855L0.166539 93.0803ZM0.166532 85.2462V93.0829H1.16653V85.2462H0.166532ZM5.89102 84.7462H0.666532V85.7462H5.89102V84.7462ZM6.39102 88.6097V85.2462H5.39102V88.6097H6.39102ZM60.4757 57.1307L5.64467 88.1746L6.13736 89.0448L60.9684 58.0009L60.4757 57.1307ZM69.8322 57.1191C66.8957 55.6423 63.4338 55.6423 60.4974 57.1191L60.9467 58.0125C63.6005 56.6779 66.7291 56.6779 69.3829 58.0125L69.8322 57.1191ZM123.692 88.1303L69.857 57.1325L69.358 57.9991L123.193 88.9969L123.692 88.1303ZM123.942 88.5636V85.2462H122.942V88.5636H123.942ZM123.442 85.7462H128.667V84.7462H123.442V85.7462ZM128.167 85.2462V93.0829H129.167V85.2462H128.167ZM128.667 92.5829H128.666V93.5829H128.667V92.5829Z" fill="#00FFF2" fill-opacity="0.698794"/>
<path d="M126.876 82.7044C129.294 84.1019 129.263 86.3788 126.782 87.792L68.54 120.767C65.7491 122.168 62.461 122.168 59.6702 120.767L2.47973 87.792C0.0464234 86.3788 0.077821 84.1176 2.47973 82.7044L60.722 49.7291C63.5171 48.3234 66.8124 48.3234 69.6075 49.7291L126.876 82.7044Z" fill="#0D1824"/>
<path d="M126.876 82.7044C129.294 84.1019 129.263 86.3788 126.782 87.792L68.54 120.767C65.7491 122.168 62.461 122.168 59.6702 120.767L2.47973 87.792C0.0464234 86.3788 0.077821 84.1176 2.47973 82.7044L60.722 49.7291C63.5171 48.3234 66.8124 48.3234 69.6075 49.7291L126.876 82.7044Z" fill="url(#paint1_linear_737_904)"/>
<path d="M126.876 82.7044C129.294 84.1019 129.263 86.3788 126.782 87.792L68.54 120.767C65.7491 122.168 62.461 122.168 59.6702 120.767L2.47973 87.792C0.0464234 86.3788 0.077821 84.1176 2.47973 82.7044L60.722 49.7291C63.5171 48.3234 66.8124 48.3234 69.6075 49.7291L126.876 82.7044Z" stroke="#64FAE9"/>
<g opacity="0.7">
<path d="M64.8738 86.109L42.4599 99.0805L19.8975 86.109L42.3114 73.1428L64.8738 86.109Z" fill="#0D1824"/>
<path d="M64.8738 86.109L42.4599 99.0805L19.8975 86.109L42.3114 73.1428L64.8738 86.109Z" fill="url(#paint2_linear_737_904)"/>
</g>
<g opacity="0.7">
<path d="M99.0875 91.8002L87.5603 98.4441L75.9568 91.8002L87.484 85.159L99.0875 91.8002Z" fill="#0D1824"/>
<path d="M99.0875 91.8002L87.5603 98.4441L75.9568 91.8002L87.484 85.159L99.0875 91.8002Z" fill="url(#paint3_linear_737_904)"/>
</g>
<path d="M64.5463 55.665L64.4721 81.4708L41.9097 68.5046L41.9839 42.6935L64.5463 55.665Z" fill="#0D1824"/>
<path d="M64.5463 55.665L64.4721 81.4708L41.9097 68.5046L41.9839 42.6935L64.5463 55.665Z" fill="url(#paint4_linear_737_904)"/>
<path d="M64.8738 55.3263L42.4599 68.2978L19.8975 55.3263L42.3114 42.3601L64.8738 55.3263Z" fill="#0D1824"/>
<path d="M64.8738 55.3263L42.4599 68.2978L19.8975 55.3263L42.3114 42.3601L64.8738 55.3263Z" fill="url(#paint5_linear_737_904)"/>
<path d="M64.8738 55.3263L42.4599 68.2978L19.8975 55.3263L42.3114 42.3601L64.8738 55.3263Z" stroke="#8354C0"/>
<path d="M64.7995 81.1374L42.3855 94.1036V68.3122L64.8737 55.3263L64.7995 81.1374Z" fill="#0D1824"/>
<path d="M64.7995 81.1374L42.3855 94.1036V68.3122L64.8737 55.3263L64.7995 81.1374Z" fill="url(#paint6_linear_737_904)"/>
<path d="M64.7995 81.1374L42.3855 94.1036V68.3122L64.8737 55.3263L64.7995 81.1374Z" stroke="#8354C0"/>
<path d="M42.4596 68.2978L42.3854 94.1036L19.823 81.1374L19.8972 55.3263L42.4596 68.2978Z" fill="#0D1824"/>
<path d="M42.4596 68.2978L42.3854 94.1036L19.823 81.1374L19.8972 55.3263L42.4596 68.2978Z" fill="url(#paint7_linear_737_904)"/>
<path d="M42.4596 68.2978L42.3854 94.1036L19.823 81.1374L19.8972 55.3263L42.4596 68.2978Z" stroke="#8354C0"/>
<path d="M53.8956 22.5644L42.3684 29.2084L30.7649 22.5644L42.2921 15.9232L53.8956 22.5644Z" fill="url(#paint8_linear_737_904)"/>
<path d="M53.8575 35.7847L42.3303 42.426V29.2158L53.8957 22.5644L53.8575 35.7847Z" fill="url(#paint9_linear_737_904)"/>
<path d="M42.3685 29.2084L42.3303 42.426L30.7268 35.7847L30.765 22.5644L42.3685 29.2084Z" fill="url(#paint10_linear_737_904)"/>
<path d="M109.935 29.5958L87.5209 42.5673L64.9585 29.5958L87.3725 16.6296L109.935 29.5958Z" fill="#0D1824"/>
<path d="M109.935 29.5958L87.5209 42.5673L64.9585 29.5958L87.3725 16.6296L109.935 29.5958Z" fill="url(#paint11_linear_737_904)"/>
<path d="M109.935 29.5958L87.5209 42.5673L64.9585 29.5958L87.3725 16.6296L109.935 29.5958Z" stroke="#FD932A"/>
<path d="M109.861 55.4068L87.4468 68.3731V42.5817L109.935 29.5958L109.861 55.4068Z" fill="#0D1824"/>
<path d="M109.861 55.4068L87.4468 68.3731V42.5817L109.935 29.5958L109.861 55.4068Z" fill="url(#paint12_linear_737_904)"/>
<path d="M109.861 55.4068L87.4468 68.3731V42.5817L109.935 29.5958L109.861 55.4068Z" stroke="#FD932A"/>
<path d="M87.5209 42.5673L87.4467 68.3731L64.8843 55.4068L64.9585 29.5958L87.5209 42.5673Z" fill="#0D1824"/>
<path d="M87.5209 42.5673L87.4467 68.3731L64.8843 55.4068L64.9585 29.5958L87.5209 42.5673Z" fill="url(#paint13_linear_737_904)"/>
<path d="M87.5209 42.5673L87.4467 68.3731L64.8843 55.4068L64.9585 29.5958L87.5209 42.5673Z" stroke="#FD932A"/>
<path d="M99.0872 74.9792L87.5601 81.6231L75.9565 74.9792L87.4837 68.3379L99.0872 74.9792Z" fill="url(#paint14_linear_737_904)"/>
<path d="M99.0489 88.1995L87.5217 94.8407V81.6305L99.0871 74.9792L99.0489 88.1995Z" fill="url(#paint15_linear_737_904)"/>
<path d="M87.5601 81.6231L87.522 94.8407L75.9185 88.1995L75.9566 74.9792L87.5601 81.6231Z" fill="url(#paint16_linear_737_904)"/>
<path d="M64.9583 55.3516V81.0282L87.5992 68.3755V68.3755V42.6375L64.9583 29.675L42.2603 42.3374" stroke="#00FFF2" stroke-opacity="0.698794" stroke-width="1.02041" stroke-linecap="round" stroke-linejoin="round" stroke-dasharray="3.27 3.27"/>
<path d="M30.8142 6.88375V35.8021L64.9956 55.4283L87.45 42.6666" stroke="#00FFF2" stroke-opacity="0.698794" stroke-width="1.02041" stroke-linecap="round" stroke-linejoin="round" stroke-dasharray="3.27 3.27"/>
<path fill-rule="evenodd" clip-rule="evenodd" d="M30.8301 6.26938C32.5664 6.26938 33.9739 4.86593 33.9739 3.13469C33.9739 1.40345 32.5664 0 30.8301 0C29.0938 0 27.6863 1.40345 27.6863 3.13469C27.6863 4.86593 29.0938 6.26938 30.8301 6.26938Z" fill="url(#paint17_radial_737_904)"/>
</g>
<defs>
<linearGradient id="paint0_linear_737_904" x1="64.6665" y1="56.5115" x2="64.6665" y2="129.654" gradientUnits="userSpaceOnUse">
<stop stop-opacity="0"/>
<stop offset="1" stop-color="#183C4B"/>
</linearGradient>
<linearGradient id="paint1_linear_737_904" x1="64.6664" y1="48.6748" x2="64.6664" y2="121.818" gradientUnits="userSpaceOnUse">
<stop stop-opacity="0"/>
<stop offset="1" stop-color="#183C4B"/>
</linearGradient>
<linearGradient id="paint2_linear_737_904" x1="42.3856" y1="73.1428" x2="42.3856" y2="99.0805" gradientUnits="userSpaceOnUse">
<stop stop-opacity="0"/>
<stop offset="1" stop-color="#183C4B"/>
</linearGradient>
<linearGradient id="paint3_linear_737_904" x1="87.5221" y1="85.159" x2="87.5221" y2="98.4441" gradientUnits="userSpaceOnUse">
<stop stop-opacity="0"/>
<stop offset="1" stop-color="#183C4B"/>
</linearGradient>
<linearGradient id="paint4_linear_737_904" x1="53.228" y1="42.6935" x2="53.228" y2="81.4708" gradientUnits="userSpaceOnUse">
<stop stop-opacity="0"/>
<stop offset="1" stop-color="#183C4B"/>
</linearGradient>
<linearGradient id="paint5_linear_737_904" x1="42.3856" y1="42.3601" x2="42.3856" y2="68.2978" gradientUnits="userSpaceOnUse">
<stop stop-opacity="0"/>
<stop offset="1" stop-color="#183C4B"/>
</linearGradient>
<linearGradient id="paint6_linear_737_904" x1="53.6296" y1="55.3263" x2="53.6296" y2="94.1036" gradientUnits="userSpaceOnUse">
<stop stop-opacity="0"/>
<stop offset="1" stop-color="#183C4B"/>
</linearGradient>
<linearGradient id="paint7_linear_737_904" x1="31.1413" y1="55.3263" x2="31.1413" y2="94.1036" gradientUnits="userSpaceOnUse">
<stop stop-opacity="0"/>
<stop offset="1" stop-color="#8354C0"/>
</linearGradient>
<linearGradient id="paint8_linear_737_904" x1="31.183" y1="15.9232" x2="31.183" y2="28.7281" gradientUnits="userSpaceOnUse">
<stop stop-color="#00E6DE"/>
<stop offset="1" stop-color="#0A7165"/>
</linearGradient>
<linearGradient id="paint9_linear_737_904" x1="55.4513" y1="25.9309" x2="43.5192" y2="23.6741" gradientUnits="userSpaceOnUse">
<stop stop-color="#00FFF2" stop-opacity="0.698794"/>
<stop offset="1" stop-color="#64FAE9"/>
</linearGradient>
<linearGradient id="paint10_linear_737_904" x1="32.5974" y1="45.5215" x2="45.0012" y2="43.1851" gradientUnits="userSpaceOnUse">
<stop stop-color="#00FFF2" stop-opacity="0.698794"/>
<stop offset="1" stop-color="#22A7F2" stop-opacity="0.4"/>
</linearGradient>
<linearGradient id="paint11_linear_737_904" x1="87.4467" y1="16.6296" x2="87.4467" y2="42.5673" gradientUnits="userSpaceOnUse">
<stop stop-opacity="0"/>
<stop offset="1" stop-color="#183C4B"/>
</linearGradient>
<linearGradient id="paint12_linear_737_904" x1="98.6909" y1="29.5958" x2="98.6909" y2="68.3731" gradientUnits="userSpaceOnUse">
<stop stop-opacity="0"/>
<stop offset="1" stop-color="#FD932A"/>
</linearGradient>
<linearGradient id="paint13_linear_737_904" x1="76.2026" y1="29.5958" x2="76.2026" y2="68.3731" gradientUnits="userSpaceOnUse">
<stop stop-opacity="0"/>
<stop offset="1" stop-color="#183C4B"/>
</linearGradient>
<linearGradient id="paint14_linear_737_904" x1="76.3746" y1="68.3379" x2="76.3746" y2="81.1428" gradientUnits="userSpaceOnUse">
<stop stop-color="#00E6DE"/>
<stop offset="1" stop-color="#126158"/>
</linearGradient>
<linearGradient id="paint15_linear_737_904" x1="100.643" y1="78.3456" x2="88.7106" y2="76.0889" gradientUnits="userSpaceOnUse">
<stop stop-color="#00FFF2" stop-opacity="0.698794"/>
<stop offset="1" stop-color="#64FAE9"/>
</linearGradient>
<linearGradient id="paint16_linear_737_904" x1="77.789" y1="97.9362" x2="90.1928" y2="95.5998" gradientUnits="userSpaceOnUse">
<stop stop-color="#00FFF2" stop-opacity="0.698794"/>
<stop offset="1" stop-color="#22A7F2" stop-opacity="0.4"/>
</linearGradient>
<radialGradient id="paint17_radial_737_904" cx="0" cy="0" r="1" gradientUnits="userSpaceOnUse" gradientTransform="translate(29.9971 2.47392) rotate(44.9344) scale(4.27881 4.2788)">
<stop stop-color="#E2C7AB"/>
<stop offset="1" stop-color="#FD932A"/>
</radialGradient>
</defs>
</svg>
