<svg width="124" height="32" viewBox="0 0 124 32" fill="none" xmlns="http://www.w3.org/2000/svg">
<circle cx="20.7013" cy="5.17021" r="3.44086" transform="rotate(-156.6 20.7013 5.17021)" stroke="white"/>
<path d="M8.01704 25.4209C8.42748 24.4725 9.82807 22.4417 11.3656 20.7363C12.1316 19.8866 12.9151 19.1365 13.6079 18.6496C13.9549 18.4058 14.2654 18.2378 14.529 18.1519C14.7943 18.0654 14.9767 18.073 15.0997 18.1262C15.2226 18.1795 15.353 18.3072 15.4716 18.5598C15.5895 18.8108 15.6795 19.1521 15.7393 19.5719C15.8586 20.4103 15.8482 21.4949 15.7532 22.635C15.5625 24.9232 15.0409 27.3344 14.6305 28.2828C13.8402 30.1091 11.7191 30.9489 9.89281 30.1586C8.06656 29.3683 7.22675 27.2472 8.01704 25.4209Z" fill="white" stroke="white" stroke-width="0.666662"/>
<path d="M25.4867 23.8578C24.5627 23.458 22.5478 22.0715 20.8474 20.5385C20.0017 19.776 19.262 19.0021 18.7855 18.3241C18.5467 17.9842 18.3887 17.689 18.3099 17.4472C18.2302 17.2029 18.2478 17.0659 18.2787 16.9944C18.3097 16.9228 18.3975 16.8163 18.6302 16.7071C18.8604 16.599 19.1837 16.5121 19.5949 16.4535C20.4155 16.3368 21.4859 16.3462 22.6207 16.4408C24.9021 16.6309 27.2922 17.1505 28.2161 17.5503C29.9579 18.3041 30.7589 20.3271 30.0051 22.0688C29.2514 23.8106 27.2284 24.6116 25.4867 23.8578Z" stroke="white"/>
<path d="M6.54069 8.17025C7.4646 8.57006 9.47955 9.95662 11.1799 11.4896C12.0256 12.2521 12.7653 13.0259 13.2418 13.704C13.4807 14.0439 13.6387 14.3391 13.7175 14.5809C13.7971 14.8252 13.7796 14.9622 13.7486 15.0337C13.7177 15.1053 13.6298 15.2118 13.3972 15.321C13.167 15.4291 12.8436 15.516 12.4324 15.5745C11.6119 15.6913 10.5414 15.6819 9.40666 15.5873C7.1252 15.3972 4.7351 14.8775 3.8112 14.4777C2.06943 13.724 1.26847 11.701 2.0222 9.95924C2.77593 8.21748 4.79892 7.41652 6.54069 8.17025Z" stroke="white"/>
<path d="M42.5836 24V7.2H44.6236V24H42.5836ZM47.1072 24L53.5872 14.784L58.9152 7.2H61.3392L54.9552 16.032L49.5552 24H47.1072ZM58.9152 24L53.5152 16.032L47.1312 7.2H49.5552L54.8832 14.76L61.3632 24H58.9152ZM63.8414 24V7.2H65.8814V24H63.8414ZM76.2867 24V7.2H78.3267V22.152H86.2467V24H76.2867ZM95.5954 24L95.4994 22.032V17.664C95.4994 16.72 95.3954 15.944 95.1874 15.336C94.9794 14.712 94.6514 14.24 94.2034 13.92C93.7554 13.6 93.1714 13.44 92.4514 13.44C91.7954 13.44 91.2274 13.576 90.7474 13.848C90.2834 14.104 89.8994 14.52 89.5954 15.096L87.8674 14.424C88.1714 13.864 88.5394 13.384 88.9714 12.984C89.4034 12.568 89.9074 12.256 90.4834 12.048C91.0594 11.824 91.7154 11.712 92.4514 11.712C93.5714 11.712 94.4914 11.936 95.2114 12.384C95.9474 12.816 96.4994 13.464 96.8674 14.328C97.2354 15.176 97.4114 16.232 97.3954 17.496L97.3714 24H95.5954ZM91.9954 24.288C90.5874 24.288 89.4834 23.968 88.6834 23.328C87.8994 22.672 87.5074 21.768 87.5074 20.616C87.5074 19.4 87.9074 18.472 88.7074 17.832C89.5234 17.176 90.6594 16.848 92.1154 16.848H95.5474V18.456H92.5474C91.4274 18.456 90.6274 18.64 90.1474 19.008C89.6834 19.376 89.4514 19.904 89.4514 20.592C89.4514 21.216 89.6834 21.712 90.1474 22.08C90.6114 22.432 91.2594 22.608 92.0914 22.608C92.7794 22.608 93.3794 22.464 93.8914 22.176C94.4034 21.872 94.7954 21.448 95.0674 20.904C95.3554 20.344 95.4994 19.688 95.4994 18.936H96.3154C96.3154 20.568 95.9474 21.872 95.2114 22.848C94.4754 23.808 93.4034 24.288 91.9954 24.288ZM100.438 24V7.2H102.358V21.768L102.262 24H100.438ZM106.414 24.288C105.406 24.288 104.518 24.024 103.75 23.496C102.998 22.968 102.414 22.232 101.998 21.288C101.582 20.328 101.374 19.232 101.374 18C101.374 16.752 101.582 15.656 101.998 14.712C102.414 13.768 102.998 13.032 103.75 12.504C104.518 11.976 105.406 11.712 106.414 11.712C107.486 11.712 108.43 11.976 109.246 12.504C110.062 13.032 110.694 13.768 111.142 14.712C111.606 15.656 111.838 16.752 111.838 18C111.838 19.232 111.606 20.328 111.142 21.288C110.694 22.232 110.062 22.968 109.246 23.496C108.43 24.024 107.486 24.288 106.414 24.288ZM105.982 22.536C106.734 22.536 107.398 22.344 107.974 21.96C108.566 21.576 109.03 21.04 109.366 20.352C109.718 19.664 109.894 18.88 109.894 18C109.894 17.12 109.726 16.336 109.39 15.648C109.07 14.96 108.614 14.424 108.022 14.04C107.43 13.656 106.758 13.464 106.006 13.464C105.302 13.464 104.67 13.656 104.11 14.04C103.566 14.424 103.134 14.96 102.814 15.648C102.51 16.336 102.358 17.12 102.358 18C102.358 18.88 102.51 19.664 102.814 20.352C103.134 21.04 103.566 21.576 104.11 21.96C104.654 22.344 105.278 22.536 105.982 22.536ZM118.7 24.288C117.82 24.288 117.052 24.16 116.396 23.904C115.74 23.632 115.188 23.28 114.74 22.848C114.308 22.416 113.996 21.944 113.804 21.432L115.484 20.736C115.756 21.28 116.164 21.72 116.708 22.056C117.252 22.392 117.852 22.56 118.508 22.56C119.26 22.56 119.892 22.416 120.404 22.128C120.916 21.824 121.172 21.4 121.172 20.856C121.172 20.36 120.98 19.96 120.596 19.656C120.228 19.352 119.676 19.104 118.94 18.912L117.788 18.6C116.7 18.312 115.852 17.88 115.244 17.304C114.636 16.712 114.332 16.048 114.332 15.312C114.332 14.176 114.7 13.296 115.436 12.672C116.188 12.032 117.3 11.712 118.772 11.712C119.476 11.712 120.116 11.816 120.692 12.024C121.268 12.232 121.764 12.528 122.18 12.912C122.596 13.28 122.9 13.72 123.092 14.232L121.412 14.976C121.204 14.432 120.86 14.04 120.38 13.8C119.9 13.56 119.316 13.44 118.628 13.44C117.892 13.44 117.316 13.6 116.9 13.92C116.484 14.224 116.276 14.656 116.276 15.216C116.276 15.536 116.444 15.84 116.78 16.128C117.132 16.4 117.644 16.624 118.316 16.8L119.516 17.112C120.3 17.304 120.956 17.592 121.484 17.976C122.012 18.344 122.412 18.768 122.684 19.248C122.956 19.728 123.092 20.24 123.092 20.784C123.092 21.504 122.9 22.128 122.516 22.656C122.132 23.184 121.612 23.592 120.956 23.88C120.3 24.152 119.548 24.288 118.7 24.288Z" fill="white"/>
</svg>
