<svg width="47" height="56" viewBox="0 0 47 56" fill="none" xmlns="http://www.w3.org/2000/svg">
<path d="M45.2306 1.78099C45.2306 1.78099 44.3949 1 43.3118 1C42.2297 1 27.1988 1.00475 27.176 1.00475C19.7975 1.00475 12.7525 5.24186 9.63791 12.4511C8.35873 15.4109 7.89348 18.5169 8.13889 21.5213C5.78424 23.3983 3.84272 25.8647 2.56353 28.8245C-1.59335 38.4441 2.82411 49.6172 12.4294 53.7803C22.0347 57.9434 33.1911 53.5193 37.348 43.8997C38.6271 40.9399 39.0924 37.8339 38.847 34.8295C41.2016 32.9525 43.1432 30.4852 44.4223 27.5263C45.4751 25.0894 45.9782 22.5528 45.9858 20.0561C45.9858 20.0561 46 5.03214 46 3.72257C46 2.413 45.2306 1.78099 45.2306 1.78099ZM35.2615 42.9944C31.6039 51.4601 21.7864 55.3527 13.3333 51.6897C4.88028 48.0267 0.993448 38.1945 4.65098 29.7289C5.5881 27.5614 6.92888 25.6939 8.54729 24.1765C9.83974 29.8788 13.7361 34.9073 19.5047 37.4079C25.2734 39.9084 31.6011 39.3096 36.6364 36.3507C36.6382 38.5694 36.1976 40.827 35.2615 42.9944ZM10.5523 22.5661C15.1195 19.4497 21.1326 18.6725 26.5791 21.0326C32.0256 23.3936 35.576 28.3149 36.4345 33.7828C31.8674 36.8992 25.8542 37.6764 20.4077 35.3163C14.9603 32.9553 11.4108 28.0331 10.5523 22.5661ZM42.3358 26.621C41.3997 28.7884 40.0579 30.656 38.4395 32.1734C37.1471 26.4711 33.2508 21.4425 27.4821 18.943C21.7134 16.4424 15.3857 17.0412 10.3505 20.0001C10.3476 17.7795 10.7882 15.522 11.7254 13.3545C14.4988 6.9367 20.8123 3.14655 27.3883 3.2851C29.4852 3.3297 40.5886 3.00705 42.4069 4.01295C44.0594 4.92775 43.4028 13.0442 43.6937 19.2115C43.8093 21.676 43.38 24.204 42.3358 26.621Z" fill="#E6E6E6" stroke="white" stroke-width="0.921981" stroke-miterlimit="10"/>
<path d="M21.2338 28.2589C21.2338 29.5846 20.1602 30.6598 18.8365 30.6598C17.5128 30.6598 16.4392 29.5846 16.4392 28.2589C16.4392 26.9332 17.5128 25.858 18.8365 25.858C20.1612 25.858 21.2338 26.9323 21.2338 28.2589Z" fill="#E6E6E6"/>
<path d="M30.3684 29.6853C30.3684 31.7578 28.6903 33.4384 26.6208 33.4384C24.5514 33.4384 22.8733 31.7578 22.8733 29.6853C22.8733 27.6127 24.5514 25.9321 26.6208 25.9321C28.6903 25.9312 30.3684 27.6118 30.3684 29.6853Z" fill="#E6E6E6"/>
</svg>
