<svg width="32" height="32" viewBox="0 0 32 32" fill="none" xmlns="http://www.w3.org/2000/svg">
<rect width="32" height="32" fill="#0D1824"/>
<g style="mix-blend-mode:screen">
<circle opacity="0.75" cx="19.3614" cy="8.26494" r="2.81773" transform="rotate(-156.6 19.3614 8.26494)" fill="#8B8B8B"/>
<path opacity="0.75" d="M10.0735 22.6411C10.6909 21.2145 14.1595 16.7424 15.451 17.3013C16.7425 17.8602 15.8569 23.4501 15.2396 24.8767C14.6223 26.3033 12.9654 26.9593 11.5388 26.3419C10.1122 25.7246 9.4562 24.0677 10.0735 22.6411Z" fill="#8B8B8B"/>
<path opacity="0.75" d="M22.6411 21.9548C21.2145 21.3375 16.7424 17.8688 17.3013 16.5773C17.8602 15.2858 23.4501 16.1714 24.8767 16.7887C26.3033 17.406 26.9593 19.063 26.3419 20.4895C25.7246 21.9161 24.0677 22.5721 22.6411 21.9548Z" fill="#8B8B8B"/>
<path opacity="0.75" d="M9.37841 10.0821C10.805 10.6994 15.2771 14.168 14.7182 15.4596C14.1593 16.7511 8.56942 15.8655 7.14285 15.2482C5.71628 14.6308 5.06026 12.9739 5.67759 11.5473C6.29493 10.1208 7.95184 9.46475 9.37841 10.0821Z" fill="#8B8B8B"/>
<path d="M9.78032 22.3479C10.3977 20.9213 13.8663 16.4492 15.1578 17.0081C16.4493 17.567 15.5637 23.1569 14.9464 24.5835C14.3291 26.01 12.6721 26.6661 11.2456 26.0487C9.819 25.4314 9.16299 23.7745 9.78032 22.3479Z" fill="#D2D2D2"/>
<path fill-rule="evenodd" clip-rule="evenodd" d="M16.4823 6.85271C17.1003 5.42451 18.7591 4.76775 20.1873 5.38578C21.6155 6.00382 22.2723 7.66262 21.6542 9.09082C21.0362 10.519 19.3774 11.1758 17.9492 10.5577C16.521 9.93971 15.8642 8.28091 16.4823 6.85271ZM22.3479 21.6615C20.9213 21.0441 16.4492 17.5755 17.0081 16.284C17.567 14.9925 23.1569 15.8781 24.5835 16.4954C26.01 17.1127 26.6661 18.7696 26.0487 20.1962C25.4314 21.6228 23.7745 22.2788 22.3479 21.6615ZM14.4252 15.1661C14.9841 13.8746 10.5119 10.406 9.08536 9.78866C7.65879 9.17133 6.00187 9.82734 5.38454 11.2539C4.76721 12.6805 5.42323 14.3374 6.8498 14.9547C8.27637 15.5721 13.8663 16.4577 14.4252 15.1661Z" fill="#D2D2D2"/>
</g>
</svg>
