<svg width="64" height="64" viewBox="0 0 64 64" fill="none" xmlns="http://www.w3.org/2000/svg">
<path d="M53 9L10 22.2448V35.4895L20.5143 38.7283C20.064 39.9917 19.874 41.3334 19.9557 42.6723C20.0375 44.0113 20.3893 45.3198 20.9899 46.519C21.5906 47.7181 22.4276 48.7831 23.4506 49.6496C24.4736 50.5161 25.6613 51.1662 26.9421 51.5607C28.2228 51.9552 29.5702 52.086 30.9028 51.945C32.2354 51.8041 33.5257 51.3944 34.6959 50.7407C35.8661 50.087 36.8919 49.2028 37.7114 48.1415C38.5309 47.0801 39.1272 45.8636 39.4643 44.5653L53 48.7343V9ZM29.8462 47.0787C29.0286 47.0786 28.2238 46.8763 27.5032 46.4898C26.7827 46.1032 26.1687 45.5444 25.7158 44.8631C25.263 44.1817 24.9854 43.3989 24.9076 42.5843C24.8299 41.7696 24.9544 40.9483 25.2702 40.1935L34.7043 43.1001C34.4755 44.2216 33.8673 45.2297 32.9823 45.9545C32.0972 46.6793 30.9896 47.0763 29.8462 47.0787Z" stroke="#60DFB2" stroke-width="2"/>
<path d="M58.6667 5H62.2222C62.4285 5 62.6263 5.08194 62.7722 5.22781C62.9181 5.37367 63 5.5715 63 5.77778V52C63 52.2063 62.9181 52.4041 62.7722 52.55C62.6263 52.6958 62.4285 52.7778 62.2222 52.7778H58.6667C58.4604 52.7778 58.2626 52.6958 58.1167 52.55C57.9708 52.4041 57.8889 52.2063 57.8889 52V5.77778C57.8889 5.5715 57.9708 5.37367 58.1167 5.22781C58.2626 5.08194 58.4604 5 58.6667 5ZM1.7485 19.9707C2.22777 19.4915 2.87778 19.2222 3.55556 19.2222C4.23333 19.2222 4.88335 19.4915 5.36261 19.9707C5.84187 20.45 6.11111 21.1 6.11111 21.7778V36C6.11111 36.6778 5.84187 37.3278 5.36261 37.807C4.88335 38.2863 4.23333 38.5556 3.55556 38.5556C2.87778 38.5556 2.22777 38.2863 1.7485 37.807C1.26925 37.3278 1 36.6778 1 36V21.7778C1 21.1 1.26925 20.45 1.7485 19.9707Z" stroke="#60DFB2" stroke-width="2"/>
</svg>
