<svg width="65" height="64" viewBox="0 0 65 64" fill="none" xmlns="http://www.w3.org/2000/svg">
<g clip-path="url(#clip0_139_269)">
<path opacity="0.4" d="M54.5 15C55.0933 15 55.6734 14.8241 56.1667 14.4944C56.6601 14.1648 57.0446 13.6962 57.2716 13.1481C57.4987 12.5999 57.5581 11.9967 57.4424 11.4147C57.3266 10.8328 57.0409 10.2982 56.6213 9.87868C56.2018 9.45912 55.6672 9.1734 55.0853 9.05765C54.5033 8.94189 53.9001 9.0013 53.352 9.22836C52.8038 9.45543 52.3352 9.83994 52.0056 10.3333C51.6759 10.8266 51.5 11.4067 51.5 12C51.5 12.7957 51.8161 13.5587 52.3787 14.1213C52.9413 14.6839 53.7043 15 54.5 15ZM54.5 49C53.9067 49 53.3266 49.1759 52.8333 49.5056C52.3399 49.8352 51.9554 50.3038 51.7284 50.852C51.5013 51.4001 51.4419 52.0033 51.5576 52.5853C51.6734 53.1672 51.9591 53.7018 52.3787 54.1213C52.7982 54.5409 53.3328 54.8266 53.9147 54.9424C54.4967 55.0581 55.0999 54.9987 55.648 54.7716C56.1962 54.5446 56.6648 54.1601 56.9944 53.6667C57.3241 53.1734 57.5 52.5933 57.5 52C57.5 51.2043 57.1839 50.4413 56.6213 49.8787C56.0587 49.3161 55.2957 49 54.5 49ZM60.5 24H4.5C3.43913 24 2.42172 24.4214 1.67157 25.1716C0.921427 25.9217 0.5 26.9391 0.5 28L0.5 36C0.5 37.0609 0.921427 38.0783 1.67157 38.8284C2.42172 39.5786 3.43913 40 4.5 40H60.5C61.5609 40 62.5783 39.5786 63.3284 38.8284C64.0786 38.0783 64.5 37.0609 64.5 36V28C64.5 26.9391 64.0786 25.9217 63.3284 25.1716C62.5783 24.4214 61.5609 24 60.5 24ZM46.5 35C45.9067 35 45.3266 34.8241 44.8333 34.4944C44.3399 34.1648 43.9554 33.6962 43.7284 33.1481C43.5013 32.5999 43.4419 31.9967 43.5576 31.4147C43.6734 30.8328 43.9591 30.2982 44.3787 29.8787C44.7982 29.4591 45.3328 29.1734 45.9147 29.0576C46.4967 28.9419 47.0999 29.0013 47.648 29.2284C48.1962 29.4554 48.6648 29.8399 48.9944 30.3333C49.3241 30.8266 49.5 31.4067 49.5 32C49.5 32.7957 49.1839 33.5587 48.6213 34.1213C48.0587 34.6839 47.2957 35 46.5 35ZM54.5 35C53.9067 35 53.3266 34.8241 52.8333 34.4944C52.3399 34.1648 51.9554 33.6962 51.7284 33.1481C51.5013 32.5999 51.4419 31.9967 51.5576 31.4147C51.6734 30.8328 51.9591 30.2982 52.3787 29.8787C52.7982 29.4591 53.3328 29.1734 53.9147 29.0576C54.4967 28.9419 55.0999 29.0013 55.648 29.2284C56.1962 29.4554 56.6648 29.8399 56.9944 30.3333C57.3241 30.8266 57.5 31.4067 57.5 32C57.5 32.7957 57.1839 33.5587 56.6213 34.1213C56.0587 34.6839 55.2957 35 54.5 35Z" fill="#3ED3F4"/>
<path d="M57.5 32C57.5 31.4067 57.3241 30.8266 56.9944 30.3333C56.6648 29.8399 56.1962 29.4554 55.648 29.2284C55.0999 29.0013 54.4967 28.9419 53.9147 29.0576C53.3328 29.1734 52.7982 29.4591 52.3787 29.8787C51.9591 30.2982 51.6734 30.8328 51.5576 31.4147C51.4419 31.9967 51.5013 32.5999 51.7284 33.148C51.9554 33.6962 52.3399 34.1648 52.8333 34.4944C53.3266 34.8241 53.9067 35 54.5 35C55.2957 35 56.0587 34.6839 56.6213 34.1213C57.1839 33.5587 57.5 32.7956 57.5 32ZM60.5 4H4.5C3.43913 4 2.42172 4.42143 1.67157 5.17157C0.921427 5.92172 0.5 6.93913 0.5 8L0.5 16C0.5 17.0609 0.921427 18.0783 1.67157 18.8284C2.42172 19.5786 3.43913 20 4.5 20H60.5C61.5609 20 62.5783 19.5786 63.3284 18.8284C64.0786 18.0783 64.5 17.0609 64.5 16V8C64.5 6.93913 64.0786 5.92172 63.3284 5.17157C62.5783 4.42143 61.5609 4 60.5 4ZM46.5 15C45.9067 15 45.3266 14.8241 44.8333 14.4944C44.3399 14.1648 43.9554 13.6962 43.7284 13.1481C43.5013 12.5999 43.4419 11.9967 43.5576 11.4147C43.6734 10.8328 43.9591 10.2982 44.3787 9.87868C44.7982 9.45912 45.3328 9.1734 45.9147 9.05764C46.4967 8.94189 47.0999 9.0013 47.648 9.22836C48.1962 9.45542 48.6648 9.83994 48.9944 10.3333C49.3241 10.8266 49.5 11.4067 49.5 12C49.5 12.7956 49.1839 13.5587 48.6213 14.1213C48.0587 14.6839 47.2957 15 46.5 15ZM54.5 15C53.9067 15 53.3266 14.8241 52.8333 14.4944C52.3399 14.1648 51.9554 13.6962 51.7284 13.1481C51.5013 12.5999 51.4419 11.9967 51.5576 11.4147C51.6734 10.8328 51.9591 10.2982 52.3787 9.87868C52.7982 9.45912 53.3328 9.1734 53.9147 9.05764C54.4967 8.94189 55.0999 9.0013 55.648 9.22836C56.1962 9.45542 56.6648 9.83994 56.9944 10.3333C57.3241 10.8266 57.5 11.4067 57.5 12C57.5 12.7956 57.1839 13.5587 56.6213 14.1213C56.0587 14.6839 55.2957 15 54.5 15ZM60.5 44H4.5C3.43913 44 2.42172 44.4214 1.67157 45.1716C0.921427 45.9217 0.5 46.9391 0.5 48L0.5 56C0.5 57.0609 0.921427 58.0783 1.67157 58.8284C2.42172 59.5786 3.43913 60 4.5 60H60.5C61.5609 60 62.5783 59.5786 63.3284 58.8284C64.0786 58.0783 64.5 57.0609 64.5 56V48C64.5 46.9391 64.0786 45.9217 63.3284 45.1716C62.5783 44.4214 61.5609 44 60.5 44ZM46.5 55C45.9067 55 45.3266 54.8241 44.8333 54.4944C44.3399 54.1648 43.9554 53.6962 43.7284 53.148C43.5013 52.5999 43.4419 51.9967 43.5576 51.4147C43.6734 50.8328 43.9591 50.2982 44.3787 49.8787C44.7982 49.4591 45.3328 49.1734 45.9147 49.0576C46.4967 48.9419 47.0999 49.0013 47.648 49.2284C48.1962 49.4554 48.6648 49.8399 48.9944 50.3333C49.3241 50.8266 49.5 51.4067 49.5 52C49.5 52.7957 49.1839 53.5587 48.6213 54.1213C48.0587 54.6839 47.2957 55 46.5 55ZM54.5 55C53.9067 55 53.3266 54.8241 52.8333 54.4944C52.3399 54.1648 51.9554 53.6962 51.7284 53.148C51.5013 52.5999 51.4419 51.9967 51.5576 51.4147C51.6734 50.8328 51.9591 50.2982 52.3787 49.8787C52.7982 49.4591 53.3328 49.1734 53.9147 49.0576C54.4967 48.9419 55.0999 49.0013 55.648 49.2284C56.1962 49.4554 56.6648 49.8399 56.9944 50.3333C57.3241 50.8266 57.5 51.4067 57.5 52C57.5 52.7957 57.1839 53.5587 56.6213 54.1213C56.0587 54.6839 55.2957 55 54.5 55Z" fill="#3ED3F4"/>
</g>
<defs>
<clipPath id="clip0_139_269">
<rect width="64" height="64" fill="white" transform="translate(0.5)"/>
</clipPath>
</defs>
</svg>
