<svg width="64" height="64" viewBox="0 0 64 64" fill="none" xmlns="http://www.w3.org/2000/svg">
<path d="M4 25H60C60.7957 25 61.5587 25.3161 62.1213 25.8787C62.6839 26.4413 63 27.2044 63 28V36C63 36.7957 62.6839 37.5587 62.1213 38.1213C61.5587 38.6839 60.7957 39 60 39H4C3.20435 39 2.44129 38.6839 1.87868 38.1213C1.31607 37.5587 1 36.7957 1 36V28C1 27.2044 1.31607 26.4413 1.87868 25.8787C2.44129 25.3161 3.20435 25 4 25ZM40.7777 35.3259C41.4355 35.7654 42.2089 36 43 36C44.0609 36 45.0783 35.5786 45.8284 34.8284C46.5786 34.0783 47 33.0609 47 32C47 31.2089 46.7654 30.4355 46.3259 29.7777C45.8864 29.1199 45.2616 28.6072 44.5307 28.3045C43.7998 28.0017 42.9956 27.9225 42.2196 28.0769C41.4437 28.2312 40.731 28.6122 40.1716 29.1716C39.6122 29.731 39.2312 30.4437 39.0769 31.2196C38.9225 31.9956 39.0017 32.7998 39.3045 33.5307C39.6072 34.2616 40.1199 34.8864 40.7777 35.3259ZM51.7777 35.3259C52.4355 35.7654 53.2089 36 54 36C55.0609 36 56.0783 35.5786 56.8284 34.8284C57.5786 34.0783 58 33.0609 58 32C58 31.2089 57.7654 30.4355 57.3259 29.7777C56.8864 29.1199 56.2616 28.6072 55.5307 28.3045C54.7998 28.0017 53.9956 27.9225 53.2196 28.0769C52.4437 28.2312 51.731 28.6122 51.1716 29.1716C50.6122 29.731 50.2312 30.4437 50.0769 31.2196C49.9225 31.9956 50.0017 32.7998 50.3045 33.5307C50.6072 34.2616 51.1199 34.8864 51.7777 35.3259Z" stroke="#60DFB2" stroke-width="2"/>
<path d="M4 5H60C60.7957 5 61.5587 5.31607 62.1213 5.87868C62.6839 6.44129 63 7.20435 63 8V16C63 16.7956 62.6839 17.5587 62.1213 18.1213C61.5587 18.6839 60.7957 19 60 19H4C3.20435 19 2.44129 18.6839 1.87868 18.1213C1.31607 17.5587 1 16.7956 1 16V8C1 7.20435 1.31607 6.44129 1.87868 5.87868C2.44129 5.31607 3.20435 5 4 5ZM40.7777 15.3259C41.4355 15.7654 42.2089 16 43 16C44.0609 16 45.0783 15.5786 45.8284 14.8284C46.5786 14.0783 47 13.0609 47 12C47 11.2089 46.7654 10.4355 46.3259 9.77772C45.8864 9.11992 45.2616 8.60723 44.5307 8.30448C43.7998 8.00173 42.9956 7.92252 42.2196 8.07686C41.4437 8.2312 40.731 8.61216 40.1716 9.17157C39.6122 9.73098 39.2312 10.4437 39.0769 11.2196C38.9225 11.9956 39.0017 12.7998 39.3045 13.5307C39.6072 14.2616 40.1199 14.8864 40.7777 15.3259ZM51.7777 15.3259C52.4355 15.7654 53.2089 16 54 16C55.0609 16 56.0783 15.5786 56.8284 14.8284C57.5786 14.0783 58 13.0609 58 12C58 11.2089 57.7654 10.4355 57.3259 9.77772C56.8864 9.11992 56.2616 8.60723 55.5307 8.30448C54.7998 8.00173 53.9956 7.92252 53.2196 8.07686C52.4437 8.2312 51.731 8.61216 51.1716 9.17157C50.6122 9.73098 50.2312 10.4437 50.0769 11.2196C49.9225 11.9956 50.0017 12.7998 50.3045 13.5307C50.6072 14.2616 51.1199 14.8864 51.7777 15.3259ZM4 45H60C60.7957 45 61.5587 45.3161 62.1213 45.8787C62.6839 46.4413 63 47.2043 63 48V56C63 56.7957 62.6839 57.5587 62.1213 58.1213C61.5587 58.6839 60.7957 59 60 59H4C3.20435 59 2.44129 58.6839 1.87868 58.1213C1.31607 57.5587 1 56.7957 1 56V48C1 47.2043 1.31607 46.4413 1.87868 45.8787C2.44129 45.3161 3.20435 45 4 45ZM40.7777 55.3259C41.4355 55.7654 42.2089 56 43 56C44.0609 56 45.0783 55.5786 45.8284 54.8284C46.5786 54.0783 47 53.0609 47 52C47 51.2089 46.7654 50.4355 46.3259 49.7777C45.8864 49.1199 45.2616 48.6072 44.5307 48.3045C43.7998 48.0017 42.9956 47.9225 42.2196 48.0769C41.4437 48.2312 40.731 48.6122 40.1716 49.1716C39.6122 49.731 39.2312 50.4437 39.0769 51.2196C38.9225 51.9956 39.0017 52.7998 39.3045 53.5307C39.6072 54.2616 40.1199 54.8864 40.7777 55.3259ZM51.7777 55.3259C52.4355 55.7654 53.2089 56 54 56C55.0609 56 56.0783 55.5786 56.8284 54.8284C57.5786 54.0783 58 53.0609 58 52C58 51.2089 57.7654 50.4355 57.3259 49.7777C56.8864 49.1199 56.2616 48.6072 55.5307 48.3045C54.7998 48.0017 53.9956 47.9225 53.2196 48.0769C52.4437 48.2312 51.731 48.6122 51.1716 49.1716C50.6122 49.731 50.2312 50.4437 50.0769 51.2196C49.9225 51.9956 50.0017 52.7998 50.3045 53.5307C50.6072 54.2616 51.1199 54.8864 51.7777 55.3259Z" stroke="#65ECBB" stroke-width="2"/>
</svg>
