<svg width="65" height="64" viewBox="0 0 65 64" fill="none" xmlns="http://www.w3.org/2000/svg">
<g clip-path="url(#clip0_139_290)">
<path d="M59.2875 17.0875C60.9125 15.4475 60.9125 12.7913 59.2875 11.15L53.35 5.21251C51.71 3.57251 49.0525 3.57251 47.4125 5.21251L22.475 30.1625C15.725 27.1 7.9375 27.35 1.4125 30.8344C0.35025 31.4125 0.209625 32.8819 1.05337 33.7406L30.7659 63.4406C31.6096 64.2844 33.0934 64.1438 33.6559 63.0813C37.1409 56.55 37.3909 48.7688 34.3278 42.0188L59.2875 17.0875Z" fill="#3ED3F4"/>
<path opacity="0.4" d="M31.3875 1.15625C30.625 0.421875 29.6125 0 28.5625 0C27.5 0 26.485 0.421875 25.75 1.15625L13.6563 13.25C12.1088 14.8125 12.1088 17.3275 13.6563 18.89L23.6875 28.9375L41.425 11.2L31.3875 1.15625ZM63.35 33.0125L53.3038 22.9662L35.5788 40.6912L45.61 50.7363C47.1725 52.2838 49.6875 52.2838 51.1225 50.7363L63.2163 38.6425C64.075 38.0125 64.5 36.8875 64.5 35.9375C64.5 34.8875 64.075 33.7625 63.35 33.0125ZM14.5 47.1875L12.265 49.4062C11.9369 49.3125 11.64 49.2031 11.2963 49.2031C9.07752 49.2031 7.29626 51.0006 7.29626 53.2031C7.29626 55.4219 9.07752 57.2031 11.2963 57.2031C13.4988 57.2031 15.2963 55.4219 15.2963 53.2031C15.2963 52.8594 15.1869 52.5625 15.0931 52.2344L17.3119 49.9994L14.5 47.1875Z" fill="#3ED3F4"/>
</g>
<defs>
<clipPath id="clip0_139_290">
<rect width="64" height="64" fill="white" transform="translate(0.5)"/>
</clipPath>
</defs>
</svg>
