<svg width="64" height="64" viewBox="0 0 64 64" fill="none" xmlns="http://www.w3.org/2000/svg">
<g clip-path="url(#clip0_422_860)">
<mask id="path-1-inside-1_422_860" fill="white">
<path fill-rule="evenodd" clip-rule="evenodd" d="M28.1905 0C29.2368 0 30.2457 0.420377 31.0054 1.15214L40.9875 11.1406L46.9126 5.21254C48.5526 3.57254 51.2101 3.57254 52.8501 5.21254L58.7876 11.15C60.4126 12.7913 60.4126 15.4475 58.7876 17.0875L52.9137 22.9547L62.8541 32.8953C63.5765 33.6426 64 34.7636 64 35.8099C64 36.7565 63.5765 37.8775 62.7208 38.5053L50.6702 50.5561C49.2403 52.0981 46.7342 52.0981 45.1773 50.5561L35.2416 40.6066L33.8278 42.0188C36.8909 48.7688 36.6409 56.55 33.1559 63.0813C32.5934 64.1438 31.1097 64.2844 30.2659 63.4407L16.8113 49.9917L14.7691 52.0489C14.7848 52.1039 14.801 52.158 14.817 52.2116C14.8961 52.4767 14.9715 52.7293 14.9715 53.0142C14.9715 55.2251 13.1804 57 10.9858 57C8.77491 57 7 55.2251 7 53.0142C7 50.8195 8.77491 49.0284 10.9858 49.0284C11.2707 49.0284 11.5232 49.1038 11.7883 49.1829C11.8419 49.1989 11.896 49.2151 11.9511 49.2308L14.0076 47.1892L0.553436 33.7407C-0.290314 32.8819 -0.149689 31.4125 0.912561 30.8344C7.43756 27.35 15.2251 27.1 21.9751 30.1625L23.3175 28.8194L13.3373 18.8229C11.7954 17.266 11.7954 14.7599 13.3373 13.2029L25.388 1.15214C26.1204 0.420377 27.1318 0 28.1905 0ZM21.1487 31.9839C15.051 29.2173 8.03048 29.4018 2.10716 32.4659L31.5298 61.8761C34.5897 55.9487 34.7718 48.9389 32.0066 42.8453L31.4338 41.5832L32.4144 40.6038L57.3669 15.6798L57.3699 15.6767C58.2181 14.8174 58.2189 13.4218 57.3695 12.5604L57.3663 12.5572L51.4358 6.62676C50.5769 5.76781 49.1857 5.76781 48.3268 6.62676L23.3896 31.5764L22.4103 32.5562L21.1487 31.9839Z"/>
</mask>
<path d="M31.0054 1.15214L32.4201 -0.261621L32.4066 -0.275131L32.3928 -0.28838L31.0054 1.15214ZM40.9875 11.1406L39.5729 12.5543L40.9874 13.9698L42.4021 12.5544L40.9875 11.1406ZM46.9126 5.21254L45.4983 3.79833L45.498 3.79868L46.9126 5.21254ZM52.8501 5.21254L51.4358 6.62676L51.4358 6.62676L52.8501 5.21254ZM58.7876 11.15L60.2088 9.74287L60.2018 9.73583L58.7876 11.15ZM58.7876 17.0875L60.201 18.5026L60.2083 18.4952L58.7876 17.0875ZM52.9137 22.9547L51.5003 21.5397L50.0844 22.9539L51.4994 24.3689L52.9137 22.9547ZM62.8541 32.8953L64.2921 31.5052L64.2803 31.4931L64.2683 31.4811L62.8541 32.8953ZM62.7208 38.5053L61.5378 36.8927L61.4146 36.9831L61.3066 37.0911L62.7208 38.5053ZM50.6702 50.5561L49.2559 49.1419L49.2293 49.1685L49.2036 49.1962L50.6702 50.5561ZM45.1773 50.5561L43.7621 51.9693L43.7699 51.9771L45.1773 50.5561ZM35.2416 40.6066L36.6568 39.1934L35.2434 37.7781L33.8282 39.1916L35.2416 40.6066ZM33.8278 42.0188L32.4144 40.6038L31.4338 41.5832L32.0066 42.8453L33.8278 42.0188ZM33.1559 63.0813L31.3914 62.1398L31.3884 62.1455L33.1559 63.0813ZM30.2659 63.4407L31.6801 62.0265L31.6799 62.0262L30.2659 63.4407ZM16.8113 49.9917L18.2252 48.5772L16.8058 47.1584L15.3919 48.5827L16.8113 49.9917ZM14.7691 52.0489L13.3497 50.6399L12.5241 51.4715L12.8461 52.5983L14.7691 52.0489ZM14.817 52.2116L16.7334 51.6396L16.7334 51.6396L14.817 52.2116ZM11.7883 49.1829L11.2162 51.0994L11.2163 51.0994L11.7883 49.1829ZM11.9511 49.2308L11.4016 51.1538L12.5284 51.4758L13.3601 50.6502L11.9511 49.2308ZM14.0076 47.1892L15.4167 48.6085L16.8415 47.194L15.4215 45.7747L14.0076 47.1892ZM0.553436 33.7407L-0.873182 35.1424L-0.86686 35.1488L-0.86048 35.1552L0.553436 33.7407ZM0.912561 30.8344L-0.0295365 29.0702L-0.0365364 29.0739L-0.0435064 29.0777L0.912561 30.8344ZM21.9751 30.1625L21.1487 31.9839L22.4103 32.5562L23.3896 31.5764L21.9751 30.1625ZM23.3175 28.8194L24.7321 30.2333L26.1445 28.8202L24.7329 27.4063L23.3175 28.8194ZM13.3373 18.8229L11.9163 20.2303L11.922 20.236L13.3373 18.8229ZM13.3373 13.2029L11.9231 11.7887L11.9163 11.7956L13.3373 13.2029ZM25.388 1.15214L23.9744 -0.262663L23.9738 -0.262062L25.388 1.15214ZM2.10716 32.4659L1.18824 30.6895L-1.24155 31.9464L0.693248 33.8804L2.10716 32.4659ZM21.1487 31.9839L20.3224 33.8052L20.3224 33.8052L21.1487 31.9839ZM31.5298 61.8761L30.1159 63.2907L32.0515 65.2255L33.307 62.7936L31.5298 61.8761ZM32.0066 42.8453L33.8278 42.0188L33.8278 42.0188L32.0066 42.8453ZM31.4338 41.5832L30.0204 40.1682L29.0399 41.1476L29.6126 42.4097L31.4338 41.5832ZM32.4144 40.6038L31.001 39.1887L31.001 39.1888L32.4144 40.6038ZM57.3669 15.6798L58.7803 17.0949L58.7885 17.0866L57.3669 15.6798ZM57.3699 15.6767L58.7916 17.0835L58.7934 17.0817L57.3699 15.6767ZM57.3695 12.5604L58.7936 11.1561L58.7919 11.1545L57.3695 12.5604ZM57.3663 12.5572L58.7888 11.1512L58.7805 11.143L57.3663 12.5572ZM51.4358 6.62676L50.0216 8.04097L50.0216 8.04098L51.4358 6.62676ZM48.3268 6.62676L46.9126 5.21254L46.9122 5.2129L48.3268 6.62676ZM23.3896 31.5764L24.8042 32.9903L24.8042 32.9903L23.3896 31.5764ZM22.4103 32.5562L21.584 34.3775L22.8455 34.9499L23.8249 33.9701L22.4103 32.5562ZM32.3928 -0.28838C31.2747 -1.3653 29.7737 -2 28.1905 -2V2C28.6998 2 29.2166 2.20606 29.618 2.59267L32.3928 -0.28838ZM42.4022 9.72679L32.4201 -0.261621L29.5908 2.56591L39.5729 12.5543L42.4022 9.72679ZM45.498 3.79868L39.573 9.72669L42.4021 12.5544L48.3271 6.6264L45.498 3.79868ZM54.2643 3.79833C51.8432 1.37728 47.9194 1.37728 45.4983 3.79833L48.3268 6.62676C49.1857 5.76781 50.5769 5.76781 51.4358 6.62676L54.2643 3.79833ZM60.2018 9.73583L54.2643 3.79833L51.4358 6.62676L57.3733 12.5643L60.2018 9.73583ZM60.2083 18.4952C62.606 16.0754 62.6052 12.1632 60.2088 9.74288L57.3663 12.5572C58.2199 13.4193 58.2192 14.8197 57.3669 15.6798L60.2083 18.4952ZM54.3271 24.3698L60.201 18.5026L57.3742 15.6725L51.5003 21.5397L54.3271 24.3698ZM64.2683 31.4811L54.3279 21.5405L51.4994 24.3689L61.4399 34.3095L64.2683 31.4811ZM66 35.8099C66 34.2839 65.4012 32.6526 64.2921 31.5052L61.4161 34.2853C61.7518 34.6326 62 35.2433 62 35.8099H66ZM63.9039 40.1179C65.3861 39.0305 66 37.239 66 35.8099H62C62 35.9997 61.9543 36.2392 61.8548 36.4623C61.7562 36.6834 61.6359 36.8207 61.5378 36.8927L63.9039 40.1179ZM52.0844 51.9703L64.135 39.9195L61.3066 37.0911L49.2559 49.1419L52.0844 51.9703ZM43.7699 51.9771C46.0714 54.2566 49.8833 54.346 52.1367 51.916L49.2036 49.1962C48.5972 49.8502 47.397 49.9396 46.5847 49.1351L43.7699 51.9771ZM33.8264 42.0199L43.7621 51.9693L46.5925 49.1429L36.6568 39.1934L33.8264 42.0199ZM35.2412 43.4338L36.655 42.0217L33.8282 39.1916L32.4144 40.6038L35.2412 43.4338ZM34.9205 64.0228C38.6983 56.9428 38.9689 48.5081 35.6491 41.1923L32.0066 42.8453C34.8129 49.0295 34.5836 56.1573 31.3914 62.1398L34.9205 64.0228ZM28.8517 64.8549C30.5331 66.5362 33.658 66.4075 34.9235 64.0171L31.3884 62.1455C31.4131 62.0988 31.4542 62.0542 31.5008 62.0242C31.5427 61.9971 31.5749 61.9904 31.5892 61.9888C31.6067 61.9868 31.642 61.9883 31.6801 62.0265L28.8517 64.8549ZM15.3974 51.4062L28.852 64.8552L31.6799 62.0262L18.2252 48.5772L15.3974 51.4062ZM16.1885 53.4579L18.2307 51.4007L15.3919 48.5827L13.3497 50.6399L16.1885 53.4579ZM16.7334 51.6396C16.7169 51.5842 16.7041 51.5413 16.6922 51.4995L12.8461 52.5983C12.8655 52.6665 12.8851 52.7318 12.9005 52.7837L16.7334 51.6396ZM16.9715 53.0142C16.9715 52.393 16.8017 51.8682 16.7334 51.6396L12.9005 52.7837C12.9213 52.8531 12.9354 52.9006 12.9477 52.9448C12.9594 52.9869 12.9659 53.0136 12.9698 53.0313C12.9768 53.0637 12.9715 53.0511 12.9715 53.0142H16.9715ZM10.9858 59C14.2797 59 16.9715 56.3349 16.9715 53.0142H12.9715C12.9715 54.1152 12.0811 55 10.9858 55V59ZM5 53.0142C5 56.3296 7.67032 59 10.9858 59V55C9.8795 55 9 54.1205 9 53.0142H5ZM10.9858 47.0284C7.66503 47.0284 5 49.7203 5 53.0142H9C9 51.9188 9.88478 51.0284 10.9858 51.0284V47.0284ZM12.3604 47.2665C12.1317 47.1982 11.607 47.0284 10.9858 47.0284V51.0284C10.9489 51.0284 10.9362 51.0231 10.9686 51.0301C10.9863 51.034 11.013 51.0405 11.0551 51.0522C11.0994 51.0646 11.1468 51.0787 11.2162 51.0994L12.3604 47.2665ZM12.5005 47.3078C12.4587 47.2958 12.4157 47.283 12.3603 47.2665L11.2163 51.0994C11.2681 51.1149 11.3334 51.1344 11.4016 51.1538L12.5005 47.3078ZM12.5986 45.7698L10.542 47.8115L13.3601 50.6502L15.4167 48.6085L12.5986 45.7698ZM-0.86048 35.1552L12.5937 48.6037L15.4215 45.7747L1.96735 32.3262L-0.86048 35.1552ZM-0.0435064 29.0777C-2.40395 30.3624 -2.54071 33.4452 -0.873182 35.1424L1.98005 32.339C2.00314 32.3625 2.00771 32.3884 2.00533 32.4093C2.00367 32.4238 1.99705 32.4542 1.97223 32.4928C1.94477 32.5356 1.90575 32.5709 1.86863 32.5911L-0.0435064 29.0777ZM22.8014 28.3412C15.486 25.0222 7.04488 25.2924 -0.0295365 29.0702L1.85466 32.5986C7.83024 29.4076 14.9641 29.1779 21.1487 31.9839L22.8014 28.3412ZM21.903 27.4055L20.5605 28.7487L23.3896 31.5764L24.7321 30.2333L21.903 27.4055ZM11.922 20.236L21.9022 30.2325L24.7329 27.4063L14.7527 17.4099L11.922 20.236ZM11.9163 11.7956C9.60237 14.132 9.60237 17.8939 11.9163 20.2303L14.7584 17.4156C13.9884 16.6381 13.9883 15.3878 14.7584 14.6103L11.9163 11.7956ZM23.9738 -0.262062L11.9231 11.7887L14.7516 14.6172L26.8022 2.56635L23.9738 -0.262062ZM28.1905 -2C26.6057 -2 25.0847 -1.37201 23.9744 -0.262663L26.8016 2.56695C27.1561 2.21277 27.6579 2 28.1905 2V-2ZM3.02609 34.2423C8.40482 31.4599 14.7822 31.2915 20.3224 33.8052L21.9751 30.1625C15.3198 27.143 7.65614 27.3437 1.18824 30.6895L3.02609 34.2423ZM32.9437 60.4616L3.52108 31.0514L0.693248 33.8804L30.1159 63.2907L32.9437 60.4616ZM30.1853 43.6717C32.6976 49.2079 32.5317 55.5751 29.7526 60.9587L33.307 62.7936C36.6476 56.3223 36.8461 48.6699 33.8278 42.0188L30.1853 43.6717ZM29.6126 42.4097L30.1853 43.6717L33.8278 42.0188L33.2551 40.7567L29.6126 42.4097ZM31.001 39.1888L30.0204 40.1682L32.8473 42.9982L33.8278 42.0188L31.001 39.1888ZM55.9535 14.2648L31.001 39.1887L33.8278 42.0188L58.7803 17.0949L55.9535 14.2648ZM55.9483 14.27L55.9452 14.2731L58.7885 17.0866L58.7916 17.0835L55.9483 14.27ZM55.9454 13.9647C55.9835 14.0033 56.0063 14.0552 56.0063 14.1192C56.0063 14.1832 55.9834 14.2344 55.9465 14.2718L58.7934 17.0817C60.4104 15.4433 60.4108 12.7961 58.7936 11.1561L55.9454 13.9647ZM55.9439 13.9631L55.9471 13.9664L58.7919 11.1545L58.7888 11.1513L55.9439 13.9631ZM50.0216 8.04098L55.9521 13.9714L58.7805 11.143L52.8501 5.21254L50.0216 8.04098ZM49.741 8.04097C49.8189 7.96307 49.9437 7.96307 50.0216 8.04097L52.8501 5.21254C51.2101 3.57254 48.5526 3.57254 46.9126 5.21254L49.741 8.04097ZM24.8042 32.9903L49.7413 8.04062L46.9122 5.2129L21.9751 30.1625L24.8042 32.9903ZM23.8249 33.9701L24.8042 32.9903L21.9751 30.1625L20.9957 31.1424L23.8249 33.9701ZM20.3224 33.8052L21.584 34.3775L23.2366 30.7349L21.9751 30.1625L20.3224 33.8052Z" fill="#60DFB2" mask="url(#path-1-inside-1_422_860)"/>
</g>
<defs>
<clipPath id="clip0_422_860">
<rect width="64" height="64" fill="white"/>
</clipPath>
</defs>
</svg>
