<svg width="64" height="64" viewBox="0 0 64 64" fill="none" xmlns="http://www.w3.org/2000/svg">
<g clip-path="url(#clip0_422_845)">
<path d="M61.866 42.768L58.6854 22.7744C57.8409 18.0253 54.0722 14.1974 49.0911 13.0295H49.0844C37.5197 10.3235 25.4784 10.3235 13.9137 13.0295C8.92686 14.1974 5.15911 18.0243 4.31463 22.7744L1.13402 42.768C0.151332 48.2967 4.69779 53.3303 10.6749 53.3303C15.4091 53.3303 19.6125 50.489 21.1099 46.2774L21.8266 44.2591H41.1753L41.8892 46.2774C43.3875 50.489 47.5909 53.3303 52.3251 53.3303C58.3022 53.3303 62.8487 48.2967 61.866 42.768ZM27.6875 30.2743C27.6875 30.575 27.567 30.8634 27.3525 31.0761C27.138 31.2887 26.847 31.4082 26.5437 31.4082H21.5874V36.3218C21.5874 36.6225 21.4669 36.9109 21.2524 37.1236C21.0379 37.3362 20.747 37.4557 20.4436 37.4557H18.1561C17.8527 37.4557 17.5618 37.3362 17.3473 37.1236C17.1328 36.9109 17.0123 36.6225 17.0123 36.3218V31.4082H12.056C11.7527 31.4082 11.4617 31.2887 11.2472 31.0761C11.0327 30.8634 10.9122 30.575 10.9122 30.2743V28.0065C10.9122 27.7057 11.0327 27.4173 11.2472 27.2047C11.4617 26.992 11.7527 26.8726 12.056 26.8726H17.0123V21.959C17.0123 21.6582 17.1328 21.3698 17.3473 21.1572C17.5618 20.9445 17.8527 20.8251 18.1561 20.8251H20.4436C20.747 20.8251 21.0379 20.9445 21.2524 21.1572C21.4669 21.3698 21.5874 21.6582 21.5874 21.959V26.8726H26.5437C26.847 26.8726 27.138 26.992 27.3525 27.2047C27.567 27.4173 27.6875 27.7057 27.6875 28.0065V30.2743ZM42.1751 37.4557C41.4211 37.4557 40.684 37.234 40.057 36.8187C39.43 36.4034 38.9414 35.8131 38.6528 35.1224C38.3642 34.4318 38.2887 33.6718 38.4358 32.9386C38.583 32.2054 38.9461 31.532 39.4793 31.0034C40.0124 30.4748 40.6918 30.1148 41.4313 29.9689C42.1709 29.8231 42.9375 29.8979 43.6341 30.184C44.3308 30.4701 44.9262 30.9545 45.3452 31.5761C45.7641 32.1977 45.9877 32.9284 45.9877 33.676C45.9877 34.6784 45.586 35.6398 44.871 36.3486C44.156 37.0575 43.1863 37.4557 42.1751 37.4557ZM48.2752 28.3844C47.5212 28.3844 46.784 28.1628 46.1571 27.7474C45.5301 27.3321 45.0414 26.7418 44.7529 26.0512C44.4643 25.3605 44.3888 24.6006 44.5359 23.8674C44.683 23.1342 45.0461 22.4607 45.5793 21.9321C46.1125 21.4035 46.7919 21.0435 47.5314 20.8977C48.271 20.7519 49.0376 20.8267 49.7342 21.1128C50.4309 21.3989 51.0263 21.8833 51.4452 22.5049C51.8642 23.1264 52.0878 23.8572 52.0878 24.6048C52.0878 25.6072 51.6861 26.5686 50.9711 27.2774C50.2561 27.9862 49.2864 28.3844 48.2752 28.3844Z" stroke="#65ECBB" stroke-width="2"/>
</g>
<defs>
<clipPath id="clip0_422_845">
<rect width="64" height="64" fill="white"/>
</clipPath>
</defs>
</svg>
