<svg width="45" height="55" viewBox="0 0 45 55" fill="none" xmlns="http://www.w3.org/2000/svg">
<path d="M19.0501 55C16.4456 54.9999 13.9033 54.4616 11.4941 53.3998C6.82439 51.3421 3.22105 47.5556 1.34796 42.738C-0.525044 37.9204 -0.443765 32.6483 1.57702 27.893C2.77235 25.0799 4.6187 22.5779 6.92765 20.6377C6.7358 17.5958 7.26306 14.5124 8.45848 11.6991C11.4784 4.59223 18.3442 0 25.9499 0C28.5542 0 31.0966 0.538435 33.506 1.60019C38.1757 3.65803 41.7789 7.44452 43.652 12.2621C45.5251 17.0797 45.4437 22.3518 43.423 27.1071C42.2274 29.9203 40.381 32.4224 38.0721 34.3624C38.2641 37.4042 37.7369 40.4876 36.5416 43.3009C33.5214 50.4077 26.6556 55 19.0507 55H19.0501ZM7.63531 24.7652C6.42449 26.0875 5.45208 27.6037 4.73729 29.2856C1.31991 37.3275 4.96457 46.7015 12.8617 50.1818C14.836 51.0518 16.9185 51.493 19.0513 51.493C25.2823 51.493 30.9071 47.7308 33.3813 41.9084C34.096 40.2267 34.5157 38.4667 34.6334 36.6631C31.9406 38.0678 28.9536 38.8058 25.9294 38.8058C23.3258 38.8058 20.7843 38.2676 18.3755 37.2062C15.58 35.9742 13.0921 34.0603 11.1809 31.6713C9.56233 29.648 8.34852 27.2793 7.63531 24.7652ZM10.5868 22.2502C11.5266 27.4961 14.9256 31.8649 19.7433 33.9879C21.7173 34.8577 23.7995 35.2988 25.9319 35.2988C28.952 35.2988 31.8759 34.4188 34.4135 32.75C33.4736 27.5041 30.0747 23.1353 25.2572 21.0122C23.2832 20.1424 21.201 19.7013 19.0686 19.7013C16.0484 19.7013 13.1244 20.5814 10.5868 22.2502ZM19.0705 16.1943C21.6742 16.1943 24.2158 16.7325 26.6247 17.794C29.4201 19.0259 31.9079 20.9398 33.8191 23.3289C35.4377 25.352 36.6515 27.7208 37.3649 30.235C38.5755 28.9128 39.5481 27.3964 40.2628 25.7146C41.9182 21.8188 41.9848 17.4998 40.4504 13.553C38.9161 9.60627 35.9641 6.50433 32.1386 4.8185C30.1642 3.94844 28.0816 3.50727 25.9488 3.50727C19.7179 3.50727 14.093 7.26949 11.6189 13.0919C10.9042 14.7735 10.4845 16.5334 10.3667 18.337C13.0594 16.9324 16.0464 16.1943 19.0705 16.1943Z" fill="white"/>
</svg>
