<svg width="160" height="160" viewBox="0 0 160 160" fill="none" xmlns="http://www.w3.org/2000/svg">
<g style="mix-blend-mode:screen">
<circle opacity="0.75" cx="101.919" cy="29.2616" r="19.2118" transform="rotate(-156.6 101.919 29.2616)" fill="#009FF9"/>
<path opacity="0.75" d="M38.5931 127.281C42.8022 117.555 66.4519 87.0628 75.2577 90.8734C84.0635 94.684 78.0254 132.797 73.8163 142.524C69.6072 152.25 58.3101 156.723 48.5835 152.514C38.8568 148.305 34.384 137.008 38.5931 127.281Z" fill="#1054B8"/>
<path opacity="0.75" d="M124.28 122.601C114.554 118.391 84.062 94.7417 87.8726 85.9359C91.6832 77.1301 129.796 83.1682 139.523 87.3773C149.25 91.5864 153.722 102.884 149.513 112.61C145.304 122.337 134.007 126.81 124.28 122.601Z" fill="#009FF9"/>
<path opacity="0.75" d="M33.8541 41.6502C43.5807 45.8593 74.0725 69.509 70.2619 78.3148C66.4513 87.1207 28.3382 81.0825 18.6116 76.8734C8.88499 72.6643 4.41214 61.3672 8.62123 51.6406C12.8303 41.914 24.1274 37.4411 33.8541 41.6502Z" fill="#009FF9"/>
<circle cx="100.919" cy="25.2616" r="19.2118" transform="rotate(-156.6 100.919 25.2616)" fill="#6DBCE9"/>
<path d="M37.5931 123.281C41.8022 113.555 65.4519 83.0628 74.2577 86.8734C83.0635 90.684 77.0254 128.797 72.8163 138.524C68.6072 148.25 57.3101 152.723 47.5835 148.514C37.8568 144.305 33.384 133.008 37.5931 123.281Z" fill="#CBDDF7"/>
<path d="M123.28 118.601C113.554 114.391 83.062 90.7417 86.8726 81.9359C90.6832 73.1301 128.796 79.1682 138.523 83.3773C148.25 87.5864 152.722 98.8835 148.513 108.61C144.304 118.337 133.007 122.81 123.28 118.601Z" fill="#6DBCE9"/>
<path d="M32.8541 37.6502C42.5807 41.8593 73.0725 65.509 69.2619 74.3148C65.4513 83.1207 27.3382 77.0825 17.6116 72.8734C7.88499 68.6643 3.41214 57.3672 7.62123 47.6406C11.8303 37.914 23.1274 33.4411 32.8541 37.6502Z" fill="#6DBCE9"/>
<path d="M32.8541 37.6502C42.5807 41.8593 73.0725 65.509 69.2619 74.3148C65.4513 83.1207 27.3382 77.0825 17.6116 72.8734C7.88499 68.6643 3.41214 57.3672 7.62123 47.6406C11.8303 37.914 23.1274 33.4411 32.8541 37.6502Z" fill="url(#paint0_linear_403_621)" fill-opacity="0.4"/>
</g>
<defs>
<linearGradient id="paint0_linear_403_621" x1="7.62123" y1="47.6406" x2="69.2619" y2="74.3149" gradientUnits="userSpaceOnUse">
<stop offset="0.0694323" stop-color="#2B4893"/>
<stop offset="0.936748" stop-color="#2B2D68" stop-opacity="0"/>
</linearGradient>
</defs>
</svg>
