<svg width="543" height="475" viewBox="0 0 543 475" fill="none" xmlns="http://www.w3.org/2000/svg">
<path d="M133.337 425.384C135.09 425.384 136.512 423.962 136.512 422.209C136.512 420.456 135.09 419.034 133.337 419.034C131.584 419.034 130.162 420.456 130.162 422.209C130.162 423.962 131.584 425.384 133.337 425.384Z" fill="#63CF97" fill-opacity="0.15"/>
<path d="M3.1747 328.555C4.92804 328.555 6.3494 327.133 6.3494 325.38C6.3494 323.627 4.92804 322.205 3.1747 322.205C1.42136 322.205 0 323.627 0 325.38C0 327.133 1.42136 328.555 3.1747 328.555Z" fill="#63CF97" fill-opacity="0.15"/>
<path d="M198.418 403.161C200.171 403.161 201.593 401.739 201.593 399.986C201.593 398.233 200.171 396.811 198.418 396.811C196.665 396.811 195.243 398.233 195.243 399.986C195.243 401.739 196.665 403.161 198.418 403.161Z" fill="#63CF97" fill-opacity="0.15"/>
<path d="M68.2572 306.332C70.0106 306.332 71.4319 304.91 71.4319 303.157C71.4319 301.404 70.0106 299.982 68.2572 299.982C66.5039 299.982 65.0825 301.404 65.0825 303.157C65.0825 304.91 66.5039 306.332 68.2572 306.332Z" fill="#63CF97" fill-opacity="0.15"/>
<path d="M263.5 380.938C265.253 380.938 266.675 379.516 266.675 377.763C266.675 376.01 265.253 374.588 263.5 374.588C261.747 374.588 260.325 376.01 260.325 377.763C260.325 379.516 261.747 380.938 263.5 380.938Z" fill="#63CF97" fill-opacity="0.15"/>
<path d="M328.583 358.715C330.336 358.715 331.758 357.293 331.758 355.54C331.758 353.787 330.336 352.365 328.583 352.365C326.83 352.365 325.408 353.787 325.408 355.54C325.408 357.293 326.83 358.715 328.583 358.715Z" fill="#63CF97" fill-opacity="0.15"/>
<path d="M393.663 336.492C395.416 336.492 396.838 335.07 396.838 333.317C396.838 331.564 395.416 330.142 393.663 330.142C391.91 330.142 390.488 331.564 390.488 333.317C390.488 335.07 391.91 336.492 393.663 336.492Z" fill="#63CF97" fill-opacity="0.15"/>
<path d="M458.746 314.269C460.499 314.269 461.921 312.847 461.921 311.094C461.921 309.341 460.499 307.919 458.746 307.919C456.993 307.919 455.571 309.341 455.571 311.094C455.571 312.847 456.993 314.269 458.746 314.269Z" fill="#63CF97" fill-opacity="0.15"/>
<path d="M198.418 474.592C200.171 474.592 201.593 473.17 201.593 471.417C201.593 469.664 200.171 468.242 198.418 468.242C196.665 468.242 195.243 469.664 195.243 471.417C195.243 473.17 196.665 474.592 198.418 474.592Z" fill="#63CF97" fill-opacity="0.15"/>
<path d="M68.2572 377.763C70.0106 377.763 71.4319 376.341 71.4319 374.588C71.4319 372.835 70.0106 371.413 68.2572 371.413C66.5039 371.413 65.0825 372.835 65.0825 374.588C65.0825 376.341 66.5039 377.763 68.2572 377.763Z" fill="#63CF97" fill-opacity="0.15"/>
<path d="M263.5 452.369C265.253 452.369 266.675 450.947 266.675 449.194C266.675 447.441 265.253 446.019 263.5 446.019C261.747 446.019 260.325 447.441 260.325 449.194C260.325 450.947 261.747 452.369 263.5 452.369Z" fill="#63CF97" fill-opacity="0.15"/>
<path d="M133.337 355.54C135.09 355.54 136.512 354.118 136.512 352.365C136.512 350.612 135.09 349.19 133.337 349.19C131.584 349.19 130.162 350.612 130.162 352.365C130.162 354.118 131.584 355.54 133.337 355.54Z" fill="#63CF97" fill-opacity="0.15"/>
<path d="M328.583 430.146C330.336 430.146 331.758 428.724 331.758 426.971C331.758 425.218 330.336 423.796 328.583 423.796C326.83 423.796 325.408 425.218 325.408 426.971C325.408 428.724 326.83 430.146 328.583 430.146Z" fill="#63CF97" fill-opacity="0.15"/>
<path d="M393.663 407.923C395.416 407.923 396.838 406.501 396.838 404.748C396.838 402.995 395.416 401.573 393.663 401.573C391.91 401.573 390.488 402.995 390.488 404.748C390.488 406.501 391.91 407.923 393.663 407.923Z" fill="#63CF97" fill-opacity="0.15"/>
<path d="M458.746 385.7C460.499 385.7 461.921 384.278 461.921 382.525C461.921 380.772 460.499 379.35 458.746 379.35C456.993 379.35 455.571 380.772 455.571 382.525C455.571 384.278 456.993 385.7 458.746 385.7Z" fill="#63CF97" fill-opacity="0.15"/>
<path d="M523.825 363.477C525.578 363.477 527 362.055 527 360.302C527 358.549 525.578 357.127 523.825 357.127C522.072 357.127 520.65 358.549 520.65 360.302C520.65 362.055 522.072 363.477 523.825 363.477Z" fill="#63CF97" fill-opacity="0.15"/>
<path d="M3.1759 325.38L68.2574 303.157L133.339 352.365L68.2574 374.588L3.1759 325.38Z" fill="#63CF97" fill-opacity="0.05"/>
<path d="M68.2753 374.476L3.38635 325.414L68.2394 303.269L133.128 352.331L68.2753 374.476Z" stroke="#63CF97" stroke-opacity="0.25" stroke-width="0.2"/>
<path d="M68.2555 374.588L133.337 352.365L198.418 401.573L133.337 423.796L68.2555 374.588Z" fill="#63CF97" fill-opacity="0.05"/>
<path d="M133.355 423.684L68.4661 374.622L133.319 352.477L198.208 401.539L133.355 423.684Z" stroke="#63CF97" stroke-opacity="0.25" stroke-width="0.2"/>
<path d="M133.338 423.796L198.42 401.573L263.501 450.781L198.42 473.004L133.338 423.796Z" fill="#63CF97" fill-opacity="0.05"/>
<path d="M198.438 472.892L133.549 423.83L198.402 401.685L263.291 450.747L198.438 472.892Z" stroke="#63CF97" stroke-opacity="0.25" stroke-width="0.2"/>
<path d="M198.42 401.573L263.501 379.35L328.583 428.558L263.501 450.781L198.42 401.573Z" fill="#63CF97" fill-opacity="0.05"/>
<path d="M263.519 450.669L198.63 401.607L263.483 379.462L328.372 428.524L263.519 450.669Z" stroke="#63CF97" stroke-opacity="0.25" stroke-width="0.2"/>
<path d="M263.499 379.35L328.581 357.127L393.662 406.335L328.581 428.558L263.499 379.35Z" fill="#63CF97" fill-opacity="0.05"/>
<path d="M328.599 428.446L263.71 379.384L328.563 357.239L393.452 406.301L328.599 428.446Z" stroke="#63CF97" stroke-opacity="0.25" stroke-width="0.2"/>
<path d="M328.584 357.127L393.665 334.904L458.747 384.112L393.665 406.335L328.584 357.127Z" fill="#63CF97" fill-opacity="0.05"/>
<path d="M393.683 406.223L328.794 357.161L393.647 335.016L458.536 384.078L393.683 406.223Z" stroke="#63CF97" stroke-opacity="0.25" stroke-width="0.2"/>
<path d="M393.664 334.904L458.746 312.681L523.827 361.889L458.746 384.112L393.664 334.904Z" fill="#63CF97" fill-opacity="0.05"/>
<path d="M458.764 384L393.875 334.938L458.728 312.793L523.617 361.855L458.764 384Z" stroke="#63CF97" stroke-opacity="0.25" stroke-width="0.2"/>
<path d="M133.337 318.293C135.09 318.293 136.512 316.871 136.512 315.118C136.512 313.365 135.09 311.943 133.337 311.943C131.584 311.943 130.162 313.365 130.162 315.118C130.162 316.871 131.584 318.293 133.337 318.293Z" fill="#22A7F2" fill-opacity="0.33"/>
<path d="M3.1747 221.464C4.92804 221.464 6.3494 220.042 6.3494 218.289C6.3494 216.536 4.92804 215.114 3.1747 215.114C1.42136 215.114 0 216.536 0 218.289C0 220.042 1.42136 221.464 3.1747 221.464Z" fill="#22A7F2" fill-opacity="0.33"/>
<path d="M198.418 296.07C200.171 296.07 201.593 294.648 201.593 292.895C201.593 291.142 200.171 289.72 198.418 289.72C196.665 289.72 195.243 291.142 195.243 292.895C195.243 294.648 196.665 296.07 198.418 296.07Z" fill="#22A7F2" fill-opacity="0.33"/>
<path d="M68.2572 199.241C70.0106 199.241 71.4319 197.82 71.4319 196.067C71.4319 194.313 70.0106 192.892 68.2572 192.892C66.5039 192.892 65.0825 194.313 65.0825 196.067C65.0825 197.82 66.5039 199.241 68.2572 199.241Z" fill="#22A7F2" fill-opacity="0.33"/>
<path d="M263.5 273.847C265.253 273.847 266.675 272.425 266.675 270.672C266.675 268.919 265.253 267.497 263.5 267.497C261.747 267.497 260.325 268.919 260.325 270.672C260.325 272.425 261.747 273.847 263.5 273.847Z" fill="#22A7F2" fill-opacity="0.33"/>
<path d="M328.583 251.624C330.336 251.624 331.758 250.202 331.758 248.449C331.758 246.696 330.336 245.274 328.583 245.274C326.83 245.274 325.408 246.696 325.408 248.449C325.408 250.202 326.83 251.624 328.583 251.624Z" fill="#22A7F2" fill-opacity="0.33"/>
<path d="M393.663 229.401C395.416 229.401 396.838 227.979 396.838 226.226C396.838 224.473 395.416 223.051 393.663 223.051C391.91 223.051 390.488 224.473 390.488 226.226C390.488 227.979 391.91 229.401 393.663 229.401Z" fill="#22A7F2" fill-opacity="0.33"/>
<path d="M458.746 207.178C460.499 207.178 461.921 205.756 461.921 204.003C461.921 202.25 460.499 200.828 458.746 200.828C456.993 200.828 455.571 202.25 455.571 204.003C455.571 205.756 456.993 207.178 458.746 207.178Z" fill="#22A7F2" fill-opacity="0.33"/>
<path d="M198.418 367.501C200.171 367.501 201.593 366.079 201.593 364.326C201.593 362.573 200.171 361.151 198.418 361.151C196.665 361.151 195.243 362.573 195.243 364.326C195.243 366.079 196.665 367.501 198.418 367.501Z" fill="#22A7F2" fill-opacity="0.33"/>
<path d="M68.2572 270.672C70.0106 270.672 71.4319 269.25 71.4319 267.497C71.4319 265.744 70.0106 264.322 68.2572 264.322C66.5039 264.322 65.0825 265.744 65.0825 267.497C65.0825 269.25 66.5039 270.672 68.2572 270.672Z" fill="#22A7F2" fill-opacity="0.33"/>
<path d="M263.5 345.278C265.253 345.278 266.675 343.856 266.675 342.103C266.675 340.35 265.253 338.928 263.5 338.928C261.747 338.928 260.325 340.35 260.325 342.103C260.325 343.856 261.747 345.278 263.5 345.278Z" fill="#22A7F2" fill-opacity="0.33"/>
<path d="M133.337 248.449C135.09 248.449 136.512 247.027 136.512 245.274C136.512 243.521 135.09 242.099 133.337 242.099C131.584 242.099 130.162 243.521 130.162 245.274C130.162 247.027 131.584 248.449 133.337 248.449Z" fill="#22A7F2" fill-opacity="0.33"/>
<path d="M328.583 323.055C330.336 323.055 331.758 321.633 331.758 319.88C331.758 318.127 330.336 316.705 328.583 316.705C326.83 316.705 325.408 318.127 325.408 319.88C325.408 321.633 326.83 323.055 328.583 323.055Z" fill="#22A7F2" fill-opacity="0.33"/>
<path d="M393.663 300.832C395.416 300.832 396.838 299.41 396.838 297.657C396.838 295.904 395.416 294.482 393.663 294.482C391.91 294.482 390.488 295.904 390.488 297.657C390.488 299.41 391.91 300.832 393.663 300.832Z" fill="#22A7F2" fill-opacity="0.33"/>
<path d="M458.746 278.609C460.499 278.609 461.921 277.187 461.921 275.434C461.921 273.681 460.499 272.259 458.746 272.259C456.993 272.259 455.571 273.681 455.571 275.434C455.571 277.187 456.993 278.609 458.746 278.609Z" fill="#22A7F2" fill-opacity="0.33"/>
<path d="M523.825 256.386C525.578 256.386 527 254.964 527 253.211C527 251.458 525.578 250.036 523.825 250.036C522.072 250.036 520.65 251.458 520.65 253.211C520.65 254.964 522.072 256.386 523.825 256.386Z" fill="#22A7F2" fill-opacity="0.33"/>
<path d="M393.663 159.557C395.416 159.557 396.838 158.136 396.838 156.383C396.838 154.629 395.416 153.208 393.663 153.208C391.91 153.208 390.488 154.629 390.488 156.383C390.488 158.136 391.91 159.557 393.663 159.557Z" fill="#22A7F2" fill-opacity="0.33"/>
<path d="M3.1759 218.289L68.2574 196.066L133.339 245.274L68.2574 267.497L3.1759 218.289Z" fill="#22A7F2" fill-opacity="0.1"/>
<path d="M68.2753 267.385L3.38635 218.323L68.2394 196.178L133.128 245.241L68.2753 267.385Z" stroke="#22A7F2" stroke-opacity="0.33" stroke-width="0.2"/>
<path d="M68.2555 267.497L133.337 245.274L198.418 294.482L133.337 316.705L68.2555 267.497Z" fill="#22A7F2" fill-opacity="0.1"/>
<path d="M133.355 316.593L68.4661 267.531L133.319 245.386L198.208 294.448L133.355 316.593Z" stroke="#22A7F2" stroke-opacity="0.33" stroke-width="0.2"/>
<path d="M133.338 316.705L198.42 294.482L263.501 343.69L198.42 365.913L133.338 316.705Z" fill="#22A7F2" fill-opacity="0.1"/>
<path d="M198.438 365.801L133.549 316.739L198.402 294.594L263.291 343.656L198.438 365.801Z" stroke="#22A7F2" stroke-opacity="0.33" stroke-width="0.2"/>
<path d="M198.42 294.482L263.501 272.259L328.583 321.467L263.501 343.69L198.42 294.482Z" fill="#22A7F2" fill-opacity="0.1"/>
<path d="M263.519 343.578L198.63 294.516L263.483 272.371L328.372 321.434L263.519 343.578Z" stroke="#22A7F2" stroke-opacity="0.33" stroke-width="0.2"/>
<path d="M263.499 272.259L328.581 250.036L393.662 299.244L328.581 321.467L263.499 272.259Z" fill="#22A7F2" fill-opacity="0.1"/>
<path d="M328.599 321.355L263.71 272.293L328.563 250.148L393.452 299.211L328.599 321.355Z" stroke="#22A7F2" stroke-opacity="0.33" stroke-width="0.2"/>
<path d="M328.584 250.037L393.665 227.814L458.747 277.022L393.665 299.244L328.584 250.037Z" fill="#22A7F2" fill-opacity="0.1"/>
<path d="M393.683 299.133L328.794 250.07L393.647 227.925L458.536 276.988L393.683 299.133Z" stroke="#22A7F2" stroke-opacity="0.33" stroke-width="0.2"/>
<path d="M393.664 227.814L458.746 205.591L523.827 254.798L458.746 277.021L393.664 227.814Z" fill="#22A7F2" fill-opacity="0.1"/>
<path d="M458.764 276.91L393.875 227.847L458.728 205.702L523.617 254.765L458.764 276.91Z" stroke="#22A7F2" stroke-opacity="0.33" stroke-width="0.2"/>
<path d="M133.337 214.293C135.09 214.293 136.512 212.871 136.512 211.118C136.512 209.365 135.09 207.943 133.337 207.943C131.584 207.943 130.162 209.365 130.162 211.118C130.162 212.871 131.584 214.293 133.337 214.293Z" fill="#6755D9" fill-opacity="0.33"/>
<path d="M3.1747 117.464C4.92804 117.464 6.3494 116.042 6.3494 114.289C6.3494 112.536 4.92804 111.114 3.1747 111.114C1.42136 111.114 0 112.536 0 114.289C0 116.042 1.42136 117.464 3.1747 117.464Z" fill="#6755D9" fill-opacity="0.33"/>
<path d="M198.418 192.07C200.171 192.07 201.593 190.648 201.593 188.895C201.593 187.142 200.171 185.72 198.418 185.72C196.665 185.72 195.243 187.142 195.243 188.895C195.243 190.648 196.665 192.07 198.418 192.07Z" fill="#6755D9" fill-opacity="0.33"/>
<path d="M68.2572 95.2413C70.0106 95.2413 71.4319 93.8199 71.4319 92.0666C71.4319 90.3133 70.0106 88.8919 68.2572 88.8919C66.5039 88.8919 65.0825 90.3133 65.0825 92.0666C65.0825 93.8199 66.5039 95.2413 68.2572 95.2413Z" fill="#6755D9" fill-opacity="0.33"/>
<path d="M263.5 169.847C265.253 169.847 266.675 168.425 266.675 166.672C266.675 164.919 265.253 163.497 263.5 163.497C261.747 163.497 260.325 164.919 260.325 166.672C260.325 168.425 261.747 169.847 263.5 169.847Z" fill="#6755D9" fill-opacity="0.33"/>
<path d="M133.337 73.0182C135.09 73.0182 136.512 71.5968 136.512 69.8435C136.512 68.0902 135.09 66.6688 133.337 66.6688C131.584 66.6688 130.162 68.0902 130.162 69.8435C130.162 71.5968 131.584 73.0182 133.337 73.0182Z" fill="#6755D9" fill-opacity="0.33"/>
<path d="M328.583 147.624C330.336 147.624 331.758 146.202 331.758 144.449C331.758 142.696 330.336 141.274 328.583 141.274C326.83 141.274 325.408 142.696 325.408 144.449C325.408 146.202 326.83 147.624 328.583 147.624Z" fill="#6755D9" fill-opacity="0.33"/>
<path d="M198.418 50.7953C200.171 50.7953 201.593 49.3739 201.593 47.6206C201.593 45.8673 200.171 44.4459 198.418 44.4459C196.665 44.4459 195.243 45.8673 195.243 47.6206C195.243 49.3739 196.665 50.7953 198.418 50.7953Z" fill="#6755D9" fill-opacity="0.33"/>
<path d="M393.663 125.401C395.416 125.401 396.838 123.979 396.838 122.226C396.838 120.473 395.416 119.051 393.663 119.051C391.91 119.051 390.488 120.473 390.488 122.226C390.488 123.979 391.91 125.401 393.663 125.401Z" fill="#6755D9" fill-opacity="0.33"/>
<path d="M263.5 28.5724C265.253 28.5724 266.675 27.1511 266.675 25.3977C266.675 23.6444 265.253 22.223 263.5 22.223C261.747 22.223 260.325 23.6444 260.325 25.3977C260.325 27.1511 261.747 28.5724 263.5 28.5724Z" fill="#6755D9" fill-opacity="0.33"/>
<path d="M458.746 103.178C460.499 103.178 461.921 101.756 461.921 100.003C461.921 98.2497 460.499 96.8283 458.746 96.8283C456.993 96.8283 455.571 98.2497 455.571 100.003C455.571 101.756 456.993 103.178 458.746 103.178Z" fill="#6755D9" fill-opacity="0.33"/>
<path d="M328.583 6.3494C330.336 6.3494 331.758 4.92804 331.758 3.1747C331.758 1.42136 330.336 0 328.583 0C326.83 0 325.408 1.42136 325.408 3.1747C325.408 4.92804 326.83 6.3494 328.583 6.3494Z" fill="#6755D9" fill-opacity="0.33"/>
<path d="M198.418 263.501C200.171 263.501 201.593 262.079 201.593 260.326C201.593 258.573 200.171 257.151 198.418 257.151C196.665 257.151 195.243 258.573 195.243 260.326C195.243 262.079 196.665 263.501 198.418 263.501Z" fill="#6755D9" fill-opacity="0.33"/>
<path d="M68.2572 166.672C70.0106 166.672 71.4319 165.25 71.4319 163.497C71.4319 161.744 70.0106 160.322 68.2572 160.322C66.5039 160.322 65.0825 161.744 65.0825 163.497C65.0825 165.25 66.5039 166.672 68.2572 166.672Z" fill="#6755D9" fill-opacity="0.33"/>
<path d="M263.5 241.278C265.253 241.278 266.675 239.856 266.675 238.103C266.675 236.35 265.253 234.928 263.5 234.928C261.747 234.928 260.325 236.35 260.325 238.103C260.325 239.856 261.747 241.278 263.5 241.278Z" fill="#6755D9" fill-opacity="0.33"/>
<path d="M133.337 144.449C135.09 144.449 136.512 143.027 136.512 141.274C136.512 139.521 135.09 138.099 133.337 138.099C131.584 138.099 130.162 139.521 130.162 141.274C130.162 143.027 131.584 144.449 133.337 144.449Z" fill="#6755D9" fill-opacity="0.33"/>
<path d="M328.583 219.055C330.336 219.055 331.758 217.633 331.758 215.88C331.758 214.127 330.336 212.705 328.583 212.705C326.83 212.705 325.408 214.127 325.408 215.88C325.408 217.633 326.83 219.055 328.583 219.055Z" fill="#6755D9" fill-opacity="0.33"/>
<path d="M198.418 122.226C200.171 122.226 201.593 120.804 201.593 119.051C201.593 117.298 200.171 115.876 198.418 115.876C196.665 115.876 195.243 117.298 195.243 119.051C195.243 120.804 196.665 122.226 198.418 122.226Z" fill="#6755D9" fill-opacity="0.33"/>
<path d="M393.663 196.832C395.416 196.832 396.838 195.41 396.838 193.657C396.838 191.904 395.416 190.482 393.663 190.482C391.91 190.482 390.488 191.904 390.488 193.657C390.488 195.41 391.91 196.832 393.663 196.832Z" fill="#6755D9" fill-opacity="0.33"/>
<path d="M263.5 100.003C265.253 100.003 266.675 98.5818 266.675 96.8285C266.675 95.0752 265.253 93.6538 263.5 93.6538C261.747 93.6538 260.325 95.0752 260.325 96.8285C260.325 98.5818 261.747 100.003 263.5 100.003Z" fill="#6755D9" fill-opacity="0.33"/>
<path d="M458.746 174.609C460.499 174.609 461.921 173.187 461.921 171.434C461.921 169.681 460.499 168.259 458.746 168.259C456.993 168.259 455.571 169.681 455.571 171.434C455.571 173.187 456.993 174.609 458.746 174.609Z" fill="#6755D9" fill-opacity="0.33"/>
<path d="M328.583 77.7803C330.336 77.7803 331.758 76.3589 331.758 74.6056C331.758 72.8523 330.336 71.4309 328.583 71.4309C326.83 71.4309 325.408 72.8523 325.408 74.6056C325.408 76.3589 326.83 77.7803 328.583 77.7803Z" fill="#6755D9" fill-opacity="0.33"/>
<path d="M523.825 152.386C525.578 152.386 527 150.964 527 149.211C527 147.458 525.578 146.036 523.825 146.036C522.072 146.036 520.65 147.458 520.65 149.211C520.65 150.964 522.072 152.386 523.825 152.386Z" fill="#6755D9" fill-opacity="0.33"/>
<path d="M393.663 55.5573C395.416 55.5573 396.838 54.1359 396.838 52.3826C396.838 50.6292 395.416 49.2079 393.663 49.2079C391.91 49.2079 390.488 50.6292 390.488 52.3826C390.488 54.1359 391.91 55.5573 393.663 55.5573Z" fill="#6755D9" fill-opacity="0.33"/>
<path d="M3.1759 114.289L68.2574 92.0664L133.339 141.274L68.2574 163.497L3.1759 114.289Z" fill="#6755D9" fill-opacity="0.1"/>
<path d="M68.2753 163.385L3.38635 114.323L68.2394 92.1782L133.128 141.241L68.2753 163.385Z" stroke="#22A7F2" stroke-opacity="0.33" stroke-width="0.2"/>
<path d="M68.2555 163.497L133.337 141.274L198.418 190.482L133.337 212.705L68.2555 163.497Z" fill="#6755D9" fill-opacity="0.1"/>
<path d="M133.355 212.593L68.4661 163.531L133.319 141.386L198.208 190.448L133.355 212.593Z" stroke="#22A7F2" stroke-opacity="0.33" stroke-width="0.2"/>
<path d="M133.338 212.705L198.42 190.482L263.501 239.69L198.42 261.913L133.338 212.705Z" fill="#6755D9" fill-opacity="0.1"/>
<path d="M198.438 261.801L133.549 212.739L198.402 190.594L263.291 239.656L198.438 261.801Z" stroke="#22A7F2" stroke-opacity="0.33" stroke-width="0.2"/>
<path d="M68.2555 92.0664L133.337 69.8435L198.418 119.051L133.337 141.274L68.2555 92.0664Z" fill="#6755D9" fill-opacity="0.1"/>
<path d="M133.355 141.163L68.4661 92.1002L133.319 69.9553L198.208 119.018L133.355 141.163Z" stroke="#22A7F2" stroke-opacity="0.33" stroke-width="0.2"/>
<path d="M133.338 141.275L198.42 119.052L263.501 168.26L198.42 190.482L133.338 141.275Z" fill="#6755D9" fill-opacity="0.1"/>
<path d="M198.438 190.371L133.549 141.308L198.402 119.163L263.291 168.226L198.438 190.371Z" stroke="#22A7F2" stroke-opacity="0.33" stroke-width="0.2"/>
<path d="M198.42 190.482L263.501 168.259L328.583 217.467L263.501 239.69L198.42 190.482Z" fill="#6755D9" fill-opacity="0.1"/>
<path d="M263.519 239.578L198.63 190.516L263.483 168.371L328.372 217.434L263.519 239.578Z" stroke="#22A7F2" stroke-opacity="0.33" stroke-width="0.2"/>
<path d="M133.338 69.8435L198.42 47.6206L263.501 96.8285L198.42 119.051L133.338 69.8435Z" fill="#6755D9" fill-opacity="0.1"/>
<path d="M198.438 118.94L133.549 69.8773L198.402 47.7324L263.291 96.7947L198.438 118.94Z" stroke="#22A7F2" stroke-opacity="0.33" stroke-width="0.2"/>
<path d="M198.42 119.051L263.501 96.8285L328.583 146.036L263.501 168.259L198.42 119.051Z" fill="#6755D9" fill-opacity="0.1"/>
<path d="M263.519 168.148L198.63 119.085L263.483 96.9403L328.372 146.003L263.519 168.148Z" stroke="#22A7F2" stroke-opacity="0.33" stroke-width="0.2"/>
<path d="M263.499 168.259L328.581 146.036L393.662 195.244L328.581 217.467L263.499 168.259Z" fill="#6755D9" fill-opacity="0.1"/>
<path d="M328.599 217.355L263.71 168.293L328.563 146.148L393.452 195.211L328.599 217.355Z" stroke="#22A7F2" stroke-opacity="0.33" stroke-width="0.2"/>
<path d="M198.42 47.6205L263.501 25.3976L328.583 74.6055L263.501 96.8284L198.42 47.6205Z" fill="#6755D9" fill-opacity="0.1"/>
<path d="M263.519 96.7166L198.63 47.6543L263.483 25.5094L328.372 74.5717L263.519 96.7166Z" stroke="#22A7F2" stroke-opacity="0.33" stroke-width="0.2"/>
<path d="M263.499 96.8286L328.581 74.6057L393.662 123.814L328.581 146.037L263.499 96.8286Z" fill="#6755D9" fill-opacity="0.1"/>
<path d="M328.599 145.925L263.71 96.8624L328.563 74.7175L393.452 123.78L328.599 145.925Z" stroke="#22A7F2" stroke-opacity="0.33" stroke-width="0.2"/>
<path d="M328.584 146.037L393.665 123.814L458.747 173.022L393.665 195.244L328.584 146.037Z" fill="#6755D9" fill-opacity="0.1"/>
<path d="M393.683 195.133L328.794 146.07L393.647 123.925L458.536 172.988L393.683 195.133Z" stroke="#22A7F2" stroke-opacity="0.33" stroke-width="0.2"/>
<path d="M263.499 25.3976L328.581 3.17468L393.662 52.3826L328.581 74.6055L263.499 25.3976Z" fill="#6755D9" fill-opacity="0.1"/>
<path d="M328.599 74.4937L263.71 25.4314L328.563 3.2865L393.452 52.3488L328.599 74.4937Z" stroke="#22A7F2" stroke-opacity="0.33" stroke-width="0.2"/>
<path d="M328.584 74.6055L393.665 52.3826L458.747 101.59L393.665 123.813L328.584 74.6055Z" fill="#6755D9" fill-opacity="0.1"/>
<path d="M393.683 123.702L328.794 74.6393L393.647 52.4944L458.536 101.557L393.683 123.702Z" stroke="#22A7F2" stroke-opacity="0.33" stroke-width="0.2"/>
<path d="M393.664 123.814L458.746 101.591L523.827 150.798L458.746 173.021L393.664 123.814Z" fill="#6755D9" fill-opacity="0.1"/>
<path d="M458.764 172.91L393.875 123.847L458.728 101.702L523.617 150.765L458.764 172.91Z" stroke="#22A7F2" stroke-opacity="0.33" stroke-width="0.2"/>
</svg>
