<svg width="527" height="381" viewBox="0 0 527 381" fill="none" xmlns="http://www.w3.org/2000/svg">
<circle cx="133.337" cy="328.209" r="3.1747" fill="#63CF97"/>
<circle cx="3.1747" cy="231.38" r="3.1747" fill="#63CF97"/>
<circle cx="198.418" cy="305.986" r="3.1747" fill="#63CF97"/>
<circle cx="68.2572" cy="209.157" r="3.1747" fill="#63CF97"/>
<circle cx="263.5" cy="283.763" r="3.1747" fill="#63CF97"/>
<circle cx="133.337" cy="186.934" r="3.1747" fill="#63CF97"/>
<circle cx="328.583" cy="261.54" r="3.1747" fill="#63CF97"/>
<circle cx="198.418" cy="164.711" r="3.1747" fill="#63CF97"/>
<circle cx="393.663" cy="239.317" r="3.1747" fill="#63CF97"/>
<circle cx="263.5" cy="142.489" r="3.1747" fill="#63CF97"/>
<circle cx="458.746" cy="217.094" r="3.1747" fill="#63CF97"/>
<circle cx="328.583" cy="120.265" r="3.1747" fill="#63CF97"/>
<circle cx="198.418" cy="377.417" r="3.1747" fill="#63CF97"/>
<circle cx="68.2572" cy="280.588" r="3.1747" fill="#63CF97"/>
<circle cx="263.5" cy="355.194" r="3.1747" fill="#63CF97"/>
<circle cx="133.337" cy="258.365" r="3.1747" fill="#63CF97"/>
<circle cx="328.583" cy="332.971" r="3.1747" fill="#63CF97"/>
<circle cx="198.418" cy="236.142" r="3.1747" fill="#63CF97"/>
<circle cx="393.663" cy="310.748" r="3.1747" fill="#63CF97"/>
<circle cx="263.5" cy="213.919" r="3.1747" fill="#63CF97"/>
<circle cx="458.746" cy="288.525" r="3.1747" fill="#63CF97"/>
<circle cx="328.583" cy="191.696" r="3.1747" fill="#63CF97"/>
<circle cx="523.825" cy="266.302" r="3.1747" fill="#63CF97"/>
<circle cx="393.663" cy="169.474" r="3.1747" fill="#63CF97"/>
<path d="M3.1759 231.38L68.2574 209.157L133.339 258.365L68.2574 280.588L3.1759 231.38Z" fill="#63CF97" fill-opacity="0.05"/>
<path d="M68.2753 280.476L3.3864 231.414L68.2394 209.269L133.128 258.331L68.2753 280.476Z" stroke="#63CF97" stroke-opacity="0.35" stroke-width="0.2"/>
<path d="M68.2555 280.588L133.337 258.365L198.418 307.573L133.337 329.796L68.2555 280.588Z" fill="#63CF97" fill-opacity="0.05"/>
<path d="M133.355 329.684L68.466 280.622L133.319 258.477L198.208 307.539L133.355 329.684Z" stroke="#63CF97" stroke-opacity="0.35" stroke-width="0.2"/>
<path d="M133.338 329.796L198.42 307.573L263.501 356.781L198.42 379.004L133.338 329.796Z" fill="#63CF97" fill-opacity="0.05"/>
<path d="M198.438 378.892L133.549 329.83L198.402 307.685L263.291 356.747L198.438 378.892Z" stroke="#63CF97" stroke-opacity="0.35" stroke-width="0.2"/>
<path d="M68.2555 209.157L133.337 186.934L198.418 236.142L133.337 258.365L68.2555 209.157Z" fill="#63CF97" fill-opacity="0.05"/>
<path d="M133.355 258.253L68.466 209.191L133.319 187.046L198.208 236.108L133.355 258.253Z" stroke="#63CF97" stroke-opacity="0.35" stroke-width="0.2"/>
<path d="M133.338 258.365L198.42 236.142L263.501 285.35L198.42 307.573L133.338 258.365Z" fill="#63CF97" fill-opacity="0.05"/>
<path d="M198.438 307.461L133.549 258.399L198.402 236.254L263.291 285.316L198.438 307.461Z" stroke="#63CF97" stroke-opacity="0.35" stroke-width="0.2"/>
<path d="M198.42 307.573L263.501 285.35L328.583 334.558L263.501 356.781L198.42 307.573Z" fill="#63CF97" fill-opacity="0.05"/>
<path d="M263.519 356.669L198.63 307.607L263.483 285.462L328.372 334.524L263.519 356.669Z" stroke="#63CF97" stroke-opacity="0.35" stroke-width="0.2"/>
<path d="M133.338 186.934L198.42 164.711L263.501 213.919L198.42 236.142L133.338 186.934Z" fill="#63CF97" fill-opacity="0.05"/>
<path d="M198.438 236.03L133.549 186.968L198.402 164.823L263.291 213.886L198.438 236.03Z" stroke="#63CF97" stroke-opacity="0.35" stroke-width="0.2"/>
<path d="M198.42 236.142L263.501 213.919L328.583 263.127L263.501 285.35L198.42 236.142Z" fill="#63CF97" fill-opacity="0.05"/>
<path d="M263.519 285.238L198.63 236.176L263.483 214.031L328.372 263.093L263.519 285.238Z" stroke="#63CF97" stroke-opacity="0.35" stroke-width="0.2"/>
<path d="M263.499 285.35L328.581 263.127L393.662 312.335L328.581 334.558L263.499 285.35Z" fill="#63CF97" fill-opacity="0.05"/>
<path d="M328.599 334.446L263.71 285.384L328.563 263.239L393.452 312.301L328.599 334.446Z" stroke="#63CF97" stroke-opacity="0.35" stroke-width="0.2"/>
<path d="M198.42 164.711L263.501 142.488L328.583 191.696L263.501 213.919L198.42 164.711Z" fill="#63CF97" fill-opacity="0.05"/>
<path d="M263.519 213.807L198.63 164.745L263.483 142.6L328.372 191.663L263.519 213.807Z" stroke="#63CF97" stroke-opacity="0.35" stroke-width="0.2"/>
<path d="M263.499 213.919L328.581 191.696L393.662 240.904L328.581 263.127L263.499 213.919Z" fill="#63CF97" fill-opacity="0.05"/>
<path d="M328.599 263.015L263.71 213.953L328.563 191.808L393.452 240.87L328.599 263.015Z" stroke="#63CF97" stroke-opacity="0.35" stroke-width="0.2"/>
<path d="M328.584 263.127L393.665 240.904L458.747 290.112L393.665 312.335L328.584 263.127Z" fill="#63CF97" fill-opacity="0.05"/>
<path d="M393.683 312.223L328.794 263.161L393.647 241.016L458.536 290.078L393.683 312.223Z" stroke="#63CF97" stroke-opacity="0.35" stroke-width="0.2"/>
<path d="M263.499 142.488L328.581 120.266L393.662 169.473L328.581 191.696L263.499 142.488Z" fill="#63CF97" fill-opacity="0.05"/>
<path d="M328.599 191.585L263.71 142.522L328.563 120.377L393.452 169.44L328.599 191.585Z" stroke="#63CF97" stroke-opacity="0.35" stroke-width="0.2"/>
<path d="M328.584 191.696L393.665 169.473L458.747 218.681L393.665 240.904L328.584 191.696Z" fill="#63CF97" fill-opacity="0.05"/>
<path d="M393.683 240.792L328.794 191.73L393.647 169.585L458.536 218.648L393.683 240.792Z" stroke="#63CF97" stroke-opacity="0.35" stroke-width="0.2"/>
<path d="M393.664 240.904L458.746 218.681L523.827 267.889L458.746 290.112L393.664 240.904Z" fill="#63CF97" fill-opacity="0.05"/>
<path d="M458.764 290L393.875 240.938L458.728 218.793L523.617 267.855L458.764 290Z" stroke="#63CF97" stroke-opacity="0.35" stroke-width="0.2"/>
<circle cx="133.337" cy="211.118" r="3.1747" fill="#22A7F2"/>
<circle cx="3.1747" cy="114.289" r="3.1747" fill="#22A7F2"/>
<circle cx="198.418" cy="188.895" r="3.1747" fill="#22A7F2"/>
<circle cx="68.2572" cy="92.0666" r="3.1747" fill="#22A7F2"/>
<circle cx="263.5" cy="166.672" r="3.1747" fill="#22A7F2"/>
<circle cx="133.337" cy="69.8435" r="3.1747" fill="#22A7F2"/>
<circle cx="328.583" cy="144.449" r="3.1747" fill="#22A7F2"/>
<circle cx="198.418" cy="47.6206" r="3.1747" fill="#22A7F2"/>
<circle cx="393.663" cy="122.226" r="3.1747" fill="#22A7F2"/>
<circle cx="263.5" cy="25.3977" r="3.1747" fill="#22A7F2"/>
<circle cx="458.746" cy="100.003" r="3.1747" fill="#22A7F2"/>
<circle cx="328.583" cy="3.1747" r="3.1747" fill="#22A7F2"/>
<circle cx="198.418" cy="260.326" r="3.1747" fill="#22A7F2"/>
<circle cx="68.2572" cy="163.497" r="3.1747" fill="#22A7F2"/>
<circle cx="263.5" cy="238.103" r="3.1747" fill="#22A7F2"/>
<circle cx="133.337" cy="141.274" r="3.1747" fill="#22A7F2"/>
<circle cx="328.583" cy="215.88" r="3.1747" fill="#22A7F2"/>
<circle cx="198.418" cy="119.051" r="3.1747" fill="#22A7F2"/>
<circle cx="393.663" cy="193.657" r="3.1747" fill="#22A7F2"/>
<circle cx="263.5" cy="96.8285" r="3.1747" fill="#22A7F2"/>
<circle cx="458.746" cy="171.434" r="3.1747" fill="#22A7F2"/>
<circle cx="328.583" cy="74.6056" r="3.1747" fill="#22A7F2"/>
<circle cx="523.825" cy="149.211" r="3.1747" fill="#22A7F2"/>
<circle cx="393.663" cy="52.3826" r="3.1747" fill="#22A7F2"/>
<path d="M3.1759 114.289L68.2574 92.0664L133.339 141.274L68.2574 163.497L3.1759 114.289Z" fill="#22A7F2" fill-opacity="0.05"/>
<path d="M68.2753 163.385L3.3864 114.323L68.2394 92.1782L133.128 141.241L68.2753 163.385Z" stroke="#22A7F2" stroke-opacity="0.6" stroke-width="0.2"/>
<path d="M68.2555 163.497L133.337 141.274L198.418 190.482L133.337 212.705L68.2555 163.497Z" fill="#22A7F2" fill-opacity="0.05"/>
<path d="M133.355 212.593L68.466 163.531L133.319 141.386L198.208 190.448L133.355 212.593Z" stroke="#22A7F2" stroke-opacity="0.6" stroke-width="0.2"/>
<path d="M133.338 212.705L198.42 190.482L263.501 239.69L198.42 261.913L133.338 212.705Z" fill="#22A7F2" fill-opacity="0.05"/>
<path d="M198.438 261.801L133.549 212.739L198.402 190.594L263.291 239.656L198.438 261.801Z" stroke="#22A7F2" stroke-opacity="0.6" stroke-width="0.2"/>
<path d="M68.2555 92.0664L133.337 69.8435L198.418 119.051L133.337 141.274L68.2555 92.0664Z" fill="#22A7F2" fill-opacity="0.05"/>
<path d="M133.355 141.163L68.466 92.1002L133.319 69.9553L198.208 119.018L133.355 141.163Z" stroke="#22A7F2" stroke-opacity="0.6" stroke-width="0.2"/>
<path d="M133.338 141.275L198.42 119.052L263.501 168.26L198.42 190.482L133.338 141.275Z" fill="#22A7F2" fill-opacity="0.05"/>
<path d="M198.438 190.371L133.549 141.308L198.402 119.163L263.291 168.226L198.438 190.371Z" stroke="#22A7F2" stroke-opacity="0.6" stroke-width="0.2"/>
<path d="M198.42 190.482L263.501 168.259L328.583 217.467L263.501 239.69L198.42 190.482Z" fill="#22A7F2" fill-opacity="0.05"/>
<path d="M263.519 239.578L198.63 190.516L263.483 168.371L328.372 217.434L263.519 239.578Z" stroke="#22A7F2" stroke-opacity="0.6" stroke-width="0.2"/>
<path d="M133.338 69.8435L198.42 47.6206L263.501 96.8285L198.42 119.051L133.338 69.8435Z" fill="#22A7F2" fill-opacity="0.05"/>
<path d="M198.438 118.94L133.549 69.8773L198.402 47.7324L263.291 96.7947L198.438 118.94Z" stroke="#22A7F2" stroke-opacity="0.6" stroke-width="0.2"/>
<path d="M198.42 119.051L263.501 96.8285L328.583 146.036L263.501 168.259L198.42 119.051Z" fill="#22A7F2" fill-opacity="0.05"/>
<path d="M263.519 168.148L198.63 119.085L263.483 96.9403L328.372 146.003L263.519 168.148Z" stroke="#22A7F2" stroke-opacity="0.6" stroke-width="0.2"/>
<path d="M263.499 168.259L328.581 146.036L393.662 195.244L328.581 217.467L263.499 168.259Z" fill="#22A7F2" fill-opacity="0.05"/>
<path d="M328.599 217.355L263.71 168.293L328.563 146.148L393.452 195.211L328.599 217.355Z" stroke="#22A7F2" stroke-opacity="0.6" stroke-width="0.2"/>
<path d="M198.42 47.6205L263.501 25.3976L328.583 74.6055L263.501 96.8284L198.42 47.6205Z" fill="#22A7F2" fill-opacity="0.05"/>
<path d="M263.519 96.7166L198.63 47.6543L263.483 25.5094L328.372 74.5717L263.519 96.7166Z" stroke="#22A7F2" stroke-opacity="0.6" stroke-width="0.2"/>
<path d="M263.499 96.8286L328.581 74.6057L393.662 123.814L328.581 146.037L263.499 96.8286Z" fill="#22A7F2" fill-opacity="0.05"/>
<path d="M328.599 145.925L263.71 96.8624L328.563 74.7175L393.452 123.78L328.599 145.925Z" stroke="#22A7F2" stroke-opacity="0.6" stroke-width="0.2"/>
<path d="M328.584 146.037L393.665 123.814L458.747 173.022L393.665 195.244L328.584 146.037Z" fill="#22A7F2" fill-opacity="0.05"/>
<path d="M393.683 195.133L328.794 146.07L393.647 123.925L458.536 172.988L393.683 195.133Z" stroke="#22A7F2" stroke-opacity="0.6" stroke-width="0.2"/>
<path d="M263.499 25.3976L328.581 3.17468L393.662 52.3826L328.581 74.6055L263.499 25.3976Z" fill="#22A7F2" fill-opacity="0.05"/>
<path d="M328.599 74.4937L263.71 25.4314L328.563 3.28648L393.452 52.3488L328.599 74.4937Z" stroke="#22A7F2" stroke-opacity="0.6" stroke-width="0.2"/>
<path d="M328.584 74.6055L393.665 52.3826L458.747 101.59L393.665 123.813L328.584 74.6055Z" fill="#22A7F2" fill-opacity="0.05"/>
<path d="M393.683 123.702L328.794 74.6393L393.647 52.4944L458.536 101.557L393.683 123.702Z" stroke="#22A7F2" stroke-opacity="0.6" stroke-width="0.2"/>
<path d="M393.664 123.814L458.746 101.591L523.827 150.798L458.746 173.021L393.664 123.814Z" fill="#22A7F2" fill-opacity="0.05"/>
<path d="M458.764 172.91L393.875 123.847L458.728 101.702L523.617 150.765L458.764 172.91Z" stroke="#22A7F2" stroke-opacity="0.6" stroke-width="0.2"/>
<path fill-rule="evenodd" clip-rule="evenodd" d="M451.167 134.443C452.989 134.443 454.466 132.966 454.466 131.144C454.466 129.322 452.989 127.845 451.167 127.845C449.345 127.845 447.868 129.322 447.868 131.144C447.868 132.966 449.345 134.443 451.167 134.443ZM304.352 211.975C304.352 213.797 302.875 215.274 301.053 215.274C299.231 215.274 297.754 213.797 297.754 211.975C297.754 210.152 299.231 208.675 301.053 208.675C302.875 208.675 304.352 210.152 304.352 211.975ZM229.295 252.39C229.295 254.212 227.818 255.689 225.996 255.689C224.173 255.689 222.696 254.212 222.696 252.39C222.696 250.568 224.173 249.091 225.996 249.091C227.818 249.091 229.295 250.568 229.295 252.39Z" fill="#63CF97"/>
<path fill-rule="evenodd" clip-rule="evenodd" d="M451.167 134.443C452.989 134.443 454.466 132.966 454.466 131.144C454.466 129.322 452.989 127.845 451.167 127.845C449.345 127.845 447.868 129.322 447.868 131.144C447.868 132.966 449.345 134.443 451.167 134.443ZM304.352 211.975C304.352 213.797 302.875 215.274 301.053 215.274C299.231 215.274 297.754 213.797 297.754 211.975C297.754 210.152 299.231 208.675 301.053 208.675C302.875 208.675 304.352 210.152 304.352 211.975ZM229.295 252.39C229.295 254.212 227.818 255.689 225.996 255.689C224.173 255.689 222.696 254.212 222.696 252.39C222.696 250.568 224.173 249.091 225.996 249.091C227.818 249.091 229.295 250.568 229.295 252.39Z" fill="url(#paint0_linear_202_38)" fill-opacity="0.9"/>
<circle opacity="0.4" cx="75.8812" cy="235.894" r="3.29921" fill="#B33BA7"/>
<circle opacity="0.4" cx="150.94" cy="292.805" r="3.29921" fill="#B33BA7"/>
<circle opacity="0.4" cx="75.8812" cy="138.567" r="3.29921" fill="#B33BA7"/>
<circle opacity="0.4" cx="150.94" cy="195.479" r="3.29921" fill="#B33BA7"/>
<circle opacity="0.4" cx="301.053" cy="309.301" r="3.29921" fill="#B33BA7"/>
<circle opacity="0.4" cx="150.94" cy="98.1516" r="3.29921" fill="#B33BA7"/>
<circle opacity="0.4" cx="225.995" cy="155.063" r="3.29921" fill="#B33BA7"/>
<circle opacity="0.4" cx="376.11" cy="268.886" r="3.29921" fill="#B33BA7"/>
<circle opacity="0.4" cx="225.995" cy="57.7363" r="3.29921" fill="#B33BA7"/>
<circle opacity="0.4" cx="301.053" cy="114.648" r="3.29921" fill="#B33BA7"/>
<circle opacity="0.4" cx="376.11" cy="171.559" r="3.29921" fill="#B33BA7"/>
<circle opacity="0.4" cx="451.166" cy="228.471" r="3.29921" fill="#B33BA7"/>
<circle opacity="0.4" cx="376.11" cy="74.2323" r="3.29921" fill="#B33BA7"/>
<defs>
<linearGradient id="paint0_linear_202_38" x1="253.983" y1="134.176" x2="402.735" y2="279.251" gradientUnits="userSpaceOnUse">
<stop offset="0.09375" stop-color="#051921"/>
<stop offset="0.53125" stop-color="#051921" stop-opacity="0"/>
<stop offset="1" stop-color="#041820"/>
</linearGradient>
</defs>
</svg>
