<svg width="65" height="64" viewBox="0 0 65 64" fill="none" xmlns="http://www.w3.org/2000/svg">
<g clip-path="url(#clip0_139_331)">
<path opacity="0.4" d="M53.8333 10.5555L7.61111 24.7778V39L18.9133 42.4778C18.4293 43.8345 18.225 45.2751 18.3129 46.7129C18.4007 48.1507 18.7789 49.5558 19.4246 50.8434C20.0702 52.1311 20.97 53.2746 22.0696 54.2051C23.1693 55.1355 24.446 55.8336 25.8227 56.2572C27.1995 56.6809 28.6478 56.8213 30.0803 56.6699C31.5128 56.5186 32.8998 56.0787 34.1576 55.3767C35.4155 54.6748 36.5181 53.7254 37.3991 52.5857C38.28 51.446 38.921 50.1397 39.2833 48.7455L53.8333 53.2222V10.5555ZM28.9444 51.4444C28.0657 51.4443 27.2005 51.2271 26.426 50.8121C25.6514 50.397 24.9914 49.797 24.5046 49.0653C24.0179 48.3337 23.7194 47.4931 23.6358 46.6183C23.5523 45.7436 23.6861 44.8617 24.0256 44.0511L34.1667 47.1722C33.9207 48.3765 33.2669 49.459 32.3156 50.2373C31.3642 51.0156 30.1736 51.4419 28.9444 51.4444Z" fill="#1AC1EF"/>
<path d="M62.7222 7H59.1667C58.6952 7 58.243 7.1873 57.9096 7.5207C57.5762 7.8541 57.3889 8.30628 57.3889 8.77778V55C57.3889 55.4715 57.5762 55.9237 57.9096 56.2571C58.243 56.5905 58.6952 56.7778 59.1667 56.7778H62.7222C63.1937 56.7778 63.6459 56.5905 63.9793 56.2571C64.3127 55.9237 64.5 55.4715 64.5 55V8.77778C64.5 8.30628 64.3127 7.8541 63.9793 7.5207C63.6459 7.1873 63.1937 7 62.7222 7ZM4.05556 21.2222C3.11256 21.2222 2.20819 21.5968 1.5414 22.2636C0.874602 22.9304 0.5 23.8348 0.5 24.7778L0.5 39C0.5 39.943 0.874602 40.8474 1.5414 41.5142C2.20819 42.181 3.11256 42.5556 4.05556 42.5556C4.99855 42.5556 5.90292 42.181 6.56971 41.5142C7.23651 40.8474 7.61111 39.943 7.61111 39V24.7778C7.61111 23.8348 7.23651 22.9304 6.56971 22.2636C5.90292 21.5968 4.99855 21.2222 4.05556 21.2222Z" fill="#1AC1EF"/>
</g>
<defs>
<clipPath id="clip0_139_331">
<rect width="64" height="64" fill="white" transform="translate(0.5)"/>
</clipPath>
</defs>
</svg>
