<svg width="287" height="66" viewBox="0 0 287 66" fill="none" xmlns="http://www.w3.org/2000/svg">
<g style="mix-blend-mode:screen">
<circle opacity="0.75" cx="42.4539" cy="11.2454" r="7.92485" transform="rotate(-156.6 42.4539 11.2454)" fill="#94C0D9"/>
<path opacity="0.75" d="M16.3319 51.6782C18.0682 47.6659 27.8237 35.0881 31.4561 36.6599C35.0885 38.2318 32.5978 53.9534 30.8615 57.9657C29.1253 61.9779 24.4652 63.823 20.453 62.0867C16.4408 60.3505 14.5957 55.6904 16.3319 51.6782Z" fill="#00709F"/>
<path opacity="0.75" d="M51.6782 49.7476C47.6659 48.0114 35.0881 38.2559 36.6599 34.6235C38.2318 30.9911 53.9534 33.4818 57.9657 35.2181C61.9779 36.9543 63.823 41.6144 62.0867 45.6266C60.3505 49.6388 55.6904 51.4839 51.6782 49.7476Z" fill="#94C0D9"/>
<path opacity="0.75" d="M14.377 16.3556C18.3892 18.0919 30.9671 27.8474 29.3952 31.4798C27.8234 35.1122 12.1017 32.6215 8.0895 30.8852C4.07726 29.149 2.23221 24.4889 3.96846 20.4767C5.70471 16.4644 10.3648 14.6194 14.377 16.3556Z" fill="#94C0D9"/>
<path d="M15.5072 50.8535C17.2435 46.8412 26.999 34.2634 30.6314 35.8352C34.2638 37.4071 31.7731 53.1287 30.0368 57.141C28.3006 61.1532 23.6405 62.9983 19.6283 61.262C15.616 59.5258 13.771 54.8657 15.5072 50.8535Z" fill="#57C3CA"/>
<path fill-rule="evenodd" clip-rule="evenodd" d="M34.3562 7.27318C36.0944 3.25638 40.7598 1.40923 44.7766 3.14745C48.7934 4.88568 50.6405 9.55106 48.9023 13.5679C47.1641 17.5847 42.4987 19.4318 38.4819 17.6936C34.4651 15.9554 32.6179 11.29 34.3562 7.27318ZM50.8531 48.9229C46.8409 47.1866 34.263 37.4311 35.8349 33.7987C37.4068 30.1663 53.1284 32.657 57.1407 34.3933C61.1529 36.1295 62.9979 40.7896 61.2617 44.8018C59.5254 48.8141 54.8654 50.6591 50.8531 48.9229ZM28.5706 30.6546C30.1424 27.0222 17.5646 17.2667 13.5523 15.5304C9.54009 13.7942 4.88003 15.6393 3.14378 19.6515C1.40753 23.6637 3.25258 28.3238 7.26481 30.06C11.277 31.7963 26.9987 34.287 28.5706 30.6546Z" fill="#D7EFF4"/>
</g>
<path d="M85.78 54V15.36H92.32V54H85.78ZM100.529 54L114.329 34.74L100.829 15.36H108.389L118.229 29.7L128.069 15.36H135.689L122.129 34.74L135.929 54H128.249L118.229 39.84L108.209 54H100.529ZM144.163 54V15.36H150.703V54H144.163ZM172.112 54V15.36H178.652V48.96H198.452V54H172.112ZM209.515 54.6C207.715 54.6 206.035 54.28 204.475 53.64C202.955 53 201.735 52.04 200.815 50.76C199.895 49.44 199.435 47.82 199.435 45.9C199.435 43.18 200.355 41 202.195 39.36C204.075 37.68 206.955 36.84 210.835 36.84H219.955V35.58C219.955 34.22 219.735 33.14 219.295 32.34C218.895 31.54 218.135 30.96 217.015 30.6C215.935 30.24 214.335 30.06 212.215 30.06C208.855 30.06 205.715 30.56 202.795 31.56V26.7C204.075 26.18 205.635 25.76 207.475 25.44C209.315 25.12 211.295 24.96 213.415 24.96C217.575 24.96 220.735 25.8 222.895 27.48C225.095 29.16 226.195 31.9 226.195 35.7V54H220.615L220.195 51.12C219.035 52.24 217.595 53.1 215.875 53.7C214.195 54.3 212.075 54.6 209.515 54.6ZM211.255 49.92C213.215 49.92 214.915 49.6 216.355 48.96C217.835 48.28 219.035 47.38 219.955 46.26V41.28H210.955C209.035 41.28 207.635 41.66 206.755 42.42C205.915 43.14 205.495 44.26 205.495 45.78C205.495 47.26 205.995 48.32 206.995 48.96C207.995 49.6 209.415 49.92 211.255 49.92ZM246.048 54.6C243.968 54.6 242.168 54.32 240.648 53.76C239.128 53.2 237.728 52.34 236.448 51.18L236.088 54H230.448V13.56H236.988V27.42C239.468 25.78 242.448 24.96 245.928 24.96C249.968 24.96 253.148 26.12 255.468 28.44C257.828 30.72 259.008 34.42 259.008 39.54C259.008 44.7 257.848 48.5 255.528 50.94C253.208 53.38 250.048 54.6 246.048 54.6ZM244.308 49.68C247.268 49.68 249.348 48.84 250.548 47.16C251.788 45.48 252.408 42.94 252.408 39.54C252.408 36.02 251.748 33.54 250.428 32.1C249.108 30.66 247.028 29.94 244.188 29.94C241.228 29.94 238.828 30.76 236.988 32.4V46.68C238.868 48.68 241.308 49.68 244.308 49.68ZM271.557 54.6C269.597 54.6 267.717 54.46 265.917 54.18C264.157 53.9 262.697 53.56 261.537 53.16V47.64C262.897 48.16 264.397 48.56 266.037 48.84C267.677 49.12 269.237 49.26 270.717 49.26C272.957 49.26 274.557 49.06 275.517 48.66C276.477 48.26 276.957 47.48 276.957 46.32C276.957 45.48 276.657 44.82 276.057 44.34C275.497 43.86 274.637 43.42 273.477 43.02C272.357 42.62 270.917 42.14 269.157 41.58C267.477 41.02 266.017 40.42 264.777 39.78C263.537 39.1 262.577 38.24 261.897 37.2C261.217 36.16 260.877 34.8 260.877 33.12C260.877 30.52 261.817 28.52 263.697 27.12C265.577 25.68 268.597 24.96 272.757 24.96C274.397 24.96 275.957 25.08 277.437 25.32C278.917 25.56 280.177 25.86 281.217 26.22V31.68C280.097 31.24 278.857 30.9 277.497 30.66C276.177 30.42 274.937 30.3 273.777 30.3C271.697 30.3 270.117 30.48 269.037 30.84C267.997 31.2 267.477 31.92 267.477 33C267.477 34.12 268.017 34.92 269.097 35.4C270.217 35.84 271.997 36.46 274.437 37.26C276.677 37.94 278.457 38.66 279.777 39.42C281.097 40.18 282.037 41.1 282.597 42.18C283.197 43.22 283.497 44.58 283.497 46.26C283.497 49.06 282.477 51.16 280.437 52.56C278.397 53.92 275.437 54.6 271.557 54.6Z" fill="white"/>
</svg>
