<svg width="156" height="48" viewBox="0 0 156 48" fill="none" xmlns="http://www.w3.org/2000/svg">
<circle cx="31.0522" cy="7.75513" r="5.91133" transform="rotate(-156.6 31.0522 7.75513)" fill="#B0B0B0"/>
<path d="M11.5671 37.9328C12.8622 34.94 20.1391 25.5578 22.8486 26.7303C25.5581 27.9028 23.7002 39.63 22.4051 42.6228C21.11 45.6156 17.6339 46.9919 14.6411 45.6967C11.6483 44.4016 10.272 40.9256 11.5671 37.9328Z" fill="white"/>
<path d="M37.9325 36.4749C34.9397 35.1798 25.5576 27.9029 26.7301 25.1934C27.9026 22.4839 39.6297 24.3418 42.6225 25.6369C45.6153 26.932 46.9916 30.4081 45.6965 33.4009C44.4014 36.3937 40.9253 37.77 37.9325 36.4749Z" fill="#B0B0B0"/>
<path d="M10.109 11.567C13.1018 12.8621 22.4839 20.139 21.3114 22.8485C20.1389 25.5579 8.41179 23.7 5.41897 22.4049C2.42616 21.1098 1.04989 17.6338 2.345 14.641C3.64011 11.6481 7.11616 10.2719 10.109 11.567Z" fill="#B0B0B0"/>
<path d="M69.5241 15.5455V33H66.3622V15.5455H69.5241ZM75.5902 15.5455L79.4339 21.9375H79.5703L83.4311 15.5455H87.0362L81.6584 24.2727L87.1214 33H83.4567L79.5703 26.6506H79.4339L75.5476 33H71.8999L77.4141 24.2727L71.968 15.5455H75.5902ZM92.6804 15.5455V33H89.5185V15.5455H92.6804ZM102.058 33V15.5455H105.219V30.3494H112.907V33H102.058ZM119.282 33.2642C118.452 33.2642 117.705 33.1165 117.04 32.821C116.381 32.5199 115.859 32.0767 115.472 31.4915C115.092 30.9062 114.901 30.1847 114.901 29.3267C114.901 28.5881 115.038 27.9773 115.31 27.4943C115.583 27.0114 115.955 26.625 116.427 26.3352C116.898 26.0455 117.43 25.8267 118.021 25.679C118.617 25.5256 119.234 25.4148 119.87 25.3466C120.637 25.267 121.259 25.196 121.737 25.1335C122.214 25.0653 122.56 24.9631 122.776 24.8267C122.998 24.6847 123.109 24.4659 123.109 24.1705V24.1193C123.109 23.4773 122.918 22.9801 122.538 22.6278C122.157 22.2756 121.609 22.0994 120.893 22.0994C120.137 22.0994 119.538 22.2642 119.094 22.5938C118.657 22.9233 118.362 23.3125 118.208 23.7614L115.327 23.3523C115.555 22.5568 115.93 21.892 116.452 21.358C116.975 20.8182 117.614 20.4148 118.37 20.1477C119.126 19.875 119.961 19.7386 120.876 19.7386C121.506 19.7386 122.134 19.8125 122.759 19.9602C123.384 20.108 123.955 20.3523 124.472 20.6932C124.989 21.0284 125.404 21.4858 125.717 22.0653C126.035 22.6449 126.194 23.3693 126.194 24.2386V33H123.228V31.2017H123.126C122.938 31.5653 122.674 31.9062 122.333 32.2244C121.998 32.5369 121.575 32.7898 121.063 32.983C120.558 33.1705 119.964 33.2642 119.282 33.2642ZM120.083 30.9972C120.702 30.9972 121.239 30.875 121.694 30.6307C122.148 30.3807 122.498 30.0511 122.742 29.642C122.992 29.233 123.117 28.7869 123.117 28.304V26.7614C123.021 26.8409 122.856 26.9148 122.623 26.983C122.396 27.0511 122.14 27.1108 121.856 27.1619C121.572 27.2131 121.29 27.2585 121.012 27.2983C120.734 27.3381 120.492 27.3722 120.288 27.4006C119.827 27.4631 119.415 27.5653 119.052 27.7074C118.688 27.8494 118.401 28.0483 118.191 28.304C117.981 28.554 117.876 28.8778 117.876 29.2756C117.876 29.8438 118.083 30.2727 118.498 30.5625C118.913 30.8523 119.441 30.9972 120.083 30.9972ZM129.433 33V15.5455H132.518V22.0739H132.646C132.805 21.7557 133.029 21.4176 133.319 21.0597C133.609 20.696 134.001 20.3864 134.495 20.1307C134.989 19.8693 135.62 19.7386 136.387 19.7386C137.398 19.7386 138.31 19.9972 139.123 20.5142C139.941 21.0256 140.589 21.7841 141.066 22.7898C141.549 23.7898 141.79 25.017 141.79 26.4716C141.79 27.9091 141.555 29.1307 141.083 30.1364C140.612 31.142 139.969 31.9091 139.157 32.4375C138.344 32.9659 137.424 33.2301 136.396 33.2301C135.646 33.2301 135.023 33.1051 134.529 32.8551C134.035 32.6051 133.637 32.304 133.336 31.9517C133.04 31.5937 132.81 31.2557 132.646 30.9375H132.467V33H129.433ZM132.458 26.4545C132.458 27.3011 132.577 28.0426 132.816 28.679C133.06 29.3153 133.41 29.8125 133.864 30.1705C134.325 30.5227 134.881 30.6989 135.535 30.6989C136.217 30.6989 136.788 30.517 137.248 30.1534C137.708 29.7841 138.055 29.2812 138.288 28.6449C138.526 28.0028 138.646 27.2727 138.646 26.4545C138.646 25.642 138.529 24.9205 138.296 24.2898C138.063 23.6591 137.717 23.1648 137.256 22.8068C136.796 22.4489 136.222 22.2699 135.535 22.2699C134.876 22.2699 134.316 22.4432 133.856 22.7898C133.396 23.1364 133.046 23.6222 132.808 24.2472C132.575 24.8722 132.458 25.608 132.458 26.4545ZM154.76 23.3693L151.947 23.6761C151.868 23.392 151.729 23.125 151.53 22.875C151.337 22.625 151.075 22.4233 150.746 22.2699C150.416 22.1165 150.013 22.0398 149.536 22.0398C148.893 22.0398 148.354 22.179 147.916 22.4574C147.484 22.7358 147.271 23.0966 147.277 23.5398C147.271 23.9205 147.411 24.2301 147.695 24.4688C147.984 24.7074 148.462 24.9034 149.126 25.0568L151.359 25.5341C152.598 25.8011 153.518 26.2244 154.121 26.804C154.729 27.3835 155.036 28.142 155.041 29.0795C155.036 29.9034 154.794 30.6307 154.317 31.2614C153.845 31.8864 153.189 32.375 152.348 32.7273C151.507 33.0795 150.541 33.2557 149.45 33.2557C147.848 33.2557 146.558 32.9205 145.581 32.25C144.604 31.5739 144.021 30.6335 143.834 29.429L146.842 29.1392C146.979 29.7301 147.268 30.1761 147.712 30.4773C148.155 30.7784 148.732 30.929 149.442 30.929C150.175 30.929 150.763 30.7784 151.206 30.4773C151.655 30.1761 151.879 29.804 151.879 29.3608C151.879 28.9858 151.734 28.6761 151.445 28.4318C151.161 28.1875 150.717 28 150.115 27.8693L147.882 27.4006C146.626 27.1392 145.697 26.6989 145.095 26.0795C144.493 25.4545 144.195 24.6648 144.2 23.7102C144.195 22.9034 144.413 22.2045 144.857 21.6136C145.305 21.017 145.928 20.5568 146.723 20.233C147.524 19.9034 148.447 19.7386 149.493 19.7386C151.027 19.7386 152.234 20.0653 153.115 20.7188C154.001 21.3722 154.55 22.2557 154.76 23.3693Z" fill="white"/>
</svg>
