<svg width="64" height="64" viewBox="0 0 64 64" fill="none" xmlns="http://www.w3.org/2000/svg">
<path d="M25.6332 48.4986L25.6332 48.4987L25.6443 48.4923L47.6385 35.8707C50.3665 34.3506 50.3609 30.4223 47.6521 28.887L25.6661 15.5205L25.6487 15.5099L25.6308 15.5001C22.9866 14.0366 19.6841 15.9271 19.6841 19V45C19.6841 48.0887 23.0032 49.9634 25.6332 48.4986ZM2.68408 32C2.68408 15.4273 16.1114 2 32.6841 2C49.2568 2 62.6841 15.4273 62.6841 32C62.6841 48.5727 49.2568 62 32.6841 62C16.1114 62 2.68408 48.5727 2.68408 32Z" stroke="#60DFB2" stroke-width="2"/>
</svg>
