<svg width="65" height="64" viewBox="0 0 65 64" fill="none" xmlns="http://www.w3.org/2000/svg">
<g clip-path="url(#clip0_139_324)">
<path opacity="0.4" d="M64.3593 43.3304L61.0223 22.3536C60.1363 17.3708 56.1822 13.3547 50.9562 12.1294H50.9492C38.8157 9.2903 26.1822 9.2903 14.0487 12.1294C8.81666 13.3547 4.86361 17.3699 3.9776 22.3536L0.640561 43.3304C-0.390451 49.1311 4.37961 54.4122 10.6507 54.4122C15.6177 54.4122 20.0278 51.4311 21.5988 47.0125L22.3508 44.8949H42.6511L43.4001 47.0125C44.9721 51.4311 49.3822 54.4122 54.3492 54.4122C60.6203 54.4122 65.3904 49.1311 64.3593 43.3304ZM28.4999 30.2223C28.4999 30.5378 28.3735 30.8404 28.1484 31.0635C27.9234 31.2866 27.6182 31.4119 27.2999 31.4119H22.0998V36.5672C22.0998 36.8827 21.9734 37.1853 21.7483 37.4084C21.5233 37.6315 21.2181 37.7568 20.8998 37.7568H18.4998C18.1815 37.7568 17.8763 37.6315 17.6512 37.4084C17.4262 37.1853 17.2998 36.8827 17.2998 36.5672V31.4119H12.0997C11.7814 31.4119 11.4762 31.2866 11.2512 31.0635C11.0261 30.8404 10.8997 30.5378 10.8997 30.2223V27.8429C10.8997 27.5274 11.0261 27.2248 11.2512 27.0017C11.4762 26.7786 11.7814 26.6532 12.0997 26.6532H17.2998V21.498C17.2998 21.1825 17.4262 20.8799 17.6512 20.6568C17.8763 20.4337 18.1815 20.3083 18.4998 20.3083H20.8998C21.2181 20.3083 21.5233 20.4337 21.7483 20.6568C21.9734 20.8799 22.0998 21.1825 22.0998 21.498V26.6532H27.2999C27.6182 26.6532 27.9234 26.7786 28.1484 27.0017C28.3735 27.2248 28.4999 27.5274 28.4999 27.8429V30.2223ZM43.7001 37.7568C42.909 37.7568 42.1356 37.5243 41.4778 37.0885C40.82 36.6528 40.3073 36.0334 40.0045 35.3088C39.7018 34.5842 39.6226 33.7869 39.7769 33.0176C39.9312 32.2484 40.3122 31.5418 40.8716 30.9872C41.431 30.4326 42.1438 30.0549 42.9197 29.9019C43.6957 29.7489 44.4999 29.8274 45.2308 30.1276C45.9618 30.4277 46.5865 30.936 47.026 31.5881C47.4655 32.2402 47.7001 33.007 47.7001 33.7913C47.7001 34.843 47.2787 35.8517 46.5286 36.5953C45.7784 37.339 44.761 37.7568 43.7001 37.7568ZM50.1002 28.2395C49.309 28.2395 48.5357 28.0069 47.8779 27.5712C47.2201 27.1354 46.7074 26.5161 46.4046 25.7915C46.1019 25.0669 46.0226 24.2695 46.177 23.5003C46.3313 22.731 46.7123 22.0244 47.2717 21.4698C47.8311 20.9152 48.5439 20.5375 49.3198 20.3845C50.0957 20.2315 50.9 20.3101 51.6309 20.6102C52.3618 20.9103 52.9866 21.4186 53.4261 22.0708C53.8656 22.7229 54.1002 23.4896 54.1002 24.2739C54.1002 25.3256 53.6788 26.3343 52.9286 27.078C52.1785 27.8217 51.161 28.2395 50.1002 28.2395Z" fill="#3ED3F4"/>
<path d="M28.4999 30.2221C28.4999 30.5377 28.3734 30.8403 28.1484 31.0634C27.9233 31.2865 27.6181 31.4118 27.2999 31.4118H22.0998V36.5671C22.0998 36.8826 21.9734 37.1852 21.7483 37.4083C21.5233 37.6314 21.218 37.7567 20.8998 37.7567H18.4997C18.1815 37.7567 17.8762 37.6314 17.6512 37.4083C17.4262 37.1852 17.2997 36.8826 17.2997 36.5671V31.4118H12.0997C11.7814 31.4118 11.4762 31.2865 11.2511 31.0634C11.0261 30.8403 10.8996 30.5377 10.8996 30.2221V27.8428C10.8996 27.5273 11.0261 27.2247 11.2511 27.0016C11.4762 26.7785 11.7814 26.6531 12.0997 26.6531H17.2997V21.4979C17.2997 21.1824 17.4262 20.8798 17.6512 20.6567C17.8762 20.4336 18.1815 20.3082 18.4997 20.3082H20.8998C21.218 20.3082 21.5233 20.4336 21.7483 20.6567C21.9734 20.8798 22.0998 21.1824 22.0998 21.4979V26.6531H27.2999C27.6181 26.6531 27.9233 26.7785 28.1484 27.0016C28.3734 27.2247 28.4999 27.5273 28.4999 27.8428V30.2221Z" fill="#3ED3F4"/>
</g>
<defs>
<clipPath id="clip0_139_324">
<rect width="64" height="64" fill="white" transform="translate(0.5)"/>
</clipPath>
</defs>
</svg>
