<svg width="64" height="64" viewBox="0 0 64 64" fill="none" xmlns="http://www.w3.org/2000/svg">
<g clip-path="url(#clip0_422_898)">
<path d="M13.5758 47.5151H38.7879C39.0451 47.5151 39.2917 47.6173 39.4736 47.7992C39.6554 47.981 39.7576 48.2277 39.7576 48.4848V50.4242C39.7576 50.6814 39.6554 50.9281 39.4736 51.1099C39.2917 51.2918 39.0451 51.3939 38.7879 51.3939H13.5758C13.3186 51.3939 13.072 51.2918 12.8901 51.1099C12.7082 50.9281 12.6061 50.6814 12.6061 50.4242V48.4848C12.6061 48.2277 12.7082 47.981 12.8901 47.7992C13.072 47.6173 13.3186 47.5151 13.5758 47.5151V47.5151Z" fill="#60DFB2"/>
<path d="M57.2122 55.2728H57.0558C60.8996 51.0192 63.0285 45.4907 63.0303 39.7576C63.0303 26.9237 52.5915 16.4849 39.7576 16.4849V24.2425C43.8725 24.2425 47.8188 25.8771 50.7285 28.7867C53.6381 31.6964 55.2728 35.6427 55.2728 39.7576C55.2728 43.8725 53.6381 47.8188 50.7285 50.7285C47.8188 53.6381 43.8725 55.2728 39.7576 55.2728H6.78791C5.24483 55.2728 3.76495 55.8857 2.67383 56.9769C1.58271 58.068 0.969727 59.5479 0.969727 61.0909C0.969727 61.6053 1.17406 62.0986 1.53776 62.4623C1.90147 62.826 2.39476 63.0303 2.90912 63.0303H61.0909C61.6053 63.0303 62.0986 62.826 62.4623 62.4623C62.826 62.0986 63.0303 61.6053 63.0303 61.0909C63.0303 59.5479 62.4173 58.068 61.3262 56.9769C60.2351 55.8857 58.7552 55.2728 57.2122 55.2728ZM20.3637 39.7576H21.8182V41.697C21.8182 42.2114 22.0225 42.7047 22.3862 43.0684C22.75 43.4321 23.2432 43.6364 23.7576 43.6364H28.6061C29.1205 43.6364 29.6137 43.4321 29.9774 43.0684C30.3412 42.7047 30.5455 42.2114 30.5455 41.697V39.7576H32C33.0287 39.7576 34.0153 39.3489 34.7427 38.6215C35.4702 37.8941 35.8788 36.9075 35.8788 35.8788V8.7273C35.8788 7.69858 35.4702 6.712 34.7427 5.98459C34.0153 5.25717 33.0287 4.84851 32 4.84851V2.90912C32 2.39476 31.7957 1.90147 31.432 1.53776C31.0683 1.17406 30.575 0.969727 30.0606 0.969727H22.3031C21.7887 0.969727 21.2954 1.17406 20.9317 1.53776C20.568 1.90147 20.3637 2.39476 20.3637 2.90912V4.84851C19.3349 4.84851 18.3484 5.25717 17.6209 5.98459C16.8935 6.712 16.4849 7.69858 16.4849 8.7273V35.8788C16.4849 36.9075 16.8935 37.8941 17.6209 38.6215C18.3484 39.3489 19.3349 39.7576 20.3637 39.7576Z" stroke="#60DFB2" stroke-width="1.93939"/>
</g>
<defs>
<clipPath id="clip0_422_898">
<rect width="64" height="64" fill="white"/>
</clipPath>
</defs>
</svg>
