<svg width="65" height="64" viewBox="0 0 65 64" fill="none" xmlns="http://www.w3.org/2000/svg">
<g clip-path="url(#clip0_139_199)">
<path opacity="0.4" d="M13.5 48H39.5C39.7652 48 40.0196 48.1054 40.2071 48.2929C40.3946 48.4804 40.5 48.7348 40.5 49V51C40.5 51.2652 40.3946 51.5196 40.2071 51.7071C40.0196 51.8946 39.7652 52 39.5 52H13.5C13.2348 52 12.9804 51.8946 12.7929 51.7071C12.6054 51.5196 12.5 51.2652 12.5 51V49C12.5 48.7348 12.6054 48.4804 12.7929 48.2929C12.9804 48.1054 13.2348 48 13.5 48Z" fill="#3ED3F4"/>
<path d="M58.5 56H58.3387C62.3027 51.6135 64.4982 45.9122 64.5 40C64.5 26.765 53.735 16 40.5 16V24C44.7435 24 48.8131 25.6857 51.8137 28.6863C54.8143 31.6869 56.5 35.7565 56.5 40C56.5 44.2435 54.8143 48.3131 51.8137 51.3137C48.8131 54.3143 44.7435 56 40.5 56H6.5C4.9087 56 3.38258 56.6321 2.25736 57.7574C1.13214 58.8826 0.5 60.4087 0.5 62C0.5 62.5304 0.710714 63.0391 1.08579 63.4142C1.46086 63.7893 1.96957 64 2.5 64H62.5C63.0304 64 63.5391 63.7893 63.9142 63.4142C64.2893 63.0391 64.5 62.5304 64.5 62C64.5 60.4087 63.8679 58.8826 62.7426 57.7574C61.6174 56.6321 60.0913 56 58.5 56ZM20.5 40H22V42C22 42.5304 22.2107 43.0391 22.5858 43.4142C22.9609 43.7893 23.4696 44 24 44H29C29.5304 44 30.0391 43.7893 30.4142 43.4142C30.7893 43.0391 31 42.5304 31 42V40H32.5C33.5609 40 34.5783 39.5786 35.3284 38.8284C36.0786 38.0783 36.5 37.0609 36.5 36V8C36.5 6.93913 36.0786 5.92172 35.3284 5.17157C34.5783 4.42143 33.5609 4 32.5 4V2C32.5 1.46957 32.2893 0.960859 31.9142 0.585786C31.5391 0.210714 31.0304 0 30.5 0L22.5 0C21.9696 0 21.4609 0.210714 21.0858 0.585786C20.7107 0.960859 20.5 1.46957 20.5 2V4C19.4391 4 18.4217 4.42143 17.6716 5.17157C16.9214 5.92172 16.5 6.93913 16.5 8V36C16.5 37.0609 16.9214 38.0783 17.6716 38.8284C18.4217 39.5786 19.4391 40 20.5 40Z" fill="#3ED3F4"/>
</g>
<defs>
<clipPath id="clip0_139_199">
<rect width="64" height="64" fill="white" transform="translate(0.5)"/>
</clipPath>
</defs>
</svg>
