<svg width="47" height="57" viewBox="0 0 47 57" fill="none" xmlns="http://www.w3.org/2000/svg">
<path d="M45.2306 2.1079C45.2306 2.1079 44.3949 1.3269 43.3118 1.3269C42.2297 1.3269 27.1988 1.33165 27.176 1.33165C19.7975 1.33165 12.7525 5.56876 9.63791 12.778C8.35873 15.7378 7.89348 18.8438 8.13889 21.8482C5.78424 23.7252 3.84272 26.1916 2.56353 29.1514C-1.59335 38.771 2.82411 49.9441 12.4294 54.1072C22.0347 58.2703 33.1911 53.8462 37.348 44.2266C38.6271 41.2668 39.0924 38.1608 38.847 35.1564C41.2016 33.2794 43.1432 30.8121 44.4223 27.8532C45.4751 25.4163 45.9782 22.8797 45.9858 20.383C45.9858 20.383 46 5.35904 46 4.04947C46 2.73991 45.2306 2.1079 45.2306 2.1079ZM35.2615 43.3213C31.6039 51.787 21.7864 55.6796 13.3333 52.0166C4.88028 48.3536 0.993448 38.5214 4.65098 30.0558C5.5881 27.8883 6.92888 26.0208 8.54729 24.5034C9.83974 30.2057 13.7361 35.2342 19.5047 37.7348C25.2734 40.2353 31.6011 39.6365 36.6364 36.6776C36.6382 38.8963 36.1976 41.1539 35.2615 43.3213ZM10.5523 22.893C15.1195 19.7766 21.1326 18.9994 26.5791 21.3595C32.0256 23.7205 35.576 28.6418 36.4345 34.1097C31.8674 37.2261 25.8542 38.0033 20.4077 35.6432C14.9603 33.2822 11.4108 28.36 10.5523 22.893ZM42.3358 26.9479C41.3997 29.1153 40.0579 30.9829 38.4395 32.5003C37.1471 26.798 33.2508 21.7694 27.4821 19.2699C21.7134 16.7694 15.3857 17.3682 10.3505 20.327C10.3476 18.1064 10.7882 15.8489 11.7254 13.6814C14.4988 7.26361 20.8123 3.47346 27.3883 3.612C29.4852 3.6566 40.5886 3.33396 42.4069 4.33986C44.0594 5.25466 43.4028 13.3711 43.6937 19.5384C43.8093 22.0029 43.38 24.5309 42.3358 26.9479Z" fill="white" stroke="white" stroke-width="0.921981" stroke-miterlimit="10"/>
<path d="M21.2339 28.5858C21.2339 29.9115 20.1603 30.9867 18.8366 30.9867C17.5129 30.9867 16.4393 29.9115 16.4393 28.5858C16.4393 27.2601 17.5129 26.185 18.8366 26.185C20.1613 26.185 21.2339 27.2592 21.2339 28.5858Z" fill="white"/>
<path d="M30.3683 30.0121C30.3683 32.0847 28.6902 33.7653 26.6208 33.7653C24.5513 33.7653 22.8732 32.0847 22.8732 30.0121C22.8732 27.9396 24.5513 26.259 26.6208 26.259C28.6902 26.2581 30.3683 27.9387 30.3683 30.0121Z" fill="white"/>
</svg>
