<svg width="64" height="64" viewBox="0 0 64 64" fill="none" xmlns="http://www.w3.org/2000/svg">
<path d="M11.9238 1H51.5429C53.3761 1 55.1361 1.73515 56.4354 3.04686C57.7349 4.3589 58.4667 6.14041 58.4667 8V44C58.4667 45.8596 57.7349 47.6411 56.4354 48.9531C55.1361 50.2649 53.3761 51 51.5429 51H42.5394H38.8481L42.0347 52.8633L49.4644 57.2075C49.7118 57.3672 49.9903 57.6712 50.2101 58.0699C50.4333 58.4746 50.5429 58.8807 50.5429 59.1813V60.6659C50.5429 60.666 50.5429 60.6661 50.5429 60.6662C50.5425 61.2876 50.2981 61.8815 49.8661 62.3183C49.4344 62.7548 48.8508 62.9989 48.2439 63H15.2299C15.2298 63 15.2296 63 15.2295 63C14.6222 62.9997 14.0379 62.756 13.6055 62.3195C13.1728 61.8826 12.9279 61.2882 12.9275 60.6662C12.9275 60.6661 12.9275 60.666 12.9275 60.6659V59.1787C12.9275 58.878 13.0364 58.472 13.258 58.0677C13.4759 57.6699 13.7519 57.3666 13.9975 57.2067L21.4305 52.8634L24.6195 51H20.926H11.9238C10.0906 51 8.33053 50.2649 7.03131 48.9531C5.73177 47.6411 5 45.8596 5 44V8C5 6.14041 5.73177 4.3589 7.03131 3.04686C8.33053 1.73515 10.0906 1 11.9238 1ZM31.727 45H31.7271H31.7333V44L31.7335 45C36.73 44.9991 41.5195 42.9944 45.0492 39.4299C48.5785 35.8657 50.5592 31.0341 50.5588 25.9984C50.5584 20.9626 48.5768 16.1313 45.0468 12.5678C41.5166 9.0039 36.7267 7 31.7302 7C26.7338 7 21.9439 9.0039 18.4136 12.5678C14.8837 16.1313 12.9021 20.9626 12.9017 25.9984C12.9012 31.0341 14.882 35.8657 18.4113 39.4299C21.9409 42.9944 26.7305 44.9991 31.727 45Z" stroke="#60DFB2" stroke-width="2"/>
<path d="M25.1223 19.1716C25.8653 18.4214 27.8731 17 28.9238 17C31 17 30.5 15 30.3246 14.5858C29.9531 14.2107 29.4492 14 28.9238 14C26.8229 14.002 24.8086 14.8455 23.323 16.3453C21.8374 17.8452 21.002 19.8789 21 22C21 22.5304 21.1285 23.1249 21.5 23.5C21.7271 23.7293 21.9746 24 22.5 24C23 24 22.9515 24.0641 23.323 23.6891C23.6945 23.314 23.9619 22.5304 23.9619 22C23.9619 20.9391 24.3793 19.9217 25.1223 19.1716Z" fill="#60DFB2"/>
</svg>
