<svg width="65" height="64" viewBox="0 0 65 64" fill="none" xmlns="http://www.w3.org/2000/svg">
<g clip-path="url(#clip0_139_176)">
<path d="M33.1841 1C16.0591 1 2.18408 14.875 2.18408 32C2.18408 49.125 16.0591 63 33.1841 63C50.3091 63 64.1841 49.125 64.1841 32C64.1841 14.875 50.3091 1 33.1841 1ZM47.6466 35L25.6466 47.625C23.6716 48.725 21.1841 47.3125 21.1841 45V19C21.1841 16.7 23.6591 15.275 25.6466 16.375L47.6466 29.75C49.6966 30.9 49.6966 33.8625 47.6466 35Z" fill="#3ED3F4"/>
<path opacity="0.4" d="M47.6466 35.0002L25.6466 47.6252C23.6716 48.7252 21.1841 47.3127 21.1841 45.0002V19.0002C21.1841 16.7002 23.6591 15.2752 25.6466 16.3752L47.6466 29.7502C49.6966 30.9002 49.6966 33.8627 47.6466 35.0002Z" fill="#3ED3F4"/>
</g>
<defs>
<clipPath id="clip0_139_176">
<rect width="64" height="64" fill="white" transform="translate(0.5)"/>
</clipPath>
</defs>
</svg>
