<svg width="65" height="64" viewBox="0 0 65 64" fill="none" xmlns="http://www.w3.org/2000/svg">
<path opacity="0.4" d="M32.2333 12H32.2271C28.5497 12.0008 25.0233 13.4764 22.4234 16.1022C19.8235 18.7279 18.3631 22.2888 18.3636 26.0016C18.364 29.7143 19.8251 33.2749 22.4256 35.9C25.026 38.5252 28.5528 40 32.2302 40C35.9076 40 39.4344 38.5252 42.0349 35.9C44.6354 33.2749 46.0965 29.7143 46.0969 26.0016C46.0973 22.2888 44.637 18.7279 42.0371 16.1022C39.4372 13.4764 35.9107 12.0008 32.2333 12ZM32.2333 22C31.1826 22 30.1748 22.4214 29.4318 23.1716C28.6888 23.9217 28.2714 24.9391 28.2714 26C28.2714 26.5304 28.0627 27.0391 27.6912 27.4142C27.3197 27.7893 26.8158 28 26.2905 28C25.7651 28 25.2612 27.7893 24.8897 27.4142C24.5182 27.0391 24.3095 26.5304 24.3095 26C24.3115 23.8789 25.1469 21.8452 26.6325 20.3453C28.1181 18.8455 30.1324 18.002 32.2333 18C32.7587 18 33.2626 18.2107 33.6341 18.5858C34.0056 18.9609 34.2143 19.4696 34.2143 20C34.2143 20.5304 34.0056 21.0391 33.6341 21.4142C33.2626 21.7893 32.7587 22 32.2333 22Z" fill="#3ED3F4"/>
<path d="M52.0429 0H12.4238C10.3223 0 8.30683 0.842855 6.82083 2.34315C5.33483 3.84344 4.5 5.87827 4.5 8L4.5 44C4.5 46.1217 5.33483 48.1566 6.82083 49.6569C8.30683 51.1571 10.3223 52 12.4238 52H21.426L13.9751 56.3537C13.1209 56.895 12.4275 58.16 12.4275 59.1787V60.6662C12.4279 61.5503 12.7758 62.3981 13.395 63.0232C14.0142 63.6483 14.8539 63.9997 15.7295 64H48.7458C49.6206 63.9983 50.459 63.6464 51.0771 63.0214C51.6952 62.3965 52.0425 61.5494 52.0429 60.6662V59.1813C52.0429 58.16 51.3433 56.8937 50.4853 56.3537L43.0394 52H52.0429C54.1444 52 56.1598 51.1571 57.6458 49.6569C59.1318 48.1566 59.9667 46.1217 59.9667 44V8C59.9667 5.87827 59.1318 3.84344 57.6458 2.34315C56.1598 0.842855 54.1444 0 52.0429 0V0ZM32.2333 44H32.2271C27.499 43.9992 22.9648 42.1022 19.6219 38.7263C16.279 35.3504 14.4013 30.7721 14.4017 25.9984C14.4021 21.2248 16.2806 16.6468 19.6241 13.2715C22.9675 9.89621 27.5021 8 32.2302 8C36.9584 8 41.4929 9.89621 44.8364 13.2715C48.1799 16.6468 50.0584 21.2248 50.0588 25.9984C50.0592 30.7721 48.1815 35.3504 44.8386 38.7263C41.4957 42.1022 36.9615 43.9992 32.2333 44Z" fill="#3ED3F4"/>
</svg>
