<svg width="231" height="232" viewBox="0 0 231 232" fill="none" xmlns="http://www.w3.org/2000/svg">
<g opacity="0.25">
<g opacity="0.5">
<circle cx="115.5" cy="115.5" r="22.9" stroke="white" stroke-opacity="0.5" stroke-width="2"/>
<circle cx="115.5" cy="115.5" r="38.1667" stroke="white" stroke-opacity="0.5" stroke-width="2"/>
<circle cx="115.5" cy="115.5" r="53.4333" stroke="white" stroke-opacity="0.5" stroke-width="2"/>
<circle cx="115.5" cy="115.5" r="68.7" stroke="white" stroke-opacity="0.5" stroke-width="2"/>
<circle cx="115.5" cy="115.5" r="83.9667" stroke="white" stroke-opacity="0.5" stroke-width="2"/>
<circle cx="115.5" cy="115.5" r="99.2333" stroke="white" stroke-opacity="0.5" stroke-width="2"/>
<circle cx="115.5" cy="115.5" r="114.5" stroke="white" stroke-opacity="0.5" stroke-width="2"/>
</g>
<g opacity="0.25">
<path d="M163.679 168C163.304 168 163 168.305 163 168.682V169.068C163 169.445 163.304 169.75 163.679 169.75H164.131C164.507 169.75 164.811 169.445 164.811 169.068V168.682C164.811 168.305 164.507 168 164.131 168H163.679Z" fill="white"/>
<path d="M170.923 168C170.547 168 170.243 168.305 170.243 168.682V169.068C170.243 169.445 170.547 169.75 170.923 169.75H171.375C171.75 169.75 172.054 169.445 172.054 169.068V168.682C172.054 168.305 171.75 168 171.375 168H170.923Z" fill="white"/>
<path d="M177.487 168.682C177.487 168.305 177.791 168 178.166 168H178.618C178.993 168 179.297 168.305 179.297 168.682V169.068C179.297 169.445 178.993 169.75 178.618 169.75H178.166C177.791 169.75 177.487 169.445 177.487 169.068V168.682Z" fill="white"/>
<path d="M185.409 168C185.034 168 184.73 168.305 184.73 168.682V169.068C184.73 169.445 185.034 169.75 185.409 169.75H185.861C186.236 169.75 186.541 169.445 186.541 169.068V168.682C186.541 168.305 186.236 168 185.861 168H185.409Z" fill="white"/>
<path d="M191.973 168.682C191.973 168.305 192.277 168 192.652 168H193.105C193.48 168 193.784 168.305 193.784 168.682V169.068C193.784 169.445 193.48 169.75 193.105 169.75H192.652C192.277 169.75 191.973 169.445 191.973 169.068V168.682Z" fill="white"/>
<path d="M199.896 168C199.52 168 199.216 168.305 199.216 168.682V169.068C199.216 169.445 199.52 169.75 199.896 169.75H200.348C200.723 169.75 201.027 169.445 201.027 169.068V168.682C201.027 168.305 200.723 168 200.348 168H199.896Z" fill="white"/>
<path d="M206.46 168.682C206.46 168.305 206.764 168 207.139 168H207.591C207.966 168 208.27 168.305 208.27 168.682V169.068C208.27 169.445 207.966 169.75 207.591 169.75H207.139C206.764 169.75 206.46 169.445 206.46 169.068V168.682Z" fill="white"/>
<path d="M214.382 168C214.007 168 213.703 168.305 213.703 168.682V169.068C213.703 169.445 214.007 169.75 214.382 169.75H214.834C215.21 169.75 215.514 169.445 215.514 169.068V168.682C215.514 168.305 215.21 168 214.834 168H214.382Z" fill="white"/>
<path d="M220.946 168.682C220.946 168.305 221.25 168 221.625 168H222.078C222.453 168 222.757 168.305 222.757 168.682V169.068C222.757 169.445 222.453 169.75 222.078 169.75H221.625C221.25 169.75 220.946 169.445 220.946 169.068V168.682Z" fill="white"/>
<path d="M228.869 168C228.493 168 228.189 168.305 228.189 168.682V169.068C228.189 169.445 228.493 169.75 228.869 169.75H229.321C229.696 169.75 230 169.445 230 169.068V168.682C230 168.305 229.696 168 229.321 168H228.869Z" fill="white"/>
<path d="M163 175.681C163 175.305 163.304 175 163.679 175H164.131C164.507 175 164.811 175.305 164.811 175.681V176.068C164.811 176.444 164.507 176.749 164.131 176.749H163.679C163.304 176.749 163 176.444 163 176.068V175.681Z" fill="white"/>
<path d="M170.923 175C170.547 175 170.243 175.305 170.243 175.681V176.068C170.243 176.444 170.547 176.749 170.923 176.749H171.375C171.75 176.749 172.054 176.444 172.054 176.068V175.681C172.054 175.305 171.75 175 171.375 175H170.923Z" fill="white"/>
<path d="M177.487 175.681C177.487 175.305 177.791 175 178.166 175H178.618C178.993 175 179.297 175.305 179.297 175.681V176.068C179.297 176.444 178.993 176.749 178.618 176.749H178.166C177.791 176.749 177.487 176.444 177.487 176.068V175.681Z" fill="white"/>
<path d="M185.409 175C185.034 175 184.73 175.305 184.73 175.681V176.068C184.73 176.444 185.034 176.749 185.409 176.749H185.861C186.236 176.749 186.541 176.444 186.541 176.068V175.681C186.541 175.305 186.236 175 185.861 175H185.409Z" fill="white"/>
<path d="M191.973 175.681C191.973 175.305 192.277 175 192.652 175H193.105C193.48 175 193.784 175.305 193.784 175.681V176.068C193.784 176.444 193.48 176.749 193.105 176.749H192.652C192.277 176.749 191.973 176.444 191.973 176.068V175.681Z" fill="white"/>
<path d="M199.896 175C199.52 175 199.216 175.305 199.216 175.681V176.068C199.216 176.444 199.52 176.749 199.896 176.749H200.348C200.723 176.749 201.027 176.444 201.027 176.068V175.681C201.027 175.305 200.723 175 200.348 175H199.896Z" fill="white"/>
<path d="M206.46 175.681C206.46 175.305 206.764 175 207.139 175H207.591C207.966 175 208.27 175.305 208.27 175.681V176.068C208.27 176.444 207.966 176.749 207.591 176.749H207.139C206.764 176.749 206.46 176.444 206.46 176.068V175.681Z" fill="white"/>
<path d="M214.382 175C214.007 175 213.703 175.305 213.703 175.681V176.068C213.703 176.444 214.007 176.749 214.382 176.749H214.834C215.21 176.749 215.514 176.444 215.514 176.068V175.681C215.514 175.305 215.21 175 214.834 175H214.382Z" fill="white"/>
<path d="M220.946 175.681C220.946 175.305 221.25 175 221.625 175H222.078C222.453 175 222.757 175.305 222.757 175.681V176.068C222.757 176.444 222.453 176.749 222.078 176.749H221.625C221.25 176.749 220.946 176.444 220.946 176.068V175.681Z" fill="white"/>
<path d="M228.869 175C228.493 175 228.189 175.305 228.189 175.681V176.068C228.189 176.444 228.493 176.749 228.869 176.749H229.321C229.696 176.749 230 176.444 230 176.068V175.681C230 175.305 229.696 175 229.321 175H228.869Z" fill="white"/>
<path d="M163 182.681C163 182.304 163.304 181.999 163.679 181.999H164.131C164.507 181.999 164.811 182.304 164.811 182.681V183.067C164.811 183.444 164.507 183.749 164.131 183.749H163.679C163.304 183.749 163 183.444 163 183.067V182.681Z" fill="white"/>
<path d="M170.923 181.999C170.547 181.999 170.243 182.304 170.243 182.681V183.067C170.243 183.444 170.547 183.749 170.923 183.749H171.375C171.75 183.749 172.054 183.444 172.054 183.067V182.681C172.054 182.304 171.75 181.999 171.375 181.999H170.923Z" fill="white"/>
<path d="M177.487 182.681C177.487 182.304 177.791 181.999 178.166 181.999H178.618C178.993 181.999 179.297 182.304 179.297 182.681V183.067C179.297 183.444 178.993 183.749 178.618 183.749H178.166C177.791 183.749 177.487 183.444 177.487 183.067V182.681Z" fill="white"/>
<path d="M185.409 181.999C185.034 181.999 184.73 182.304 184.73 182.681V183.067C184.73 183.444 185.034 183.749 185.409 183.749H185.861C186.236 183.749 186.541 183.444 186.541 183.067V182.681C186.541 182.304 186.236 181.999 185.861 181.999H185.409Z" fill="white"/>
<path d="M191.973 182.681C191.973 182.304 192.277 181.999 192.652 181.999H193.105C193.48 181.999 193.784 182.304 193.784 182.681V183.067C193.784 183.444 193.48 183.749 193.105 183.749H192.652C192.277 183.749 191.973 183.444 191.973 183.067V182.681Z" fill="white"/>
<path d="M199.896 181.999C199.52 181.999 199.216 182.304 199.216 182.681V183.067C199.216 183.444 199.52 183.749 199.896 183.749H200.348C200.723 183.749 201.027 183.444 201.027 183.067V182.681C201.027 182.304 200.723 181.999 200.348 181.999H199.896Z" fill="white"/>
<path d="M206.46 182.681C206.46 182.304 206.764 181.999 207.139 181.999H207.591C207.966 181.999 208.27 182.304 208.27 182.681V183.067C208.27 183.444 207.966 183.749 207.591 183.749H207.139C206.764 183.749 206.46 183.444 206.46 183.067V182.681Z" fill="white"/>
<path d="M214.382 181.999C214.007 181.999 213.703 182.304 213.703 182.681V183.067C213.703 183.444 214.007 183.749 214.382 183.749H214.834C215.21 183.749 215.514 183.444 215.514 183.067V182.681C215.514 182.304 215.21 181.999 214.834 181.999H214.382Z" fill="white"/>
<path d="M220.946 182.681C220.946 182.304 221.25 181.999 221.625 181.999H222.078C222.453 181.999 222.757 182.304 222.757 182.681V183.067C222.757 183.444 222.453 183.749 222.078 183.749H221.625C221.25 183.749 220.946 183.444 220.946 183.067V182.681Z" fill="white"/>
<path d="M228.869 181.999C228.493 181.999 228.189 182.304 228.189 182.681V183.067C228.189 183.444 228.493 183.749 228.869 183.749H229.321C229.696 183.749 230 183.444 230 183.067V182.681C230 182.304 229.696 181.999 229.321 181.999H228.869Z" fill="white"/>
<path d="M163 189.681C163 189.304 163.304 188.999 163.679 188.999H164.131C164.507 188.999 164.811 189.304 164.811 189.681V190.067C164.811 190.443 164.507 190.749 164.131 190.749H163.679C163.304 190.749 163 190.443 163 190.067V189.681Z" fill="white"/>
<path d="M170.923 188.999C170.547 188.999 170.243 189.304 170.243 189.681V190.067C170.243 190.443 170.547 190.749 170.923 190.749H171.375C171.75 190.749 172.054 190.443 172.054 190.067V189.681C172.054 189.304 171.75 188.999 171.375 188.999H170.923Z" fill="white"/>
<path d="M177.487 189.681C177.487 189.304 177.791 188.999 178.166 188.999H178.618C178.993 188.999 179.297 189.304 179.297 189.681V190.067C179.297 190.443 178.993 190.749 178.618 190.749H178.166C177.791 190.749 177.487 190.443 177.487 190.067V189.681Z" fill="white"/>
<path d="M185.409 188.999C185.034 188.999 184.73 189.304 184.73 189.681V190.067C184.73 190.443 185.034 190.749 185.409 190.749H185.861C186.236 190.749 186.541 190.443 186.541 190.067V189.681C186.541 189.304 186.236 188.999 185.861 188.999H185.409Z" fill="white"/>
<path d="M191.973 189.681C191.973 189.304 192.277 188.999 192.652 188.999H193.105C193.48 188.999 193.784 189.304 193.784 189.681V190.067C193.784 190.443 193.48 190.749 193.105 190.749H192.652C192.277 190.749 191.973 190.443 191.973 190.067V189.681Z" fill="white"/>
<path d="M199.896 188.999C199.52 188.999 199.216 189.304 199.216 189.681V190.067C199.216 190.443 199.52 190.749 199.896 190.749H200.348C200.723 190.749 201.027 190.443 201.027 190.067V189.681C201.027 189.304 200.723 188.999 200.348 188.999H199.896Z" fill="white"/>
<path d="M206.46 189.681C206.46 189.304 206.764 188.999 207.139 188.999H207.591C207.966 188.999 208.27 189.304 208.27 189.681V190.067C208.27 190.443 207.966 190.749 207.591 190.749H207.139C206.764 190.749 206.46 190.443 206.46 190.067V189.681Z" fill="white"/>
<path d="M214.382 188.999C214.007 188.999 213.703 189.304 213.703 189.681V190.067C213.703 190.443 214.007 190.749 214.382 190.749H214.834C215.21 190.749 215.514 190.443 215.514 190.067V189.681C215.514 189.304 215.21 188.999 214.834 188.999H214.382Z" fill="white"/>
<path d="M220.946 189.681C220.946 189.304 221.25 188.999 221.625 188.999H222.078C222.453 188.999 222.757 189.304 222.757 189.681V190.067C222.757 190.443 222.453 190.749 222.078 190.749H221.625C221.25 190.749 220.946 190.443 220.946 190.067V189.681Z" fill="white"/>
<path d="M228.869 188.999C228.493 188.999 228.189 189.304 228.189 189.681V190.067C228.189 190.443 228.493 190.749 228.869 190.749H229.321C229.696 190.749 230 190.443 230 190.067V189.681C230 189.304 229.696 188.999 229.321 188.999H228.869Z" fill="white"/>
<path d="M163 196.68C163 196.304 163.304 195.998 163.679 195.998H164.131C164.507 195.998 164.811 196.304 164.811 196.68V197.067C164.811 197.443 164.507 197.748 164.131 197.748H163.679C163.304 197.748 163 197.443 163 197.067V196.68Z" fill="white"/>
<path d="M170.923 195.998C170.547 195.998 170.243 196.304 170.243 196.68V197.067C170.243 197.443 170.547 197.748 170.923 197.748H171.375C171.75 197.748 172.054 197.443 172.054 197.067V196.68C172.054 196.304 171.75 195.998 171.375 195.998H170.923Z" fill="white"/>
<path d="M177.487 196.68C177.487 196.304 177.791 195.998 178.166 195.998H178.618C178.993 195.998 179.297 196.304 179.297 196.68V197.067C179.297 197.443 178.993 197.748 178.618 197.748H178.166C177.791 197.748 177.487 197.443 177.487 197.067V196.68Z" fill="white"/>
<path d="M185.409 195.998C185.034 195.998 184.73 196.304 184.73 196.68V197.067C184.73 197.443 185.034 197.748 185.409 197.748H185.861C186.236 197.748 186.541 197.443 186.541 197.067V196.68C186.541 196.304 186.236 195.998 185.861 195.998H185.409Z" fill="white"/>
<path d="M191.973 196.68C191.973 196.304 192.277 195.998 192.652 195.998H193.105C193.48 195.998 193.784 196.304 193.784 196.68V197.067C193.784 197.443 193.48 197.748 193.105 197.748H192.652C192.277 197.748 191.973 197.443 191.973 197.067V196.68Z" fill="white"/>
<path d="M199.896 195.998C199.52 195.998 199.216 196.304 199.216 196.68V197.067C199.216 197.443 199.52 197.748 199.896 197.748H200.348C200.723 197.748 201.027 197.443 201.027 197.067V196.68C201.027 196.304 200.723 195.998 200.348 195.998H199.896Z" fill="white"/>
<path d="M206.46 196.68C206.46 196.304 206.764 195.998 207.139 195.998H207.591C207.966 195.998 208.27 196.304 208.27 196.68V197.067C208.27 197.443 207.966 197.748 207.591 197.748H207.139C206.764 197.748 206.46 197.443 206.46 197.067V196.68Z" fill="white"/>
<path d="M214.382 195.998C214.007 195.998 213.703 196.304 213.703 196.68V197.067C213.703 197.443 214.007 197.748 214.382 197.748H214.834C215.21 197.748 215.514 197.443 215.514 197.067V196.68C215.514 196.304 215.21 195.998 214.834 195.998H214.382Z" fill="white"/>
<path d="M220.946 196.68C220.946 196.304 221.25 195.998 221.625 195.998H222.078C222.453 195.998 222.757 196.304 222.757 196.68V197.067C222.757 197.443 222.453 197.748 222.078 197.748H221.625C221.25 197.748 220.946 197.443 220.946 197.067V196.68Z" fill="white"/>
<path d="M228.869 195.998C228.493 195.998 228.189 196.304 228.189 196.68V197.067C228.189 197.443 228.493 197.748 228.869 197.748H229.321C229.696 197.748 230 197.443 230 197.067V196.68C230 196.304 229.696 195.998 229.321 195.998H228.869Z" fill="white"/>
<path d="M163 203.68C163 203.303 163.304 202.998 163.679 202.998H164.131C164.507 202.998 164.811 203.303 164.811 203.68V204.066C164.811 204.443 164.507 204.748 164.131 204.748H163.679C163.304 204.748 163 204.443 163 204.066V203.68Z" fill="white"/>
<path d="M170.923 202.998C170.547 202.998 170.243 203.303 170.243 203.68V204.066C170.243 204.443 170.547 204.748 170.923 204.748H171.375C171.75 204.748 172.054 204.443 172.054 204.066V203.68C172.054 203.303 171.75 202.998 171.375 202.998H170.923Z" fill="white"/>
<path d="M177.487 203.68C177.487 203.303 177.791 202.998 178.166 202.998H178.618C178.993 202.998 179.297 203.303 179.297 203.68V204.066C179.297 204.443 178.993 204.748 178.618 204.748H178.166C177.791 204.748 177.487 204.443 177.487 204.066V203.68Z" fill="white"/>
<path d="M185.409 202.998C185.034 202.998 184.73 203.303 184.73 203.68V204.066C184.73 204.443 185.034 204.748 185.409 204.748H185.861C186.236 204.748 186.541 204.443 186.541 204.066V203.68C186.541 203.303 186.236 202.998 185.861 202.998H185.409Z" fill="white"/>
<path d="M191.973 203.68C191.973 203.303 192.277 202.998 192.652 202.998H193.105C193.48 202.998 193.784 203.303 193.784 203.68V204.066C193.784 204.443 193.48 204.748 193.105 204.748H192.652C192.277 204.748 191.973 204.443 191.973 204.066V203.68Z" fill="white"/>
<path d="M199.896 202.998C199.52 202.998 199.216 203.303 199.216 203.68V204.066C199.216 204.443 199.52 204.748 199.896 204.748H200.348C200.723 204.748 201.027 204.443 201.027 204.066V203.68C201.027 203.303 200.723 202.998 200.348 202.998H199.896Z" fill="white"/>
<path d="M206.46 203.68C206.46 203.303 206.764 202.998 207.139 202.998H207.591C207.966 202.998 208.27 203.303 208.27 203.68V204.066C208.27 204.443 207.966 204.748 207.591 204.748H207.139C206.764 204.748 206.46 204.443 206.46 204.066V203.68Z" fill="white"/>
<path d="M214.382 202.998C214.007 202.998 213.703 203.303 213.703 203.68V204.066C213.703 204.443 214.007 204.748 214.382 204.748H214.834C215.21 204.748 215.514 204.443 215.514 204.066V203.68C215.514 203.303 215.21 202.998 214.834 202.998H214.382Z" fill="white"/>
<path d="M220.946 203.68C220.946 203.303 221.25 202.998 221.625 202.998H222.078C222.453 202.998 222.757 203.303 222.757 203.68V204.066C222.757 204.443 222.453 204.748 222.078 204.748H221.625C221.25 204.748 220.946 204.443 220.946 204.066V203.68Z" fill="white"/>
<path d="M228.869 202.998C228.493 202.998 228.189 203.303 228.189 203.68V204.066C228.189 204.443 228.493 204.748 228.869 204.748H229.321C229.696 204.748 230 204.443 230 204.066V203.68C230 203.303 229.696 202.998 229.321 202.998H228.869Z" fill="white"/>
<path d="M163 210.679C163 210.303 163.304 209.998 163.679 209.998H164.131C164.507 209.998 164.811 210.303 164.811 210.679V211.066C164.811 211.442 164.507 211.747 164.131 211.747H163.679C163.304 211.747 163 211.442 163 211.066V210.679Z" fill="white"/>
<path d="M163.679 216.748C163.304 216.748 163 217.054 163 217.43V217.817C163 218.193 163.304 218.498 163.679 218.498H164.131C164.507 218.498 164.811 218.193 164.811 217.817V217.43C164.811 217.054 164.507 216.748 164.131 216.748H163.679Z" fill="white"/>
<path d="M163 224.181C163 223.804 163.304 223.499 163.679 223.499H164.131C164.507 223.499 164.811 223.804 164.811 224.181V224.567C164.811 224.944 164.507 225.249 164.131 225.249H163.679C163.304 225.249 163 224.944 163 224.567V224.181Z" fill="white"/>
<path d="M163.679 230.25C163.304 230.25 163 230.555 163 230.932V231.318C163 231.695 163.304 232 163.679 232H164.131C164.507 232 164.811 231.695 164.811 231.318V230.932C164.811 230.555 164.507 230.25 164.131 230.25H163.679Z" fill="white"/>
<path d="M170.243 210.679C170.243 210.303 170.547 209.998 170.923 209.998H171.375C171.75 209.998 172.054 210.303 172.054 210.679V211.066C172.054 211.442 171.75 211.747 171.375 211.747H170.923C170.547 211.747 170.243 211.442 170.243 211.066V210.679Z" fill="white"/>
<path d="M170.923 216.748C170.547 216.748 170.243 217.054 170.243 217.43V217.817C170.243 218.193 170.547 218.498 170.923 218.498H171.375C171.75 218.498 172.054 218.193 172.054 217.817V217.43C172.054 217.054 171.75 216.748 171.375 216.748H170.923Z" fill="white"/>
<path d="M170.243 224.181C170.243 223.804 170.547 223.499 170.923 223.499H171.375C171.75 223.499 172.054 223.804 172.054 224.181V224.567C172.054 224.944 171.75 225.249 171.375 225.249H170.923C170.547 225.249 170.243 224.944 170.243 224.567V224.181Z" fill="white"/>
<path d="M170.923 230.25C170.547 230.25 170.243 230.555 170.243 230.932V231.318C170.243 231.695 170.547 232 170.923 232H171.375C171.75 232 172.054 231.695 172.054 231.318V230.932C172.054 230.555 171.75 230.25 171.375 230.25H170.923Z" fill="white"/>
<path d="M177.487 210.679C177.487 210.303 177.791 209.998 178.166 209.998H178.618C178.993 209.998 179.297 210.303 179.297 210.679V211.066C179.297 211.442 178.993 211.747 178.618 211.747H178.166C177.791 211.747 177.487 211.442 177.487 211.066V210.679Z" fill="white"/>
<path d="M178.166 216.748C177.791 216.748 177.487 217.054 177.487 217.43V217.817C177.487 218.193 177.791 218.498 178.166 218.498H178.618C178.993 218.498 179.297 218.193 179.297 217.817V217.43C179.297 217.054 178.993 216.748 178.618 216.748H178.166Z" fill="white"/>
<path d="M177.487 224.181C177.487 223.804 177.791 223.499 178.166 223.499H178.618C178.993 223.499 179.297 223.804 179.297 224.181V224.567C179.297 224.944 178.993 225.249 178.618 225.249H178.166C177.791 225.249 177.487 224.944 177.487 224.567V224.181Z" fill="white"/>
<path d="M178.166 230.25C177.791 230.25 177.487 230.555 177.487 230.932V231.318C177.487 231.695 177.791 232 178.166 232H178.618C178.993 232 179.297 231.695 179.297 231.318V230.932C179.297 230.555 178.993 230.25 178.618 230.25H178.166Z" fill="white"/>
<path d="M184.73 210.679C184.73 210.303 185.034 209.998 185.409 209.998H185.861C186.236 209.998 186.541 210.303 186.541 210.679V211.066C186.541 211.442 186.236 211.747 185.861 211.747H185.409C185.034 211.747 184.73 211.442 184.73 211.066V210.679Z" fill="white"/>
<path d="M185.409 216.748C185.034 216.748 184.73 217.054 184.73 217.43V217.817C184.73 218.193 185.034 218.498 185.409 218.498H185.861C186.236 218.498 186.541 218.193 186.541 217.817V217.43C186.541 217.054 186.236 216.748 185.861 216.748H185.409Z" fill="white"/>
<path d="M184.73 224.181C184.73 223.804 185.034 223.499 185.409 223.499H185.861C186.236 223.499 186.541 223.804 186.541 224.181V224.567C186.541 224.944 186.236 225.249 185.861 225.249H185.409C185.034 225.249 184.73 224.944 184.73 224.567V224.181Z" fill="white"/>
<path d="M185.409 230.25C185.034 230.25 184.73 230.555 184.73 230.932V231.318C184.73 231.695 185.034 232 185.409 232H185.861C186.236 232 186.541 231.695 186.541 231.318V230.932C186.541 230.555 186.236 230.25 185.861 230.25H185.409Z" fill="white"/>
<path d="M191.973 210.679C191.973 210.303 192.277 209.998 192.652 209.998H193.105C193.48 209.998 193.784 210.303 193.784 210.679V211.066C193.784 211.442 193.48 211.747 193.105 211.747H192.652C192.277 211.747 191.973 211.442 191.973 211.066V210.679Z" fill="white"/>
<path d="M192.652 216.748C192.277 216.748 191.973 217.054 191.973 217.43V217.817C191.973 218.193 192.277 218.498 192.652 218.498H193.105C193.48 218.498 193.784 218.193 193.784 217.817V217.43C193.784 217.054 193.48 216.748 193.105 216.748H192.652Z" fill="white"/>
<path d="M191.973 224.181C191.973 223.804 192.277 223.499 192.652 223.499H193.105C193.48 223.499 193.784 223.804 193.784 224.181V224.567C193.784 224.944 193.48 225.249 193.105 225.249H192.652C192.277 225.249 191.973 224.944 191.973 224.567V224.181Z" fill="white"/>
<path d="M192.652 230.25C192.277 230.25 191.973 230.555 191.973 230.932V231.318C191.973 231.695 192.277 232 192.652 232H193.105C193.48 232 193.784 231.695 193.784 231.318V230.932C193.784 230.555 193.48 230.25 193.105 230.25H192.652Z" fill="white"/>
<path d="M199.216 210.679C199.216 210.303 199.52 209.998 199.896 209.998H200.348C200.723 209.998 201.027 210.303 201.027 210.679V211.066C201.027 211.442 200.723 211.747 200.348 211.747H199.896C199.52 211.747 199.216 211.442 199.216 211.066V210.679Z" fill="white"/>
<path d="M199.896 216.748C199.52 216.748 199.216 217.054 199.216 217.43V217.817C199.216 218.193 199.52 218.498 199.896 218.498H200.348C200.723 218.498 201.027 218.193 201.027 217.817V217.43C201.027 217.054 200.723 216.748 200.348 216.748H199.896Z" fill="white"/>
<path d="M199.216 224.181C199.216 223.804 199.52 223.499 199.896 223.499H200.348C200.723 223.499 201.027 223.804 201.027 224.181V224.567C201.027 224.944 200.723 225.249 200.348 225.249H199.896C199.52 225.249 199.216 224.944 199.216 224.567V224.181Z" fill="white"/>
<path d="M199.896 230.25C199.52 230.25 199.216 230.555 199.216 230.932V231.318C199.216 231.695 199.52 232 199.896 232H200.348C200.723 232 201.027 231.695 201.027 231.318V230.932C201.027 230.555 200.723 230.25 200.348 230.25H199.896Z" fill="white"/>
<path d="M206.46 210.679C206.46 210.303 206.764 209.998 207.139 209.998H207.591C207.966 209.998 208.27 210.303 208.27 210.679V211.066C208.27 211.442 207.966 211.747 207.591 211.747H207.139C206.764 211.747 206.46 211.442 206.46 211.066V210.679Z" fill="white"/>
<path d="M207.139 216.748C206.764 216.748 206.46 217.054 206.46 217.43V217.817C206.46 218.193 206.764 218.498 207.139 218.498H207.591C207.966 218.498 208.27 218.193 208.27 217.817V217.43C208.27 217.054 207.966 216.748 207.591 216.748H207.139Z" fill="white"/>
<path d="M206.46 224.181C206.46 223.804 206.764 223.499 207.139 223.499H207.591C207.966 223.499 208.27 223.804 208.27 224.181V224.567C208.27 224.944 207.966 225.249 207.591 225.249H207.139C206.764 225.249 206.46 224.944 206.46 224.567V224.181Z" fill="white"/>
<path d="M207.139 230.25C206.764 230.25 206.46 230.555 206.46 230.932V231.318C206.46 231.695 206.764 232 207.139 232H207.591C207.966 232 208.27 231.695 208.27 231.318V230.932C208.27 230.555 207.966 230.25 207.591 230.25H207.139Z" fill="white"/>
<path d="M213.703 210.679C213.703 210.303 214.007 209.998 214.382 209.998H214.834C215.21 209.998 215.514 210.303 215.514 210.679V211.066C215.514 211.442 215.21 211.747 214.834 211.747H214.382C214.007 211.747 213.703 211.442 213.703 211.066V210.679Z" fill="white"/>
<path d="M214.382 216.748C214.007 216.748 213.703 217.054 213.703 217.43V217.817C213.703 218.193 214.007 218.498 214.382 218.498H214.834C215.21 218.498 215.514 218.193 215.514 217.817V217.43C215.514 217.054 215.21 216.748 214.834 216.748H214.382Z" fill="white"/>
<path d="M213.703 224.181C213.703 223.804 214.007 223.499 214.382 223.499H214.834C215.21 223.499 215.514 223.804 215.514 224.181V224.567C215.514 224.944 215.21 225.249 214.834 225.249H214.382C214.007 225.249 213.703 224.944 213.703 224.567V224.181Z" fill="white"/>
<path d="M214.382 230.25C214.007 230.25 213.703 230.555 213.703 230.932V231.318C213.703 231.695 214.007 232 214.382 232H214.834C215.21 232 215.514 231.695 215.514 231.318V230.932C215.514 230.555 215.21 230.25 214.834 230.25H214.382Z" fill="white"/>
<path d="M220.946 210.679C220.946 210.303 221.25 209.998 221.625 209.998H222.078C222.453 209.998 222.757 210.303 222.757 210.679V211.066C222.757 211.442 222.453 211.747 222.078 211.747H221.625C221.25 211.747 220.946 211.442 220.946 211.066V210.679Z" fill="white"/>
<path d="M221.625 216.748C221.25 216.748 220.946 217.054 220.946 217.43V217.817C220.946 218.193 221.25 218.498 221.625 218.498H222.078C222.453 218.498 222.757 218.193 222.757 217.817V217.43C222.757 217.054 222.453 216.748 222.078 216.748H221.625Z" fill="white"/>
<path d="M220.946 224.181C220.946 223.804 221.25 223.499 221.625 223.499H222.078C222.453 223.499 222.757 223.804 222.757 224.181V224.567C222.757 224.944 222.453 225.249 222.078 225.249H221.625C221.25 225.249 220.946 224.944 220.946 224.567V224.181Z" fill="white"/>
<path d="M221.625 230.25C221.25 230.25 220.946 230.555 220.946 230.932V231.318C220.946 231.695 221.25 232 221.625 232H222.078C222.453 232 222.757 231.695 222.757 231.318V230.932C222.757 230.555 222.453 230.25 222.078 230.25H221.625Z" fill="white"/>
<path d="M228.189 210.679C228.189 210.303 228.493 209.998 228.869 209.998H229.321C229.696 209.998 230 210.303 230 210.679V211.066C230 211.442 229.696 211.747 229.321 211.747H228.869C228.493 211.747 228.189 211.442 228.189 211.066V210.679Z" fill="white"/>
<path d="M228.869 216.748C228.493 216.748 228.189 217.054 228.189 217.43V217.817C228.189 218.193 228.493 218.498 228.869 218.498H229.321C229.696 218.498 230 218.193 230 217.817V217.43C230 217.054 229.696 216.748 229.321 216.748H228.869Z" fill="white"/>
<path d="M228.189 224.181C228.189 223.804 228.493 223.499 228.869 223.499H229.321C229.696 223.499 230 223.804 230 224.181V224.567C230 224.944 229.696 225.249 229.321 225.249H228.869C228.493 225.249 228.189 224.944 228.189 224.567V224.181Z" fill="white"/>
<path d="M228.869 230.25C228.493 230.25 228.189 230.555 228.189 230.932V231.318C228.189 231.695 228.493 232 228.869 232H229.321C229.696 232 230 231.695 230 231.318V230.932C230 230.555 229.696 230.25 229.321 230.25H228.869Z" fill="white"/>
</g>
<g opacity="0.25">
<path d="M1.67932 1C1.30414 1 1 1.30522 1 1.68173V2.06817C1 2.44468 1.30414 2.7499 1.67932 2.7499H2.1315C2.50667 2.7499 2.81081 2.44468 2.81081 2.06817V1.68173C2.81081 1.30522 2.50667 1 2.1315 1H1.67932Z" fill="white"/>
<path d="M8.9226 1C8.54743 1 8.24328 1.30522 8.24328 1.68173V2.06817C8.24328 2.44468 8.54743 2.7499 8.9226 2.7499H9.37478C9.74996 2.7499 10.0541 2.44468 10.0541 2.06817V1.68173C10.0541 1.30522 9.74996 1 9.37478 1H8.9226Z" fill="white"/>
<path d="M15.4866 1.68173C15.4866 1.30522 15.7907 1 16.1659 1H16.6181C16.9932 1 17.2974 1.30522 17.2974 1.68173V2.06817C17.2974 2.44468 16.9932 2.7499 16.6181 2.7499H16.1659C15.7907 2.7499 15.4866 2.44468 15.4866 2.06817V1.68173Z" fill="white"/>
<path d="M23.409 1C23.0339 1 22.7297 1.30522 22.7297 1.68173V2.06817C22.7297 2.44468 23.0339 2.7499 23.409 2.7499H23.8612C24.2364 2.7499 24.5405 2.44468 24.5405 2.06817V1.68173C24.5405 1.30522 24.2364 1 23.8612 1H23.409Z" fill="white"/>
<path d="M29.973 1.68173C29.973 1.30522 30.2772 1 30.6523 1H31.1045C31.4797 1 31.7838 1.30522 31.7838 1.68173V2.06817C31.7838 2.44468 31.4797 2.7499 31.1045 2.7499H30.6523C30.2772 2.7499 29.973 2.44468 29.973 2.06817V1.68173Z" fill="white"/>
<path d="M37.8956 1C37.5204 1 37.2163 1.30522 37.2163 1.68173V2.06817C37.2163 2.44468 37.5204 2.7499 37.8956 2.7499H38.3478C38.723 2.7499 39.0271 2.44468 39.0271 2.06817V1.68173C39.0271 1.30522 38.723 1 38.3478 1H37.8956Z" fill="white"/>
<path d="M44.4596 1.68173C44.4596 1.30522 44.7637 1 45.1389 1H45.5911C45.9663 1 46.2704 1.30522 46.2704 1.68173V2.06817C46.2704 2.44468 45.9663 2.7499 45.5911 2.7499H45.1389C44.7637 2.7499 44.4596 2.44468 44.4596 2.06817V1.68173Z" fill="white"/>
<path d="M52.3822 1C52.007 1 51.7029 1.30522 51.7029 1.68173V2.06817C51.7029 2.44468 52.007 2.7499 52.3822 2.7499H52.8344C53.2096 2.7499 53.5137 2.44468 53.5137 2.06817V1.68173C53.5137 1.30522 53.2096 1 52.8344 1H52.3822Z" fill="white"/>
<path d="M58.946 1.68173C58.946 1.30522 59.2502 1 59.6253 1H60.0775C60.4527 1 60.7568 1.30522 60.7568 1.68173V2.06817C60.7568 2.44468 60.4527 2.7499 60.0775 2.7499H59.6253C59.2502 2.7499 58.946 2.44468 58.946 2.06817V1.68173Z" fill="white"/>
<path d="M66.8685 1C66.4933 1 66.1892 1.30522 66.1892 1.68173V2.06817C66.1892 2.44468 66.4933 2.7499 66.8685 2.7499H67.3207C67.6959 2.7499 68 2.44468 68 2.06817V1.68173C68 1.30522 67.6959 1 67.3207 1H66.8685Z" fill="white"/>
<path d="M1 8.68131C1 8.3048 1.30414 7.99958 1.67932 7.99958H2.1315C2.50667 7.99958 2.81081 8.3048 2.81081 8.68131V9.06775C2.81081 9.44426 2.50667 9.74948 2.1315 9.74948H1.67932C1.30414 9.74948 1 9.44426 1 9.06775V8.68131Z" fill="white"/>
<path d="M8.9226 7.99958C8.54743 7.99958 8.24328 8.3048 8.24328 8.68131V9.06775C8.24328 9.44426 8.54743 9.74948 8.9226 9.74948H9.37478C9.74996 9.74948 10.0541 9.44426 10.0541 9.06775V8.68131C10.0541 8.3048 9.74996 7.99958 9.37478 7.99958H8.9226Z" fill="white"/>
<path d="M15.4866 8.68131C15.4866 8.3048 15.7907 7.99958 16.1659 7.99958H16.6181C16.9932 7.99958 17.2974 8.3048 17.2974 8.68131V9.06775C17.2974 9.44426 16.9932 9.74948 16.6181 9.74948H16.1659C15.7907 9.74948 15.4866 9.44426 15.4866 9.06775V8.68131Z" fill="white"/>
<path d="M23.409 7.99958C23.0339 7.99958 22.7297 8.3048 22.7297 8.68131V9.06775C22.7297 9.44426 23.0339 9.74948 23.409 9.74948H23.8612C24.2364 9.74948 24.5405 9.44426 24.5405 9.06775V8.68131C24.5405 8.3048 24.2364 7.99958 23.8612 7.99958H23.409Z" fill="white"/>
<path d="M29.973 8.68131C29.973 8.3048 30.2772 7.99958 30.6523 7.99958H31.1045C31.4797 7.99958 31.7838 8.3048 31.7838 8.68131V9.06775C31.7838 9.44426 31.4797 9.74948 31.1045 9.74948H30.6523C30.2772 9.74948 29.973 9.44426 29.973 9.06775V8.68131Z" fill="white"/>
<path d="M37.8956 7.99958C37.5204 7.99958 37.2163 8.3048 37.2163 8.68131V9.06775C37.2163 9.44426 37.5204 9.74948 37.8956 9.74948H38.3478C38.723 9.74948 39.0271 9.44426 39.0271 9.06775V8.68131C39.0271 8.3048 38.723 7.99958 38.3478 7.99958H37.8956Z" fill="white"/>
<path d="M44.4596 8.68131C44.4596 8.3048 44.7637 7.99958 45.1389 7.99958H45.5911C45.9663 7.99958 46.2704 8.3048 46.2704 8.68131V9.06775C46.2704 9.44426 45.9663 9.74948 45.5911 9.74948H45.1389C44.7637 9.74948 44.4596 9.44426 44.4596 9.06775V8.68131Z" fill="white"/>
<path d="M52.3822 7.99958C52.007 7.99958 51.7029 8.3048 51.7029 8.68131V9.06775C51.7029 9.44426 52.007 9.74948 52.3822 9.74948H52.8344C53.2096 9.74948 53.5137 9.44426 53.5137 9.06775V8.68131C53.5137 8.3048 53.2096 7.99958 52.8344 7.99958H52.3822Z" fill="white"/>
<path d="M58.946 8.68131C58.946 8.3048 59.2502 7.99958 59.6253 7.99958H60.0775C60.4527 7.99958 60.7568 8.3048 60.7568 8.68131V9.06775C60.7568 9.44426 60.4527 9.74948 60.0775 9.74948H59.6253C59.2502 9.74948 58.946 9.44426 58.946 9.06775V8.68131Z" fill="white"/>
<path d="M66.8685 7.99958C66.4933 7.99958 66.1892 8.3048 66.1892 8.68131V9.06775C66.1892 9.44426 66.4933 9.74948 66.8685 9.74948H67.3207C67.6959 9.74948 68 9.44426 68 9.06775V8.68131C68 8.3048 67.6959 7.99958 67.3207 7.99958H66.8685Z" fill="white"/>
<path d="M1 15.6809C1 15.3044 1.30414 14.9992 1.67932 14.9992H2.1315C2.50667 14.9992 2.81081 15.3044 2.81081 15.6809V16.0674C2.81081 16.4439 2.50667 16.7491 2.1315 16.7491H1.67932C1.30414 16.7491 1 16.4439 1 16.0674V15.6809Z" fill="white"/>
<path d="M8.9226 14.9992C8.54743 14.9992 8.24328 15.3044 8.24328 15.6809V16.0674C8.24328 16.4439 8.54743 16.7491 8.9226 16.7491H9.37478C9.74996 16.7491 10.0541 16.4439 10.0541 16.0674V15.6809C10.0541 15.3044 9.74996 14.9992 9.37478 14.9992H8.9226Z" fill="white"/>
<path d="M15.4866 15.6809C15.4866 15.3044 15.7907 14.9992 16.1659 14.9992H16.6181C16.9932 14.9992 17.2974 15.3044 17.2974 15.6809V16.0674C17.2974 16.4439 16.9932 16.7491 16.6181 16.7491H16.1659C15.7907 16.7491 15.4866 16.4439 15.4866 16.0674V15.6809Z" fill="white"/>
<path d="M23.409 14.9992C23.0339 14.9992 22.7297 15.3044 22.7297 15.6809V16.0674C22.7297 16.4439 23.0339 16.7491 23.409 16.7491H23.8612C24.2364 16.7491 24.5405 16.4439 24.5405 16.0674V15.6809C24.5405 15.3044 24.2364 14.9992 23.8612 14.9992H23.409Z" fill="white"/>
<path d="M29.973 15.6809C29.973 15.3044 30.2772 14.9992 30.6523 14.9992H31.1045C31.4797 14.9992 31.7838 15.3044 31.7838 15.6809V16.0674C31.7838 16.4439 31.4797 16.7491 31.1045 16.7491H30.6523C30.2772 16.7491 29.973 16.4439 29.973 16.0674V15.6809Z" fill="white"/>
<path d="M37.8956 14.9992C37.5204 14.9992 37.2163 15.3044 37.2163 15.6809V16.0674C37.2163 16.4439 37.5204 16.7491 37.8956 16.7491H38.3478C38.723 16.7491 39.0271 16.4439 39.0271 16.0674V15.6809C39.0271 15.3044 38.723 14.9992 38.3478 14.9992H37.8956Z" fill="white"/>
<path d="M44.4596 15.6809C44.4596 15.3044 44.7637 14.9992 45.1389 14.9992H45.5911C45.9663 14.9992 46.2704 15.3044 46.2704 15.6809V16.0674C46.2704 16.4439 45.9663 16.7491 45.5911 16.7491H45.1389C44.7637 16.7491 44.4596 16.4439 44.4596 16.0674V15.6809Z" fill="white"/>
<path d="M52.3822 14.9992C52.007 14.9992 51.7029 15.3044 51.7029 15.6809V16.0674C51.7029 16.4439 52.007 16.7491 52.3822 16.7491H52.8344C53.2096 16.7491 53.5137 16.4439 53.5137 16.0674V15.6809C53.5137 15.3044 53.2096 14.9992 52.8344 14.9992H52.3822Z" fill="white"/>
<path d="M58.946 15.6809C58.946 15.3044 59.2502 14.9992 59.6253 14.9992H60.0775C60.4527 14.9992 60.7568 15.3044 60.7568 15.6809V16.0674C60.7568 16.4439 60.4527 16.7491 60.0775 16.7491H59.6253C59.2502 16.7491 58.946 16.4439 58.946 16.0674V15.6809Z" fill="white"/>
<path d="M66.8685 14.9992C66.4933 14.9992 66.1892 15.3044 66.1892 15.6809V16.0674C66.1892 16.4439 66.4933 16.7491 66.8685 16.7491H67.3207C67.6959 16.7491 68 16.4439 68 16.0674V15.6809C68 15.3044 67.6959 14.9992 67.3207 14.9992H66.8685Z" fill="white"/>
<path d="M1 22.6805C1 22.304 1.30414 21.9988 1.67932 21.9988H2.1315C2.50667 21.9988 2.81081 22.304 2.81081 22.6805V23.0669C2.81081 23.4434 2.50667 23.7487 2.1315 23.7487H1.67932C1.30414 23.7487 1 23.4434 1 23.0669V22.6805Z" fill="white"/>
<path d="M8.9226 21.9988C8.54743 21.9988 8.24328 22.304 8.24328 22.6805V23.0669C8.24328 23.4434 8.54743 23.7487 8.9226 23.7487H9.37478C9.74996 23.7487 10.0541 23.4434 10.0541 23.0669V22.6805C10.0541 22.304 9.74996 21.9988 9.37478 21.9988H8.9226Z" fill="white"/>
<path d="M15.4866 22.6805C15.4866 22.304 15.7907 21.9988 16.1659 21.9988H16.6181C16.9932 21.9988 17.2974 22.304 17.2974 22.6805V23.0669C17.2974 23.4434 16.9932 23.7487 16.6181 23.7487H16.1659C15.7907 23.7487 15.4866 23.4434 15.4866 23.0669V22.6805Z" fill="white"/>
<path d="M23.409 21.9988C23.0339 21.9988 22.7297 22.304 22.7297 22.6805V23.0669C22.7297 23.4434 23.0339 23.7487 23.409 23.7487H23.8612C24.2364 23.7487 24.5405 23.4434 24.5405 23.0669V22.6805C24.5405 22.304 24.2364 21.9988 23.8612 21.9988H23.409Z" fill="white"/>
<path d="M29.973 22.6805C29.973 22.304 30.2772 21.9988 30.6523 21.9988H31.1045C31.4797 21.9988 31.7838 22.304 31.7838 22.6805V23.0669C31.7838 23.4434 31.4797 23.7487 31.1045 23.7487H30.6523C30.2772 23.7487 29.973 23.4434 29.973 23.0669V22.6805Z" fill="white"/>
<path d="M37.8956 21.9988C37.5204 21.9988 37.2163 22.304 37.2163 22.6805V23.0669C37.2163 23.4434 37.5204 23.7487 37.8956 23.7487H38.3478C38.723 23.7487 39.0271 23.4434 39.0271 23.0669V22.6805C39.0271 22.304 38.723 21.9988 38.3478 21.9988H37.8956Z" fill="white"/>
<path d="M44.4596 22.6805C44.4596 22.304 44.7637 21.9988 45.1389 21.9988H45.5911C45.9663 21.9988 46.2704 22.304 46.2704 22.6805V23.0669C46.2704 23.4434 45.9663 23.7487 45.5911 23.7487H45.1389C44.7637 23.7487 44.4596 23.4434 44.4596 23.0669V22.6805Z" fill="white"/>
<path d="M52.3822 21.9988C52.007 21.9988 51.7029 22.304 51.7029 22.6805V23.0669C51.7029 23.4434 52.007 23.7487 52.3822 23.7487H52.8344C53.2096 23.7487 53.5137 23.4434 53.5137 23.0669V22.6805C53.5137 22.304 53.2096 21.9988 52.8344 21.9988H52.3822Z" fill="white"/>
<path d="M58.946 22.6805C58.946 22.304 59.2502 21.9988 59.6253 21.9988H60.0775C60.4527 21.9988 60.7568 22.304 60.7568 22.6805V23.0669C60.7568 23.4434 60.4527 23.7487 60.0775 23.7487H59.6253C59.2502 23.7487 58.946 23.4434 58.946 23.0669V22.6805Z" fill="white"/>
<path d="M66.8685 21.9988C66.4933 21.9988 66.1892 22.304 66.1892 22.6805V23.0669C66.1892 23.4434 66.4933 23.7487 66.8685 23.7487H67.3207C67.6959 23.7487 68 23.4434 68 23.0669V22.6805C68 22.304 67.6959 21.9988 67.3207 21.9988H66.8685Z" fill="white"/>
<path d="M1 29.6801C1 29.3036 1.30414 28.9984 1.67932 28.9984H2.1315C2.50667 28.9984 2.81081 29.3036 2.81081 29.6801V30.0665C2.81081 30.4431 2.50667 30.7483 2.1315 30.7483H1.67932C1.30414 30.7483 1 30.4431 1 30.0665V29.6801Z" fill="white"/>
<path d="M8.9226 28.9984C8.54743 28.9984 8.24328 29.3036 8.24328 29.6801V30.0665C8.24328 30.4431 8.54743 30.7483 8.9226 30.7483H9.37478C9.74996 30.7483 10.0541 30.4431 10.0541 30.0665V29.6801C10.0541 29.3036 9.74996 28.9984 9.37478 28.9984H8.9226Z" fill="white"/>
<path d="M15.4866 29.6801C15.4866 29.3036 15.7907 28.9984 16.1659 28.9984H16.6181C16.9932 28.9984 17.2974 29.3036 17.2974 29.6801V30.0665C17.2974 30.4431 16.9932 30.7483 16.6181 30.7483H16.1659C15.7907 30.7483 15.4866 30.4431 15.4866 30.0665V29.6801Z" fill="white"/>
<path d="M23.409 28.9984C23.0339 28.9984 22.7297 29.3036 22.7297 29.6801V30.0665C22.7297 30.4431 23.0339 30.7483 23.409 30.7483H23.8612C24.2364 30.7483 24.5405 30.4431 24.5405 30.0665V29.6801C24.5405 29.3036 24.2364 28.9984 23.8612 28.9984H23.409Z" fill="white"/>
<path d="M29.973 29.6801C29.973 29.3036 30.2772 28.9984 30.6523 28.9984H31.1045C31.4797 28.9984 31.7838 29.3036 31.7838 29.6801V30.0665C31.7838 30.4431 31.4797 30.7483 31.1045 30.7483H30.6523C30.2772 30.7483 29.973 30.4431 29.973 30.0665V29.6801Z" fill="white"/>
<path d="M37.8956 28.9984C37.5204 28.9984 37.2163 29.3036 37.2163 29.6801V30.0665C37.2163 30.4431 37.5204 30.7483 37.8956 30.7483H38.3478C38.723 30.7483 39.0271 30.4431 39.0271 30.0665V29.6801C39.0271 29.3036 38.723 28.9984 38.3478 28.9984H37.8956Z" fill="white"/>
<path d="M44.4596 29.6801C44.4596 29.3036 44.7637 28.9984 45.1389 28.9984H45.5911C45.9663 28.9984 46.2704 29.3036 46.2704 29.6801V30.0665C46.2704 30.4431 45.9663 30.7483 45.5911 30.7483H45.1389C44.7637 30.7483 44.4596 30.4431 44.4596 30.0665V29.6801Z" fill="white"/>
<path d="M52.3822 28.9984C52.007 28.9984 51.7029 29.3036 51.7029 29.6801V30.0665C51.7029 30.4431 52.007 30.7483 52.3822 30.7483H52.8344C53.2096 30.7483 53.5137 30.4431 53.5137 30.0665V29.6801C53.5137 29.3036 53.2096 28.9984 52.8344 28.9984H52.3822Z" fill="white"/>
<path d="M58.946 29.6801C58.946 29.3036 59.2502 28.9984 59.6253 28.9984H60.0775C60.4527 28.9984 60.7568 29.3036 60.7568 29.6801V30.0665C60.7568 30.4431 60.4527 30.7483 60.0775 30.7483H59.6253C59.2502 30.7483 58.946 30.4431 58.946 30.0665V29.6801Z" fill="white"/>
<path d="M66.8685 28.9984C66.4933 28.9984 66.1892 29.3036 66.1892 29.6801V30.0665C66.1892 30.4431 66.4933 30.7483 66.8685 30.7483H67.3207C67.6959 30.7483 68 30.4431 68 30.0665V29.6801C68 29.3036 67.6959 28.9984 67.3207 28.9984H66.8685Z" fill="white"/>
<path d="M1 36.6797C1 36.3032 1.30414 35.998 1.67932 35.998H2.1315C2.50667 35.998 2.81081 36.3032 2.81081 36.6797V37.0661C2.81081 37.4426 2.50667 37.7479 2.1315 37.7479H1.67932C1.30414 37.7479 1 37.4426 1 37.0661V36.6797Z" fill="white"/>
<path d="M8.9226 35.998C8.54743 35.998 8.24328 36.3032 8.24328 36.6797V37.0661C8.24328 37.4426 8.54743 37.7479 8.9226 37.7479H9.37478C9.74996 37.7479 10.0541 37.4426 10.0541 37.0661V36.6797C10.0541 36.3032 9.74996 35.998 9.37478 35.998H8.9226Z" fill="white"/>
<path d="M15.4866 36.6797C15.4866 36.3032 15.7907 35.998 16.1659 35.998H16.6181C16.9932 35.998 17.2974 36.3032 17.2974 36.6797V37.0661C17.2974 37.4426 16.9932 37.7479 16.6181 37.7479H16.1659C15.7907 37.7479 15.4866 37.4426 15.4866 37.0661V36.6797Z" fill="white"/>
<path d="M23.409 35.998C23.0339 35.998 22.7297 36.3032 22.7297 36.6797V37.0661C22.7297 37.4426 23.0339 37.7479 23.409 37.7479H23.8612C24.2364 37.7479 24.5405 37.4426 24.5405 37.0661V36.6797C24.5405 36.3032 24.2364 35.998 23.8612 35.998H23.409Z" fill="white"/>
<path d="M29.973 36.6797C29.973 36.3032 30.2772 35.998 30.6523 35.998H31.1045C31.4797 35.998 31.7838 36.3032 31.7838 36.6797V37.0661C31.7838 37.4426 31.4797 37.7479 31.1045 37.7479H30.6523C30.2772 37.7479 29.973 37.4426 29.973 37.0661V36.6797Z" fill="white"/>
<path d="M37.8956 35.998C37.5204 35.998 37.2163 36.3032 37.2163 36.6797V37.0661C37.2163 37.4426 37.5204 37.7479 37.8956 37.7479H38.3478C38.723 37.7479 39.0271 37.4426 39.0271 37.0661V36.6797C39.0271 36.3032 38.723 35.998 38.3478 35.998H37.8956Z" fill="white"/>
<path d="M44.4596 36.6797C44.4596 36.3032 44.7637 35.998 45.1389 35.998H45.5911C45.9663 35.998 46.2704 36.3032 46.2704 36.6797V37.0661C46.2704 37.4426 45.9663 37.7479 45.5911 37.7479H45.1389C44.7637 37.7479 44.4596 37.4426 44.4596 37.0661V36.6797Z" fill="white"/>
<path d="M52.3822 35.998C52.007 35.998 51.7029 36.3032 51.7029 36.6797V37.0661C51.7029 37.4426 52.007 37.7479 52.3822 37.7479H52.8344C53.2096 37.7479 53.5137 37.4426 53.5137 37.0661V36.6797C53.5137 36.3032 53.2096 35.998 52.8344 35.998H52.3822Z" fill="white"/>
<path d="M58.946 36.6797C58.946 36.3032 59.2502 35.998 59.6253 35.998H60.0775C60.4527 35.998 60.7568 36.3032 60.7568 36.6797V37.0661C60.7568 37.4426 60.4527 37.7479 60.0775 37.7479H59.6253C59.2502 37.7479 58.946 37.4426 58.946 37.0661V36.6797Z" fill="white"/>
<path d="M66.8685 35.998C66.4933 35.998 66.1892 36.3032 66.1892 36.6797V37.0661C66.1892 37.4426 66.4933 37.7479 66.8685 37.7479H67.3207C67.6959 37.7479 68 37.4426 68 37.0661V36.6797C68 36.3032 67.6959 35.998 67.3207 35.998H66.8685Z" fill="white"/>
<path d="M1 43.6793C1 43.3028 1.30414 42.9976 1.67932 42.9976H2.1315C2.50667 42.9976 2.81081 43.3028 2.81081 43.6793V44.0657C2.81081 44.4422 2.50667 44.7475 2.1315 44.7475H1.67932C1.30414 44.7475 1 44.4422 1 44.0657V43.6793Z" fill="white"/>
<path d="M1.67932 49.7484C1.30414 49.7484 1 50.0536 1 50.4301V50.8166C1 51.1931 1.30414 51.4983 1.67932 51.4983H2.1315C2.50667 51.4983 2.81081 51.1931 2.81081 50.8166V50.4301C2.81081 50.0536 2.50667 49.7484 2.1315 49.7484H1.67932Z" fill="white"/>
<path d="M1 57.181C1 56.8045 1.30414 56.4993 1.67932 56.4993H2.1315C2.50667 56.4993 2.81081 56.8045 2.81081 57.181V57.5674C2.81081 57.944 2.50667 58.2492 2.1315 58.2492H1.67932C1.30414 58.2492 1 57.944 1 57.5674V57.181Z" fill="white"/>
<path d="M1.67932 63.2501C1.30414 63.2501 1 63.5553 1 63.9318V64.3183C1 64.6948 1.30414 65 1.67932 65H2.1315C2.50667 65 2.81081 64.6948 2.81081 64.3183V63.9318C2.81081 63.5553 2.50667 63.2501 2.1315 63.2501H1.67932Z" fill="white"/>
<path d="M8.24328 43.6793C8.24328 43.3028 8.54743 42.9976 8.9226 42.9976H9.37478C9.74996 42.9976 10.0541 43.3028 10.0541 43.6793V44.0657C10.0541 44.4422 9.74996 44.7475 9.37478 44.7475H8.9226C8.54743 44.7475 8.24328 44.4422 8.24328 44.0657V43.6793Z" fill="white"/>
<path d="M8.9226 49.7484C8.54743 49.7484 8.24328 50.0536 8.24328 50.4301V50.8166C8.24328 51.1931 8.54743 51.4983 8.9226 51.4983H9.37478C9.74996 51.4983 10.0541 51.1931 10.0541 50.8166V50.4301C10.0541 50.0536 9.74996 49.7484 9.37478 49.7484H8.9226Z" fill="white"/>
<path d="M8.24328 57.181C8.24328 56.8045 8.54743 56.4993 8.9226 56.4993H9.37478C9.74996 56.4993 10.0541 56.8045 10.0541 57.181V57.5674C10.0541 57.944 9.74996 58.2492 9.37478 58.2492H8.9226C8.54743 58.2492 8.24328 57.944 8.24328 57.5674V57.181Z" fill="white"/>
<path d="M8.9226 63.2501C8.54743 63.2501 8.24328 63.5553 8.24328 63.9318V64.3183C8.24328 64.6948 8.54743 65 8.9226 65H9.37478C9.74996 65 10.0541 64.6948 10.0541 64.3183V63.9318C10.0541 63.5553 9.74996 63.2501 9.37478 63.2501H8.9226Z" fill="white"/>
<path d="M15.4866 43.6793C15.4866 43.3028 15.7907 42.9976 16.1659 42.9976H16.6181C16.9932 42.9976 17.2974 43.3028 17.2974 43.6793V44.0657C17.2974 44.4422 16.9932 44.7475 16.6181 44.7475H16.1659C15.7907 44.7475 15.4866 44.4422 15.4866 44.0657V43.6793Z" fill="white"/>
<path d="M16.1659 49.7484C15.7907 49.7484 15.4866 50.0536 15.4866 50.4301V50.8166C15.4866 51.1931 15.7907 51.4983 16.1659 51.4983H16.6181C16.9932 51.4983 17.2974 51.1931 17.2974 50.8166V50.4301C17.2974 50.0536 16.9932 49.7484 16.6181 49.7484H16.1659Z" fill="white"/>
<path d="M15.4866 57.181C15.4866 56.8045 15.7907 56.4993 16.1659 56.4993H16.6181C16.9932 56.4993 17.2974 56.8045 17.2974 57.181V57.5674C17.2974 57.944 16.9932 58.2492 16.6181 58.2492H16.1659C15.7907 58.2492 15.4866 57.944 15.4866 57.5674V57.181Z" fill="white"/>
<path d="M16.1659 63.2501C15.7907 63.2501 15.4866 63.5553 15.4866 63.9318V64.3183C15.4866 64.6948 15.7907 65 16.1659 65H16.6181C16.9932 65 17.2974 64.6948 17.2974 64.3183V63.9318C17.2974 63.5553 16.9932 63.2501 16.6181 63.2501H16.1659Z" fill="white"/>
<path d="M22.7297 43.6793C22.7297 43.3028 23.0339 42.9976 23.409 42.9976H23.8612C24.2364 42.9976 24.5405 43.3028 24.5405 43.6793V44.0657C24.5405 44.4422 24.2364 44.7475 23.8612 44.7475H23.409C23.0339 44.7475 22.7297 44.4422 22.7297 44.0657V43.6793Z" fill="white"/>
<path d="M23.409 49.7484C23.0339 49.7484 22.7297 50.0536 22.7297 50.4301V50.8166C22.7297 51.1931 23.0339 51.4983 23.409 51.4983H23.8612C24.2364 51.4983 24.5405 51.1931 24.5405 50.8166V50.4301C24.5405 50.0536 24.2364 49.7484 23.8612 49.7484H23.409Z" fill="white"/>
<path d="M22.7297 57.181C22.7297 56.8045 23.0339 56.4993 23.409 56.4993H23.8612C24.2364 56.4993 24.5405 56.8045 24.5405 57.181V57.5674C24.5405 57.944 24.2364 58.2492 23.8612 58.2492H23.409C23.0339 58.2492 22.7297 57.944 22.7297 57.5674V57.181Z" fill="white"/>
<path d="M23.409 63.2501C23.0339 63.2501 22.7297 63.5553 22.7297 63.9318V64.3183C22.7297 64.6948 23.0339 65 23.409 65H23.8612C24.2364 65 24.5405 64.6948 24.5405 64.3183V63.9318C24.5405 63.5553 24.2364 63.2501 23.8612 63.2501H23.409Z" fill="white"/>
<path d="M29.973 43.6793C29.973 43.3028 30.2772 42.9976 30.6523 42.9976H31.1045C31.4797 42.9976 31.7838 43.3028 31.7838 43.6793V44.0657C31.7838 44.4422 31.4797 44.7475 31.1045 44.7475H30.6523C30.2772 44.7475 29.973 44.4422 29.973 44.0657V43.6793Z" fill="white"/>
<path d="M30.6523 49.7484C30.2772 49.7484 29.973 50.0536 29.973 50.4301V50.8166C29.973 51.1931 30.2772 51.4983 30.6523 51.4983H31.1045C31.4797 51.4983 31.7838 51.1931 31.7838 50.8166V50.4301C31.7838 50.0536 31.4797 49.7484 31.1045 49.7484H30.6523Z" fill="white"/>
<path d="M29.973 57.181C29.973 56.8045 30.2772 56.4993 30.6523 56.4993H31.1045C31.4797 56.4993 31.7838 56.8045 31.7838 57.181V57.5674C31.7838 57.944 31.4797 58.2492 31.1045 58.2492H30.6523C30.2772 58.2492 29.973 57.944 29.973 57.5674V57.181Z" fill="white"/>
<path d="M30.6523 63.2501C30.2772 63.2501 29.973 63.5553 29.973 63.9318V64.3183C29.973 64.6948 30.2772 65 30.6523 65H31.1045C31.4797 65 31.7838 64.6948 31.7838 64.3183V63.9318C31.7838 63.5553 31.4797 63.2501 31.1045 63.2501H30.6523Z" fill="white"/>
<path d="M37.2163 43.6793C37.2163 43.3028 37.5204 42.9976 37.8956 42.9976H38.3478C38.723 42.9976 39.0271 43.3028 39.0271 43.6793V44.0657C39.0271 44.4422 38.723 44.7475 38.3478 44.7475H37.8956C37.5204 44.7475 37.2163 44.4422 37.2163 44.0657V43.6793Z" fill="white"/>
<path d="M37.8956 49.7484C37.5204 49.7484 37.2163 50.0536 37.2163 50.4301V50.8166C37.2163 51.1931 37.5204 51.4983 37.8956 51.4983H38.3478C38.723 51.4983 39.0271 51.1931 39.0271 50.8166V50.4301C39.0271 50.0536 38.723 49.7484 38.3478 49.7484H37.8956Z" fill="white"/>
<path d="M37.2163 57.181C37.2163 56.8045 37.5204 56.4993 37.8956 56.4993H38.3478C38.723 56.4993 39.0271 56.8045 39.0271 57.181V57.5674C39.0271 57.944 38.723 58.2492 38.3478 58.2492H37.8956C37.5204 58.2492 37.2163 57.944 37.2163 57.5674V57.181Z" fill="white"/>
<path d="M37.8956 63.2501C37.5204 63.2501 37.2163 63.5553 37.2163 63.9318V64.3183C37.2163 64.6948 37.5204 65 37.8956 65H38.3478C38.723 65 39.0271 64.6948 39.0271 64.3183V63.9318C39.0271 63.5553 38.723 63.2501 38.3478 63.2501H37.8956Z" fill="white"/>
<path d="M44.4596 43.6793C44.4596 43.3028 44.7637 42.9976 45.1389 42.9976H45.5911C45.9663 42.9976 46.2704 43.3028 46.2704 43.6793V44.0657C46.2704 44.4422 45.9663 44.7475 45.5911 44.7475H45.1389C44.7637 44.7475 44.4596 44.4422 44.4596 44.0657V43.6793Z" fill="white"/>
<path d="M45.1389 49.7484C44.7637 49.7484 44.4596 50.0536 44.4596 50.4301V50.8166C44.4596 51.1931 44.7637 51.4983 45.1389 51.4983H45.5911C45.9663 51.4983 46.2704 51.1931 46.2704 50.8166V50.4301C46.2704 50.0536 45.9663 49.7484 45.5911 49.7484H45.1389Z" fill="white"/>
<path d="M44.4596 57.181C44.4596 56.8045 44.7637 56.4993 45.1389 56.4993H45.5911C45.9663 56.4993 46.2704 56.8045 46.2704 57.181V57.5674C46.2704 57.944 45.9663 58.2492 45.5911 58.2492H45.1389C44.7637 58.2492 44.4596 57.944 44.4596 57.5674V57.181Z" fill="white"/>
<path d="M45.1389 63.2501C44.7637 63.2501 44.4596 63.5553 44.4596 63.9318V64.3183C44.4596 64.6948 44.7637 65 45.1389 65H45.5911C45.9663 65 46.2704 64.6948 46.2704 64.3183V63.9318C46.2704 63.5553 45.9663 63.2501 45.5911 63.2501H45.1389Z" fill="white"/>
<path d="M51.7029 43.6793C51.7029 43.3028 52.007 42.9976 52.3822 42.9976H52.8344C53.2096 42.9976 53.5137 43.3028 53.5137 43.6793V44.0657C53.5137 44.4422 53.2096 44.7475 52.8344 44.7475H52.3822C52.007 44.7475 51.7029 44.4422 51.7029 44.0657V43.6793Z" fill="white"/>
<path d="M52.3822 49.7484C52.007 49.7484 51.7029 50.0536 51.7029 50.4301V50.8166C51.7029 51.1931 52.007 51.4983 52.3822 51.4983H52.8344C53.2096 51.4983 53.5137 51.1931 53.5137 50.8166V50.4301C53.5137 50.0536 53.2096 49.7484 52.8344 49.7484H52.3822Z" fill="white"/>
<path d="M51.7029 57.181C51.7029 56.8045 52.007 56.4993 52.3822 56.4993H52.8344C53.2096 56.4993 53.5137 56.8045 53.5137 57.181V57.5674C53.5137 57.944 53.2096 58.2492 52.8344 58.2492H52.3822C52.007 58.2492 51.7029 57.944 51.7029 57.5674V57.181Z" fill="white"/>
<path d="M52.3822 63.2501C52.007 63.2501 51.7029 63.5553 51.7029 63.9318V64.3183C51.7029 64.6948 52.007 65 52.3822 65H52.8344C53.2096 65 53.5137 64.6948 53.5137 64.3183V63.9318C53.5137 63.5553 53.2096 63.2501 52.8344 63.2501H52.3822Z" fill="white"/>
<path d="M58.946 43.6793C58.946 43.3028 59.2502 42.9976 59.6253 42.9976H60.0775C60.4527 42.9976 60.7568 43.3028 60.7568 43.6793V44.0657C60.7568 44.4422 60.4527 44.7475 60.0775 44.7475H59.6253C59.2502 44.7475 58.946 44.4422 58.946 44.0657V43.6793Z" fill="white"/>
<path d="M59.6253 49.7484C59.2502 49.7484 58.946 50.0536 58.946 50.4301V50.8166C58.946 51.1931 59.2502 51.4983 59.6253 51.4983H60.0775C60.4527 51.4983 60.7568 51.1931 60.7568 50.8166V50.4301C60.7568 50.0536 60.4527 49.7484 60.0775 49.7484H59.6253Z" fill="white"/>
<path d="M58.946 57.181C58.946 56.8045 59.2502 56.4993 59.6253 56.4993H60.0775C60.4527 56.4993 60.7568 56.8045 60.7568 57.181V57.5674C60.7568 57.944 60.4527 58.2492 60.0775 58.2492H59.6253C59.2502 58.2492 58.946 57.944 58.946 57.5674V57.181Z" fill="white"/>
<path d="M59.6253 63.2501C59.2502 63.2501 58.946 63.5553 58.946 63.9318V64.3183C58.946 64.6948 59.2502 65 59.6253 65H60.0775C60.4527 65 60.7568 64.6948 60.7568 64.3183V63.9318C60.7568 63.5553 60.4527 63.2501 60.0775 63.2501H59.6253Z" fill="white"/>
<path d="M66.1892 43.6793C66.1892 43.3028 66.4933 42.9976 66.8685 42.9976H67.3207C67.6959 42.9976 68 43.3028 68 43.6793V44.0657C68 44.4422 67.6959 44.7475 67.3207 44.7475H66.8685C66.4933 44.7475 66.1892 44.4422 66.1892 44.0657V43.6793Z" fill="white"/>
<path d="M66.8685 49.7484C66.4933 49.7484 66.1892 50.0536 66.1892 50.4301V50.8166C66.1892 51.1931 66.4933 51.4983 66.8685 51.4983H67.3207C67.6959 51.4983 68 51.1931 68 50.8166V50.4301C68 50.0536 67.6959 49.7484 67.3207 49.7484H66.8685Z" fill="white"/>
<path d="M66.1892 57.181C66.1892 56.8045 66.4933 56.4993 66.8685 56.4993H67.3207C67.6959 56.4993 68 56.8045 68 57.181V57.5674C68 57.944 67.6959 58.2492 67.3207 58.2492H66.8685C66.4933 58.2492 66.1892 57.944 66.1892 57.5674V57.181Z" fill="white"/>
<path d="M66.8685 63.2501C66.4933 63.2501 66.1892 63.5553 66.1892 63.9318V64.3183C66.1892 64.6948 66.4933 65 66.8685 65H67.3207C67.6959 65 68 64.6948 68 64.3183V63.9318C68 63.5553 67.6959 63.2501 67.3207 63.2501H66.8685Z" fill="white"/>
</g>
</g>
</svg>
