<svg width="65" height="64" viewBox="0 0 65 64" fill="none" xmlns="http://www.w3.org/2000/svg">
<g clip-path="url(#clip0_139_303)">
<path opacity="0.4" d="M64.15 34.375C63.8413 33.68 63.5188 32.875 63.1888 32H39.07C35.3145 31.9903 31.7014 30.5615 28.955 28H4.875C5.77559 33.3474 8.46377 38.2311 12.5 41.8525V64H40.5V56H48.5C50.6217 56 52.6566 55.1571 54.1569 53.6569C55.6571 52.1566 56.5 50.1217 56.5 48V40H60.5C61.1661 39.9992 61.8214 39.832 62.4064 39.5137C62.9915 39.1954 63.4879 38.7361 63.8504 38.1773C64.213 37.6186 64.4303 36.9782 64.4826 36.3142C64.5349 35.6502 64.4206 34.9836 64.15 34.375ZM28.1175 8.60875C29.431 7.15898 31.0333 6 32.8213 5.20629C34.6094 4.41257 36.5437 4.00168 38.5 4H47.5375C43.4132 1.39719 38.6382 0.0107517 33.7612 0L28.5 0C18.055 0 9.1925 6.685 5.895 16H24.645C25.0439 13.2464 26.2526 10.6736 28.1175 8.60875Z" fill="#3ED3F4"/>
<path d="M62.5 8H56.5V28H62.5C63.0304 28 63.5391 27.7893 63.9142 27.4142C64.2893 27.0391 64.5 26.5304 64.5 26V10C64.5 9.46957 64.2893 8.96086 63.9142 8.58579C63.5391 8.21071 63.0304 8 62.5 8ZM28.7 16H2.5C1.96957 16 1.46086 16.2107 1.08579 16.5858C0.710714 16.9609 0.5 17.4696 0.5 18L0.5 22C0.5 22.5304 0.710714 23.0391 1.08579 23.4142C1.46086 23.7893 1.96957 24 2.5 24H30.605C32.5812 26.4637 35.73 28 39.07 28H52.5V8H38.5C36.1947 7.99953 33.96 8.79557 32.1742 10.2534C30.3884 11.7112 29.1611 13.7413 28.7 16Z" fill="#3ED3F4"/>
</g>
<defs>
<clipPath id="clip0_139_303">
<rect width="64" height="64" fill="white" transform="translate(0.5)"/>
</clipPath>
</defs>
</svg>
