<svg width="64" height="64" viewBox="0 0 64 64" fill="none" xmlns="http://www.w3.org/2000/svg">
<path d="M40.0578 32H56.3984V39.5V47C56.3984 48.9891 55.6083 50.8968 54.2017 52.3033C52.7952 53.7098 50.8876 54.5 48.8984 54.5H41.3984V62H15.1484V41.2367C11.3645 37.8416 8.8443 33.2632 8 28.25H30.575C33.1497 30.6514 36.537 31.9909 40.0578 32Z" stroke="#65ECBB" stroke-width="2"/>
<path d="M51.2422 7.15625C44.2109 7.15625 40.2371 6.21875 35.0809 8.09375C28.3694 10.5343 26.9083 14.4185 26.5344 17H8.95625C12.0477 8.26719 20.3563 2 30.1484 2H35.0809C39.653 2.01008 47.4922 2.9375 51.2422 7.15625Z" stroke="#65ECBB" stroke-width="2"/>
</svg>
