<svg width="256" height="256" viewBox="0 0 256 256" fill="none" xmlns="http://www.w3.org/2000/svg">
<rect width="256" height="256" fill="#0A1921"/>
<rect width="256" height="256" fill="url(#paint0_linear_424_921)" fill-opacity="0.4"/>
<g style="mix-blend-mode:screen">
<circle opacity="0.75" cx="153.704" cy="68.854" r="21.5459" transform="rotate(-156.6 153.704 68.854)" fill="#94C0D9"/>
<path opacity="0.75" d="M82.6839 178.783C87.4044 167.874 113.927 133.678 123.803 137.952C133.679 142.225 126.907 184.969 122.187 195.877C117.466 206.785 104.796 211.802 93.8881 207.081C82.9797 202.361 77.9634 189.691 82.6839 178.783Z" fill="#00709F"/>
<path opacity="0.75" d="M178.782 173.533C167.873 168.813 133.677 142.29 137.951 132.414C142.224 122.538 184.968 129.31 195.876 134.03C206.784 138.751 211.801 151.421 207.08 162.329C202.36 173.237 189.69 178.254 178.782 173.533Z" fill="#94C0D9"/>
<path opacity="0.75" d="M77.3691 82.7479C88.2775 87.4683 122.474 113.991 118.2 123.867C113.927 133.743 71.1831 126.971 60.2748 122.251C49.3664 117.53 44.3501 104.86 49.0706 93.952C53.7911 83.0437 66.4608 78.0274 77.3691 82.7479Z" fill="#94C0D9"/>
<path d="M80.4407 176.54C85.1612 165.631 111.684 131.435 121.56 135.708C131.436 139.982 124.664 182.726 119.943 193.634C115.223 204.542 102.553 209.559 91.6449 204.838C80.7365 200.118 75.7203 187.448 80.4407 176.54Z" fill="#57C3CA"/>
<path fill-rule="evenodd" clip-rule="evenodd" d="M131.687 58.0541C136.413 47.1333 149.097 42.1113 160.018 46.8371C170.938 51.563 175.96 64.2471 171.235 75.1679C166.509 86.0887 153.825 91.1107 142.904 86.3848C131.983 81.659 126.961 68.9748 131.687 58.0541ZM176.539 171.29C165.63 166.57 131.434 140.047 135.708 130.171C139.981 120.295 182.725 127.067 193.633 131.787C204.542 136.508 209.558 149.178 204.837 160.086C200.117 170.994 187.447 176.011 176.539 171.29ZM115.957 121.624C120.231 111.748 86.0344 85.2252 75.126 80.5047C64.2177 75.7842 51.548 80.8005 46.8275 91.7089C42.107 102.617 47.1233 115.287 58.0317 120.007C68.9401 124.728 111.684 131.5 115.957 121.624Z" fill="#D7EFF4"/>
</g>
<defs>
<linearGradient id="paint0_linear_424_921" x1="128" y1="0" x2="128" y2="256" gradientUnits="userSpaceOnUse">
<stop stop-color="#5D82AF"/>
<stop offset="1" stop-color="#181F31"/>
</linearGradient>
</defs>
</svg>
